<svg xmlns="http://www.w3.org/2000/svg" viewBox="0 0 48 48">
  <path fill="currentColor" fill-rule="evenodd" clip-rule="evenodd"
    d="M1.60701 2.17809C1.81134 2.05551 2.04644 1.9939 2.28463 2.00048C2.47304 2.00554 2.65787 2.05317 2.82529 2.13976C2.99271 2.22634 3.13839 2.34964 3.25142 2.50048L6.68502 6.94188C6.99573 6.83318 7.32473 6.76421 7.6733 6.76421H39.6733C40.0212 6.76421 40.3494 6.83398 40.6596 6.94188L44.0913 2.50048C44.2006 2.35474 44.3404 2.23469 44.501 2.14867C44.6616 2.06265 44.8391 2.01274 45.021 2.00249C45.2619 1.98874 45.5017 2.045 45.7114 2.16454C45.9211 2.28408 46.0916 2.46177 46.2025 2.67614C46.3134 2.8905 46.3599 3.13241 46.3364 3.37261C46.3128 3.61281 46.2202 3.84104 46.0698 4.02977L42.4682 8.68999C42.5962 9.02419 42.6733 9.38391 42.6733 9.76421V9.89897V12.7642V16.7642C42.6733 18.4262 41.3353 19.7642 39.6733 19.7642H7.6733C6.0113 19.7642 4.6733 18.4262 4.6733 16.7642V16.6294V13.7642V9.76421C4.6733 9.38541 4.74943 9.027 4.87642 8.6939L1.27291 4.02977C1.1243 3.84351 1.03203 3.61865 1.00695 3.3817C0.981864 3.14475 1.02502 2.90561 1.13133 2.69237C1.23765 2.47913 1.40269 2.30067 1.60701 2.17809ZM7.06783 20.8251C7.26347 20.7851 7.46555 20.7642 7.6733 20.7642L39.6733 20.7638C39.881 20.7638 40.0831 20.7859 40.2788 20.8249C41.6483 21.101 42.6733 22.2947 42.6733 23.735V23.764V43.764C42.6733 45.426 41.3353 46.764 39.6733 46.764H7.6733C6.0113 46.764 4.6733 45.426 4.6733 43.764V43.5726V43.5436V23.7643V23.7353C4.6733 22.295 5.69832 21.1012 7.06783 20.8251ZM17.4129 13.8778C17.4129 15.7418 15.9018 17.2528 14.0379 17.2528C12.1739 17.2528 10.6629 15.7418 10.6629 13.8778C10.6629 12.0138 12.1739 10.5028 14.0379 10.5028C15.9018 10.5028 17.4129 12.0138 17.4129 13.8778ZM33.5379 17.2528C35.4018 17.2528 36.9129 15.7418 36.9129 13.8778C36.9129 12.0138 35.4018 10.5028 33.5379 10.5028C31.6739 10.5028 30.1629 12.0138 30.1629 13.8778C30.1629 15.7418 31.6739 17.2528 33.5379 17.2528ZM23.6629 25.1528C18.9132 25.1528 15.0629 29.0031 15.0629 33.7528C15.0629 38.5024 18.9132 42.3528 23.6629 42.3528C28.4125 42.3528 32.2629 38.5024 32.2629 33.7528C32.2629 29.0031 28.4125 25.1528 23.6629 25.1528ZM13.1629 33.7528C13.1629 27.9538 17.8639 23.2528 23.6629 23.2528C29.4619 23.2528 34.1629 27.9538 34.1629 33.7528C34.1629 39.5518 29.4619 44.2528 23.6629 44.2528C17.8639 44.2528 13.1629 39.5518 13.1629 33.7528ZM23.6629 27.5028C20.7822 27.5028 18.3431 29.4874 17.6297 32.1532H20.8426C21.3969 31.1678 22.4377 30.5028 23.6629 30.5028C25.4756 30.5028 26.9129 31.9401 26.9129 33.7528C26.9129 35.5655 25.4756 37.0028 23.6629 37.0028C22.3555 37.0028 21.2516 36.2501 20.7332 35.1532H17.5789C18.2211 37.9189 20.7108 40.0028 23.6629 40.0028C27.0969 40.0028 29.9129 37.1868 29.9129 33.7528C29.9129 30.3188 27.0969 27.5028 23.6629 27.5028Z"></path>
</svg>