<svg width="20" height="18" viewBox="0 0 20 18" fill="none" xmlns="http://www.w3.org/2000/svg">
<path d="M14.3391 6.6548L20.0061 3.3848L14.3391 0.112549V2.13755C12.1416 2.4188 10.6604 4.11755 9.23162 5.8523C9.64112 6.37955 10.0416 6.9158 10.4354 7.44755L10.8659 8.02505C11.4674 7.2428 12.0539 6.52505 12.6209 5.97005C13.2846 5.3063 13.8764 4.9253 14.3399 4.77905V6.65405L14.3391 6.6548ZM11.2454 9.75455C9.82638 7.97705 8.38488 5.73905 6.73938 4.1018C5.64437 3.0293 4.37313 2.10305 2.73438 2.0813H0.109375V4.7063H2.73438C3.46188 4.6163 4.86812 5.70605 6.26837 7.5338C7.68962 9.3128 9.12963 11.55 10.7759 13.1873C11.7711 14.16 12.9119 15.0068 14.3399 15.171V17.1548L20.0069 13.8825L14.3399 10.611V12.5123C13.5599 12.2573 12.4049 11.265 11.2461 9.7523L11.2454 9.75455Z" fill="#0891B2"/>
</svg>
