<svg width="18" height="18" viewBox="0 0 18 18" fill="none" xmlns="http://www.w3.org/2000/svg">
<path d="M12.5256 7.86011C12.6856 6.79611 11.8746 6.22311 10.7666 5.84111L11.1256 4.40011L10.2476 4.18211L9.89755 5.58211C9.66755 5.52411 9.43055 5.47011 9.19755 5.41611L9.55055 4.00311L8.66955 3.78711L8.30955 5.22911L6.53955 4.79011L6.30655 5.72811C6.30655 5.72811 6.95755 5.87711 6.94355 5.88611C7.0651 5.90068 7.17606 5.9624 7.25255 6.05797C7.32905 6.15354 7.36496 6.27533 7.35255 6.39711L6.36755 10.3471C6.35503 10.3871 6.33474 10.4242 6.30786 10.4564C6.28097 10.4885 6.24801 10.5151 6.21086 10.5345C6.17372 10.5539 6.13311 10.5658 6.09136 10.5695C6.04961 10.5732 6.00754 10.5687 5.96755 10.5561C5.97655 10.5691 5.32955 10.3971 5.32955 10.3971L4.89355 11.3971L6.66155 11.8431L6.29955 13.3071L7.17655 13.5251L7.53655 12.0821C7.77555 12.1471 8.00855 12.2071 8.23655 12.2641L7.87455 13.7001L8.75155 13.9191L9.11555 12.4631C10.6156 12.7461 11.7376 12.6321 12.2156 11.2781C12.3126 11.0871 12.3686 10.8779 12.3802 10.664C12.3917 10.45 12.3585 10.236 12.2827 10.0356C12.2068 9.83526 12.09 9.65291 11.9396 9.50026C11.7893 9.34761 11.6088 9.22801 11.4096 9.14911C11.7115 9.08711 11.9846 8.92716 12.1864 8.69409C12.3882 8.46102 12.5074 8.16786 12.5256 7.86011ZM10.5256 10.6731C10.2536 11.7631 8.41855 11.1731 7.82555 11.0261L8.29955 9.09311C8.89955 9.24211 10.7996 9.53611 10.5206 10.6731H10.5256ZM10.7966 7.84411C10.5496 8.83611 9.02155 8.33211 8.52555 8.20911L8.96255 6.45611C9.45355 6.58011 11.0496 6.81011 10.7916 7.84411H10.7966Z" fill="white" fill-opacity="0.3"/>
<path d="M9 16.5C13.1421 16.5 16.5 13.1421 16.5 9C16.5 4.85786 13.1421 1.5 9 1.5C4.85786 1.5 1.5 4.85786 1.5 9C1.5 13.1421 4.85786 16.5 9 16.5Z" stroke="white" stroke-opacity="0.3" stroke-width="1.5" stroke-miterlimit="10" stroke-linecap="square" stroke-linejoin="round"/>
<rect x="2.06055" y="2.06079" width="20.0226" height="1.5" rx="0.75" transform="rotate(45 2.06055 2.06079)" fill="none"/>
<rect x="3.12109" y="1" width="20.0227" height="1.5" rx="0.75" transform="rotate(45 3.12109 1)" fill="white"/>
</svg>
