<svg width="32" height="43" viewBox="0 0 32 43" fill="none" xmlns="http://www.w3.org/2000/svg">
<g clip-path="url(#clip0_321_128)">
<path d="M15.8361 0.131836C8.05161 0.131836 0 6.08 0 16.0333C0 26.461 14.7227 41.3035 15.3493 41.9301C15.478 42.0595 15.6536 42.1318 15.8361 42.1318C16.0185 42.1318 16.1941 42.0595 16.3229 41.9301C16.9494 41.3035 31.6721 26.461 31.6721 16.0333C31.6721 6.08 23.6205 0.131836 15.8361 0.131836ZM15.8361 21.4761C12.7942 21.4761 10.3279 19.0098 10.3279 15.9679C10.3279 12.926 12.7942 10.4597 15.8361 10.4597C18.878 10.4597 21.3443 12.926 21.3443 15.9679C21.3443 19.0098 18.878 21.4761 15.8361 21.4761Z" fill="#0E95AF"/>
<path d="M15.8393 22.8564C19.6419 22.8564 22.7246 19.7738 22.7246 15.9712C22.7246 12.1686 19.6419 9.08594 15.8393 9.08594C12.0367 9.08594 8.95407 12.1686 8.95407 15.9712C8.95407 19.7738 12.0367 22.8564 15.8393 22.8564Z" fill="#0E95AF"/>
</g>
<defs>
<clipPath id="clip0_321_128">
<rect width="32" height="43" fill="white"/>
</clipPath>
</defs>
</svg>
