<svg width="16" height="16" viewBox="0 0 16 16" fill="none" xmlns="http://www.w3.org/2000/svg">
<path fill-rule="evenodd" clip-rule="evenodd" d="M0 3.22957C0 1.44593 1.44593 0 3.22957 0H5.13774C5.86753 0 6.45915 0.591613 6.45915 1.32141C6.45915 2.0512 5.86753 2.64281 5.13774 2.64281H3.22957C2.90551 2.64281 2.64281 2.90551 2.64281 3.22957V5.13774C2.64281 5.86753 2.0512 6.45915 1.32141 6.45915C0.591613 6.45915 0 5.86753 0 5.13774V3.22957Z" fill="#5F5F5F"/>
<path fill-rule="evenodd" clip-rule="evenodd" d="M0 12.7704C0 14.5541 1.44593 16 3.22957 16H5.13774C5.86753 16 6.45915 15.4084 6.45915 14.6786C6.45915 13.9488 5.86753 13.3572 5.13774 13.3572H3.22957C2.90551 13.3572 2.64281 13.0945 2.64281 12.7704V10.8623C2.64281 10.1325 2.0512 9.54085 1.32141 9.54085C0.591613 9.54085 0 10.1325 0 10.8623V12.7704Z" fill="#5F5F5F"/>
<path fill-rule="evenodd" clip-rule="evenodd" d="M16 3.22957C16 1.44593 14.5541 0 12.7704 0H10.8623C10.1325 0 9.54085 0.591613 9.54085 1.32141C9.54085 2.0512 10.1325 2.64281 10.8623 2.64281H12.7704C13.0945 2.64281 13.3572 2.90551 13.3572 3.22957V5.13774C13.3572 5.86753 13.9488 6.45915 14.6786 6.45915C15.4084 6.45915 16 5.86753 16 5.13774V3.22957Z" fill="#5F5F5F"/>
<path fill-rule="evenodd" clip-rule="evenodd" d="M16 12.7704C16 14.5541 14.5541 16 12.7704 16H10.8623C10.1325 16 9.54085 15.4084 9.54085 14.6786C9.54085 13.9488 10.1325 13.3572 10.8623 13.3572H12.7704C13.0945 13.3572 13.3572 13.0945 13.3572 12.7704V10.8623C13.3572 10.1325 13.9488 9.54085 14.6786 9.54085C15.4084 9.54085 16 10.1325 16 10.8623V12.7704Z" fill="#5F5F5F"/>
</svg>
