<svg width="32" height="43" viewBox="0 0 32 43" fill="none" xmlns="http://www.w3.org/2000/svg">
<path d="M15.8361 0.131836C8.05161 0.131836 0 6.08 0 16.0333C0 26.461 14.7227 41.3035 15.3493 41.9301C15.478 42.0595 15.6536 42.1318 15.8361 42.1318C16.0185 42.1318 16.1941 42.0595 16.3229 41.9301C16.9494 41.3035 31.6721 26.461 31.6721 16.0333C31.6721 6.08 23.6205 0.131836 15.8361 0.131836ZM15.8361 21.4761C12.7942 21.4761 10.3279 19.0098 10.3279 15.9679C10.3279 12.926 12.7942 10.4597 15.8361 10.4597C18.878 10.4597 21.3443 12.926 21.3443 15.9679C21.3443 19.0098 18.878 21.4761 15.8361 21.4761Z" fill="#0E95AF"/>
<circle cx="15.8393" cy="15.9712" r="6.88524" fill="white"/>
<g clip-path="url(#clip0_934_2483)">
<path d="M18.1261 16.2542C18.6684 16.1478 19.0791 15.8145 19.1937 15.1067C19.3517 14.1397 18.5909 13.5974 17.5478 13.2215L17.8976 11.9152L17.0708 11.6937L16.7297 12.9655C16.5122 12.9072 16.2893 12.8519 16.0674 12.797L16.4102 11.5169L15.5841 11.2955L15.2341 12.6013C15.0541 12.5569 14.8774 12.5131 14.7057 12.4671L14.7067 12.4632L13.5664 12.1572L13.339 13.0063C13.339 13.0063 13.9526 13.1589 13.9397 13.1669C14.2744 13.2568 14.3336 13.4731 14.3218 13.6429L13.9233 15.1311L13.3632 17.2213C13.3214 17.3186 13.216 17.4639 12.9818 17.4014C12.99 17.4133 12.3803 17.2402 12.3803 17.2402L11.9619 18.1457L13.0378 18.4339C13.2382 18.4879 13.4343 18.5437 13.6272 18.5969L13.2739 19.9181L14.0998 20.1396L14.4498 18.8324C14.6758 18.8978 14.8946 18.9585 15.1089 19.0156L14.7601 20.3166L15.5869 20.5381L15.9407 19.2194C17.3512 19.5151 18.4144 19.439 18.8717 18.2161C19.2401 17.2315 18.8664 16.6478 18.1261 16.2542ZM15.8367 13.737C16.3031 13.8619 17.8079 14.1121 17.5571 15.0491C17.3162 15.9473 15.8782 15.4495 15.4114 15.3244L15.8367 13.737V13.737ZM14.7273 17.876L15.1966 16.1258C15.757 16.2758 17.5558 16.5918 17.2801 17.6217C17.0157 18.6093 15.288 18.0259 14.7273 17.876Z" fill="#0099AF"/>
</g>
<defs>
<clipPath id="clip0_934_2483">
<rect width="7.2873" height="9.23058" fill="white" transform="translate(13.6514 10.6211) rotate(15)"/>
</clipPath>
</defs>
</svg>
