<svg width="16" height="16" viewBox="0 0 16 16" fill="none" xmlns="http://www.w3.org/2000/svg">
<g clip-path="url(#clip0_582_1505)">
<path d="M12.3562 15.8C12.1986 15.8 12.0432 15.7623 11.9032 15.69C11.6673 15.5694 11.4889 15.3601 11.4072 15.1081C11.3255 14.8562 11.347 14.582 11.4672 14.346C12.4767 12.383 13.0023 10.2072 13.0002 7.99995C13.0024 5.79234 12.4768 3.61618 11.4672 1.65295C11.3561 1.41786 11.3409 1.14872 11.4249 0.902613C11.5089 0.656509 11.6854 0.4528 11.9171 0.334689C12.1487 0.216578 12.4173 0.193356 12.6658 0.269947C12.9143 0.346538 13.1232 0.516919 13.2482 0.744953C14.4028 2.98881 15.0036 5.47645 15.0002 7.99995C15.0036 10.5235 14.4028 13.0111 13.2482 15.255C13.1643 15.4192 13.0365 15.5571 12.8791 15.6533C12.7217 15.7495 12.5407 15.8002 12.3562 15.8Z" fill="#1C4347" fill-opacity="0.3"/>
<path d="M8.74526 14.0901C8.57328 14.0899 8.40424 14.0454 8.25447 13.9609C8.10471 13.8763 7.97928 13.7546 7.89031 13.6074C7.80134 13.4602 7.75183 13.2926 7.74656 13.1207C7.7413 12.9488 7.78046 12.7784 7.86026 12.6261C8.61231 11.2003 9.00372 9.61202 9.00026 8.00006C9.00372 6.3881 8.61231 4.79983 7.86026 3.37406C7.7372 3.13908 7.71252 2.86483 7.79166 2.61166C7.8708 2.35849 8.04728 2.14712 8.28226 2.02406C8.51724 1.901 8.79148 1.87632 9.04466 1.95547C9.29783 2.03461 9.5092 2.21108 9.63226 2.44606C10.5284 4.1604 10.9977 6.06564 11.0003 8.00006C10.9977 9.93448 10.5284 11.8397 9.63226 13.5541C9.54748 13.7159 9.41999 13.8514 9.26361 13.9459C9.10724 14.0404 8.92797 14.0903 8.74526 14.0901Z" fill="#1C4347" fill-opacity="0.3"/>
<path d="M5.12943 12.3781C4.95641 12.3773 4.78653 12.3317 4.63642 12.2456C4.48631 12.1595 4.3611 12.036 4.27303 11.8871C4.18495 11.7381 4.13703 11.5689 4.13395 11.3959C4.13086 11.2229 4.17272 11.052 4.25543 10.9001C4.74444 10.0117 5.00073 9.01409 5.00043 8.00006C4.99989 6.98771 4.74363 5.99191 4.25543 5.10506C4.13189 4.87322 4.10453 4.60208 4.17928 4.35023C4.25403 4.09839 4.42488 3.88607 4.6549 3.75918C4.88492 3.63228 5.15563 3.60099 5.40853 3.67207C5.66144 3.74316 5.87621 3.9109 6.00643 4.13906C6.65793 5.32169 6.99986 6.64984 7.00043 8.00006C6.99986 9.35027 6.65793 10.6784 6.00643 11.8611C5.91994 12.0179 5.79292 12.1486 5.63865 12.2395C5.48438 12.3305 5.30852 12.3783 5.12943 12.3781Z" fill="#1C4347" fill-opacity="0.3"/>
<path d="M1.50037 10.6571C1.30305 10.6578 1.11007 10.5992 0.946369 10.4891C0.836581 10.4164 0.742217 10.3228 0.668692 10.2136C0.595166 10.1044 0.543926 9.98177 0.517912 9.85272C0.491897 9.72367 0.49162 9.59075 0.517096 9.46159C0.542572 9.33244 0.5933 9.20958 0.666369 9.10007C0.883819 8.7744 1.00003 8.39167 1.00037 8.00007C1.00003 7.60848 0.883819 7.22574 0.666369 6.90007C0.519041 6.67928 0.465457 6.409 0.517405 6.1487C0.569352 5.8884 0.722576 5.6594 0.943369 5.51207C1.16416 5.36474 1.43444 5.31116 1.69474 5.36311C1.95504 5.41506 2.18404 5.56828 2.33137 5.78907C2.76838 6.44357 3.00121 7.21309 3.00037 8.00007C3.00121 8.78706 2.76838 9.55657 2.33137 10.2111C2.24023 10.348 2.11671 10.4604 1.97175 10.5382C1.82679 10.616 1.66488 10.6568 1.50037 10.6571Z" fill="#1C4347" fill-opacity="0.3"/>
<rect x="1.06055" y="1.06079" width="20.0226" height="1.5" rx="0.75" transform="rotate(45 1.06055 1.06079)" fill="white"/>
<rect x="2.12109" width="20.0227" height="1.5" rx="0.75" transform="rotate(45 2.12109 0)" fill="#BBC7C8"/>
</g>
<defs>
<clipPath id="clip0_582_1505">
<rect width="16" height="16" fill="white"/>
</clipPath>
</defs>
</svg>
