<svg width="16" height="16" viewBox="0 0 16 16" fill="none" xmlns="http://www.w3.org/2000/svg">
<path d="M12.3557 15.8C12.1981 15.8 12.0427 15.7623 11.9027 15.69C11.6668 15.5694 11.4885 15.3601 11.4067 15.1081C11.325 14.8562 11.3465 14.582 11.4667 14.346C12.4762 12.383 13.0018 10.2072 12.9997 7.99995C13.0019 5.79234 12.4763 3.61618 11.4667 1.65295C11.3556 1.41786 11.3404 1.14872 11.4244 0.902613C11.5084 0.656509 11.6849 0.4528 11.9166 0.334689C12.1483 0.216578 12.4168 0.193356 12.6653 0.269947C12.9138 0.346538 13.1227 0.516919 13.2477 0.744953C14.4023 2.98881 15.0031 5.47645 14.9997 7.99995C15.0031 10.5235 14.4023 13.0111 13.2477 15.255C13.1638 15.4192 13.036 15.5571 12.8786 15.6533C12.7212 15.7495 12.5402 15.8002 12.3557 15.8Z" fill="black"/>
<path d="M8.74477 14.0901C8.57279 14.0899 8.40375 14.0454 8.25398 13.9609C8.10422 13.8763 7.97879 13.7546 7.88982 13.6074C7.80085 13.4602 7.75134 13.2926 7.74607 13.1207C7.74081 12.9488 7.77997 12.7784 7.85977 12.6261C8.61183 11.2003 9.00323 9.61202 8.99977 8.00006C9.00323 6.3881 8.61183 4.79983 7.85977 3.37406C7.73671 3.13908 7.71204 2.86483 7.79118 2.61166C7.87032 2.35849 8.04679 2.14712 8.28177 2.02406C8.51675 1.901 8.791 1.87632 9.04417 1.95547C9.29734 2.03461 9.50871 2.21108 9.63177 2.44606C10.5279 4.1604 10.9972 6.06564 10.9998 8.00006C10.9972 9.93448 10.5279 11.8397 9.63177 13.5541C9.54699 13.7159 9.4195 13.8514 9.26312 13.9459C9.10675 14.0404 8.92748 14.0903 8.74477 14.0901Z" fill="black"/>
<path d="M5.12895 12.3781C4.95592 12.3773 4.78604 12.3317 4.63593 12.2456C4.48582 12.1595 4.36061 12.036 4.27254 11.8871C4.18446 11.7381 4.13654 11.5689 4.13346 11.3959C4.13038 11.2229 4.17224 11.052 4.25495 10.9001C4.74395 10.0117 5.00024 9.01409 4.99995 8.00006C4.9994 6.98771 4.74314 5.99191 4.25495 5.10506C4.1314 4.87322 4.10405 4.60208 4.17879 4.35023C4.25354 4.09839 4.42439 3.88607 4.65441 3.75918C4.88443 3.63228 5.15514 3.60099 5.40805 3.67207C5.66095 3.74316 5.87572 3.9109 6.00595 4.13906C6.65744 5.32169 6.99937 6.64984 6.99995 8.00006C6.99937 9.35027 6.65744 10.6784 6.00595 11.8611C5.91945 12.0179 5.79243 12.1486 5.63816 12.2395C5.48389 12.3305 5.30803 12.3783 5.12895 12.3781Z" fill="black"/>
<path d="M1.49988 10.6571C1.30256 10.6578 1.10958 10.5992 0.945881 10.4891C0.836092 10.4164 0.741729 10.3228 0.668203 10.2136C0.594678 10.1044 0.543438 9.98177 0.517424 9.85272C0.491409 9.72367 0.491132 9.59075 0.516608 9.46159C0.542084 9.33244 0.592811 9.20958 0.665881 9.10007C0.883331 8.7744 0.999544 8.39167 0.999881 8.00007C0.999544 7.60848 0.883331 7.22574 0.665881 6.90007C0.518553 6.67928 0.464969 6.409 0.516916 6.1487C0.568864 5.8884 0.722088 5.6594 0.942881 5.51207C1.16367 5.36474 1.43395 5.31116 1.69425 5.36311C1.95455 5.41506 2.18355 5.56828 2.33088 5.78907C2.76789 6.44357 3.00073 7.21309 2.99988 8.00007C3.00073 8.78706 2.76789 9.55657 2.33088 10.2111C2.23974 10.348 2.11622 10.4604 1.97126 10.5382C1.82631 10.616 1.66439 10.6568 1.49988 10.6571Z" fill="black"/>
</svg>
