<svg width="32" height="43" viewBox="0 0 32 43" fill="none" xmlns="http://www.w3.org/2000/svg">
<path d="M0 16.0333C0 6.08 8.05161 0.131836 15.8361 0.131836C23.6205 0.131836 31.6721 6.08 31.6721 16.0333C31.6721 26.461 16.9494 41.3035 16.3229 41.9301C16.1941 42.0595 16.0185 42.1318 15.8361 42.1318C15.6536 42.1318 15.478 42.0595 15.3493 41.9301C14.7227 41.3035 0 26.461 0 16.0333Z" fill="#0E95AF"/>
<path d="M19.613 14.1698C19.7997 12.9285 18.8535 12.26 17.5609 11.8143L17.9797 10.1331L16.9554 9.8788L16.547 11.5121C16.2787 11.4445 16.0022 11.3815 15.7303 11.3185L16.1422 9.66997L15.1143 9.41797L14.6943 11.1003L12.6293 10.5881L12.3575 11.6825C12.3575 11.6825 13.117 11.8563 13.1007 11.8668C13.2425 11.8838 13.3719 11.9558 13.4612 12.0673C13.5504 12.1788 13.5923 12.3209 13.5778 12.463L12.4287 17.0713C12.414 17.118 12.3904 17.1612 12.359 17.1988C12.3276 17.2363 12.2892 17.2673 12.2458 17.2899C12.2025 17.3126 12.1551 17.3264 12.1064 17.3308C12.0577 17.3351 12.0086 17.3298 11.962 17.3151C11.9725 17.3303 11.2177 17.1296 11.2177 17.1296L10.709 18.2963L12.7717 18.8166L12.3493 20.5246L13.3725 20.779L13.7925 19.0955C14.0713 19.1713 14.3432 19.2413 14.6092 19.3078L14.1868 20.9831L15.21 21.2386L15.6347 19.54C17.3847 19.8701 18.6937 19.7371 19.2514 18.1575C19.3645 17.9346 19.4299 17.6906 19.4434 17.441C19.4568 17.1913 19.4181 16.9417 19.3297 16.7079C19.2411 16.4741 19.1048 16.2614 18.9294 16.0833C18.754 15.9052 18.5434 15.7657 18.311 15.6736C18.6633 15.6013 18.9819 15.4147 19.2173 15.1428C19.4527 14.8709 19.5918 14.5288 19.613 14.1698ZM17.2797 17.4516C16.9624 18.7233 14.8215 18.035 14.1297 17.8635L14.6827 15.6083C15.3827 15.7821 17.5994 16.1251 17.2739 17.4516H17.2797ZM17.5959 14.1511C17.3077 15.3085 15.525 14.7205 14.9463 14.577L15.4562 12.5318C16.029 12.6765 17.891 12.9448 17.59 14.1511H17.5959Z" fill="white"/>
<path d="M15.5 24.25C20.3324 24.25 24.25 20.3324 24.25 15.5C24.25 10.6675 20.3324 6.75 15.5 6.75C10.6675 6.75 6.75 10.6675 6.75 15.5C6.75 20.3324 10.6675 24.25 15.5 24.25Z" stroke="white" stroke-width="1.5" stroke-miterlimit="10" stroke-linecap="square" stroke-linejoin="round"/>
</svg>
