<svg width="65" height="64" viewBox="0 0 65 64" fill="none" xmlns="http://www.w3.org/2000/svg">
<g clip-path="url(#clip0_2020_5401)">
<path fill-rule="evenodd" clip-rule="evenodd" d="M8.50195 24.2044C8.50195 9.46299 20.702 0.618164 32.502 0.618164C44.302 0.618164 56.502 9.46299 56.502 24.2044C56.502 38.3561 34.902 59.9768 33.902 60.9596C33.502 61.3527 33.102 61.5492 32.502 61.5492C31.902 61.5492 31.502 61.3527 31.102 60.9596C30.102 59.9768 8.50195 38.1595 8.50195 24.2044Z" fill="#0B9072"/>
<path d="M25.5809 39.6754L25.5969 36.7026L35.6183 27.7201C36.4281 27.0062 36.9768 26.3242 37.2645 25.6742C37.5629 25.0243 37.7121 24.3743 37.7121 23.7243C37.7121 22.9038 37.5309 22.1686 37.1686 21.5186C36.8063 20.858 36.3055 20.3359 35.6662 19.9523C35.0269 19.5687 34.2917 19.3769 33.4606 19.3769C32.6081 19.3769 31.8463 19.5794 31.175 19.9843C30.5143 20.3785 29.9976 20.906 29.6246 21.5666C29.2517 22.2272 29.0705 22.9411 29.0812 23.7083H25.6608C25.6608 22.2166 25.9965 20.9113 26.6677 19.7925C27.3497 18.663 28.282 17.7839 29.4648 17.1553C30.6475 16.5159 32.0008 16.1963 33.5245 16.1963C34.9736 16.1963 36.2736 16.5266 37.4244 17.1872C38.5751 17.8372 39.4809 18.7323 40.1415 19.8724C40.8128 21.0125 41.1484 22.3125 41.1484 23.7723C41.1484 24.8271 41.0099 25.7222 40.7329 26.4574C40.4558 27.1926 40.0403 27.8746 39.4862 28.5032C38.9321 29.1319 38.2395 29.8139 37.4084 30.5491L29.6726 37.4538L29.305 36.4948H41.1484V39.6754H25.5809Z" fill="white"/>
</g>
<defs>
<clipPath id="clip0_2020_5401">
<rect width="64" height="62.8966" fill="white" transform="translate(0.5 0.619141)"/>
</clipPath>
</defs>
</svg>
