<svg width="65" height="64" viewBox="0 0 65 64" fill="none" xmlns="http://www.w3.org/2000/svg">
<g clip-path="url(#clip0_2020_5391)">
<path fill-rule="evenodd" clip-rule="evenodd" d="M8.50195 24.2044C8.50195 9.46299 20.702 0.618164 32.502 0.618164C44.302 0.618164 56.502 9.46299 56.502 24.2044C56.502 38.3561 34.902 59.9768 33.902 60.9596C33.502 61.3527 33.102 61.5492 32.502 61.5492C31.902 61.5492 31.502 61.3527 31.102 60.9596C30.102 59.9768 8.50195 38.1595 8.50195 24.2044Z" fill="#0B9072"/>
<path d="M32.8955 40.1229C31.7554 40.1229 30.6845 39.9098 29.6829 39.4836C28.6813 39.0468 27.8129 38.4287 27.0777 37.6296C26.3531 36.8304 25.8257 35.8874 25.4954 34.8006L28.7239 33.9055C29.0329 34.8965 29.571 35.6583 30.3382 36.1911C31.1054 36.7132 31.9579 36.969 32.8955 36.9583C33.7373 36.9476 34.4779 36.7505 35.1172 36.3669C35.7565 35.9833 36.2573 35.4665 36.6196 34.8166C36.9819 34.1559 37.163 33.3994 37.163 32.547C37.163 31.2683 36.7634 30.2134 35.9643 29.3823C35.1758 28.5512 34.1422 28.1356 32.8636 28.1356C32.5013 28.1356 32.1283 28.1889 31.7447 28.2955C31.3718 28.402 31.0202 28.5405 30.6899 28.711L29.1235 26.0738L37.2429 18.8974L37.5946 19.8564H26.4064V16.6758H40.2477V19.8564L33.5029 26.3455L33.4709 25.2587C34.9201 25.2587 36.1774 25.5837 37.2429 26.2336C38.3085 26.873 39.1289 27.7467 39.7043 28.8549C40.2904 29.9524 40.5834 31.1831 40.5834 32.547C40.5834 34.0174 40.2371 35.3227 39.5445 36.4628C38.8625 37.6029 37.9409 38.498 36.7794 39.148C35.6286 39.798 34.334 40.1229 32.8955 40.1229Z" fill="white"/>
</g>
<defs>
<clipPath id="clip0_2020_5391">
<rect width="64" height="62.8966" fill="white" transform="translate(0.5 0.619141)"/>
</clipPath>
</defs>
</svg>
