<svg xmlns="http://www.w3.org/2000/svg" viewBox="0 0 24 24">
<path d="m21.4,22.15l-1.68-1.43s-.06-.1-.04-.17l.87-1.97c.04-.1-.04-.21-.15-.19-2.02.42-3.62.19-4.84-.42-1.5-.73-2.49-1.97-3.18-3.26-.83-1.56-1.21-3.16-1.41-3.91-.04-.12-.23-.15-.27-.02-.48,1.08-.69,2.22-.69,3.43v.17c-.46-.19-.85-.46-1.21-.77-.91-.83-1.48-2.08-1.48-3.64,0-2.89,1.97-4.76,4.49-4.76s4.49,1.87,4.49,4.76c0,2.04-.98,3.55-2.43,4.28-.12.06-.17.21-.1.33.17.27.35.54.56.79.77.94,1.68,1.54,2.78,1.81,2.43-1.52,3.93-4.11,3.93-7.21,0-4.99-3.91-8.66-9.23-8.66S2.57,4.97,2.57,9.98c0,4.32,2.93,7.65,7.15,8.46.46.08.94.15,1.43.19.06,0,.12.04.17.08.58.89,1.33,1.68,2.24,2.31,2.24,1.62,5.19,2.04,7.83,1.37.02,0,.06-.15,0-.23Z" stroke="#00B579" stroke-width="0" stroke-miterlimit="10" stroke-linecap="round" stroke-linejoin="round" fill="#00B579" />
</svg>
