<svg width="16" height="16" viewBox="0 0 16 16" fill="none" xmlns="http://www.w3.org/2000/svg">
<path fill-rule="evenodd" clip-rule="evenodd" d="M13.0998 9.24462C12.3136 12.1787 9.29778 13.9199 6.36372 13.1337C5.3947 12.8741 4.55765 12.3724 3.89793 11.7115L3.58639 11.3999L6.01963 11.3995C6.43384 11.3994 6.76957 11.0636 6.76949 10.6494C6.76942 10.2351 6.43357 9.89942 6.01936 9.8995L1.77592 9.90026C1.57701 9.90029 1.38625 9.97935 1.24563 10.12C1.105 10.2607 1.02602 10.4515 1.02606 10.6504L1.02695 14.8922C1.02704 15.3065 1.3629 15.6422 1.77711 15.6421C2.19132 15.642 2.52704 15.3061 2.52695 14.8919L2.52644 12.4613L2.83629 12.7712C3.67733 13.6137 4.74501 14.2529 5.97549 14.5826C9.70975 15.5832 13.5481 13.3671 14.5487 9.63285C14.6559 9.23275 14.4185 8.8215 14.0184 8.71429C13.6183 8.60708 13.207 8.84452 13.0998 9.24462ZM14.3287 5.52223C14.4694 5.38156 14.5484 5.19076 14.5484 4.99183L14.5477 0.749877C14.5476 0.335664 14.2118 -6.71362e-05 13.7975 1.00702e-08C13.3833 6.90604e-05 13.0476 0.33591 13.0477 0.750123L13.0481 3.18099L12.7382 2.87118C11.8973 2.02876 10.8293 1.38931 9.59896 1.05963C5.86469 0.0590416 2.02633 2.27512 1.02574 6.00938C0.918535 6.40948 1.15597 6.82073 1.55607 6.92794C1.95617 7.03515 2.36742 6.79771 2.47463 6.39761C3.26081 3.46355 6.27666 1.72234 9.21073 2.50852C10.1798 2.76818 11.0169 3.26985 11.6766 3.93083L11.9877 4.24195L9.55572 4.24195C9.14151 4.24195 8.80572 4.57773 8.80572 4.99195C8.80572 5.40616 9.14151 5.74195 9.55572 5.74195H13.7984C13.9973 5.74195 14.1881 5.66291 14.3287 5.52223Z" fill="#5F5F5F"/>
</svg>
