<svg width="16" height="16" viewBox="0 0 16 16" fill="none" xmlns="http://www.w3.org/2000/svg">
<path fill-rule="evenodd" clip-rule="evenodd" d="M10.4577 13.265C9.56018 13.6801 8.55938 13.9119 7.50406 13.9119C3.63582 13.9119 0.5 10.7976 0.5 6.95595C0.5 3.11428 3.63582 0 7.50406 0C11.3723 0 14.5081 3.11428 14.5081 6.95595C14.5081 8.57885 13.9485 10.0719 13.0104 11.2553L15.0261 13.2571C15.658 13.8846 15.658 14.902 15.0261 15.5296C14.3942 16.1571 13.3698 16.1571 12.7379 15.5296L10.4577 13.265ZM11.3571 6.95595C11.3571 9.06932 9.63205 10.7826 7.50406 10.7826C5.37606 10.7826 3.65098 9.06932 3.65098 6.95595C3.65098 4.84257 5.37606 3.12934 7.50406 3.12934C9.63205 3.12934 11.3571 4.84257 11.3571 6.95595Z" fill="#5F5F5F"/>
</svg>
