<?xml version="1.0" encoding="UTF-8"?>
<svg xmlns="http://www.w3.org/2000/svg" xmlns:xlink="http://www.w3.org/1999/xlink" width="0" height="0">
<defs>
<symbol viewBox="0 0 40 40" fill="none" id="youtube">
<rect width="40" height="40" rx="20" fill="#FF0000"></rect>
<path d="M33.6985 13.1304C33.369 11.9065 32.404 10.9415 31.1801 10.612C28.9441 10 20 10 20 10C20 10 11.0559 10 8.8199 10.5884C7.61951 10.9179 6.63096 11.9065 6.30144 13.1304C5.71301 15.3664 5.71301 20.0032 5.71301 20.0032C5.71301 20.0032 5.71301 24.6636 6.30144 26.876C6.63096 28.1 7.59597 29.065 8.8199 29.3945C11.0795 30.0065 20 30.0065 20 30.0065C20 30.0065 28.9441 30.0065 31.1801 29.418C32.404 29.0885 33.369 28.1235 33.6985 26.8996C34.287 24.6636 34.287 20.0268 34.287 20.0268C34.287 20.0268 34.3105 15.3664 33.6985 13.1304Z" fill="white"></path>
<path d="M17.152 24.287L24.5897 20.0032L17.152 15.7195V24.287Z" fill="#FF0000"></path>
</symbol>
<symbol viewBox="0 0 16 16" id="x">
  <path     fill="currentColor"
    d="M12.6.75h2.454l-5.36 6.142L16 15.25h-4.937l-3.867-5.07-4.425 5.07H.316l5.733-6.57L0 .75h5.063l3.495 4.633L12.601.75Zm-.86 13.028h1.36L4.323 2.145H2.865z" ></path>
</symbol>
<symbol viewBox="0 0 40 40" fill="none" id="whatsapp">
<rect width="40" height="40" rx="20" fill="url(#paint0_linear_772_6215)"></rect>
<path d="M7.86829 31.6358L9.58318 25.4085C8.52296 23.5807 7.96678 21.5107 7.97257 19.3946C7.97257 12.7637 13.3953 7.37244 20.0521 7.37244C23.2849 7.37244 26.3207 8.62366 28.5976 10.8955C30.8802 13.1673 32.1374 16.1887 32.1317 19.4003C32.1317 26.0313 26.7089 31.4225 20.0463 31.4225H20.0405C18.0186 31.4225 16.0314 30.9151 14.2644 29.9579L7.86829 31.6358ZM14.5714 27.7841L14.9364 28.0032C16.4775 28.9143 18.2445 29.3928 20.0463 29.3986H20.0521C25.5849 29.3986 30.0923 24.9184 30.0923 19.4061C30.0923 16.7364 29.0495 14.2282 27.155 12.337C25.2605 10.4457 22.7345 9.40784 20.0521 9.40784C14.5193 9.40207 10.0119 13.8823 10.0119 19.3946C10.0119 21.2801 10.5391 23.1194 11.5472 24.7108L11.7847 25.0914L10.7709 28.7759L14.5714 27.7841Z" fill="white"></path>
<path d="M8.29126 31.2149L9.94821 25.2009C8.92276 23.4423 8.38396 21.4415 8.38396 19.4003C8.38975 13 13.6213 7.79333 20.0522 7.79333C23.1749 7.79333 26.1006 9.0042 28.3022 11.1953C30.5037 13.3864 31.7146 16.304 31.7146 19.4061C31.7146 25.8064 26.4772 31.0131 20.0522 31.0131H20.0464C18.0939 31.0131 16.1763 30.523 14.473 29.6004L8.29126 31.2149Z" fill="url(#paint1_linear_772_6215)"></path>
<path d="M7.86829 31.6358L9.58318 25.4085C8.52296 23.5807 7.96678 21.5107 7.97257 19.3946C7.97257 12.7637 13.3953 7.37244 20.0521 7.37244C23.2849 7.37244 26.3207 8.62366 28.5976 10.8955C30.8802 13.1673 32.1374 16.1887 32.1317 19.4003C32.1317 26.0313 26.7089 31.4225 20.0463 31.4225H20.0405C18.0186 31.4225 16.0314 30.9151 14.2644 29.9579L7.86829 31.6358ZM14.5714 27.7841L14.9364 28.0032C16.4775 28.9143 18.2445 29.3928 20.0463 29.3986H20.0521C25.5849 29.3986 30.0923 24.9184 30.0923 19.4061C30.0923 16.7364 29.0495 14.2282 27.155 12.337C25.2605 10.4457 22.7345 9.40784 20.0521 9.40784C14.5193 9.40207 10.0119 13.8823 10.0119 19.3946C10.0119 21.2801 10.5391 23.1194 11.5472 24.7108L11.7847 25.0914L10.7709 28.7759L14.5714 27.7841Z" fill="url(#paint2_linear_772_6215)"></path>
<path fill-rule="evenodd" clip-rule="evenodd" d="M17.0336 14.3666C16.8077 13.865 16.5701 13.8535 16.3558 13.8477C16.182 13.8419 15.9792 13.8419 15.7764 13.8419C15.5736 13.8419 15.2492 13.9169 14.9711 14.2167C14.693 14.5165 13.9167 15.2431 13.9167 16.7249C13.9167 18.201 15.0001 19.631 15.1507 19.8328C15.3013 20.0346 17.2422 23.1656 20.307 24.3707C22.8561 25.3739 23.3775 25.1721 23.9279 25.1202C24.4783 25.0683 25.7123 24.3937 25.9673 23.6903C26.2164 22.9868 26.2164 22.3872 26.1411 22.2603C26.0658 22.1334 25.863 22.0585 25.5617 21.9086C25.2604 21.7587 23.7773 21.0321 23.4992 20.9284C23.2211 20.8303 23.0183 20.7784 22.8214 21.0783C22.6186 21.3781 22.0392 22.0527 21.8654 22.2545C21.6916 22.4563 21.512 22.4794 21.2108 22.3295C20.9095 22.1796 19.9362 21.8624 18.7833 20.8361C17.8853 20.0404 17.2769 19.0544 17.1031 18.7546C16.9293 18.4547 17.0858 18.2933 17.2364 18.1434C17.3696 18.0107 17.5377 17.7916 17.6883 17.6187C17.8389 17.4457 17.8911 17.3188 17.9895 17.117C18.088 16.9152 18.0417 16.7422 17.9664 16.5923C17.8911 16.4482 17.3001 14.9605 17.0336 14.3666Z" fill="white"></path>
<defs>
<linearGradient id="paint0_linear_772_6215" x1="19.999" y1="39.998" x2="19.999" y2="-0.0013995" gradientUnits="userSpaceOnUse">
<stop stop-color="#20B038"></stop>
<stop offset="1" stop-color="#60D66A"></stop>
</linearGradient>
<linearGradient id="paint1_linear_772_6215" x1="20.0023" y1="31.2137" x2="20.0023" y2="7.79252" gradientUnits="userSpaceOnUse">
<stop stop-color="#20B038"></stop>
<stop offset="1" stop-color="#60D66A"></stop>
</linearGradient>
<linearGradient id="paint2_linear_772_6215" x1="20.0023" y1="31.6335" x2="20.0023" y2="7.37244" gradientUnits="userSpaceOnUse">
<stop stop-color="#F9F9F9"></stop>
<stop offset="1" stop-color="white"></stop>
</linearGradient>
</defs>
</symbol>
<symbol viewBox="0 0 512 512" id="website">
  <path fill='currentColor'
    d="M352 256c0 22.2-1.2 43.6-3.3 64H163.3c-2.2-20.4-3.3-41.8-3.3-64s1.2-43.6 3.3-64H348.7c2.2 20.4 3.3 41.8 3.3 64zm28.8-64H503.9c5.3 20.5 8.1 41.9 8.1 64s-2.8 43.5-8.1 64H380.8c2.1-20.6 3.2-42 3.2-64s-1.1-43.4-3.2-64zm112.6-32H376.7c-10-63.9-29.8-117.4-55.3-151.6c78.3 20.7 142 77.5 171.9 151.6zm-149.1 0H167.7c6.1-36.4 15.5-68.6 27-94.7c10.5-23.6 22.2-40.7 33.5-51.5C239.4 3.2 248.7 0 256 0s16.6 3.2 27.8 13.8c11.3 10.8 23 27.9 33.5 51.5c11.6 26 21 58.2 27 94.7zm-209 0H18.6C48.6 85.9 112.2 29.1 190.6 8.4C165.1 42.6 145.3 96.1 135.3 160zM8.1 192H131.2c-2.1 20.6-3.2 42-3.2 64s1.1 43.4 3.2 64H8.1C2.8 299.5 0 278.1 0 256s2.8-43.5 8.1-64zM194.7 446.6c-11.6-26-20.9-58.2-27-94.6H344.3c-6.1 36.4-15.5 68.6-27 94.6c-10.5 23.6-22.2 40.7-33.5 51.5C272.6 508.8 263.3 512 256 512s-16.6-3.2-27.8-13.8c-11.3-10.8-23-27.9-33.5-51.5zM135.3 352c10 63.9 29.8 117.4 55.3 151.6C112.2 482.9 48.6 426.1 18.6 352H135.3zm358.1 0c-30 74.1-93.6 130.9-171.9 151.6c25.5-34.2 45.2-87.7 55.3-151.6H493.4z"></path>
</symbol>
<symbol viewBox="0 0 40 40" fill="none" id="telegram">
<rect width="40" height="40" rx="20" fill="url(#paint0_linear_772_6218)"></rect>
<path fill-rule="evenodd" clip-rule="evenodd" d="M9.05344 19.7889C14.8838 17.2487 18.7717 15.574 20.717 14.7649C26.2712 12.4547 27.4253 12.0534 28.1776 12.0402C28.343 12.0373 28.7129 12.0783 28.9526 12.2727C29.1549 12.4369 29.2106 12.6587 29.2372 12.8143C29.2639 12.97 29.297 13.3246 29.2707 13.6017C28.9697 16.7641 27.6673 24.4386 27.0047 27.9806C26.7244 29.4794 26.1724 29.9819 25.6379 30.0311C24.4765 30.138 23.5946 29.2635 22.4696 28.5261C20.7094 27.3723 19.7149 26.654 18.0063 25.528C16.0317 24.2268 17.3118 23.5116 18.4371 22.3428C18.7316 22.0369 23.8489 17.3823 23.948 16.96C23.9603 16.9072 23.9718 16.7104 23.8549 16.6065C23.738 16.5025 23.5654 16.5381 23.4408 16.5663C23.2643 16.6064 20.4522 18.465 15.0047 22.1423C14.2065 22.6904 13.4835 22.9574 12.8358 22.9434C12.1217 22.928 10.748 22.5397 9.72685 22.2077C8.47435 21.8006 7.47888 21.5853 7.56556 20.8939C7.61071 20.5337 8.10667 20.1654 9.05344 19.7889Z" fill="white"></path>
<defs>
<linearGradient id="paint0_linear_772_6218" x1="20" y1="0" x2="20" y2="39.7033" gradientUnits="userSpaceOnUse">
<stop stop-color="#2AABEE"></stop>
<stop offset="1" stop-color="#229ED9"></stop>
</linearGradient>
</defs>
</symbol>
<symbol viewBox="0 0 40 40" fill="none" id="signal">
<rect width="40" height="40" rx="20" fill="#3A76F0"></rect>
<path d="M17.5768 6.76083L17.869 7.94434C16.7174 8.22894 15.6152 8.68527 14.5995 9.29797L13.9745 8.25131C15.0925 7.57425 16.3072 7.07164 17.5768 6.76083ZM23.8272 6.76083L23.535 7.94434C24.6866 8.22894 25.7887 8.68527 26.8045 9.29797L27.4369 8.25131C26.3159 7.57484 25.0989 7.0723 23.8272 6.76083ZM9.55482 12.6673C8.87839 13.7869 8.37584 15.0028 8.06434 16.2733L9.24785 16.5654C9.53246 15.4139 9.98878 14.3117 10.6015 13.296L9.55482 12.6673ZM8.90389 19.3985C8.9038 18.8067 8.94831 18.2157 9.03704 17.6306L7.83134 17.4457C7.63532 18.7389 7.63532 20.0543 7.83134 21.3476L9.03704 21.1663C8.94845 20.5812 8.90394 19.9903 8.90389 19.3985ZM27.4295 30.5419L26.8045 29.499C25.7904 30.1122 24.6893 30.5686 23.5387 30.8526L23.8309 32.0361C25.0989 31.7223 26.3122 31.2186 27.4295 30.5419ZM32.5001 19.3985C32.5001 19.9903 32.4555 20.5812 32.367 21.1663L33.5727 21.3476C33.7687 20.0543 33.7687 18.7389 33.5727 17.4457L32.367 17.6306C32.4557 18.2157 32.5002 18.8067 32.5001 19.3985ZM33.3397 22.52L32.1561 22.2278C31.8722 23.3807 31.4159 24.4842 30.8025 25.5009L31.8492 26.1297C32.5263 25.009 33.0288 23.7919 33.3397 22.52ZM22.4699 31.0634C21.298 31.241 20.106 31.241 18.9341 31.0634L18.7529 32.2691C20.0449 32.4651 21.3591 32.4651 22.6511 32.2691L22.4699 31.0634ZM30.1997 26.396C29.4967 27.3492 28.6538 28.1909 27.6995 28.8924L28.4244 29.8762C29.4755 29.1024 30.4054 28.1763 31.1834 27.1283L30.1997 26.396ZM27.6995 9.90082C28.6539 10.6037 29.4968 11.4466 30.1997 12.401L31.1834 11.6687C30.4082 10.6197 29.4807 9.69231 28.4318 8.91703L27.6995 9.90082ZM11.2043 12.401C11.9072 11.4466 12.7501 10.6037 13.7045 9.90082L12.9722 8.91703C11.9233 9.69231 10.9958 10.6197 10.2205 11.6687L11.2043 12.401ZM31.8492 12.6673L30.8025 13.296C31.4158 14.3101 31.8722 15.4112 32.1561 16.5617L33.3397 16.2696C33.0281 15.0003 32.5256 13.7856 31.8492 12.6673ZM18.9341 7.73352C20.106 7.55598 21.298 7.55598 22.4699 7.73352L22.6511 6.52783C21.3591 6.33179 20.0449 6.33179 18.7529 6.52783L18.9341 7.73352ZM11.8294 30.2017L9.31072 30.786L9.89878 28.2674L8.71157 27.99L8.12352 30.5086C8.08672 30.6648 8.08108 30.8267 8.1069 30.985C8.13272 31.1434 8.18951 31.295 8.27401 31.4314C8.35852 31.5678 8.46908 31.6862 8.59937 31.7798C8.72966 31.8734 8.87713 31.9404 9.03334 31.9769C9.21602 32.0176 9.40542 32.0176 9.58811 31.9769L12.1068 31.3963L11.8294 30.2017ZM8.96307 26.9026L10.154 27.1763L10.5608 25.4307C9.9667 24.4341 9.5242 23.3546 9.24785 22.2278L8.06434 22.52C8.33055 23.5986 8.73323 24.6388 9.26264 25.6156L8.96307 26.9026ZM14.6587 29.5433L12.913 29.9502L13.1904 31.1411L14.4738 30.8415C15.4498 31.3725 16.4903 31.7753 17.5694 32.0398L17.8616 30.8563C16.7382 30.5763 15.6626 30.1314 14.6698 29.5359L14.6587 29.5433ZM20.702 8.82087C14.8584 8.82457 10.1281 13.5623 10.1281 19.4022C10.1313 21.3912 10.6939 23.3393 11.7517 25.0238L10.7346 29.3658L15.0729 28.3487C20.0178 31.4591 26.5493 29.9761 29.6597 25.0349C32.7701 20.0938 31.2907 13.5623 26.3496 10.4482C24.658 9.38444 22.7002 8.82033 20.702 8.82087Z" fill="white"></path>
</symbol>
<symbol viewBox="0 0 40 40" fill="none" id="reddit">
<g clip-path="url(#clip0_772_6204)">
<path d="M20 40C31.0457 40 40 31.0457 40 20C40 8.9543 31.0457 0 20 0C8.9543 0 0 8.9543 0 20C0 31.0457 8.9543 40 20 40Z" fill="#FF4500"></path>
<path d="M33.3334 20C33.3334 18.386 32.0234 17.076 30.4094 17.076C29.6141 17.076 28.9123 17.3801 28.3977 17.8947C26.4094 16.4678 23.6492 15.5322 20.6082 15.4152L21.9416 9.16959L26.2691 10.0819C26.3158 11.1813 27.2281 12.0702 28.3509 12.0702C29.4971 12.0702 30.4328 11.1345 30.4328 9.98831C30.4328 8.84211 29.4971 7.90643 28.3509 7.90643C27.5322 7.90643 26.8305 8.37427 26.503 9.07602L21.6609 8.04679C21.5205 8.02339 21.3802 8.04678 21.2632 8.11696C21.1463 8.18714 21.0761 8.30409 21.0293 8.44445L19.5556 15.4152C16.4445 15.5088 13.6609 16.4211 11.6492 17.8947C11.1346 17.4035 10.4094 17.076 9.63748 17.076C8.02344 17.076 6.7135 18.386 6.7135 20C6.7135 21.193 7.41526 22.1988 8.4445 22.6667C8.39771 22.9474 8.37432 23.2515 8.37432 23.5556C8.37432 28.0468 13.5907 31.6725 20.0468 31.6725C26.503 31.6725 31.7193 28.0468 31.7193 23.5556C31.7193 23.2515 31.696 22.9708 31.6492 22.6901C32.6082 22.2222 33.3334 21.193 33.3334 20ZM13.3334 22.0819C13.3334 20.9357 14.2691 20 15.4153 20C16.5615 20 17.4971 20.9357 17.4971 22.0819C17.4971 23.2281 16.5615 24.1637 15.4153 24.1637C14.2691 24.1637 13.3334 23.2281 13.3334 22.0819ZM24.9591 27.5789C23.5322 29.0058 20.8188 29.0994 20.0234 29.0994C19.2281 29.0994 16.4913 28.9825 15.0878 27.5789C14.8772 27.3684 14.8772 27.0175 15.0878 26.807C15.2983 26.5965 15.6492 26.5965 15.8597 26.807C16.7486 27.6959 18.6667 28.0234 20.0468 28.0234C21.427 28.0234 23.3217 27.6959 24.234 26.807C24.4445 26.5965 24.7954 26.5965 25.0059 26.807C25.1696 27.0409 25.1696 27.3684 24.9591 27.5789ZM24.5848 24.1637C23.4386 24.1637 22.503 23.2281 22.503 22.0819C22.503 20.9357 23.4386 20 24.5848 20C25.731 20 26.6667 20.9357 26.6667 22.0819C26.6667 23.2281 25.731 24.1637 24.5848 24.1637Z" fill="white"></path>
</g>
<defs>
<clipPath id="clip0_772_6204">
<rect width="40" height="40" fill="white"></rect>
</clipPath>
</defs>
</symbol>
<symbol viewBox="0 0 24 36" id="nostr">
  <path     d="M10.1763 4.02459C11.0916 4.0629 11.8843 4.65378 12.4402 5.55882C12.8446 5.12801 13.3938 4.83598 14.1209 4.73381C14.1711 4.727 14.2784 4.72444 14.3661 4.72359C12.871 3.08634 10.7263 2.05359 8.3356 2.05359C7.89798 2.05359 7.47143 2.09786 7.05254 2.16427C6.96569 2.16853 6.85586 2.18385 6.71197 2.21621C6.70601 2.21748 6.70005 2.21855 6.6941 2.21961C6.68814 2.22068 6.68217 2.22174 6.67622 2.22302C6.67134 2.22406 6.66747 2.22468 6.66371 2.22528C6.65828 2.22614 6.65311 2.22696 6.64557 2.22898C4.99469 2.63339 3.75334 2.30475 3.04753 1.34692C2.97346 1.2456 2.67036 0.791806 2.5767 0C2.05649 0.537236 1.71678 1.4261 2.00881 2.3635C2.2421 3.11018 2.66865 3.51715 3.13863 3.74703C2.4243 3.79045 1.82832 3.65678 1.23233 3.20639C0.880705 2.93905 0.665298 2.65127 0.299194 1.89352C-0.0558415 2.41033 -0.0243404 3.00376 0.0412177 3.31622C0.128912 3.72234 0.342616 4.18295 0.612512 4.44518C1.03311 4.85726 1.62824 4.94326 2.10672 4.9407C1.40602 5.76486 0.862823 6.7278 0.531627 7.7861C2.08031 7.4366 4.04739 7.30373 5.49059 7.20625C5.80877 7.18475 6.10149 7.16498 6.35864 7.14499C6.80393 5.32639 8.0623 3.93604 10.1763 4.02459Z"
    fill="currentColor"></path>
  <path     d="M14.3867 11.1813C15.2124 11.1813 15.8817 10.0168 15.8817 8.58029C15.8817 7.14377 15.2124 5.97925 14.3867 5.97925C13.561 5.97925 12.8916 7.14377 12.8916 8.58029C12.8916 10.0168 13.561 11.1813 14.3867 11.1813Z"
    fill="currentColor"></path>
  <path     d="M10.177 11.9852C11.2373 11.9852 12.0969 10.5165 12.0969 8.70478C12.0969 6.89303 11.2373 5.42432 10.177 5.42432C9.11665 5.42432 8.25708 6.89303 8.25708 8.70478C8.25708 10.5165 9.11665 11.9852 10.177 11.9852Z"
    fill="currentColor"></path>
  <path fill-rule="evenodd" clip-rule="evenodd"
    d="M6.97102 35.7932V28.701C6.97102 28.701 6.81437 24.6849 8.33413 21.6863C8.86711 20.6348 10.0863 19.1908 10.9956 18.4032C11.4843 17.9792 11.9654 17.6183 12.4422 17.2871C12.6848 17.1457 12.9181 16.9925 13.1437 16.8273C17.1224 14.385 20.639 14.8946 23.5546 15.3171L23.6535 15.3314C23.6535 15.3314 24.355 13.2522 21.4764 12.1837C19.9132 11.6031 18.0614 11.1416 16.5221 10.813C16.3016 11.2148 16.0206 11.552 15.6843 11.8117C15.4493 11.993 14.855 12.4494 13.7755 12.3208C13.2331 12.2561 12.8151 12.0339 12.4839 11.7121C11.9254 12.6375 11.1148 13.2471 10.174 13.3263C7.57382 13.5468 6.26606 11.3715 6.18092 8.95776C4.23461 9.14848 1.57567 10.3456 0.158935 11.0446V33.6816C2.25987 34.7341 4.55274 35.4602 6.97102 35.7932Z"
    fill="currentColor"></path>
  <path fill-rule="evenodd" clip-rule="evenodd"
    d="M0.158935 33.6816C2.25987 34.7341 4.55274 35.4602 6.97102 35.7932V28.701C6.97102 28.701 6.81437 24.6849 8.33413 21.6863C8.86711 20.6348 10.0863 19.1908 10.9956 18.4032C11.4843 17.9792 11.9654 17.6183 12.4422 17.2871C12.6848 17.1457 12.9181 16.9925 13.1437 16.8273C17.1224 14.385 20.639 14.8946 23.5546 15.3171L23.6535 15.3314C23.6535 15.3314 24.355 13.2522 21.4764 12.1837C19.9132 11.6031 18.0614 11.1416 16.5221 10.813C16.3016 11.2148 16.0206 11.552 15.6843 11.8117C15.4493 11.993 14.855 12.4494 13.7755 12.3208C13.2331 12.2561 12.8151 12.0339 12.4839 11.7121C11.9254 12.6375 11.1148 13.2471 10.174 13.3263C7.57382 13.5468 6.26606 11.3715 6.18092 8.95776C4.23461 9.14848 1.57567 10.3456 0.158935 11.0446V33.6816ZM10.1763 4.02459C11.0916 4.0629 11.8843 4.65378 12.4402 5.55882C12.8446 5.12801 13.3938 4.83598 14.1209 4.73381C14.1711 4.727 14.2784 4.72444 14.3661 4.72359C12.871 3.08634 10.7263 2.05359 8.3356 2.05359C7.89798 2.05359 7.47143 2.09786 7.05254 2.16427C6.96569 2.16853 6.85586 2.18385 6.71197 2.21621C6.70601 2.21748 6.70005 2.21855 6.6941 2.21961C6.68814 2.22068 6.68217 2.22174 6.67622 2.22302C6.67134 2.22406 6.66747 2.22468 6.66371 2.22528C6.65828 2.22614 6.65311 2.22696 6.64557 2.22898C4.99469 2.63339 3.75334 2.30475 3.04753 1.34692C2.97346 1.2456 2.67036 0.791806 2.5767 0C2.05649 0.537236 1.71678 1.4261 2.00881 2.3635C2.2421 3.11018 2.66865 3.51715 3.13863 3.74703C2.4243 3.79045 1.82832 3.65678 1.23233 3.20639C0.880705 2.93905 0.665298 2.65127 0.299194 1.89352C-0.0558415 2.41033 -0.0243404 3.00376 0.0412177 3.31622C0.128912 3.72234 0.342616 4.18295 0.612512 4.44518C1.03311 4.85726 1.62824 4.94326 2.10672 4.9407C1.40602 5.76486 0.862823 6.7278 0.531627 7.7861C2.08031 7.4366 4.04739 7.30373 5.49059 7.20625C5.80877 7.18475 6.10149 7.16498 6.35864 7.14499C6.80393 5.32639 8.0623 3.93604 10.1763 4.02459ZM15.8817 8.58029C15.8817 10.0168 15.2124 11.1813 14.3867 11.1813C13.561 11.1813 12.8916 10.0168 12.8916 8.58029C12.8916 7.14377 13.561 5.97925 14.3867 5.97925C15.2124 5.97925 15.8817 7.14377 15.8817 8.58029ZM12.0969 8.70478C12.0969 10.5165 11.2373 11.9852 10.177 11.9852C9.11665 11.9852 8.25708 10.5165 8.25708 8.70478C8.25708 6.89303 9.11665 5.42432 10.177 5.42432C11.2373 5.42432 12.0969 6.89303 12.0969 8.70478Z"
    fill="currentColor"></path>
</symbol>
<symbol viewBox="0 0 24 24" id="matrix">
	<path fill="currentColor" d="M.632.55v22.9H2.28V24H0V0h2.28v.55zm7.043 7.26v1.157h.033c.309-.443.683-.784 1.117-1.024.433-.245.936-.365 1.5-.365.54 0 1.033.107 1.481.314.448.208.785.582 1.02 1.108.254-.374.6-.706 1.034-.992.434-.287.95-.43 1.546-.43.453 0 .872.056 1.26.167.388.11.716.286.993.53.276.245.489.559.646.951.152.392.23.863.23 1.417v5.728h-2.349V11.52c0-.286-.01-.559-.032-.812a1.755 1.755 0 0 0-.18-.66 1.106 1.106 0 0 0-.438-.448c-.194-.11-.457-.166-.785-.166-.332 0-.6.064-.803.189a1.38 1.38 0 0 0-.48.499 1.946 1.946 0 0 0-.231.696 5.56 5.56 0 0 0-.06.785v4.768h-2.35v-4.8c0-.254-.004-.503-.018-.752a2.074 2.074 0 0 0-.143-.688 1.052 1.052 0 0 0-.415-.503c-.194-.125-.476-.19-.854-.19-.111 0-.259.024-.439.074-.18.051-.36.143-.53.282-.171.138-.319.337-.439.595-.12.259-.18.6-.18 1.02v4.966H5.46V7.81zm15.693 15.64V.55H21.72V0H24v24h-2.28v-.55z"></path>
</symbol>
<symbol viewBox="0 0 40 40" fill="none" id="linkedin">
<rect width="40" height="40" rx="20" fill="#0A66C2"></rect>
<path d="M29.376 9H10.624C10.1933 9 9.78023 9.1711 9.47567 9.47567C9.1711 9.78023 9 10.1933 9 10.624V29.376C9 29.8067 9.1711 30.2198 9.47567 30.5243C9.78023 30.8289 10.1933 31 10.624 31H29.376C29.8067 31 30.2198 30.8289 30.5243 30.5243C30.8289 30.2198 31 29.8067 31 29.376V10.624C31 10.1933 30.8289 9.78023 30.5243 9.47567C30.2198 9.1711 29.8067 9 29.376 9ZM15.5572 27.7413H12.2496V17.2347H15.5572V27.7413ZM13.9011 15.7788C13.5259 15.7766 13.1598 15.6634 12.8488 15.4534C12.5379 15.2434 12.2962 14.946 12.1541 14.5987C12.0121 14.2514 11.9761 13.8699 12.0507 13.5022C12.1253 13.1345 12.3072 12.7971 12.5733 12.5326C12.8395 12.2682 13.178 12.0885 13.5462 12.0163C13.9144 11.944 14.2957 11.9825 14.642 12.1267C14.9884 12.271 15.2842 12.5147 15.4923 12.8269C15.7003 13.1392 15.8111 13.5061 15.8108 13.8813C15.8144 14.1324 15.7673 14.3818 15.6724 14.6144C15.5776 14.847 15.4368 15.0582 15.2586 15.2352C15.0804 15.4123 14.8684 15.5517 14.6351 15.6451C14.4019 15.7384 14.1523 15.7839 13.9011 15.7788ZM27.7489 27.7504H24.4428V22.0106C24.4428 20.3178 23.7232 19.7953 22.7943 19.7953C21.8135 19.7953 20.851 20.5347 20.851 22.0533V27.7504H17.5433V17.2424H20.7242V18.6983H20.7669C21.0863 18.0521 22.2046 16.9475 23.9111 16.9475C25.7567 16.9475 27.7504 18.0429 27.7504 21.2513L27.7489 27.7504Z" fill="white"></path>
</symbol>
<symbol xmlns:sodipodi="http://sodipodi.sourceforge.net/DTD/sodipodi-0.dtd" xmlns:inkscape="http://www.inkscape.org/namespaces/inkscape" viewBox="0 0 264.5833 264.5833" inkscape:version="1.0.1 (3bc2e813f5, 2020-09-07)" sodipodi:docname="Instagram_(2022).svg" id="instagram"><defs><radialGradient id="f" cx="158.429" cy="578.088" r="52.3515" xlink:href="#a" gradientUnits="userSpaceOnUse" gradientTransform="matrix(0 -4.03418 4.28018 0 -2332.2273 942.2356)" fx="158.429" fy="578.088"></radialGradient><radialGradient inkscape:collect="always" xlink:href="#b" id="g" gradientUnits="userSpaceOnUse" gradientTransform="matrix(.67441 -1.16203 1.51283 .87801 -814.3657 -47.8354)" cx="172.6149" cy="600.6924" fx="172.6149" fy="600.6924" r="65"></radialGradient><radialGradient inkscape:collect="always" xlink:href="#c" id="h" cx="144.012" cy="51.3367" fx="144.012" fy="51.3367" r="67.081" gradientTransform="matrix(-2.3989 .67549 -.23008 -.81732 464.9957 -26.4035)" gradientUnits="userSpaceOnUse"></radialGradient><radialGradient inkscape:collect="always" xlink:href="#d" id="e" gradientUnits="userSpaceOnUse" gradientTransform="matrix(-3.10797 .87652 -.6315 -2.23914 1345.6503 1374.1983)" cx="199.7884" cy="628.4379" fx="199.7884" fy="628.4379" r="52.3515"></radialGradient><linearGradient inkscape:collect="always" id="d"><stop offset="0" stop-color="#ff005f"></stop><stop offset="1" stop-color="#fc01d8"></stop></linearGradient><linearGradient id="c"><stop offset="0" stop-color="#780cff"></stop><stop stop-color="#820bff" offset="1" stop-opacity="0"></stop></linearGradient><linearGradient inkscape:collect="always" id="b"><stop offset="0" stop-color="#fc0"></stop><stop offset="1" stop-color="#fc0" stop-opacity="0"></stop></linearGradient><linearGradient id="a"><stop offset="0" stop-color="#fc0"></stop><stop offset=".1242" stop-color="#fc0"></stop><stop offset=".5672" stop-color="#fe4a05"></stop><stop offset=".6942" stop-color="#ff0f3f"></stop><stop offset="1" stop-color="#fe0657" stop-opacity="0"></stop></linearGradient></defs><sodipodi:namedview pagecolor="#ffffff" bordercolor="#666666" borderopacity="1" inkscape:pageopacity="0" inkscape:pageshadow="2" inkscape:zoom=".515" inkscape:cx="500" inkscape:cy="500" inkscape:document-units="mm" inkscape:current-layer="layer1" inkscape:document-rotation="0" showgrid="false" inkscape:window-width="1366" inkscape:window-height="705" inkscape:window-x="-8" inkscape:window-y="-8" inkscape:window-maximized="1"></sodipodi:namedview><g inkscape:label="Layer 1" inkscape:groupmode="layer"><path d="M204.1503 18.1429c-55.2305 0-71.3834.057-74.5232.3175-11.3342.9424-18.387 2.7275-26.0708 6.554-5.9214 2.9413-10.5915 6.3506-15.2005 11.1298-8.3938 8.7157-13.481 19.4383-15.3226 32.1842-.8953 6.1877-1.1558 7.4496-1.2087 39.0558-.0203 10.5354 0 24.4007 0 42.9984 0 55.2008.061 71.3418.3256 74.4764.9157 11.032 2.6453 17.9728 6.3081 25.565 7 14.5329 20.369 25.4428 36.119 29.5137 5.4535 1.4044 11.4767 2.1779 19.2092 2.5442 3.2762.1425 36.6684.2443 70.081.2443 33.4127 0 66.8253-.0407 70.02-.2035 8.9535-.4214 14.1526-1.1195 19.9011-2.6054 15.8517-4.0912 28.9767-14.8383 36.119-29.5748 3.5916-7.409 5.4128-14.6144 6.237-25.0704.179-2.2796.2543-38.6263.2543-74.924 0-36.304-.0814-72.5835-.2605-74.8632-.8343-10.6249-2.6555-17.7692-6.363-25.3207-3.0421-6.1816-6.42-10.798-11.324-15.518-8.752-8.3616-19.4555-13.4502-32.2101-15.2902-6.18-.8936-7.411-1.1582-39.033-1.2131z" inkscape:connector-curvature="0" fill="url(#e)" transform="translate(-71.8155 -18.1429)"></path><path d="M204.1503 18.1429c-55.2305 0-71.3834.057-74.5232.3175-11.3342.9424-18.387 2.7275-26.0708 6.554-5.9214 2.9413-10.5915 6.3506-15.2005 11.1298-8.3938 8.7157-13.481 19.4383-15.3226 32.1842-.8953 6.1877-1.1558 7.4496-1.2087 39.0558-.0203 10.5354 0 24.4007 0 42.9984 0 55.2008.061 71.3418.3256 74.4764.9157 11.032 2.6453 17.9728 6.3081 25.565 7 14.5329 20.369 25.4428 36.119 29.5137 5.4535 1.4044 11.4767 2.1779 19.2092 2.5442 3.2762.1425 36.6684.2443 70.081.2443 33.4127 0 66.8253-.0407 70.02-.2035 8.9535-.4214 14.1526-1.1195 19.9011-2.6054 15.8517-4.0912 28.9767-14.8383 36.119-29.5748 3.5916-7.409 5.4128-14.6144 6.237-25.0704.179-2.2796.2543-38.6263.2543-74.924 0-36.304-.0814-72.5835-.2605-74.8632-.8343-10.6249-2.6555-17.7692-6.363-25.3207-3.0421-6.1816-6.42-10.798-11.324-15.518-8.752-8.3616-19.4555-13.4502-32.2101-15.2902-6.18-.8936-7.411-1.1582-39.033-1.2131z" inkscape:connector-curvature="0" fill="url(#f)" transform="translate(-71.8155 -18.1429)"></path><path d="M204.1503 18.1429c-55.2305 0-71.3834.057-74.5232.3175-11.3342.9424-18.387 2.7275-26.0708 6.554-5.9214 2.9413-10.5915 6.3506-15.2005 11.1298-8.3938 8.7157-13.481 19.4383-15.3226 32.1842-.8953 6.1877-1.1558 7.4496-1.2087 39.0558-.0203 10.5354 0 24.4007 0 42.9984 0 55.2008.061 71.3418.3256 74.4764.9157 11.032 2.6453 17.9728 6.3081 25.565 7 14.5329 20.369 25.4428 36.119 29.5137 5.4535 1.4044 11.4767 2.1779 19.2092 2.5442 3.2762.1425 36.6684.2443 70.081.2443 33.4127 0 66.8253-.0407 70.02-.2035 8.9535-.4214 14.1526-1.1195 19.9011-2.6054 15.8517-4.0912 28.9767-14.8383 36.119-29.5748 3.5916-7.409 5.4128-14.6144 6.237-25.0704.179-2.2796.2543-38.6263.2543-74.924 0-36.304-.0814-72.5835-.2605-74.8632-.8343-10.6249-2.6555-17.7692-6.363-25.3207-3.0421-6.1816-6.42-10.798-11.324-15.518-8.752-8.3616-19.4555-13.4502-32.2101-15.2902-6.18-.8936-7.411-1.1582-39.033-1.2131z" inkscape:connector-curvature="0" fill="url(#g)" transform="translate(-71.8155 -18.1429)"></path><path d="M204.1503 18.1429c-55.2305 0-71.3834.057-74.5232.3175-11.3342.9424-18.387 2.7275-26.0708 6.554-5.9214 2.9413-10.5915 6.3506-15.2005 11.1298-8.3938 8.7157-13.481 19.4383-15.3226 32.1842-.8953 6.1877-1.1558 7.4496-1.2087 39.0558-.0203 10.5354 0 24.4007 0 42.9984 0 55.2008.061 71.3418.3256 74.4764.9157 11.032 2.6453 17.9728 6.3081 25.565 7 14.5329 20.369 25.4428 36.119 29.5137 5.4535 1.4044 11.4767 2.1779 19.2092 2.5442 3.2762.1425 36.6684.2443 70.081.2443 33.4127 0 66.8253-.0407 70.02-.2035 8.9535-.4214 14.1526-1.1195 19.9011-2.6054 15.8517-4.0912 28.9767-14.8383 36.119-29.5748 3.5916-7.409 5.4128-14.6144 6.237-25.0704.179-2.2796.2543-38.6263.2543-74.924 0-36.304-.0814-72.5835-.2605-74.8632-.8343-10.6249-2.6555-17.7692-6.363-25.3207-3.0421-6.1816-6.42-10.798-11.324-15.518-8.752-8.3616-19.4555-13.4502-32.2101-15.2902-6.18-.8936-7.411-1.1582-39.033-1.2131z" inkscape:connector-curvature="0" fill="url(#h)" transform="translate(-71.8155 -18.1429)"></path><path d="M132.3452 33.973c-26.7167 0-30.0696.1167-40.5629.5939-10.4727.4792-17.6212 2.136-23.8762 4.567-6.4701 2.5107-11.9586 5.8693-17.4265 11.3352-5.472 5.464-8.8332 10.9483-11.354 17.4116-2.4389 6.2524-4.099 13.3976-4.5703 23.8585-.4693 10.4854-.5923 13.8379-.5923 40.5348 0 26.697.1189 30.0371.5943 40.5225.4817 10.465 2.1397 17.6082 4.5703 23.8585 2.5147 6.4654 5.8758 11.9497 11.3458 17.4136 5.466 5.468 10.9544 8.8349 17.4204 11.3456 6.259 2.4309 13.4097 4.0877 23.8803 4.567 10.4933.477 13.8441.5938 40.5588.5938 26.7188 0 30.0615-.1167 40.5547-.5939 10.4728-.4792 17.6295-2.136 23.8885-4.567 6.4681-2.5106 11.9484-5.8775 17.4143-11.3455 5.472-5.4639 8.8332-10.9482 11.354-17.4115 2.4183-6.2524 4.0784-13.3976 4.5703-23.8585.4713-10.4854.5943-13.8277.5943-40.5246 0-26.697-.123-30.0473-.5943-40.5328-.4919-10.465-2.152-17.6081-4.5703-23.8584-2.5208-6.4654-5.882-11.9498-11.354-17.4137-5.4721-5.468-10.9442-8.8266-17.4204-11.3353-6.2714-2.4309-13.424-4.0877-23.8967-4.5669-10.4933-.4772-13.8339-.5939-40.5588-.5939zm-8.825 17.7147c2.6193-.0041 5.5418 0 8.825 0 26.2659 0 29.379.0942 39.7513.5652 9.5915.4383 14.7971 2.0397 18.2648 3.3852 4.5908 1.7817 7.8638 3.9116 11.3048 7.3521 3.4431 3.4406 5.5745 6.7173 7.3617 11.3046 1.3465 3.461 2.9512 8.6628 3.3877 18.2472.4714 10.3625.5739 13.4754.5739 39.7095 0 26.234-.1025 29.347-.5739 39.7095-.4386 9.5843-2.0412 14.7861-3.3877 18.2471-1.783 4.5874-3.9186 7.8539-7.3617 11.2923-3.443 3.4406-6.712 5.5704-11.3048 7.3521-3.4636 1.3517-8.6733 2.949-18.2648 3.3873-10.3702.471-13.4854.5734-39.7513.5734-26.2679 0-29.381-.1024-39.7513-.5734-9.5914-.4423-14.797-2.0438-18.2668-3.3893-4.5908-1.7817-7.87-3.9116-11.313-7.3521-3.4431-3.4405-5.5745-6.709-7.3617-11.2985-1.3465-3.461-2.9512-8.6628-3.3877-18.2471-.4714-10.3626-.5657-13.4754-.5657-39.7259 0-26.2504.0943-29.347.5657-39.7095.4386-9.5844 2.0412-14.7861 3.3877-18.2512 1.783-4.5874 3.9186-7.8641 7.3617-11.3046 3.443-3.4406 6.7222-5.5704 11.313-7.3562 3.4677-1.3517 8.6754-2.949 18.2668-3.3894 9.075-.4096 12.5919-.5324 30.9264-.553zm61.3363 16.322c-6.5173 0-11.805 5.2776-11.805 11.792 0 6.5125 5.2877 11.7962 11.805 11.7962 6.5172 0 11.8049-5.2837 11.8049-11.7962 0-6.5124-5.2877-11.796-11.805-11.796zm-52.5113 13.7826c-27.8993 0-50.5191 22.6031-50.5191 50.4817 0 27.8786 22.6198 50.4714 50.5191 50.4714s50.511-22.5928 50.511-50.4714c0-27.8786-22.6137-50.4817-50.513-50.4817zm0 17.7147c18.109 0 32.7914 14.6694 32.7914 32.767 0 18.0956-14.6824 32.767-32.7914 32.767-18.111 0-32.7913-14.6714-32.7913-32.767 0-18.0976 14.6803-32.767 32.7913-32.767z" inkscape:connector-curvature="0" fill="#fff"></path></g></symbol>
<symbol viewBox="0 0 496 512" id="github">
  <path fill="currentColor"
    d="M165.9 397.4c0 2-2.3 3.6-5.2 3.6-3.3.3-5.6-1.3-5.6-3.6 0-2 2.3-3.6 5.2-3.6 3-.3 5.6 1.3 5.6 3.6zm-31.1-4.5c-.7 2 1.3 4.3 4.3 4.9 2.6 1 5.6 0 6.2-2s-1.3-4.3-4.3-5.2c-2.6-.7-5.5.3-6.2 2.3zm44.2-1.7c-2.9.7-4.9 2.6-4.6 4.9.3 2 2.9 3.3 5.9 2.6 2.9-.7 4.9-2.6 4.6-4.6-.3-1.9-3-3.2-5.9-2.9zM244.8 8C106.1 8 0 113.3 0 252c0 110.9 69.8 205.8 169.5 239.2 12.8 2.3 17.3-5.6 17.3-12.1 0-6.2-.3-40.4-.3-61.4 0 0-70 15-84.7-29.8 0 0-11.4-29.1-27.8-36.6 0 0-22.9-15.7 1.6-15.4 0 0 24.9 2 38.6 25.8 21.9 38.6 58.6 27.5 72.9 20.9 2.3-16 8.8-27.1 16-33.7-55.9-6.2-112.3-14.3-112.3-110.5 0-27.5 7.6-41.3 23.6-58.9-2.6-6.5-11.1-33.3 2.6-67.9 20.9-6.5 69 27 69 27 20-5.6 41.5-8.5 62.8-8.5s42.8 2.9 62.8 8.5c0 0 48.1-33.6 69-27 13.7 34.7 5.2 61.4 2.6 67.9 16 17.7 25.8 31.5 25.8 58.9 0 96.5-58.9 104.2-114.8 110.5 9.2 7.9 17 22.9 17 46.4 0 33.7-.3 75.4-.3 83.6 0 6.5 4.6 14.4 17.3 12.1C428.2 457.8 496 362.9 496 252 496 113.3 383.5 8 244.8 8zM97.2 352.9c-1.3 1-1 3.3.7 5.2 1.6 1.6 3.9 2.3 5.2 1 1.3-1 1-3.3-.7-5.2-1.6-1.6-3.9-2.3-5.2-1zm-10.8-8.1c-.7 1.3.3 2.9 2.3 3.9 1.6 1 3.6.7 4.3-.7.7-1.3-.3-2.9-2.3-3.9-2-.6-3.6-.3-4.3.7zm32.4 35.6c-1.6 1.3-1 4.3 1.3 6.2 2.3 2.3 5.2 2.6 6.5 1 1.3-1.3.7-4.3-1.3-6.2-2.2-2.3-5.2-2.6-6.5-1zm-11.4-14.7c-1.6 1-1.6 3.6 0 5.9 1.6 2.3 4.3 3.3 5.6 2.3 1.6-1.3 1.6-3.9 0-6.2-1.4-2.3-4-3.3-5.6-2z"></path>
</symbol>
<symbol viewBox="0 0 40 40" fill="none" id="facebook">
<rect width="40" height="40" rx="20" fill="#1877F2"></rect>
<path d="M27.7852 25.7812L28.6719 20H23.125V16.25C23.125 14.668 23.8984 13.125 26.3828 13.125H28.9062V8.20312C28.9062 8.20312 26.6172 7.8125 24.4297 7.8125C19.8594 7.8125 16.875 10.582 16.875 15.5938V20H11.7969V25.7812H16.875V39.7578C17.8945 39.918 18.9375 40 20 40C21.0625 40 22.1055 39.918 23.125 39.7578V25.7812H27.7852Z" fill="white"></path>
</symbol>
<symbol viewBox="0 0 512 512" id="email">
  <path fill='currentColor'
    d="M48 64C21.5 64 0 85.5 0 112c0 15.1 7.1 29.3 19.2 38.4L236.8 313.6c11.4 8.5 27 8.5 38.4 0L492.8 150.4c12.1-9.1 19.2-23.3 19.2-38.4c0-26.5-21.5-48-48-48H48zM0 176V384c0 35.3 28.7 64 64 64H448c35.3 0 64-28.7 64-64V176L294.4 339.2c-22.8 17.1-54 17.1-76.8 0L0 176z"></path>
</symbol>
<symbol viewBox="0 0 640 512" id="discord">
  <path fill='currentColor'
    d="M524.531,69.836a1.5,1.5,0,0,0-.764-.7A485.065,485.065,0,0,0,404.081,32.03a1.816,1.816,0,0,0-1.923.91,337.461,337.461,0,0,0-14.9,30.6,447.848,447.848,0,0,0-134.426,0,309.541,309.541,0,0,0-15.135-30.6,1.89,1.89,0,0,0-1.924-.91A483.689,483.689,0,0,0,116.085,69.137a1.712,1.712,0,0,0-.788.676C39.068,183.651,18.186,294.69,28.43,404.354a2.016,2.016,0,0,0,.765,1.375A487.666,487.666,0,0,0,176.02,479.918a1.9,1.9,0,0,0,2.063-.676A348.2,348.2,0,0,0,208.12,430.4a1.86,1.86,0,0,0-1.019-2.588,321.173,321.173,0,0,1-45.868-21.853,1.885,1.885,0,0,1-.185-3.126c3.082-2.309,6.166-4.711,9.109-7.137a1.819,1.819,0,0,1,1.9-.256c96.229,43.917,200.41,43.917,295.5,0a1.812,1.812,0,0,1,1.924.233c2.944,2.426,6.027,4.851,9.132,7.16a1.884,1.884,0,0,1-.162,3.126,301.407,301.407,0,0,1-45.89,21.83,1.875,1.875,0,0,0-1,2.611,391.055,391.055,0,0,0,30.014,48.815,1.864,1.864,0,0,0,2.063.7A486.048,486.048,0,0,0,610.7,405.729a1.882,1.882,0,0,0,.765-1.352C623.729,277.594,590.933,167.465,524.531,69.836ZM222.491,337.58c-28.972,0-52.844-26.587-52.844-59.239S193.056,219.1,222.491,219.1c29.665,0,53.306,26.82,52.843,59.239C275.334,310.993,251.924,337.58,222.491,337.58Zm195.38,0c-28.971,0-52.843-26.587-52.843-59.239S388.437,219.1,417.871,219.1c29.667,0,53.307,26.82,52.844,59.239C470.715,310.993,447.538,337.58,417.871,337.58Z"></path>
</symbol>
<symbol viewBox="0 0 98 87" id="amboss">
  <g clip-path="url(#clip0_0_1)">
    <path       d="M219.2 85.9V1H314.9V34.4L293.4 34.1L314.9 52.5V85.9H219.2ZM274.5 23.5H259.5V34.4H274.5V23.5ZM274.5 52.3H259.5V62.3H274.5V52.3ZM530.3 34.4H477V23.5H532.3L532.2 1H436.6V51.4H492V62.3H436.6V85.9H532.2V62.3L532.3 34.4H530.3ZM639.4 34.4H586.1V23.5H641.4L641.3 1H545.7V51.4H601.1V62.3H545.7V85.9H641.3V62.3L641.4 34.4H639.4ZM181 1L165.4 18.7L157.9 27.2L150.4 18.7L134.8 1H110.1V85.9H150.4V46L157.9 54.5L165.4 46V85.9H205.8V1H181ZM56.3 85.9V62.3H41.3V85.9H1V1H96.7V85.9H56.3ZM56.3 29.1H41.3V46.2H56.3V29.1Z"
      fill="currentColor"></path>
  </g>
  <defs>
    <clipPath id="clip0_0_1">
      <rect width="640.4" height="84.9" fill="currentColor" transform="translate(1 1)"></rect>
    </clipPath>
  </defs>
</symbol>
</defs>
</svg>