<?xml version="1.0" encoding="UTF-8"?>
<svg xmlns="http://www.w3.org/2000/svg" xmlns:xlink="http://www.w3.org/1999/xlink" width="0" height="0">
<defs>
<symbol viewBox="0 0 16 16" id="x">
  <path     fill="currentColor"
    d="M12.6.75h2.454l-5.36 6.142L16 15.25h-4.937l-3.867-5.07-4.425 5.07H.316l5.733-6.57L0 .75h5.063l3.495 4.633L12.601.75Zm-.86 13.028h1.36L4.323 2.145H2.865z" ></path>
</symbol>
<symbol fill="none" viewBox="0 0 17 17" stroke="currentColor" stroke-width="1.33333" stroke-linecap="round" stroke-linejoin="round" id="verified">
  <path     d="M6.49967 8.49998L7.83301 9.83331L10.833 6.83331M5.38885 3.04578C5.92474 3.00301 6.43348 2.79228 6.84265 2.44359C7.79749 1.62989 9.20186 1.62989 10.1567 2.44359C10.5659 2.79228 11.0746 3.00301 11.6105 3.04578C12.861 3.14557 13.8541 4.13861 13.9539 5.38916C13.9966 5.92505 14.2074 6.43379 14.5561 6.84296C15.3698 7.7978 15.3698 9.20216 14.5561 10.157C14.2074 10.5662 13.9966 11.0749 13.9539 11.6108C13.8541 12.8613 12.861 13.8544 11.6105 13.9542C11.0746 13.9969 10.5659 14.2077 10.1567 14.5564C9.20186 15.3701 7.79749 15.3701 6.84265 14.5564C6.43348 14.2077 5.92474 13.9969 5.38885 13.9542C4.1383 13.8544 3.14527 12.8613 3.04547 11.6108C3.00271 11.0749 2.79198 10.5662 2.44329 10.157C1.62958 9.20216 1.62958 7.7978 2.44329 6.84296C2.79198 6.43379 3.00271 5.92505 3.04547 5.38916C3.14527 4.13861 4.1383 3.14557 5.38885 3.04578Z"></path>
</symbol>
<symbol viewBox="0 0 24 24" stroke="currentColor" stroke-width="1.5" stroke-linecap="round" stroke-linejoin="round" id="tags">
  <path     d="M3.375 19.5H20.625M3.375 19.5C2.75368 19.5 2.25 18.9963 2.25 18.375M3.375 19.5H10.875C11.4963 19.5 12 18.9963 12 18.375M2.25 18.375V5.625M2.25 18.375V16.875C2.25 16.2537 2.75368 15.75 3.375 15.75M21.75 18.375V5.625M21.75 18.375C21.75 18.9963 21.2463 19.5 20.625 19.5M21.75 18.375V16.875C21.75 16.2537 21.2463 15.75 20.625 15.75M20.625 19.5H13.125C12.5037 19.5 12 18.9963 12 18.375M21.75 5.625C21.75 5.00368 21.2463 4.5 20.625 4.5H3.375C2.75368 4.5 2.25 5.00368 2.25 5.625M21.75 5.625V7.125C21.75 7.74632 21.2463 8.25 20.625 8.25M2.25 5.625V7.125C2.25 7.74632 2.75368 8.25 3.375 8.25M3.375 8.25H20.625M3.375 8.25H10.875C11.4963 8.25 12 8.75368 12 9.375M3.375 8.25C2.75368 8.25 2.25 8.75368 2.25 9.375V10.875C2.25 11.4963 2.75368 12 3.375 12M20.625 8.25H13.125C12.5037 8.25 12 8.75368 12 9.375M20.625 8.25C21.2463 8.25 21.75 8.75368 21.75 9.375V10.875C21.75 11.4963 21.2463 12 20.625 12M3.375 12H10.875M3.375 12C2.75368 12 2.25 12.5037 2.25 13.125V14.625C2.25 15.2463 2.75368 15.75 3.375 15.75M12 10.875V9.375M12 10.875C12 11.4963 11.4963 12 10.875 12M12 10.875C12 11.4963 12.5037 12 13.125 12M10.875 12C11.4963 12 12 12.5037 12 13.125M13.125 12H20.625M13.125 12C12.5037 12 12 12.5037 12 13.125M20.625 12C21.2463 12 21.75 12.5037 21.75 13.125V14.625C21.75 15.2463 21.2463 15.75 20.625 15.75M3.375 15.75H10.875M12 14.625V13.125M12 14.625C12 15.2463 11.4963 15.75 10.875 15.75M12 14.625C12 15.2463 12.5037 15.75 13.125 15.75M10.875 15.75C11.4963 15.75 12 16.2537 12 16.875M12 18.375V16.875M12 16.875C12 16.2537 12.5037 15.75 13.125 15.75M13.125 15.75H20.625"></path>
</symbol>
<symbol fill="none" viewBox="0 0 25 24" stroke="currentColor" stroke-width="2" stroke-linecap="round" stroke-linejoin="round" id="share">
  <path     d="M21.5 9L21.5 3M21.5 3H15.5M21.5 3L13.5 11M10.5 5H8.3C6.61984 5 5.77976 5 5.13803 5.32698C4.57354 5.6146 4.1146 6.07354 3.82698 6.63803C3.5 7.27976 3.5 8.11984 3.5 9.8V16.2C3.5 17.8802 3.5 18.7202 3.82698 19.362C4.1146 19.9265 4.57354 20.3854 5.13803 20.673C5.77976 21 6.61984 21 8.3 21H14.7C16.3802 21 17.2202 21 17.862 20.673C18.4265 20.3854 18.8854 19.9265 19.173 19.362C19.5 18.7202 19.5 17.8802 19.5 16.2V14"></path>
</symbol>
<symbol fill="none" viewBox="0 0 25 24" stroke="currentColor" stroke-width="2" stroke-linecap="round" stroke-linejoin="round" id="phone">
  <path     d="M8.88028 8.85323C9.57627 10.3028 10.5251 11.6615 11.7266 12.8631C12.9282 14.0646 14.2869 15.0134 15.7365 15.7094C15.8612 15.7693 15.9235 15.7992 16.0024 15.8222C16.2828 15.904 16.627 15.8453 16.8644 15.6752C16.9313 15.6274 16.9884 15.5702 17.1027 15.4559C17.4523 15.1063 17.6271 14.9315 17.8029 14.8172C18.4658 14.3862 19.3204 14.3862 19.9833 14.8172C20.1591 14.9315 20.3339 15.1063 20.6835 15.4559L20.8783 15.6508C21.4098 16.1822 21.6755 16.448 21.8198 16.7333C22.1069 17.3009 22.1069 17.9712 21.8198 18.5387C21.6755 18.8241 21.4098 19.0898 20.8783 19.6213L20.7207 19.7789C20.1911 20.3085 19.9263 20.5733 19.5662 20.7756C19.1667 21 18.5462 21.1614 18.088 21.16C17.6751 21.1588 17.3928 21.0787 16.8284 20.9185C13.795 20.0575 10.9326 18.433 8.54466 16.045C6.15668 13.6571 4.53221 10.7947 3.67124 7.76131C3.51103 7.19687 3.43092 6.91464 3.4297 6.5017C3.42833 6.04347 3.58969 5.42298 3.81411 5.02348C4.01636 4.66345 4.28117 4.39863 4.8108 3.86901L4.96843 3.71138C5.49987 3.17993 5.7656 2.91421 6.05098 2.76987C6.61854 2.4828 7.2888 2.4828 7.85636 2.76987C8.14174 2.91421 8.40747 3.17993 8.93891 3.71138L9.13378 3.90625C9.48338 4.25585 9.65819 4.43065 9.77247 4.60643C10.2035 5.26932 10.2035 6.1239 9.77247 6.78679C9.65819 6.96257 9.48338 7.13738 9.13378 7.48698C9.01947 7.60129 8.96231 7.65845 8.91447 7.72526C8.74446 7.96269 8.68576 8.30695 8.76748 8.5873C8.79048 8.6662 8.82041 8.72854 8.88028 8.85323Z"></path>
</symbol>
<symbol fill="none" viewBox="0 0 25 24" stroke="currentColor" stroke-width="2" stroke-linecap="round" stroke-linejoin="round" id="pencil">
  <path     d="M3 21.5001L8.54927 19.3657C8.90421 19.2292 9.08168 19.161 9.24772 19.0718C9.3952 18.9927 9.5358 18.9013 9.66804 18.7987C9.81692 18.6831 9.95137 18.5487 10.2203 18.2798L21.5 7.00006C22.6046 5.89549 22.6046 4.10463 21.5 3.00006C20.3955 1.89549 18.6046 1.89549 17.5 3.00006L6.22028 14.2798C5.95138 14.5487 5.81692 14.6831 5.70139 14.832C5.59877 14.9643 5.5074 15.1049 5.42823 15.2523C5.33911 15.4184 5.27085 15.5959 5.13433 15.9508L3 21.5001ZM3 21.5001L5.05812 16.149C5.2054 15.7661 5.27903 15.5746 5.40534 15.4869C5.51572 15.4103 5.6523 15.3813 5.7843 15.4065C5.93533 15.4354 6.08038 15.5804 6.37048 15.8705L8.62957 18.1296C8.91967 18.4197 9.06472 18.5648 9.09356 18.7158C9.11877 18.8478 9.08979 18.9844 9.01314 19.0947C8.92545 19.2211 8.73399 19.2947 8.35107 19.442L3 21.5001Z"></path>
</symbol>
<symbol fill="none" viewBox="0 0 24 24" stroke="currentColor" stroke-width="2" stroke-linecap="round" stroke-linejoin="round" id="outdated">
  <path d="M10.29 3.86L1.82 18a2 2 0 0 0 1.71 3h16.94a2 2 0 0 0 1.71-3L13.71 3.86a2 2 0 0 0-3.42 0z"></path>
  <line x1="12" y1="9" x2="12" y2="13"></line>
  <line x1="12" y1="17" x2="12.01" y2="17"></line>
</symbol>
<symbol fill="none" viewBox="0 0 24 24" stroke="currentColor" stroke-width="2" stroke-linecap="round" stroke-linejoin="round" id="issues">
  <path d="M20.59 13.41l-7.17 7.17a2 2 0 0 1-2.83 0L2 12V2h10l8.59 8.59a2 2 0 0 1 0 2.82z"></path>
  <line x1="7" y1="7" x2="7.01" y2="7"></line>
</symbol>
<symbol fill="none" viewBox="0 0 448 512" id="instagram">
  <g clip-path="url(#clip0_1_4)">
    <path       d="M224.1 141C160.5 141 109.2 192.3 109.2 255.9C109.2 319.5 160.5 370.8 224.1 370.8C287.7 370.8 339 319.5 339 255.9C339 192.3 287.7 141 224.1 141ZM224.1 330.6C183 330.6 149.4 297.1 149.4 255.9C149.4 214.7 182.9 181.2 224.1 181.2C265.3 181.2 298.8 214.7 298.8 255.9C298.8 297.1 265.2 330.6 224.1 330.6ZM370.5 136.3C370.5 151.2 358.5 163.1 343.7 163.1C328.8 163.1 316.9 151.1 316.9 136.3C316.9 121.5 328.9 109.5 343.7 109.5C358.5 109.5 370.5 121.5 370.5 136.3ZM446.6 163.5C444.9 127.6 436.7 95.8 410.4 69.6C384.2 43.4 352.4 35.2 316.5 33.4C279.5 31.3 168.6 31.3 131.6 33.4C95.8 35.1 64 43.3 37.7 69.5C11.4 95.7 3.29999 127.5 1.49999 163.4C-0.600012 200.4 -0.600012 311.3 1.49999 348.3C3.19999 384.2 11.4 416 37.7 442.2C64 468.4 95.7 476.6 131.6 478.4C168.6 480.5 279.5 480.5 316.5 478.4C352.4 476.7 384.2 468.5 410.4 442.2C436.6 416 444.8 384.2 446.6 348.3C448.7 311.3 448.7 200.5 446.6 163.5ZM398.8 388C391 407.6 375.9 422.7 356.2 430.6C326.7 442.3 256.7 439.6 224.1 439.6C191.5 439.6 121.4 442.2 92 430.6C72.4 422.8 57.3 407.7 49.4 388C37.7 358.5 40.4 288.5 40.4 255.9C40.4 223.3 37.8 153.2 49.4 123.8C57.2 104.2 72.3 89.1 92 81.2C121.5 69.5 191.5 72.2 224.1 72.2C256.7 72.2 326.8 69.6 356.2 81.2C375.8 89 390.9 104.1 398.8 123.8C410.5 153.3 407.8 223.3 407.8 255.9C407.8 288.5 410.5 358.6 398.8 388Z"
      fill="currentColor"></path>
  </g>
  <defs>
    <clipPath id="clip0_1_4">
      <rect width="448" height="512" fill="white"></rect>
    </clipPath>
  </defs>
</symbol>
<symbol fill="none" viewBox="0 0 24 24" stroke="currentColor" stroke-width="2" stroke-linecap="round" stroke-linejoin="round" id="info-circle">
  <path     d="M12 16V12M12 8H12.01M22 12C22 17.5228 17.5228 22 12 22C6.47715 22 2 17.5228 2 12C2 6.47715 6.47715 2 12 2C17.5228 2 22 6.47715 22 12Z"></path>
</symbol>
<symbol fill="none" viewBox="0 0 25 24" stroke="currentColor" stroke-width="2" stroke-linecap="round" stroke-linejoin="round" id="globe">
  <path     d="M2.5 12H22.5M2.5 12C2.5 17.5228 6.97715 22 12.5 22M2.5 12C2.5 6.47715 6.97715 2 12.5 2M22.5 12C22.5 17.5228 18.0228 22 12.5 22M22.5 12C22.5 6.47715 18.0228 2 12.5 2M12.5 2C15.0013 4.73835 16.4228 8.29203 16.5 12C16.4228 15.708 15.0013 19.2616 12.5 22M12.5 2C9.99872 4.73835 8.57725 8.29203 8.5 12C8.57725 15.708 9.99872 19.2616 12.5 22"></path>
</symbol>
<symbol fill="none" viewBox="0 0 512 512" id="facebook">
  <path     d="M504 256C504 119 393 8 256 8C119 8 8 119 8 256C8 379.78 98.69 482.38 217.25 501V327.69H154.25V256H217.25V201.36C217.25 139.21 254.25 104.88 310.92 104.88C338.06 104.88 366.44 109.72 366.44 109.72V170.72H335.16C304.36 170.72 294.75 189.84 294.75 209.45V256H363.53L352.53 327.69H294.75V501C413.31 482.38 504 379.78 504 256Z"
    fill="currentColor"></path>
</symbol>
<symbol fill="none" viewBox="0 0 16 16" id="external">
  <path d="M3 13L13 3M13 3H5.5M13 3V10.5" stroke="currentColor" stroke-width="1.5"
    stroke-linecap="round" stroke-linejoin="round"></path>
</symbol>
<symbol viewBox="0 0 512 512" id="email">
  <path     d="M64 112C55.2 112 48 119.2 48 128V150.1L220.5 291.7C241.2 308.7 270.9 308.7 291.6 291.7L464 150.1V128C464 119.2 456.8 112 448 112H64ZM48 212.2V384C48 392.8 55.2 400 64 400H448C456.8 400 464 392.8 464 384V212.2L322 328.8C283.6 360.3 228.3 360.3 190 328.8L48 212.2ZM0 128C0 92.7 28.7 64 64 64H448C483.3 64 512 92.7 512 128V384C512 419.3 483.3 448 448 448H64C28.7 448 0 419.3 0 384V128Z"
    fill="currentColor"></path>
</symbol>
<symbol fill="none" viewBox="0 0 25 24" id="dots-horizontal">
  <path     d="M12.5 13C13.0523 13 13.5 12.5523 13.5 12C13.5 11.4477 13.0523 11 12.5 11C11.9477 11 11.5 11.4477 11.5 12C11.5 12.5523 11.9477 13 12.5 13Z"
    stroke="currentColor" stroke-width="2" stroke-linecap="round" stroke-linejoin="round"></path>
  <path     d="M19.5 13C20.0523 13 20.5 12.5523 20.5 12C20.5 11.4477 20.0523 11 19.5 11C18.9477 11 18.5 11.4477 18.5 12C18.5 12.5523 18.9477 13 19.5 13Z"
    stroke="currentColor" stroke-width="2" stroke-linecap="round" stroke-linejoin="round"></path>
  <path     d="M5.5 13C6.05228 13 6.5 12.5523 6.5 12C6.5 11.4477 6.05228 11 5.5 11C4.94772 11 4.5 11.4477 4.5 12C4.5 12.5523 4.94772 13 5.5 13Z"
    stroke="currentColor" stroke-width="2" stroke-linecap="round" stroke-linejoin="round"></path>
</symbol>
<symbol fill="none" viewBox="0 0 25 24" id="compass">
  <path     d="M12.5 22C18.0228 22 22.5 17.5228 22.5 12C22.5 6.47715 18.0228 2 12.5 2C6.97715 2 2.5 6.47715 2.5 12C2.5 17.5228 6.97715 22 12.5 22Z"
    stroke="currentColor" stroke-width="2" stroke-linecap="round" stroke-linejoin="round"></path>
  <path     d="M15.2221 8.26596C15.7107 8.10312 15.9549 8.02169 16.1174 8.07962C16.2587 8.13003 16.37 8.24127 16.4204 8.38263C16.4783 8.54507 16.3969 8.78935 16.234 9.27789L14.7465 13.7405C14.7001 13.8797 14.6769 13.9492 14.6374 14.007C14.6024 14.0582 14.5582 14.1024 14.507 14.1374C14.4492 14.1769 14.3797 14.2001 14.2405 14.2465L9.77789 15.734C9.28935 15.8969 9.04507 15.9783 8.88263 15.9204C8.74127 15.87 8.63003 15.7587 8.57962 15.6174C8.52169 15.4549 8.60312 15.2107 8.76596 14.7221L10.2535 10.2595C10.2999 10.1203 10.3231 10.0508 10.3626 9.99299C10.3976 9.94182 10.4418 9.8976 10.493 9.8626C10.5508 9.82308 10.6203 9.79989 10.7595 9.75351L15.2221 8.26596Z"
    stroke="currentColor" stroke-width="2" stroke-linecap="round" stroke-linejoin="round"></path>
</symbol>
<symbol fill="none" viewBox="0 0 17 17" id="clock">
  <path     d="M8.49967 4.49998V8.49998L11.1663 9.83331M15.1663 8.49998C15.1663 12.1819 12.1816 15.1666 8.49967 15.1666C4.81778 15.1666 1.83301 12.1819 1.83301 8.49998C1.83301 4.81808 4.81778 1.83331 8.49967 1.83331C12.1816 1.83331 15.1663 4.81808 15.1663 8.49998Z"
    stroke="currentColor" stroke-width="1.33333" stroke-linecap="round" stroke-linejoin="round"></path>
</symbol>
<symbol fill="none" viewBox="0 0 32 43" id="boosted-icon-pin">
  <path     d="M0 16.0333C0 6.08 8.05161 0.131836 15.8361 0.131836C23.6205 0.131836 31.6721 6.08 31.6721 16.0333C31.6721 26.461 16.9494 41.3035 16.3229 41.9301C16.1941 42.0595 16.0185 42.1318 15.8361 42.1318C15.6536 42.1318 15.478 42.0595 15.3493 41.9301C14.7227 41.3035 0 26.461 0 16.0333Z"
    fill="#F7931A"></path>
</symbol>
<symbol fill="none" viewBox="0 0 17 17" id="boost">
  <path     d="M11.1663 8.49998L8.49967 5.83331M8.49967 5.83331L5.83301 8.49998M8.49967 5.83331V11.1666M15.1663 8.49998C15.1663 12.1819 12.1816 15.1666 8.49967 15.1666C4.81778 15.1666 1.83301 12.1819 1.83301 8.49998C1.83301 4.81808 4.81778 1.83331 8.49967 1.83331C12.1816 1.83331 15.1663 4.81808 15.1663 8.49998Z"
    stroke="currentColor" stroke-width="1.33333" stroke-linecap="round" stroke-linejoin="round"></path>
</symbol>
<symbol fill="none" viewBox="0 0 16 16" id="boost-solid">
  <path fill-rule="evenodd" clip-rule="evenodd"
    d="M8 1.5C4.41015 1.5 1.5 4.41015 1.5 8C1.5 11.5899 4.41015 14.5 8 14.5C11.5899 14.5 14.5 11.5899 14.5 8C14.5 4.41015 11.5899 1.5 8 1.5ZM8.35355 5.14645C8.25979 5.05268 8.13261 5 8 5C7.86739 5 7.74021 5.05268 7.64645 5.14645L5.64645 7.14645C5.45118 7.34171 5.45118 7.65829 5.64645 7.85355C5.84171 8.04881 6.15829 8.04881 6.35355 7.85355L7.5 6.70711L7.5 10.5C7.5 10.7761 7.72386 11 8 11C8.27614 11 8.5 10.7761 8.5 10.5L8.5 6.70711L9.64645 7.85355C9.84171 8.04882 10.1583 8.04882 10.3536 7.85355C10.5488 7.65829 10.5488 7.34171 10.3536 7.14645L8.35355 5.14645Z"
    fill="white"></path>
</symbol>
<symbol fill="none" viewBox="0 0 25 26" id="bolt">
  <path d="M14.75 1.75L11.75 10.75H23.75L10.25 24.25L11.75 15.25H1.25L14.75 1.75Z"
    stroke="currentColor" stroke-width="2" stroke-miterlimit="10" stroke-linecap="round"
    stroke-linejoin="round"></path>
</symbol>
</defs>
</svg>