<svg width="20" height="21" viewBox="0 0 20 21" fill="none" xmlns="http://www.w3.org/2000/svg">
<path d="M10.0007 1.53668C10.4609 1.53668 10.834 1.90978 10.834 2.37002V4.03668C10.834 4.49692 10.4609 4.87002 10.0007 4.87002C9.54041 4.87002 9.16732 4.49692 9.16732 4.03668V2.37002C9.16732 1.90978 9.54041 1.53668 10.0007 1.53668Z" fill="#F2994A"/>
<path d="M4.69717 4.22156C4.37173 3.89612 3.84409 3.89612 3.51865 4.22156C3.19322 4.54699 3.19322 5.07463 3.51865 5.40007L4.69717 6.57858C5.0226 6.90402 5.55024 6.90402 5.87568 6.57858C6.20111 6.25314 6.20111 5.7255 5.87568 5.40007L4.69717 4.22156Z" fill="#F2994A"/>
<path d="M0.833984 10.7033C0.833984 10.2431 1.20708 9.87002 1.66732 9.87002H3.33398C3.79422 9.87002 4.16732 10.2431 4.16732 10.7033C4.16732 11.1636 3.79422 11.5367 3.33398 11.5367H1.66732C1.20708 11.5367 0.833984 11.1636 0.833984 10.7033Z" fill="#F2994A"/>
<path d="M16.6673 9.87002C16.2071 9.87002 15.834 10.2431 15.834 10.7033C15.834 11.1636 16.2071 11.5367 16.6673 11.5367H18.334C18.7942 11.5367 19.1673 11.1636 19.1673 10.7033C19.1673 10.2431 18.7942 9.87002 18.334 9.87002H16.6673Z" fill="#F2994A"/>
<path d="M15.3039 14.828C14.9784 14.5026 14.4508 14.5026 14.1253 14.828C13.7999 15.1535 13.7999 15.6811 14.1253 16.0066L15.3039 17.1851C15.6293 17.5105 16.1569 17.5105 16.4824 17.1851C16.8078 16.8596 16.8078 16.332 16.4824 16.0066L15.3039 14.828Z" fill="#F2994A"/>
<path d="M16.4824 5.40007C16.8078 5.07463 16.8078 4.54699 16.4824 4.22156C16.1569 3.89612 15.6293 3.89612 15.3039 4.22156L14.1253 5.40007C13.7999 5.7255 13.7999 6.25314 14.1253 6.57858C14.4508 6.90402 14.9784 6.90402 15.3039 6.57858L16.4824 5.40007Z" fill="#F2994A"/>
<path d="M10.0007 16.5367C10.4609 16.5367 10.834 16.9098 10.834 17.37V19.0367C10.834 19.4969 10.4609 19.87 10.0007 19.87C9.54041 19.87 9.16732 19.4969 9.16732 19.0367V17.37C9.16732 16.9098 9.54041 16.5367 10.0007 16.5367Z" fill="#F2994A"/>
<path d="M5.87568 16.0066C6.20111 15.6811 6.20111 15.1535 5.87568 14.828C5.55024 14.5026 5.0226 14.5026 4.69717 14.828L3.51865 16.0066C3.19322 16.332 3.19322 16.8596 3.51865 17.1851C3.84409 17.5105 4.37173 17.5105 4.69717 17.1851L5.87568 16.0066Z" fill="#F2994A"/>
<path d="M10.7479 6.16783C10.6075 5.88341 10.3179 5.70335 10.0007 5.70335C9.68349 5.70335 9.39381 5.88341 9.25342 6.16783L8.15962 8.38374L5.71349 8.74128C5.39969 8.78714 5.13912 9.00715 5.0413 9.30882C4.94349 9.61049 5.02538 9.94154 5.25256 10.1628L7.02191 11.8862L6.60433 14.3208C6.55071 14.6335 6.67925 14.9495 6.9359 15.1359C7.19255 15.3223 7.53279 15.3469 7.81355 15.1992L10.0007 14.0491L12.1878 15.1992C12.4686 15.3469 12.8088 15.3223 13.0655 15.1359C13.3221 14.9495 13.4506 14.6335 13.397 14.3208L12.9794 11.8862L14.7488 10.1628C14.976 9.94154 15.0579 9.61049 14.96 9.30882C14.8622 9.00715 14.6017 8.78714 14.2879 8.74128L11.8417 8.38374L10.7479 6.16783Z" fill="#F2994A"/>
</svg>
