<svg width="24" height="24" viewBox="0 0 24 24" fill="none" xmlns="http://www.w3.org/2000/svg">
<path d="M3.00092 19.2343L2.25103 19.2469C2.25537 19.5054 2.39256 19.7435 2.61406 19.8768L3.00092 19.2343ZM15.7491 19.2343L16.1359 19.8768C16.3574 19.7435 16.4946 19.5054 16.499 19.2469L15.7491 19.2343ZM15.75 19.1276L16.5 19.1278V19.1276H15.75ZM18.75 7.5C18.75 7.08579 18.4142 6.75 18 6.75C17.5858 6.75 17.25 7.08579 17.25 7.5H18.75ZM17.25 13.5C17.25 13.9142 17.5858 14.25 18 14.25C18.4142 14.25 18.75 13.9142 18.75 13.5H17.25ZM21 11.25C21.4142 11.25 21.75 10.9142 21.75 10.5C21.75 10.0858 21.4142 9.75 21 9.75V11.25ZM15 9.75C14.5858 9.75 14.25 10.0858 14.25 10.5C14.25 10.9142 14.5858 11.25 15 11.25V9.75ZM12 6.375C12 7.82475 10.8247 9 9.375 9V10.5C11.6532 10.5 13.5 8.65317 13.5 6.375H12ZM9.375 9C7.92525 9 6.75 7.82475 6.75 6.375H5.25C5.25 8.65317 7.09683 10.5 9.375 10.5V9ZM6.75 6.375C6.75 4.92525 7.92525 3.75 9.375 3.75V2.25C7.09683 2.25 5.25 4.09683 5.25 6.375H6.75ZM9.375 3.75C10.8247 3.75 12 4.92525 12 6.375H13.5C13.5 4.09683 11.6532 2.25 9.375 2.25V3.75ZM3.75081 19.2217C3.75027 19.1895 3.75 19.1573 3.75 19.125H2.25C2.25 19.1657 2.25034 19.2064 2.25103 19.2469L3.75081 19.2217ZM3.75 19.125C3.75 16.0184 6.2684 13.5 9.375 13.5V12C5.43997 12 2.25 15.19 2.25 19.125H3.75ZM15.3622 18.5918C13.614 19.6444 11.5664 20.25 9.375 20.25V21.75C11.8466 21.75 14.1607 21.0661 16.1359 19.8768L15.3622 18.5918ZM9.375 20.25C7.18362 20.25 5.13599 19.6444 3.38778 18.5918L2.61406 19.8768C4.5893 21.0661 6.90343 21.75 9.375 21.75V20.25ZM15 19.125V19.1276H16.5V19.125H15ZM15 19.1273C15 19.1588 14.9997 19.1903 14.9992 19.2217L16.499 19.2469C16.4996 19.2074 16.5 19.1677 16.5 19.1278L15 19.1273ZM9.375 13.5C12.4816 13.5 15 16.0184 15 19.125H16.5C16.5 15.19 13.31 12 9.375 12V13.5ZM17.25 7.5V10.5H18.75V7.5H17.25ZM17.25 10.5V13.5H18.75V10.5H17.25ZM21 9.75H18V11.25H21V9.75ZM18 9.75H15V11.25H18V9.75Z" fill="#0099AF"/>
</svg>
