<svg width="40" height="40" viewBox="0 0 40 40" fill="none" xmlns="http://www.w3.org/2000/svg">
<path d="M16.6669 37.5C16.6669 37.5 3.33357 24.1667 3.33357 15C3.31733 13.2445 3.65112 11.5034 4.31543 9.87841C4.97974 8.2534 5.96125 6.77708 7.20262 5.53571C8.44398 4.29435 9.9203 3.31284 11.5453 2.64853C13.1703 1.98422 14.9114 1.65043 16.6669 1.66667C18.4224 1.65043 20.1635 1.98422 21.7885 2.64853C23.4135 3.31284 24.8898 4.29435 26.1312 5.53571C27.3726 6.77708 28.3541 8.2534 29.0184 9.87841C29.6827 11.5034 30.0165 13.2445 30.0002 15C29.9935 15.8414 29.896 16.6796 29.7094 17.5" stroke="#0099AF" stroke-width="2" stroke-miterlimit="10" stroke-linecap="square"/>
<path d="M16.6667 19.1667C18.9679 19.1667 20.8333 17.3012 20.8333 15C20.8333 12.6988 18.9679 10.8333 16.6667 10.8333C14.3655 10.8333 12.5 12.6988 12.5 15C12.5 17.3012 14.3655 19.1667 16.6667 19.1667Z" stroke="#0099AF" stroke-width="2" stroke-miterlimit="10" stroke-linecap="square"/>
<path d="M29.167 37.5C33.3091 37.5 36.667 34.1421 36.667 30C36.667 25.8579 33.3091 22.5 29.167 22.5C25.0249 22.5 21.667 25.8579 21.667 30C21.667 34.1421 25.0249 37.5 29.167 37.5Z" stroke="#051173" stroke-width="2" stroke-miterlimit="10" stroke-linecap="square"/>
<path d="M29.167 27.5V32.5" stroke="#051173" stroke-width="2" stroke-miterlimit="10" stroke-linecap="square"/>
<path d="M26.667 30H31.667" stroke="#051173" stroke-width="2" stroke-miterlimit="10" stroke-linecap="square"/>
</svg>
