<svg width="24" height="24" viewBox="0 0 24 24" fill="none" xmlns="http://www.w3.org/2000/svg">
<path d="M3.15 8.55L3.75 9L3.75 9L3.15 8.55ZM5.7375 5.1L5.1375 4.65L5.1375 4.65L5.7375 5.1ZM18.2625 5.1L18.8625 4.65L18.8625 4.65L18.2625 5.1ZM20.85 8.55L20.25 9L20.25 9L20.85 8.55ZM18.75 17.25V16.5C18.3358 16.5 18 16.8358 18 17.25H18.75ZM18.7575 17.25H19.5075C19.5075 16.8358 19.1717 16.5 18.7575 16.5V17.25ZM18.7575 17.2575V18.0075C19.1717 18.0075 19.5075 17.6717 19.5075 17.2575H18.7575ZM18.75 17.2575H18C18 17.6717 18.3358 18.0075 18.75 18.0075V17.2575ZM18.75 11.25V10.5C18.3358 10.5 18 10.8358 18 11.25H18.75ZM18.7575 11.25H19.5075C19.5075 10.8358 19.1717 10.5 18.7575 10.5V11.25ZM18.7575 11.2575V12.0075C19.1717 12.0075 19.5075 11.6717 19.5075 11.2575H18.7575ZM18.75 11.2575H18C18 11.6717 18.3358 12.0075 18.75 12.0075V11.2575ZM15.75 17.25V16.5C15.3358 16.5 15 16.8358 15 17.25H15.75ZM15.7575 17.25H16.5075C16.5075 16.8358 16.1717 16.5 15.7575 16.5V17.25ZM15.7575 17.2575V18.0075C16.1717 18.0075 16.5075 17.6717 16.5075 17.2575H15.7575ZM15.75 17.2575H15C15 17.6717 15.3358 18.0075 15.75 18.0075V17.2575ZM15.75 11.25V10.5C15.3358 10.5 15 10.8358 15 11.25H15.75ZM15.7575 11.25H16.5075C16.5075 10.8358 16.1717 10.5 15.7575 10.5V11.25ZM15.7575 11.2575V12.0075C16.1717 12.0075 16.5075 11.6717 16.5075 11.2575H15.7575ZM15.75 11.2575H15C15 11.6717 15.3358 12.0075 15.75 12.0075V11.2575ZM5.25 9H18.75V7.5H5.25V9ZM18.75 13.5H5.25V15H18.75V13.5ZM5.25 13.5C4.00736 13.5 3 12.4926 3 11.25H1.5C1.5 13.3211 3.17893 15 5.25 15V13.5ZM21 11.25C21 12.4926 19.9926 13.5 18.75 13.5V15C20.8211 15 22.5 13.3211 22.5 11.25H21ZM18.75 9C19.9926 9 21 10.0074 21 11.25H22.5C22.5 9.17893 20.8211 7.5 18.75 7.5V9ZM5.25 7.5C3.17893 7.5 1.5 9.17893 1.5 11.25H3C3 10.0074 4.00736 9 5.25 9V7.5ZM3.75 9L6.3375 5.55L5.1375 4.65L2.55 8.1L3.75 9ZM8.4375 4.5H15.5625V3H8.4375V4.5ZM17.6625 5.55L20.25 9L21.45 8.1L18.8625 4.65L17.6625 5.55ZM6.3375 5.55C6.83324 4.88901 7.61126 4.5 8.4375 4.5V3C7.13913 3 5.91652 3.6113 5.1375 4.65L6.3375 5.55ZM22.5 11.25C22.5 10.1141 22.1316 9.00875 21.45 8.1L20.25 9C20.7368 9.64911 21 10.4386 21 11.25H22.5ZM15.5625 4.5C16.3887 4.5 17.1668 4.88901 17.6625 5.55L18.8625 4.65C18.0835 3.6113 16.8609 3 15.5625 3V4.5ZM3 11.25C3 10.4386 3.26317 9.64911 3.75 9L2.55 8.1C1.86843 9.00875 1.5 10.1141 1.5 11.25H3ZM18.75 19.5H5.25V21H18.75V19.5ZM5.25 19.5C4.00736 19.5 3 18.4926 3 17.25H1.5C1.5 19.3211 3.17893 21 5.25 21V19.5ZM21 17.25C21 18.4926 19.9926 19.5 18.75 19.5V21C20.8211 21 22.5 19.3211 22.5 17.25H21ZM18.75 15C19.9926 15 21 16.0074 21 17.25H22.5C22.5 15.1789 20.8211 13.5 18.75 13.5V15ZM5.25 13.5C3.17893 13.5 1.5 15.1789 1.5 17.25H3C3 16.0074 4.00736 15 5.25 15V13.5ZM18.75 18H18.7575V16.5H18.75V18ZM18.0075 17.25V17.2575H19.5075V17.25H18.0075ZM18.7575 16.5075H18.75V18.0075H18.7575V16.5075ZM19.5 17.2575V17.25H18V17.2575H19.5ZM18.75 12H18.7575V10.5H18.75V12ZM18.0075 11.25V11.2575H19.5075V11.25H18.0075ZM18.7575 10.5075H18.75V12.0075H18.7575V10.5075ZM19.5 11.2575V11.25H18V11.2575H19.5ZM15.75 18H15.7575V16.5H15.75V18ZM15.0075 17.25V17.2575H16.5075V17.25H15.0075ZM15.7575 16.5075H15.75V18.0075H15.7575V16.5075ZM16.5 17.2575V17.25H15V17.2575H16.5ZM15.75 12H15.7575V10.5H15.75V12ZM15.0075 11.25V11.2575H16.5075V11.25H15.0075ZM15.7575 10.5075H15.75V12.0075H15.7575V10.5075ZM16.5 11.2575V11.25H15V11.2575H16.5Z" fill="#0099AF"/>
</svg>
