<svg width="40" height="40" viewBox="0 0 40 40" fill="none" xmlns="http://www.w3.org/2000/svg">
<path d="M25.3585 14.4167C25.0037 14.0626 24.5806 13.7844 24.1149 13.5988C23.6493 13.4132 23.1508 13.3242 22.6497 13.3371C22.1486 13.3501 21.6553 13.4647 21.1999 13.674C20.7444 13.8834 20.3363 14.1831 20.0002 14.555C19.6691 14.191 19.2686 13.8968 18.8223 13.6896C18.376 13.4824 17.8929 13.3664 17.4011 13.3484C16.9094 13.3305 16.4191 13.4109 15.9588 13.5849C15.4986 13.759 15.0777 14.0232 14.721 14.362C14.3642 14.7009 14.0787 15.1076 13.8812 15.5582C13.6836 16.0089 13.5781 16.4945 13.5707 16.9864C13.5634 17.4784 13.6543 17.967 13.8382 18.4233C14.0222 18.8797 14.2954 19.2948 14.6418 19.6442L20.0002 25L25.3585 19.6408C26.0516 18.9477 26.441 18.0077 26.441 17.0275C26.441 16.0473 26.0516 15.1073 25.3585 14.4142V14.4167Z" stroke="#051173" stroke-width="2" stroke-miterlimit="10" stroke-linecap="square"/>
<path d="M7.49414 31.6667H32.5058" stroke="#0099AF" stroke-width="2" stroke-miterlimit="10"/>
<path d="M7.49414 6.66666H32.4941" stroke="#0099AF" stroke-width="2" stroke-miterlimit="10"/>
<path d="M32.5058 35C32.5058 35.884 32.1546 36.7319 31.5295 37.357C30.9044 37.9821 30.0565 38.3333 29.1725 38.3333H10.8275C9.94342 38.3333 9.09557 37.9821 8.47045 37.357C7.84533 36.7319 7.49414 35.884 7.49414 35V4.99999C7.49414 4.11593 7.84533 3.26809 8.47045 2.64297C9.09557 2.01785 9.94342 1.66666 10.8275 1.66666H29.1725C30.0565 1.66666 30.9044 2.01785 31.5295 2.64297C32.1546 3.26809 32.5058 4.11593 32.5058 4.99999V35Z" stroke="#0099AF" stroke-width="2" stroke-miterlimit="10" stroke-linecap="square"/>
</svg>
