<svg width="24" height="24" viewBox="0 0 24 24" fill="none" xmlns="http://www.w3.org/2000/svg">
<path d="M14.3179 21.8659C14.4251 22.266 14.8363 22.5035 15.2364 22.3963C15.6365 22.289 15.874 21.8778 15.7668 21.4777L14.3179 21.8659ZM13.6835 16.6007L13.8339 15.8659C13.6026 15.8186 13.3625 15.8829 13.1859 16.0396L13.6835 16.6007ZM11.1741 18.826L10.4254 18.7811C10.4073 19.0839 10.5733 19.3678 10.8461 19.5005C11.1189 19.6332 11.4448 19.5884 11.6717 19.3872L11.1741 18.826ZM11.7425 9.35623L12.3684 8.94299C12.1905 8.67359 11.8602 8.54824 11.5484 8.63179C11.2366 8.71534 11.0132 8.98905 10.9939 9.3113L11.7425 9.35623ZM16.9697 17.2731L16.8193 18.0079C17.1165 18.0687 17.421 17.9445 17.591 17.6932C17.7609 17.4419 17.7627 17.113 17.5955 16.8599L16.9697 17.2731ZM5.63604 16.864C5.92893 17.1569 6.40381 17.1569 6.6967 16.864C6.98959 16.5711 6.98959 16.0962 6.6967 15.8033L5.63604 16.864ZM19.5 10.4999C19.5 10.9141 19.8358 11.2499 20.25 11.2499C20.6642 11.2498 21 10.9141 21 10.4998L19.5 10.4999ZM7.75736 14.7426C8.05025 15.0355 8.52513 15.0355 8.81802 14.7426C9.11091 14.4497 9.11091 13.9749 8.81802 13.682L7.75736 14.7426ZM16.5 10.4999C16.5 10.9142 16.8358 11.2499 17.25 11.2499C17.6642 11.2499 18 10.9141 18 10.4999L16.5 10.4999ZM15.7668 21.4777L14.408 16.4066L12.9591 16.7948L14.3179 21.8659L15.7668 21.4777ZM13.1859 16.0396L10.6765 18.2649L11.6717 19.3872L14.1811 17.1618L13.1859 16.0396ZM11.9228 18.871L12.4912 9.40117L10.9939 9.3113L10.4254 18.7811L11.9228 18.871ZM11.1166 9.76948L16.3438 17.6864L17.5955 16.8599L12.3684 8.94299L11.1166 9.76948ZM17.12 16.5383L13.8339 15.8659L13.5332 17.3355L16.8193 18.0079L17.12 16.5383ZM6.6967 15.8033C3.76777 12.8744 3.76777 8.12563 6.6967 5.1967L5.63604 4.13604C2.12132 7.65076 2.12132 13.3492 5.63604 16.864L6.6967 15.8033ZM6.6967 5.1967C9.62563 2.26777 14.3744 2.26777 17.3033 5.1967L18.364 4.13604C14.8492 0.62132 9.15076 0.62132 5.63604 4.13604L6.6967 5.1967ZM17.3033 5.1967C18.7679 6.66128 19.5 8.57933 19.5 10.4999L21 10.4998C21 8.19775 20.1211 5.89321 18.364 4.13604L17.3033 5.1967ZM8.81802 13.682C7.06066 11.9246 7.06066 9.07538 8.81802 7.31802L7.75736 6.25736C5.41421 8.60051 5.41421 12.3995 7.75736 14.7426L8.81802 13.682ZM8.81802 7.31802C10.5754 5.56066 13.4246 5.56066 15.182 7.31802L16.2426 6.25736C13.8995 3.91421 10.1005 3.91421 7.75736 6.25736L8.81802 7.31802ZM15.182 7.31802C16.0608 8.19683 16.5 9.34715 16.5 10.4999L18 10.4999C18 8.96558 17.414 7.42877 16.2426 6.25736L15.182 7.31802Z" fill="#144046"/>
</svg>
