<svg width="24" height="24" viewBox="0 0 24 24" fill="none" xmlns="http://www.w3.org/2000/svg">
<path d="M21 4.26212H21.75C21.75 3.94425 21.5496 3.66091 21.2499 3.55499L21 4.26212ZM3 4.26212L2.75007 3.55499C2.45037 3.66091 2.25 3.94425 2.25 4.26212H3ZM12 20.2917L11.4998 20.8505C11.7846 21.1054 12.2154 21.1054 12.5002 20.8505L12 20.2917ZM21 18.5121L20.7501 19.2192C20.9796 19.3004 21.2343 19.265 21.433 19.1245C21.6318 18.9839 21.75 18.7556 21.75 18.5121H21ZM3 18.5121H2.25C2.25 18.7556 2.36818 18.9839 2.56696 19.1245C2.76574 19.265 3.02039 19.3004 3.24993 19.2192L3 18.5121ZM6 4.5C8.11345 4.5 10.0397 5.29373 11.4998 6.60053L12.5002 5.48283C10.7757 3.9394 8.49667 3 6 3V4.5ZM12.5002 6.60053C13.9603 5.29373 15.8865 4.5 18 4.5V3C15.5033 3 13.2243 3.9394 11.4998 5.48283L12.5002 6.60053ZM18 4.5C18.9656 4.5 19.8909 4.66557 20.7501 4.96925L21.2499 3.55499C20.2324 3.19535 19.1382 3 18 3V4.5ZM3.24993 4.96925C4.10911 4.66557 5.03441 4.5 6 4.5V3C4.86178 3 3.76756 3.19535 2.75007 3.55499L3.24993 4.96925ZM6 18.75C8.11345 18.75 10.0397 19.5437 11.4998 20.8505L12.5002 19.7328C10.7757 18.1894 8.49667 17.25 6 17.25V18.75ZM12.5002 20.8505C13.9603 19.5437 15.8865 18.75 18 18.75V17.25C15.5033 17.25 13.2243 18.1894 11.4998 19.7328L12.5002 20.8505ZM18 18.75C18.9656 18.75 19.8909 18.9156 20.7501 19.2192L21.2499 17.805C20.2324 17.4454 19.1382 17.25 18 17.25V18.75ZM3.24993 19.2192C4.10911 18.9156 5.03441 18.75 6 18.75V17.25C4.86178 17.25 3.76756 17.4454 2.75007 17.805L3.24993 19.2192ZM2.25 4.26212V18.5121H3.75V4.26212H2.25ZM20.25 4.26212V18.5121H21.75V4.26212H20.25ZM11.25 6.04168V20.2917H12.75V6.04168H11.25Z" fill="#0099AF"/>
</svg>
