<svg width="40" height="40" viewBox="0 0 40 40" fill="none" xmlns="http://www.w3.org/2000/svg">
<path d="M24.1648 36.3883L14.9998 33.3333L1.6665 36.6667V6.66668L14.9998 3.33334L24.9998 6.66668L38.3332 3.33334V17.5" stroke="#0099AF" stroke-width="2" stroke-miterlimit="10" stroke-linecap="square"/>
<path d="M38.3333 27.195C38.3333 31.1383 31.6667 37.5 31.6667 37.5C31.6667 37.5 25 31.1383 25 27.195C25 23.1233 28.4667 20.8333 31.6667 20.8333C34.8667 20.8333 38.3333 23.1233 38.3333 27.195Z" stroke="#051173" stroke-width="2" stroke-miterlimit="10" stroke-linecap="square"/>
<path d="M31.6663 28.3334C32.1266 28.3334 32.4997 27.9603 32.4997 27.5C32.4997 27.0398 32.1266 26.6667 31.6663 26.6667C31.2061 26.6667 30.833 27.0398 30.833 27.5C30.833 27.9603 31.2061 28.3334 31.6663 28.3334Z" stroke="#051173" stroke-width="2" stroke-miterlimit="10" stroke-linecap="square"/>
<path d="M31.6663 28.3334C32.1266 28.3334 32.4997 27.9603 32.4997 27.5C32.4997 27.0398 32.1266 26.6667 31.6663 26.6667C31.2061 26.6667 30.833 27.0398 30.833 27.5C30.833 27.9603 31.2061 28.3334 31.6663 28.3334Z" fill="#051173"/>
</svg>
