<svg width="0" height="0" class="hidden">
  <symbol fill="none" xmlns="http://www.w3.org/2000/svg" viewBox="0 0 24 24" id="activity">
    <path d="M3.00092 19.2343L2.25103 19.2469C2.25537 19.5054 2.39256 19.7435 2.61406 19.8768L3.00092 19.2343ZM15.7491 19.2343L16.1359 19.8768C16.3574 19.7435 16.4946 19.5054 16.499 19.2469L15.7491 19.2343ZM15.75 19.1276L16.5 19.1278V19.1276H15.75ZM18.75 7.5C18.75 7.08579 18.4142 6.75 18 6.75C17.5858 6.75 17.25 7.08579 17.25 7.5H18.75ZM17.25 13.5C17.25 13.9142 17.5858 14.25 18 14.25C18.4142 14.25 18.75 13.9142 18.75 13.5H17.25ZM21 11.25C21.4142 11.25 21.75 10.9142 21.75 10.5C21.75 10.0858 21.4142 9.75 21 9.75V11.25ZM15 9.75C14.5858 9.75 14.25 10.0858 14.25 10.5C14.25 10.9142 14.5858 11.25 15 11.25V9.75ZM12 6.375C12 7.82475 10.8247 9 9.375 9V10.5C11.6532 10.5 13.5 8.65317 13.5 6.375H12ZM9.375 9C7.92525 9 6.75 7.82475 6.75 6.375H5.25C5.25 8.65317 7.09683 10.5 9.375 10.5V9ZM6.75 6.375C6.75 4.92525 7.92525 3.75 9.375 3.75V2.25C7.09683 2.25 5.25 4.09683 5.25 6.375H6.75ZM9.375 3.75C10.8247 3.75 12 4.92525 12 6.375H13.5C13.5 4.09683 11.6532 2.25 9.375 2.25V3.75ZM3.75081 19.2217C3.75027 19.1895 3.75 19.1573 3.75 19.125H2.25C2.25 19.1657 2.25034 19.2064 2.25103 19.2469L3.75081 19.2217ZM3.75 19.125C3.75 16.0184 6.2684 13.5 9.375 13.5V12C5.43997 12 2.25 15.19 2.25 19.125H3.75ZM15.3622 18.5918C13.614 19.6444 11.5664 20.25 9.375 20.25V21.75C11.8466 21.75 14.1607 21.0661 16.1359 19.8768L15.3622 18.5918ZM9.375 20.25C7.18362 20.25 5.13599 19.6444 3.38778 18.5918L2.61406 19.8768C4.5893 21.0661 6.90343 21.75 9.375 21.75V20.25ZM15 19.125V19.1276H16.5V19.125H15ZM15 19.1273C15 19.1588 14.9997 19.1903 14.9992 19.2217L16.499 19.2469C16.4996 19.2074 16.5 19.1677 16.5 19.1278L15 19.1273ZM9.375 13.5C12.4816 13.5 15 16.0184 15 19.125H16.5C16.5 15.19 13.31 12 9.375 12V13.5ZM17.25 7.5V10.5H18.75V7.5H17.25ZM17.25 10.5V13.5H18.75V10.5H17.25ZM21 9.75H18V11.25H21V9.75ZM18 9.75H15V11.25H18V9.75Z" fill="#0099AF"></path>
  </symbol>
  <symbol fill="none" xmlns="http://www.w3.org/2000/svg" viewBox="0 0 24 24" id="add">
    <path opacity="0.12" d="M12 17C13.5 14 18 12.0637 18 8C18 4.68629 15.3137 2 12 2C8.68629 2 6 4.68629 6 8C6 12.0637 10.5 14 12 17Z" fill="#0099AF"></path>
    <path d="M5 14.2864C3.14864 15.1031 2 16.2412 2 17.5C2 19.9853 6.47715 22 12 22C17.5228 22 22 19.9853 22 17.5C22 16.2412 20.8514 15.1031 19 14.2864M18 8C18 12.0637 13.5 14 12 17C10.5 14 6 12.0637 6 8C6 4.68629 8.68629 2 12 2C15.3137 2 18 4.68629 18 8ZM13 8C13 8.55228 12.5523 9 12 9C11.4477 9 11 8.55228 11 8C11 7.44772 11.4477 7 12 7C12.5523 7 13 7.44772 13 8Z" stroke="#0099AF" stroke-width="2" stroke-linecap="round" stroke-linejoin="round"></path>
  </symbol>
  <symbol fill="none" xmlns="http://www.w3.org/2000/svg" viewBox="0 0 24 24" id="api">
    <path d="M3.15 8.55L3.75 9L3.75 9L3.15 8.55ZM5.7375 5.1L5.1375 4.65L5.1375 4.65L5.7375 5.1ZM18.2625 5.1L18.8625 4.65L18.8625 4.65L18.2625 5.1ZM20.85 8.55L20.25 9L20.25 9L20.85 8.55ZM18.75 17.25V16.5C18.3358 16.5 18 16.8358 18 17.25H18.75ZM18.7575 17.25H19.5075C19.5075 16.8358 19.1717 16.5 18.7575 16.5V17.25ZM18.7575 17.2575V18.0075C19.1717 18.0075 19.5075 17.6717 19.5075 17.2575H18.7575ZM18.75 17.2575H18C18 17.6717 18.3358 18.0075 18.75 18.0075V17.2575ZM18.75 11.25V10.5C18.3358 10.5 18 10.8358 18 11.25H18.75ZM18.7575 11.25H19.5075C19.5075 10.8358 19.1717 10.5 18.7575 10.5V11.25ZM18.7575 11.2575V12.0075C19.1717 12.0075 19.5075 11.6717 19.5075 11.2575H18.7575ZM18.75 11.2575H18C18 11.6717 18.3358 12.0075 18.75 12.0075V11.2575ZM15.75 17.25V16.5C15.3358 16.5 15 16.8358 15 17.25H15.75ZM15.7575 17.25H16.5075C16.5075 16.8358 16.1717 16.5 15.7575 16.5V17.25ZM15.7575 17.2575V18.0075C16.1717 18.0075 16.5075 17.6717 16.5075 17.2575H15.7575ZM15.75 17.2575H15C15 17.6717 15.3358 18.0075 15.75 18.0075V17.2575ZM15.75 11.25V10.5C15.3358 10.5 15 10.8358 15 11.25H15.75ZM15.7575 11.25H16.5075C16.5075 10.8358 16.1717 10.5 15.7575 10.5V11.25ZM15.7575 11.2575V12.0075C16.1717 12.0075 16.5075 11.6717 16.5075 11.2575H15.7575ZM15.75 11.2575H15C15 11.6717 15.3358 12.0075 15.75 12.0075V11.2575ZM5.25 9H18.75V7.5H5.25V9ZM18.75 13.5H5.25V15H18.75V13.5ZM5.25 13.5C4.00736 13.5 3 12.4926 3 11.25H1.5C1.5 13.3211 3.17893 15 5.25 15V13.5ZM21 11.25C21 12.4926 19.9926 13.5 18.75 13.5V15C20.8211 15 22.5 13.3211 22.5 11.25H21ZM18.75 9C19.9926 9 21 10.0074 21 11.25H22.5C22.5 9.17893 20.8211 7.5 18.75 7.5V9ZM5.25 7.5C3.17893 7.5 1.5 9.17893 1.5 11.25H3C3 10.0074 4.00736 9 5.25 9V7.5ZM3.75 9L6.3375 5.55L5.1375 4.65L2.55 8.1L3.75 9ZM8.4375 4.5H15.5625V3H8.4375V4.5ZM17.6625 5.55L20.25 9L21.45 8.1L18.8625 4.65L17.6625 5.55ZM6.3375 5.55C6.83324 4.88901 7.61126 4.5 8.4375 4.5V3C7.13913 3 5.91652 3.6113 5.1375 4.65L6.3375 5.55ZM22.5 11.25C22.5 10.1141 22.1316 9.00875 21.45 8.1L20.25 9C20.7368 9.64911 21 10.4386 21 11.25H22.5ZM15.5625 4.5C16.3887 4.5 17.1668 4.88901 17.6625 5.55L18.8625 4.65C18.0835 3.6113 16.8609 3 15.5625 3V4.5ZM3 11.25C3 10.4386 3.26317 9.64911 3.75 9L2.55 8.1C1.86843 9.00875 1.5 10.1141 1.5 11.25H3ZM18.75 19.5H5.25V21H18.75V19.5ZM5.25 19.5C4.00736 19.5 3 18.4926 3 17.25H1.5C1.5 19.3211 3.17893 21 5.25 21V19.5ZM21 17.25C21 18.4926 19.9926 19.5 18.75 19.5V21C20.8211 21 22.5 19.3211 22.5 17.25H21ZM18.75 15C19.9926 15 21 16.0074 21 17.25H22.5C22.5 15.1789 20.8211 13.5 18.75 13.5V15ZM5.25 13.5C3.17893 13.5 1.5 15.1789 1.5 17.25H3C3 16.0074 4.00736 15 5.25 15V13.5ZM18.75 18H18.7575V16.5H18.75V18ZM18.0075 17.25V17.2575H19.5075V17.25H18.0075ZM18.7575 16.5075H18.75V18.0075H18.7575V16.5075ZM19.5 17.2575V17.25H18V17.2575H19.5ZM18.75 12H18.7575V10.5H18.75V12ZM18.0075 11.25V11.2575H19.5075V11.25H18.0075ZM18.7575 10.5075H18.75V12.0075H18.7575V10.5075ZM19.5 11.2575V11.25H18V11.2575H19.5ZM15.75 18H15.7575V16.5H15.75V18ZM15.0075 17.25V17.2575H16.5075V17.25H15.0075ZM15.7575 16.5075H15.75V18.0075H15.7575V16.5075ZM16.5 17.2575V17.25H15V17.2575H16.5ZM15.75 12H15.7575V10.5H15.75V12ZM15.0075 11.25V11.2575H16.5075V11.25H15.0075ZM15.7575 10.5075H15.75V12.0075H15.7575V10.5075ZM16.5 11.2575V11.25H15V11.2575H16.5Z" fill="#0099AF"></path>
  </symbol>
  <symbol fill="none" xmlns="http://www.w3.org/2000/svg" viewBox="0 0 24 24" id="apps">
    <path opacity="0.12" d="M5 5.2C5 4.0799 5 3.51984 5.21799 3.09202C5.40973 2.71569 5.71569 2.40973 6.09202 2.21799C6.51984 2 7.0799 2 8.2 2H15.8C16.9201 2 17.4802 2 17.908 2.21799C18.2843 2.40973 18.5903 2.71569 18.782 3.09202C19 3.51984 19 4.07989 19 5.2V18.8C19 19.9201 19 20.4802 18.782 20.908C18.5903 21.2843 18.2843 21.5903 17.908 21.782C17.4802 22 16.9201 22 15.8 22H8.2C7.0799 22 6.51984 22 6.09202 21.782C5.71569 21.5903 5.40973 21.2843 5.21799 20.908C5 20.4802 5 19.9201 5 18.8V5.2Z" fill="#0099AF"></path>
    <path d="M12 17.5H12.01M8.2 22H15.8C16.9201 22 17.4802 22 17.908 21.782C18.2843 21.5903 18.5903 21.2843 18.782 20.908C19 20.4802 19 19.9201 19 18.8V5.2C19 4.07989 19 3.51984 18.782 3.09202C18.5903 2.71569 18.2843 2.40973 17.908 2.21799C17.4802 2 16.9201 2 15.8 2H8.2C7.0799 2 6.51984 2 6.09202 2.21799C5.71569 2.40973 5.40973 2.71569 5.21799 3.09202C5 3.51984 5 4.0799 5 5.2V18.8C5 19.9201 5 20.4802 5.21799 20.908C5.40973 21.2843 5.71569 21.5903 6.09202 21.782C6.51984 22 7.07989 22 8.2 22ZM12.5 17.5C12.5 17.7761 12.2761 18 12 18C11.7239 18 11.5 17.7761 11.5 17.5C11.5 17.2239 11.7239 17 12 17C12.2761 17 12.5 17.2239 12.5 17.5Z" stroke="#0099AF" stroke-width="2" stroke-linecap="round" stroke-linejoin="round"></path>
  </symbol>
  <symbol fill="none" xmlns="http://www.w3.org/2000/svg" viewBox="0 0 34 12" id="bars">
    <rect width="34" height="3" fill="#085D69"></rect>
    <rect y="9" width="34" height="3" fill="#085D69"></rect>
  </symbol>
  <symbol fill="none" xmlns="http://www.w3.org/2000/svg" viewBox="0 0 28 27" id="close">
    <rect x="3.04004" y="0.0415039" width="34" height="3" transform="rotate(45 3.04004 0.0415039)" fill="#085D69"></rect>
    <rect x="0.918457" y="24.0415" width="34" height="3" transform="rotate(-45 0.918457 24.0415)" fill="#085D69"></rect>
  </symbol>
  <symbol fill="none" xmlns="http://www.w3.org/2000/svg" viewBox="0 0 24 24" id="communities">
    <path d="M17.9999 18.7191C18.2474 18.7396 18.4978 18.75 18.7506 18.75C19.7989 18.75 20.8054 18.5708 21.741 18.2413C21.7473 18.1617 21.7506 18.0812 21.7506 18C21.7506 16.3431 20.4074 15 18.7506 15C18.123 15 17.5403 15.1927 17.0587 15.5222M17.9999 18.7191C18 18.7294 18 18.7397 18 18.75C18 18.975 17.9876 19.1971 17.9635 19.4156C16.2067 20.4237 14.1707 21 12 21C9.82933 21 7.79327 20.4237 6.03651 19.4156C6.01238 19.1971 6 18.975 6 18.75C6 18.7397 6.00003 18.7295 6.00008 18.7192M17.9999 18.7191C17.994 17.5426 17.6494 16.4461 17.0587 15.5222M17.0587 15.5222C15.9928 13.8552 14.1255 12.75 12 12.75C9.87479 12.75 8.00765 13.8549 6.94169 15.5216M6.94169 15.5216C6.46023 15.1925 5.87796 15 5.25073 15C3.59388 15 2.25073 16.3431 2.25073 18C2.25073 18.0812 2.25396 18.1617 2.26029 18.2413C3.19593 18.5708 4.2024 18.75 5.25073 18.75C5.50307 18.75 5.75299 18.7396 6.00008 18.7192M6.94169 15.5216C6.35071 16.4457 6.00598 17.5424 6.00008 18.7192M15 6.75C15 8.40685 13.6569 9.75 12 9.75C10.3431 9.75 9 8.40685 9 6.75C9 5.09315 10.3431 3.75 12 3.75C13.6569 3.75 15 5.09315 15 6.75ZM21 9.75C21 10.9926 19.9926 12 18.75 12C17.5074 12 16.5 10.9926 16.5 9.75C16.5 8.50736 17.5074 7.5 18.75 7.5C19.9926 7.5 21 8.50736 21 9.75ZM7.5 9.75C7.5 10.9926 6.49264 12 5.25 12C4.00736 12 3 10.9926 3 9.75C3 8.50736 4.00736 7.5 5.25 7.5C6.49264 7.5 7.5 8.50736 7.5 9.75Z" stroke="#0099AF" stroke-width="1.5" stroke-linecap="round" stroke-linejoin="round"></path>
  </symbol>
  <symbol fill="none" xmlns="http://www.w3.org/2000/svg" viewBox="0 0 24 24" id="communities-highlight">
    <path d="M17.9999 18.7191C18.2474 18.7396 18.4978 18.75 18.7506 18.75C19.7989 18.75 20.8054 18.5708 21.741 18.2413C21.7473 18.1617 21.7506 18.0812 21.7506 18C21.7506 16.3431 20.4074 15 18.7506 15C18.123 15 17.5403 15.1927 17.0587 15.5222M17.9999 18.7191C18 18.7294 18 18.7397 18 18.75C18 18.975 17.9876 19.1971 17.9635 19.4156C16.2067 20.4237 14.1707 21 12 21C9.82933 21 7.79327 20.4237 6.03651 19.4156C6.01238 19.1971 6 18.975 6 18.75C6 18.7397 6.00003 18.7295 6.00008 18.7192M17.9999 18.7191C17.994 17.5426 17.6494 16.4461 17.0587 15.5222M17.0587 15.5222C15.9928 13.8552 14.1255 12.75 12 12.75C9.87479 12.75 8.00765 13.8549 6.94169 15.5216M6.94169 15.5216C6.46023 15.1925 5.87796 15 5.25073 15C3.59388 15 2.25073 16.3431 2.25073 18C2.25073 18.0812 2.25396 18.1617 2.26029 18.2413C3.19593 18.5708 4.2024 18.75 5.25073 18.75C5.50307 18.75 5.75299 18.7396 6.00008 18.7192M6.94169 15.5216C6.35071 16.4457 6.00598 17.5424 6.00008 18.7192M15 6.75C15 8.40685 13.6569 9.75 12 9.75C10.3431 9.75 9 8.40685 9 6.75C9 5.09315 10.3431 3.75 12 3.75C13.6569 3.75 15 5.09315 15 6.75ZM21 9.75C21 10.9926 19.9926 12 18.75 12C17.5074 12 16.5 10.9926 16.5 9.75C16.5 8.50736 17.5074 7.5 18.75 7.5C19.9926 7.5 21 8.50736 21 9.75ZM7.5 9.75C7.5 10.9926 6.49264 12 5.25 12C4.00736 12 3 10.9926 3 9.75C3 8.50736 4.00736 7.5 5.25 7.5C6.49264 7.5 7.5 8.50736 7.5 9.75Z" stroke="#144046" stroke-width="1.5" stroke-linecap="round" stroke-linejoin="round"></path>
  </symbol>
  <symbol fill="none" xmlns="http://www.w3.org/2000/svg" viewBox="0 0 24 24" id="contribute">
    <path d="M14.3179 21.8659C14.4251 22.266 14.8363 22.5035 15.2364 22.3963C15.6365 22.289 15.874 21.8778 15.7668 21.4777L14.3179 21.8659ZM13.6835 16.6007L13.8339 15.8659C13.6026 15.8186 13.3625 15.8829 13.1859 16.0396L13.6835 16.6007ZM11.1741 18.826L10.4254 18.7811C10.4073 19.0839 10.5733 19.3678 10.8461 19.5005C11.1189 19.6332 11.4448 19.5884 11.6717 19.3872L11.1741 18.826ZM11.7425 9.35623L12.3684 8.94299C12.1905 8.67359 11.8602 8.54824 11.5484 8.63179C11.2366 8.71534 11.0132 8.98905 10.9939 9.3113L11.7425 9.35623ZM16.9697 17.2731L16.8193 18.0079C17.1165 18.0687 17.421 17.9445 17.591 17.6932C17.7609 17.4419 17.7627 17.113 17.5955 16.8599L16.9697 17.2731ZM5.63604 16.864C5.92893 17.1569 6.40381 17.1569 6.6967 16.864C6.98959 16.5711 6.98959 16.0962 6.6967 15.8033L5.63604 16.864ZM19.5 10.4999C19.5 10.9141 19.8358 11.2499 20.25 11.2499C20.6642 11.2498 21 10.9141 21 10.4998L19.5 10.4999ZM7.75736 14.7426C8.05025 15.0355 8.52513 15.0355 8.81802 14.7426C9.11091 14.4497 9.11091 13.9749 8.81802 13.682L7.75736 14.7426ZM16.5 10.4999C16.5 10.9142 16.8358 11.2499 17.25 11.2499C17.6642 11.2499 18 10.9141 18 10.4999L16.5 10.4999ZM15.7668 21.4777L14.408 16.4066L12.9591 16.7948L14.3179 21.8659L15.7668 21.4777ZM13.1859 16.0396L10.6765 18.2649L11.6717 19.3872L14.1811 17.1618L13.1859 16.0396ZM11.9228 18.871L12.4912 9.40117L10.9939 9.3113L10.4254 18.7811L11.9228 18.871ZM11.1166 9.76948L16.3438 17.6864L17.5955 16.8599L12.3684 8.94299L11.1166 9.76948ZM17.12 16.5383L13.8339 15.8659L13.5332 17.3355L16.8193 18.0079L17.12 16.5383ZM6.6967 15.8033C3.76777 12.8744 3.76777 8.12563 6.6967 5.1967L5.63604 4.13604C2.12132 7.65076 2.12132 13.3492 5.63604 16.864L6.6967 15.8033ZM6.6967 5.1967C9.62563 2.26777 14.3744 2.26777 17.3033 5.1967L18.364 4.13604C14.8492 0.62132 9.15076 0.62132 5.63604 4.13604L6.6967 5.1967ZM17.3033 5.1967C18.7679 6.66128 19.5 8.57933 19.5 10.4999L21 10.4998C21 8.19775 20.1211 5.89321 18.364 4.13604L17.3033 5.1967ZM8.81802 13.682C7.06066 11.9246 7.06066 9.07538 8.81802 7.31802L7.75736 6.25736C5.41421 8.60051 5.41421 12.3995 7.75736 14.7426L8.81802 13.682ZM8.81802 7.31802C10.5754 5.56066 13.4246 5.56066 15.182 7.31802L16.2426 6.25736C13.8995 3.91421 10.1005 3.91421 7.75736 6.25736L8.81802 7.31802ZM15.182 7.31802C16.0608 8.19683 16.5 9.34715 16.5 10.4999L18 10.4999C18 8.96558 17.414 7.42877 16.2426 6.25736L15.182 7.31802Z" fill="#0099AF"></path>
  </symbol>
  <symbol fill="none" xmlns="http://www.w3.org/2000/svg" viewBox="0 0 24 24" id="contribute-highlight">
    <path d="M14.3179 21.8659C14.4251 22.266 14.8363 22.5035 15.2364 22.3963C15.6365 22.289 15.874 21.8778 15.7668 21.4777L14.3179 21.8659ZM13.6835 16.6007L13.8339 15.8659C13.6026 15.8186 13.3625 15.8829 13.1859 16.0396L13.6835 16.6007ZM11.1741 18.826L10.4254 18.7811C10.4073 19.0839 10.5733 19.3678 10.8461 19.5005C11.1189 19.6332 11.4448 19.5884 11.6717 19.3872L11.1741 18.826ZM11.7425 9.35623L12.3684 8.94299C12.1905 8.67359 11.8602 8.54824 11.5484 8.63179C11.2366 8.71534 11.0132 8.98905 10.9939 9.3113L11.7425 9.35623ZM16.9697 17.2731L16.8193 18.0079C17.1165 18.0687 17.421 17.9445 17.591 17.6932C17.7609 17.4419 17.7627 17.113 17.5955 16.8599L16.9697 17.2731ZM5.63604 16.864C5.92893 17.1569 6.40381 17.1569 6.6967 16.864C6.98959 16.5711 6.98959 16.0962 6.6967 15.8033L5.63604 16.864ZM19.5 10.4999C19.5 10.9141 19.8358 11.2499 20.25 11.2499C20.6642 11.2498 21 10.9141 21 10.4998L19.5 10.4999ZM7.75736 14.7426C8.05025 15.0355 8.52513 15.0355 8.81802 14.7426C9.11091 14.4497 9.11091 13.9749 8.81802 13.682L7.75736 14.7426ZM16.5 10.4999C16.5 10.9142 16.8358 11.2499 17.25 11.2499C17.6642 11.2499 18 10.9141 18 10.4999L16.5 10.4999ZM15.7668 21.4777L14.408 16.4066L12.9591 16.7948L14.3179 21.8659L15.7668 21.4777ZM13.1859 16.0396L10.6765 18.2649L11.6717 19.3872L14.1811 17.1618L13.1859 16.0396ZM11.9228 18.871L12.4912 9.40117L10.9939 9.3113L10.4254 18.7811L11.9228 18.871ZM11.1166 9.76948L16.3438 17.6864L17.5955 16.8599L12.3684 8.94299L11.1166 9.76948ZM17.12 16.5383L13.8339 15.8659L13.5332 17.3355L16.8193 18.0079L17.12 16.5383ZM6.6967 15.8033C3.76777 12.8744 3.76777 8.12563 6.6967 5.1967L5.63604 4.13604C2.12132 7.65076 2.12132 13.3492 5.63604 16.864L6.6967 15.8033ZM6.6967 5.1967C9.62563 2.26777 14.3744 2.26777 17.3033 5.1967L18.364 4.13604C14.8492 0.62132 9.15076 0.62132 5.63604 4.13604L6.6967 5.1967ZM17.3033 5.1967C18.7679 6.66128 19.5 8.57933 19.5 10.4999L21 10.4998C21 8.19775 20.1211 5.89321 18.364 4.13604L17.3033 5.1967ZM8.81802 13.682C7.06066 11.9246 7.06066 9.07538 8.81802 7.31802L7.75736 6.25736C5.41421 8.60051 5.41421 12.3995 7.75736 14.7426L8.81802 13.682ZM8.81802 7.31802C10.5754 5.56066 13.4246 5.56066 15.182 7.31802L16.2426 6.25736C13.8995 3.91421 10.1005 3.91421 7.75736 6.25736L8.81802 7.31802ZM15.182 7.31802C16.0608 8.19683 16.5 9.34715 16.5 10.4999L18 10.4999C18 8.96558 17.414 7.42877 16.2426 6.25736L15.182 7.31802Z" fill="#144046"></path>
  </symbol>
  <symbol fill="none" xmlns="http://www.w3.org/2000/svg" viewBox="0 0 24 24" id="dash">
    <path opacity="0.12" d="M9 3H7.8C6.11984 3 5.27976 3 4.63803 3.32698C4.07354 3.6146 3.6146 4.07354 3.32698 4.63803C3 5.27976 3 6.11984 3 7.8V16.2C3 17.8802 3 18.7202 3.32698 19.362C3.6146 19.9265 4.07354 20.3854 4.63803 20.673C5.27976 21 6.11984 21 7.8 21H9V3Z" fill="#0099AF"></path>
    <path d="M17.5 11H12.5M17.5 15H12.5M17.5 7H12.5M9 3L9 21M7.8 3H16.2C17.8802 3 18.7202 3 19.362 3.32698C19.9265 3.6146 20.3854 4.07354 20.673 4.63803C21 5.27976 21 6.11984 21 7.8V16.2C21 17.8802 21 18.7202 20.673 19.362C20.3854 19.9265 19.9265 20.3854 19.362 20.673C18.7202 21 17.8802 21 16.2 21H7.8C6.11984 21 5.27976 21 4.63803 20.673C4.07354 20.3854 3.6146 19.9265 3.32698 19.362C3 18.7202 3 17.8802 3 16.2V7.8C3 6.11984 3 5.27976 3.32698 4.63803C3.6146 4.07354 4.07354 3.6146 4.63803 3.32698C5.27976 3 6.11984 3 7.8 3Z" stroke="#0099AF" stroke-width="2" stroke-linecap="round" stroke-linejoin="round"></path>
  </symbol>
  <symbol fill="none" xmlns="http://www.w3.org/2000/svg" viewBox="0 0 24 24" id="directory">
    <path d="M3.74999 9.77602C3.86203 9.7589 3.97698 9.75 4.09426 9.75H19.9057C20.023 9.75 20.138 9.7589 20.25 9.77602M3.74999 9.77602C2.55399 9.9588 1.68982 11.0788 1.86688 12.3182L2.72402 18.3182C2.88237 19.4267 3.83169 20.25 4.95141 20.25H19.0486C20.1683 20.25 21.1176 19.4267 21.276 18.3182L22.1331 12.3182C22.3102 11.0788 21.446 9.9588 20.25 9.77602M3.74999 9.77602V6C3.74999 4.75736 4.75735 3.75 5.99999 3.75H9.87867C10.2765 3.75 10.658 3.90804 10.9393 4.18934L13.0607 6.31066C13.342 6.59197 13.7235 6.75 14.1213 6.75H18C19.2426 6.75 20.25 7.75736 20.25 9V9.77602" stroke="#0099AF" stroke-width="1.5" stroke-linecap="round" stroke-linejoin="round"></path>
  </symbol>
  <symbol fill="none" xmlns="http://www.w3.org/2000/svg" viewBox="0 0 24 24" id="general">
    <path d="M21 4.26212H21.75C21.75 3.94425 21.5496 3.66091 21.2499 3.55499L21 4.26212ZM3 4.26212L2.75007 3.55499C2.45037 3.66091 2.25 3.94425 2.25 4.26212H3ZM12 20.2917L11.4998 20.8505C11.7846 21.1054 12.2154 21.1054 12.5002 20.8505L12 20.2917ZM21 18.5121L20.7501 19.2192C20.9796 19.3004 21.2343 19.265 21.433 19.1245C21.6318 18.9839 21.75 18.7556 21.75 18.5121H21ZM3 18.5121H2.25C2.25 18.7556 2.36818 18.9839 2.56696 19.1245C2.76574 19.265 3.02039 19.3004 3.24993 19.2192L3 18.5121ZM6 4.5C8.11345 4.5 10.0397 5.29373 11.4998 6.60053L12.5002 5.48283C10.7757 3.9394 8.49667 3 6 3V4.5ZM12.5002 6.60053C13.9603 5.29373 15.8865 4.5 18 4.5V3C15.5033 3 13.2243 3.9394 11.4998 5.48283L12.5002 6.60053ZM18 4.5C18.9656 4.5 19.8909 4.66557 20.7501 4.96925L21.2499 3.55499C20.2324 3.19535 19.1382 3 18 3V4.5ZM3.24993 4.96925C4.10911 4.66557 5.03441 4.5 6 4.5V3C4.86178 3 3.76756 3.19535 2.75007 3.55499L3.24993 4.96925ZM6 18.75C8.11345 18.75 10.0397 19.5437 11.4998 20.8505L12.5002 19.7328C10.7757 18.1894 8.49667 17.25 6 17.25V18.75ZM12.5002 20.8505C13.9603 19.5437 15.8865 18.75 18 18.75V17.25C15.5033 17.25 13.2243 18.1894 11.4998 19.7328L12.5002 20.8505ZM18 18.75C18.9656 18.75 19.8909 18.9156 20.7501 19.2192L21.2499 17.805C20.2324 17.4454 19.1382 17.25 18 17.25V18.75ZM3.24993 19.2192C4.10911 18.9156 5.03441 18.75 6 18.75V17.25C4.86178 17.25 3.76756 17.4454 2.75007 17.805L3.24993 19.2192ZM2.25 4.26212V18.5121H3.75V4.26212H2.25ZM20.25 4.26212V18.5121H21.75V4.26212H20.25ZM11.25 6.04168V20.2917H12.75V6.04168H11.25Z" fill="#0099AF"></path>
  </symbol>
  <symbol fill="none" xmlns="http://www.w3.org/2000/svg" viewBox="0 0 24 24" id="leader">
    <path opacity="0.12" d="M21 9H3V15H21V9Z" fill="#0099AF"></path>
    <path d="M3 9H21M3 15H21M7.8 3H16.2C17.8802 3 18.7202 3 19.362 3.32698C19.9265 3.6146 20.3854 4.07354 20.673 4.63803C21 5.27976 21 6.11984 21 7.8V16.2C21 17.8802 21 18.7202 20.673 19.362C20.3854 19.9265 19.9265 20.3854 19.362 20.673C18.7202 21 17.8802 21 16.2 21H7.8C6.11984 21 5.27976 21 4.63803 20.673C4.07354 20.3854 3.6146 19.9265 3.32698 19.362C3 18.7202 3 17.8802 3 16.2V7.8C3 6.11984 3 5.27976 3.32698 4.63803C3.6146 4.07354 4.07354 3.6146 4.63803 3.32698C5.27976 3 6.11984 3 7.8 3Z" stroke="#0099AF" stroke-width="2" stroke-linecap="round" stroke-linejoin="round"></path>
  </symbol>
  <symbol fill="none" xmlns="http://www.w3.org/2000/svg" viewBox="0 0 24 24" id="map">
    <path opacity="0.12" d="M3 7.8C3 6.11984 3 5.27976 3.32698 4.63803C3.6146 4.07354 4.07354 3.6146 4.63803 3.32698C5.27976 3 6.11984 3 7.8 3H8L16 21H7.8C6.11984 21 5.27976 21 4.63803 20.673C4.07354 20.3854 3.6146 19.9265 3.32698 19.362C3 18.7202 3 17.8802 3 16.2V7.8Z" fill="#0099AF"></path>
    <path d="M8 3L16 21M3 17L12 12M7.8 21H16.2C17.8802 21 18.7202 21 19.362 20.673C19.9265 20.3854 20.3854 19.9265 20.673 19.362C21 18.7202 21 17.8802 21 16.2V7.8C21 6.11984 21 5.27976 20.673 4.63803C20.3854 4.07354 19.9265 3.6146 19.362 3.32698C18.7202 3 17.8802 3 16.2 3H7.8C6.11984 3 5.27976 3 4.63803 3.32698C4.07354 3.6146 3.6146 4.07354 3.32698 4.63803C3 5.27976 3 6.11984 3 7.8V16.2C3 17.8802 3 18.7202 3.32698 19.362C3.6146 19.9265 4.07354 20.3854 4.63803 20.673C5.27976 21 6.11984 21 7.8 21Z" stroke="#0099AF" stroke-width="2" stroke-linecap="round" stroke-linejoin="round"></path>
  </symbol>
  <symbol fill="none" xmlns="http://www.w3.org/2000/svg" viewBox="0 0 24 24" id="stats">
    <path opacity="0.12" d="M7.8 21H16.2C17.8802 21 18.7202 21 19.362 20.673C19.9265 20.3854 20.3854 19.9265 20.673 19.362C21 18.7202 21 17.8802 21 16.2V9L14.5515 13.6061C14.3555 13.746 14.2576 13.816 14.1527 13.8371C14.0602 13.8557 13.9643 13.8478 13.8762 13.8142C13.7762 13.7762 13.691 13.691 13.5208 13.5208L10.4792 10.4792C10.309 10.309 10.2238 10.2238 10.1238 10.1858C10.0357 10.1522 9.9398 10.1443 9.84732 10.1629C9.74241 10.184 9.64445 10.254 9.44853 10.3939L3 15V16.2C3 17.8802 3 18.7202 3.32698 19.362C3.6146 19.9265 4.07354 20.3854 4.63803 20.673C5.27976 21 6.11984 21 7.8 21Z" fill="#0099AF"></path>
    <path d="M21 9L14.5515 13.6061C14.3555 13.746 14.2576 13.816 14.1527 13.8371C14.0602 13.8557 13.9643 13.8478 13.8762 13.8142C13.7762 13.7762 13.691 13.691 13.5208 13.5208L10.4792 10.4792C10.309 10.309 10.2238 10.2238 10.1238 10.1858C10.0357 10.1522 9.9398 10.1443 9.84732 10.1629C9.74241 10.184 9.64445 10.254 9.44853 10.3939L3 15M7.8 21H16.2C17.8802 21 18.7202 21 19.362 20.673C19.9265 20.3854 20.3854 19.9265 20.673 19.362C21 18.7202 21 17.8802 21 16.2V7.8C21 6.11984 21 5.27976 20.673 4.63803C20.3854 4.07354 19.9265 3.6146 19.362 3.32698C18.7202 3 17.8802 3 16.2 3H7.8C6.11984 3 5.27976 3 4.63803 3.32698C4.07354 3.6146 3.6146 4.07354 3.32698 4.63803C3 5.27976 3 6.11984 3 7.8V16.2C3 17.8802 3 18.7202 3.32698 19.362C3.6146 19.9265 4.07354 20.3854 4.63803 20.673C5.27976 21 6.11984 21 7.8 21Z" stroke="#0099AF" stroke-width="2" stroke-linecap="round" stroke-linejoin="round"></path>
  </symbol>
  <symbol fill="none" xmlns="http://www.w3.org/2000/svg" viewBox="0 0 24 24" id="stats-highlight">
    <path opacity="0.12" d="M7.8 21H16.2C17.8802 21 18.7202 21 19.362 20.673C19.9265 20.3854 20.3854 19.9265 20.673 19.362C21 18.7202 21 17.8802 21 16.2V9L14.5515 13.6061C14.3555 13.746 14.2576 13.816 14.1527 13.8371C14.0602 13.8557 13.9643 13.8478 13.8762 13.8142C13.7762 13.7762 13.691 13.691 13.5208 13.5208L10.4792 10.4792C10.309 10.309 10.2238 10.2238 10.1238 10.1858C10.0357 10.1522 9.9398 10.1443 9.84732 10.1629C9.74241 10.184 9.64445 10.254 9.44853 10.3939L3 15V16.2C3 17.8802 3 18.7202 3.32698 19.362C3.6146 19.9265 4.07354 20.3854 4.63803 20.673C5.27976 21 6.11984 21 7.8 21Z" fill="#144046"></path>
    <path d="M21 9L14.5515 13.6061C14.3555 13.746 14.2576 13.816 14.1527 13.8371C14.0602 13.8557 13.9643 13.8478 13.8762 13.8142C13.7762 13.7762 13.691 13.691 13.5208 13.5208L10.4792 10.4792C10.309 10.309 10.2238 10.2238 10.1238 10.1858C10.0357 10.1522 9.9398 10.1443 9.84732 10.1629C9.74241 10.184 9.64445 10.254 9.44853 10.3939L3 15M7.8 21H16.2C17.8802 21 18.7202 21 19.362 20.673C19.9265 20.3854 20.3854 19.9265 20.673 19.362C21 18.7202 21 17.8802 21 16.2V7.8C21 6.11984 21 5.27976 20.673 4.63803C20.3854 4.07354 19.9265 3.6146 19.362 3.32698C18.7202 3 17.8802 3 16.2 3H7.8C6.11984 3 5.27976 3 4.63803 3.32698C4.07354 3.6146 3.6146 4.07354 3.32698 4.63803C3 5.27976 3 6.11984 3 7.8V16.2C3 17.8802 3 18.7202 3.32698 19.362C3.6146 19.9265 4.07354 20.3854 4.63803 20.673C5.27976 21 6.11984 21 7.8 21Z" stroke="#144046" stroke-width="2" stroke-linecap="round" stroke-linejoin="round"></path>
  </symbol>
  <symbol fill="none" xmlns="http://www.w3.org/2000/svg" viewBox="0 0 24 24" id="support">
    <path opacity="0.12" fill-rule="evenodd" clip-rule="evenodd" d="M17.1916 3.59226C16.5948 2.3434 15.2188 1.68179 13.8807 2.32037C12.5425 2.95896 11.9724 4.47338 12.5327 5.80283C13.093 7.13227 15.3439 10.4879 15.3439 10.4879C15.3439 10.4879 18.9711 8.70733 20.1211 7.83612C21.271 6.96492 21.5558 5.36358 20.6949 4.14624C19.834 2.9289 18.3329 2.80912 17.1916 3.59226Z" fill="#0099AF"></path>
    <path d="M6 20.0872H8.61029C8.95063 20.0872 9.28888 20.1277 9.61881 20.2087L12.3769 20.8789C12.9753 21.0247 13.5988 21.0389 14.2035 20.9214L17.253 20.3281C18.0585 20.1712 18.7996 19.7855 19.3803 19.2205L21.5379 17.1217C22.154 16.5234 22.154 15.5524 21.5379 14.9531C20.9832 14.4135 20.1047 14.3527 19.4771 14.8103L16.9626 16.6449C16.6025 16.9081 16.1643 17.0498 15.7137 17.0498H13.2855L14.8311 17.0498C15.7022 17.0498 16.4079 16.3633 16.4079 15.5159V15.2092C16.4079 14.5055 15.9156 13.892 15.2141 13.7219L12.8286 13.1418C12.4404 13.0476 12.0428 13 11.6431 13C10.6783 13 8.93189 13.7988 8.93189 13.7988L6 15.0249M2 14.6L2 20.4C2 20.9601 2 21.2401 2.10899 21.454C2.20487 21.6422 2.35785 21.7951 2.54601 21.891C2.75992 22 3.03995 22 3.6 22H4.4C4.96005 22 5.24008 22 5.45399 21.891C5.64215 21.7952 5.79513 21.6422 5.89101 21.454C6 21.2401 6 20.9601 6 20.4V14.6C6 14.04 6 13.7599 5.89101 13.546C5.79513 13.3579 5.64215 13.2049 5.45399 13.109C5.24008 13 4.96005 13 4.4 13H3.6C3.03995 13 2.75992 13 2.54601 13.109C2.35785 13.2049 2.20487 13.3579 2.10899 13.546C2 13.7599 2 14.04 2 14.6ZM17.1914 3.59227C16.5946 2.34341 15.2186 1.6818 13.8804 2.32039C12.5423 2.95898 11.9722 4.4734 12.5325 5.80284C12.8787 6.62448 13.8707 8.22002 14.5781 9.31905C14.8394 9.72513 14.9701 9.92817 15.161 10.0469C15.3247 10.1488 15.5297 10.2037 15.7224 10.1974C15.9471 10.1899 16.1618 10.0794 16.5911 9.85845C17.7532 9.26033 19.4101 8.37457 20.1208 7.83614C21.2707 6.96494 21.5556 5.36359 20.6947 4.14626C19.8337 2.92892 18.3327 2.80914 17.1914 3.59227Z" stroke="#0099AF" stroke-width="2" stroke-linecap="round" stroke-linejoin="round"></path>
  </symbol>
  <symbol fill="none" xmlns="http://www.w3.org/2000/svg" viewBox="0 0 24 24" id="ticket">
    <path d="M16.5 6V6.75M16.5 9.75V10.5M16.5 13.5V14.25M16.5 17.25V18M7.5 12.75H12.75M7.5 15H10.5M3.375 5.25C2.75368 5.25 2.25 5.75368 2.25 6.375V9.40135C3.1467 9.92006 3.75 10.8896 3.75 12C3.75 13.1104 3.1467 14.0799 2.25 14.5987V17.625C2.25 18.2463 2.75368 18.75 3.375 18.75H20.625C21.2463 18.75 21.75 18.2463 21.75 17.625V14.5987C20.8533 14.0799 20.25 13.1104 20.25 12C20.25 10.8896 20.8533 9.92006 21.75 9.40135V6.375C21.75 5.75368 21.2463 5.25 20.625 5.25H3.375Z" stroke="#0099AF" stroke-width="1.5" stroke-linecap="round" stroke-linejoin="round"></path>
  </symbol>
  <symbol fill="none" xmlns="http://www.w3.org/2000/svg" viewBox="0 0 24 24" id="verify">
    <path d="M9 12.75L11.25 15L15 9.75M21 12C21 13.2683 20.3704 14.3895 19.4067 15.0682C19.6081 16.2294 19.2604 17.4672 18.3637 18.3639C17.467 19.2606 16.2292 19.6083 15.068 19.4069C14.3893 20.3705 13.2682 21 12 21C10.7319 21 9.61072 20.3705 8.93204 19.407C7.77066 19.6086 6.53256 19.261 5.6357 18.3641C4.73886 17.4673 4.39125 16.2292 4.59286 15.0678C3.62941 14.3891 3 13.2681 3 12C3 10.7319 3.62946 9.61077 4.59298 8.93208C4.39147 7.77079 4.7391 6.53284 5.63587 5.63607C6.53265 4.73929 7.77063 4.39166 8.93194 4.59319C9.61061 3.62955 10.7318 3 12 3C13.2682 3 14.3893 3.6295 15.068 4.59307C16.2294 4.39145 17.4674 4.73906 18.3643 5.6359C19.2611 6.53274 19.6087 7.77081 19.4071 8.93218C20.3706 9.61087 21 10.7319 21 12Z" stroke="#0099AF" stroke-width="1.5" stroke-linecap="round" stroke-linejoin="round"></path>
  </symbol>
  <symbol fill="none" xmlns="http://www.w3.org/2000/svg" viewBox="0 0 24 24" id="wiki">
    <path opacity="0.12" d="M18 21.5C19.933 21.5 21.5 19.933 21.5 18C21.5 16.067 19.933 14.5 18 14.5C16.067 14.5 14.5 16.067 14.5 18C14.5 19.933 16.067 21.5 18 21.5Z" fill="#0099AF"></path>
    <path d="M14 11H8M10 15H8M16 7H8M20 10.5V6.8C20 5.11984 20 4.27976 19.673 3.63803C19.3854 3.07354 18.9265 2.6146 18.362 2.32698C17.7202 2 16.8802 2 15.2 2H8.8C7.11984 2 6.27976 2 5.63803 2.32698C5.07354 2.6146 4.6146 3.07354 4.32698 3.63803C4 4.27976 4 5.11984 4 6.8V17.2C4 18.8802 4 19.7202 4.32698 20.362C4.6146 20.9265 5.07354 21.3854 5.63803 21.673C6.27976 22 7.11984 22 8.8 22H11.5M22 22L20.5 20.5M21.5 18C21.5 19.933 19.933 21.5 18 21.5C16.067 21.5 14.5 19.933 14.5 18C14.5 16.067 16.067 14.5 18 14.5C19.933 14.5 21.5 16.067 21.5 18Z" stroke="#0099AF" stroke-width="2" stroke-linecap="round" stroke-linejoin="round"></path>
  </symbol>
  <symbol fill="none" xmlns="http://www.w3.org/2000/svg" viewBox="0 0 24 24" id="wiki-highlight">
    <path opacity="0.12" d="M18 21.5C19.933 21.5 21.5 19.933 21.5 18C21.5 16.067 19.933 14.5 18 14.5C16.067 14.5 14.5 16.067 14.5 18C14.5 19.933 16.067 21.5 18 21.5Z" fill="#144046"></path>
    <path d="M14 11H8M10 15H8M16 7H8M20 10.5V6.8C20 5.11984 20 4.27976 19.673 3.63803C19.3854 3.07354 18.9265 2.6146 18.362 2.32698C17.7202 2 16.8802 2 15.2 2H8.8C7.11984 2 6.27976 2 5.63803 2.32698C5.07354 2.6146 4.6146 3.07354 4.32698 3.63803C4 4.27976 4 5.11984 4 6.8V17.2C4 18.8802 4 19.7202 4.32698 20.362C4.6146 20.9265 5.07354 21.3854 5.63803 21.673C6.27976 22 7.11984 22 8.8 22H11.5M22 22L20.5 20.5M21.5 18C21.5 19.933 19.933 21.5 18 21.5C16.067 21.5 14.5 19.933 14.5 18C14.5 16.067 16.067 14.5 18 14.5C19.933 14.5 21.5 16.067 21.5 18Z" stroke="#144046" stroke-width="2" stroke-linecap="round" stroke-linejoin="round"></path>
  </symbol>
</svg>
