<svg width="40" height="40" viewBox="0 0 40 40" fill="none" xmlns="http://www.w3.org/2000/svg">
<path d="M32.5643 7.08333C32.5632 6.1097 32.2521 5.16172 31.676 4.37679C31.0999 3.59186 30.2889 3.01077 29.3604 2.71774C28.4319 2.42471 27.4342 2.43496 26.512 2.74702C25.5897 3.05908 24.7908 3.65673 24.231 4.45333C23.8653 3.92309 23.392 3.47588 22.8419 3.14085C22.2918 2.80582 21.6772 2.5905 21.0383 2.50893C20.3994 2.42736 19.7504 2.48137 19.1338 2.66744C18.5172 2.85351 17.9467 3.16745 17.4595 3.58881C16.9724 4.01017 16.5795 4.52948 16.3065 5.11287C16.0335 5.69627 15.8866 6.33064 15.8752 6.97464C15.8639 7.61865 15.9884 8.25781 16.2407 8.85045C16.4929 9.4431 16.8673 9.97591 17.3393 10.4142L24.231 17.4975L31.1226 10.4142C31.578 9.98711 31.9409 9.47116 32.1889 8.89824C32.4368 8.32532 32.5646 7.70762 32.5643 7.08333V7.08333Z" stroke="#051173" stroke-width="2" stroke-miterlimit="10" stroke-linecap="square"/>
<path d="M30.8376 25L34.4751 22.9167C35.0586 22.5832 35.7504 22.4941 36.3994 22.6688C37.0484 22.8435 37.602 23.2678 37.9392 23.8492L37.9692 23.9008C38.2831 24.4354 38.3968 25.0641 38.2899 25.6747C38.1831 26.2853 37.8627 26.838 37.3859 27.2342L30.6217 32.8175C30.2172 33.1523 29.7387 33.3857 29.2259 33.4983L16.3926 36.35C15.9536 36.4474 15.4995 36.4551 15.0576 36.3724C14.6156 36.2898 14.195 36.1186 13.8209 35.8692L5.84423 30.56C5.29664 30.1949 4.65322 30 3.99507 30H1.6709V20L7.58756 19.3425C8.62906 19.2267 9.6832 19.3583 10.6642 19.7267L15.2184 21.4342C15.6305 21.5892 16.057 21.7026 16.4917 21.7725L25.0117 23.155C25.6887 23.2039 26.3221 23.5072 26.7846 24.0041C27.247 24.501 27.5041 25.1546 27.5042 25.8333V25.8333C27.5041 26.5122 27.2468 27.1659 26.7842 27.6628C26.3217 28.1597 25.6881 28.463 25.0109 28.5117L15.8376 29.1667" stroke="#0099AF" stroke-width="2" stroke-miterlimit="10" stroke-linecap="square"/>
</svg>
