<svg xmlns="http://www.w3.org/2000/svg" width="245" height="245"><path style="fill:#fff;fill-opacity:1" d="M0 0h245v245H0z"/><path style="fill:#000" d="M7 7h7v7H7zm7 0h7v7h-7zm7 0h7v7h-7zm7 0h7v7h-7zm7 0h7v7h-7zm7 0h7v7h-7zm7 0h7v7h-7zm28 0h7v7h-7zm14 0h7v7h-7zm14 0h7v7h-7zm7 0h7v7h-7zm21 0h7v7h-7zm35 0h7v7h-7zm7 0h7v7h-7zm14 0h7v7h-7zm7 0h7v7h-7zm7 0h7v7h-7zm7 0h7v7h-7zm7 0h7v7h-7zm7 0h7v7h-7zm7 0h7v7h-7zM7 14h7v7H7zm42 0h7v7h-7zm14 0h7v7h-7zm14 0h7v7h-7zm28 0h7v7h-7zm7 0h7v7h-7zm7 0h7v7h-7zm7 0h7v7h-7zm7 0h7v7h-7zm42 0h7v7h-7zm14 0h7v7h-7zm42 0h7v7h-7zM7 21h7v7H7zm14 0h7v7h-7zm7 0h7v7h-7zm7 0h7v7h-7zm14 0h7v7h-7zm42 0h7v7h-7zm14 0h7v7h-7zm28 0h7v7h-7zm14 0h7v7h-7zm7 0h7v7h-7zm7 0h7v7h-7zm14 0h7v7h-7zm14 0h7v7h-7zm14 0h7v7h-7zm7 0h7v7h-7zm7 0h7v7h-7zm14 0h7v7h-7zM7 28h7v7H7zm14 0h7v7h-7zm7 0h7v7h-7zm7 0h7v7h-7zm14 0h7v7h-7zm14 0h7v7h-7zm7 0h7v7h-7zm7 0h7v7h-7zm14 0h7v7h-7zm28 0h7v7h-7zm7 0h7v7h-7zm14 0h7v7h-7zm21 0h7v7h-7zm28 0h7v7h-7zm14 0h7v7h-7zm7 0h7v7h-7zm7 0h7v7h-7zm14 0h7v7h-7zM7 35h7v7H7zm14 0h7v7h-7zm7 0h7v7h-7zm7 0h7v7h-7zm14 0h7v7h-7zm21 0h7v7h-7zm28 0h7v7h-7zm28 0h7v7h-7zm14 0h7v7h-7zm7 0h7v7h-7zm7 0h7v7h-7zm21 0h7v7h-7zm14 0h7v7h-7zm14 0h7v7h-7zm7 0h7v7h-7zm7 0h7v7h-7zm14 0h7v7h-7zM7 42h7v7H7zm42 0h7v7h-7zm14 0h7v7h-7zm7 0h7v7h-7zm14 0h7v7h-7zm7 0h7v7h-7zm21 0h7v7h-7zm28 0h7v7h-7zm7 0h7v7h-7zm14 0h7v7h-7zm14 0h7v7h-7zm14 0h7v7h-7zm42 0h7v7h-7zM7 49h7v7H7zm7 0h7v7h-7zm7 0h7v7h-7zm7 0h7v7h-7zm7 0h7v7h-7zm7 0h7v7h-7zm7 0h7v7h-7zm14 0h7v7h-7zm14 0h7v7h-7zm14 0h7v7h-7zm14 0h7v7h-7zm14 0h7v7h-7zm14 0h7v7h-7zm14 0h7v7h-7zm14 0h7v7h-7zm14 0h7v7h-7zm14 0h7v7h-7zm7 0h7v7h-7zm7 0h7v7h-7zm7 0h7v7h-7zm7 0h7v7h-7zm7 0h7v7h-7zm7 0h7v7h-7zM70 56h7v7h-7zm7 0h7v7h-7zm7 0h7v7h-7zm28 0h7v7h-7zm7 0h7v7h-7zm14 0h7v7h-7zm7 0h7v7h-7zm35 0h7v7h-7zM7 63h7v7H7zm7 0h7v7h-7zm7 0h7v7h-7zm7 0h7v7h-7zm7 0h7v7h-7zm14 0h7v7h-7zm7 0h7v7h-7zm7 0h7v7h-7zm7 0h7v7h-7zm14 0h7v7h-7zm28 0h7v7h-7zm7 0h7v7h-7zm7 0h7v7h-7zm14 0h7v7h-7zm21 0h7v7h-7zm7 0h7v7h-7zm7 0h7v7h-7zm7 0h7v7h-7zm14 0h7v7h-7zm14 0h7v7h-7zm14 0h7v7h-7zM7 70h7v7H7zm14 0h7v7h-7zm7 0h7v7h-7zm7 0h7v7h-7zm21 0h7v7h-7zm21 0h7v7h-7zm14 0h7v7h-7zm7 0h7v7h-7zm21 0h7v7h-7zm14 0h7v7h-7zm14 0h7v7h-7zm35 0h7v7h-7zm14 0h7v7h-7zm14 0h7v7h-7zm7 0h7v7h-7zm7 0h7v7h-7zm7 0h7v7h-7zM14 77h7v7h-7zm7 0h7v7h-7zm28 0h7v7h-7zm7 0h7v7h-7zm7 0h7v7h-7zm14 0h7v7h-7zm21 0h7v7h-7zm7 0h7v7h-7zm7 0h7v7h-7zm7 0h7v7h-7zm7 0h7v7h-7zm7 0h7v7h-7zm14 0h7v7h-7zm21 0h7v7h-7zm7 0h7v7h-7zm7 0h7v7h-7zm7 0h7v7h-7zm7 0h7v7h-7zm21 0h7v7h-7zm7 0h7v7h-7zM14 84h7v7h-7zm42 0h7v7h-7zm7 0h7v7h-7zm28 0h7v7h-7zm7 0h7v7h-7zm14 0h7v7h-7zm7 0h7v7h-7zm7 0h7v7h-7zm14 0h7v7h-7zm35 0h7v7h-7zm7 0h7v7h-7zm14 0h7v7h-7zm14 0h7v7h-7zm7 0h7v7h-7zM14 91h7v7h-7zm7 0h7v7h-7zm7 0h7v7h-7zm21 0h7v7h-7zm21 0h7v7h-7zm7 0h7v7h-7zm14 0h7v7h-7zm14 0h7v7h-7zm7 0h7v7h-7zm7 0h7v7h-7zm7 0h7v7h-7zm14 0h7v7h-7zm7 0h7v7h-7zm7 0h7v7h-7zm14 0h7v7h-7zm7 0h7v7h-7zm7 0h7v7h-7zm49 0h7v7h-7zM14 98h7v7h-7zm7 0h7v7h-7zm7 0h7v7h-7zm14 0h7v7h-7zm70 0h7v7h-7zm14 0h7v7h-7zm7 0h7v7h-7zm14 0h7v7h-7zm63 0h7v7h-7zm21 0h7v7h-7zm-196 7h7v7h-7zm14 0h7v7h-7zm7 0h7v7h-7zm21 0h7v7h-7zm7 0h7v7h-7zm7 0h7v7h-7zm28 0h7v7h-7zm7 0h7v7h-7zm14 0h7v7h-7zm7 0h7v7h-7zm7 0h7v7h-7zm7 0h7v7h-7zm7 0h7v7h-7zm14 0h7v7h-7zm21 0h7v7h-7zm21 0h7v7h-7zm-196 7h7v7h-7zm14 0h7v7h-7zm14 0h7v7h-7zm7 0h7v7h-7zm21 0h7v7h-7zm21 0h7v7h-7zm14 0h7v7h-7zm7 0h7v7h-7zm14 0h7v7h-7zm28 0h7v7h-7zm7 0h7v7h-7zm14 0h7v7h-7zm7 0h7v7h-7zm14 0h7v7h-7zm7 0h7v7h-7zm7 0h7v7h-7zm7 0h7v7h-7zm-217 7h7v7h-7zm14 0h7v7h-7zm7 0h7v7h-7zm7 0h7v7h-7zm7 0h7v7h-7zm14 0h7v7h-7zm14 0h7v7h-7zm7 0h7v7h-7zm42 0h7v7h-7zm14 0h7v7h-7zm14 0h7v7h-7zm7 0h7v7h-7zm7 0h7v7h-7zm7 0h7v7h-7zm14 0h7v7h-7zm14 0h7v7h-7zm21 0h7v7h-7zm-203 7h7v7h-7zm14 0h7v7h-7zm21 0h7v7h-7zm7 0h7v7h-7zm7 0h7v7h-7zm7 0h7v7h-7zm14 0h7v7h-7zm7 0h7v7h-7zm7 0h7v7h-7zm14 0h7v7h-7zm14 0h7v7h-7zm35 0h7v7h-7zm14 0h7v7h-7zm7 0h7v7h-7zm7 0h7v7h-7zm35 0h7v7h-7zm-210 7h7v7h-7zm14 0h7v7h-7zm7 0h7v7h-7zm7 0h7v7h-7zm7 0h7v7h-7zm42 0h7v7h-7zm7 0h7v7h-7zm21 0h7v7h-7zm21 0h7v7h-7zm7 0h7v7h-7zm56 0h7v7h-7zm7 0h7v7h-7zm7 0h7v7h-7zm-203 7h7v7h-7zm14 0h7v7h-7zm21 0h7v7h-7zm14 0h7v7h-7zm21 0h7v7h-7zm7 0h7v7h-7zm14 0h7v7h-7zm21 0h7v7h-7zm14 0h7v7h-7zm7 0h7v7h-7zm21 0h7v7h-7zm14 0h7v7h-7zm21 0h7v7h-7zm7 0h7v7h-7zm7 0h7v7h-7zM7 147h7v7H7zm21 0h7v7h-7zm14 0h7v7h-7zm7 0h7v7h-7zm7 0h7v7h-7zm7 0h7v7h-7zm28 0h7v7h-7zm14 0h7v7h-7zm7 0h7v7h-7zm14 0h7v7h-7zm14 0h7v7h-7zm7 0h7v7h-7zm7 0h7v7h-7zm21 0h7v7h-7zm7 0h7v7h-7zm7 0h7v7h-7zm7 0h7v7h-7zm35 0h7v7h-7zM7 154h7v7H7zm21 0h7v7h-7zm7 0h7v7h-7zm21 0h7v7h-7zm70 0h7v7h-7zm28 0h7v7h-7zm14 0h7v7h-7zm14 0h7v7h-7zm7 0h7v7h-7zm7 0h7v7h-7zm7 0h7v7h-7zm7 0h7v7h-7zm21 0h7v7h-7zM7 161h7v7H7zm14 0h7v7h-7zm7 0h7v7h-7zm21 0h7v7h-7zm21 0h7v7h-7zm7 0h7v7h-7zm7 0h7v7h-7zm7 0h7v7h-7zm35 0h7v7h-7zm7 0h7v7h-7zm7 0h7v7h-7zm28 0h7v7h-7zm7 0h7v7h-7zm49 0h7v7h-7zM7 168h7v7H7zm70 0h7v7h-7zm7 0h7v7h-7zm21 0h7v7h-7zm14 0h7v7h-7zm7 0h7v7h-7zm7 0h7v7h-7zm7 0h7v7h-7zm7 0h7v7h-7zm7 0h7v7h-7zm14 0h7v7h-7zm7 0h7v7h-7zm7 0h7v7h-7zm14 0h7v7h-7zm14 0h7v7h-7zm7 0h7v7h-7zM7 175h7v7H7zm14 0h7v7h-7zm14 0h7v7h-7zm14 0h7v7h-7zm7 0h7v7h-7zm7 0h7v7h-7zm14 0h7v7h-7zm7 0h7v7h-7zm28 0h7v7h-7zm21 0h7v7h-7zm14 0h7v7h-7zm7 0h7v7h-7zm7 0h7v7h-7zm7 0h7v7h-7zm7 0h7v7h-7zm7 0h7v7h-7zm7 0h7v7h-7zm7 0h7v7h-7zm7 0h7v7h-7zm21 0h7v7h-7zm7 0h7v7h-7zm-168 7h7v7h-7zm28 0h7v7h-7zm7 0h7v7h-7zm7 0h7v7h-7zm7 0h7v7h-7zm14 0h7v7h-7zm21 0h7v7h-7zm14 0h7v7h-7zm7 0h7v7h-7zm7 0h7v7h-7zm28 0h7v7h-7zm7 0h7v7h-7zm7 0h7v7h-7zm14 0h7v7h-7zM7 189h7v7H7zm7 0h7v7h-7zm7 0h7v7h-7zm7 0h7v7h-7zm7 0h7v7h-7zm7 0h7v7h-7zm7 0h7v7h-7zm14 0h7v7h-7zm7 0h7v7h-7zm7 0h7v7h-7zm21 0h7v7h-7zm7 0h7v7h-7zm35 0h7v7h-7zm14 0h7v7h-7zm7 0h7v7h-7zm14 0h7v7h-7zm14 0h7v7h-7zm14 0h7v7h-7zm7 0h7v7h-7zm14 0h7v7h-7zM7 196h7v7H7zm42 0h7v7h-7zm21 0h7v7h-7zm7 0h7v7h-7zm14 0h7v7h-7zm7 0h7v7h-7zm28 0h7v7h-7zm14 0h7v7h-7zm7 0h7v7h-7zm7 0h7v7h-7zm7 0h7v7h-7zm14 0h7v7h-7zm28 0h7v7h-7zm14 0h7v7h-7zm7 0h7v7h-7zM7 203h7v7H7zm14 0h7v7h-7zm7 0h7v7h-7zm7 0h7v7h-7zm14 0h7v7h-7zm14 0h7v7h-7zm14 0h7v7h-7zm14 0h7v7h-7zm14 0h7v7h-7zm7 0h7v7h-7zm28 0h7v7h-7zm7 0h7v7h-7zm14 0h7v7h-7zm7 0h7v7h-7zm7 0h7v7h-7zm7 0h7v7h-7zm7 0h7v7h-7zm7 0h7v7h-7zm7 0h7v7h-7zm28 0h7v7h-7zM7 210h7v7H7zm14 0h7v7h-7zm7 0h7v7h-7zm7 0h7v7h-7zm14 0h7v7h-7zm14 0h7v7h-7zm7 0h7v7h-7zm49 0h7v7h-7zm21 0h7v7h-7zm7 0h7v7h-7zm7 0h7v7h-7zm7 0h7v7h-7zm14 0h7v7h-7zm7 0h7v7h-7zm35 0h7v7h-7zM7 217h7v7H7zm14 0h7v7h-7zm7 0h7v7h-7zm7 0h7v7h-7zm14 0h7v7h-7zm14 0h7v7h-7zm14 0h7v7h-7zm7 0h7v7h-7zm7 0h7v7h-7zm21 0h7v7h-7zm7 0h7v7h-7zm7 0h7v7h-7zm21 0h7v7h-7zm7 0h7v7h-7zm7 0h7v7h-7zm14 0h7v7h-7zm7 0h7v7h-7zm21 0h7v7h-7zM7 224h7v7H7zm42 0h7v7h-7zm14 0h7v7h-7zm14 0h7v7h-7zm7 0h7v7h-7zm21 0h7v7h-7zm42 0h7v7h-7zm42 0h7v7h-7zm14 0h7v7h-7zm7 0h7v7h-7zm7 0h7v7h-7zM7 231h7v7H7zm7 0h7v7h-7zm7 0h7v7h-7zm7 0h7v7h-7zm7 0h7v7h-7zm7 0h7v7h-7zm7 0h7v7h-7zm14 0h7v7h-7zm14 0h7v7h-7zm7 0h7v7h-7zm63 0h7v7h-7zm14 0h7v7h-7zm7 0h7v7h-7zm7 0h7v7h-7zm28 0h7v7h-7zm14 0h7v7h-7zm7 0h7v7h-7z"/></svg>