<?xml version="1.0" standalone="no"?>
<svg xmlns="http://www.w3.org/2000/svg" version="1.1" width="245" height="245">
	<!-- Created with https://api.qrserver.com (QR Code API, see goQR.me/api for information) -->
	<title>QR Code</title>
	<desc>lightning:LNURL1DP68GURN8GHJ7MT9WF3KSCTWW3EJUCN5VDKKZUPWDAEXWTMVDE6HYMRS9ARKXVN4W5EQCJQMEY</desc>
	<rect style="fill:rgb(255, 255, 255);fill-opacity:1" x="0" y="0" width="245" height="245" />
	<g id="elements">
		<path style="fill:rgb(0, 0, 0)" d="M 7,7 l 7,0 0,7 -7,0 z M 14,7 l 7,0 0,7 -7,0 z M 21,7 l 7,0 0,7 -7,0 z M 28,7 l 7,0 0,7 -7,0 z M 35,7 l 7,0 0,7 -7,0 z M 42,7 l 7,0 0,7 -7,0 z M 49,7 l 7,0 0,7 -7,0 z M 77,7 l 7,0 0,7 -7,0 z M 91,7 l 7,0 0,7 -7,0 z M 98,7 l 7,0 0,7 -7,0 z M 119,7 l 7,0 0,7 -7,0 z M 126,7 l 7,0 0,7 -7,0 z M 133,7 l 7,0 0,7 -7,0 z M 140,7 l 7,0 0,7 -7,0 z M 147,7 l 7,0 0,7 -7,0 z M 168,7 l 7,0 0,7 -7,0 z M 175,7 l 7,0 0,7 -7,0 z M 189,7 l 7,0 0,7 -7,0 z M 196,7 l 7,0 0,7 -7,0 z M 203,7 l 7,0 0,7 -7,0 z M 210,7 l 7,0 0,7 -7,0 z M 217,7 l 7,0 0,7 -7,0 z M 224,7 l 7,0 0,7 -7,0 z M 231,7 l 7,0 0,7 -7,0 z M 7,14 l 7,0 0,7 -7,0 z M 49,14 l 7,0 0,7 -7,0 z M 63,14 l 7,0 0,7 -7,0 z M 77,14 l 7,0 0,7 -7,0 z M 98,14 l 7,0 0,7 -7,0 z M 112,14 l 7,0 0,7 -7,0 z M 133,14 l 7,0 0,7 -7,0 z M 147,14 l 7,0 0,7 -7,0 z M 168,14 l 7,0 0,7 -7,0 z M 175,14 l 7,0 0,7 -7,0 z M 189,14 l 7,0 0,7 -7,0 z M 231,14 l 7,0 0,7 -7,0 z M 7,21 l 7,0 0,7 -7,0 z M 21,21 l 7,0 0,7 -7,0 z M 28,21 l 7,0 0,7 -7,0 z M 35,21 l 7,0 0,7 -7,0 z M 49,21 l 7,0 0,7 -7,0 z M 91,21 l 7,0 0,7 -7,0 z M 112,21 l 7,0 0,7 -7,0 z M 126,21 l 7,0 0,7 -7,0 z M 147,21 l 7,0 0,7 -7,0 z M 154,21 l 7,0 0,7 -7,0 z M 168,21 l 7,0 0,7 -7,0 z M 175,21 l 7,0 0,7 -7,0 z M 189,21 l 7,0 0,7 -7,0 z M 203,21 l 7,0 0,7 -7,0 z M 210,21 l 7,0 0,7 -7,0 z M 217,21 l 7,0 0,7 -7,0 z M 231,21 l 7,0 0,7 -7,0 z M 7,28 l 7,0 0,7 -7,0 z M 21,28 l 7,0 0,7 -7,0 z M 28,28 l 7,0 0,7 -7,0 z M 35,28 l 7,0 0,7 -7,0 z M 49,28 l 7,0 0,7 -7,0 z M 63,28 l 7,0 0,7 -7,0 z M 70,28 l 7,0 0,7 -7,0 z M 77,28 l 7,0 0,7 -7,0 z M 91,28 l 7,0 0,7 -7,0 z M 140,28 l 7,0 0,7 -7,0 z M 161,28 l 7,0 0,7 -7,0 z M 168,28 l 7,0 0,7 -7,0 z M 189,28 l 7,0 0,7 -7,0 z M 203,28 l 7,0 0,7 -7,0 z M 210,28 l 7,0 0,7 -7,0 z M 217,28 l 7,0 0,7 -7,0 z M 231,28 l 7,0 0,7 -7,0 z M 7,35 l 7,0 0,7 -7,0 z M 21,35 l 7,0 0,7 -7,0 z M 28,35 l 7,0 0,7 -7,0 z M 35,35 l 7,0 0,7 -7,0 z M 49,35 l 7,0 0,7 -7,0 z M 70,35 l 7,0 0,7 -7,0 z M 98,35 l 7,0 0,7 -7,0 z M 140,35 l 7,0 0,7 -7,0 z M 147,35 l 7,0 0,7 -7,0 z M 154,35 l 7,0 0,7 -7,0 z M 189,35 l 7,0 0,7 -7,0 z M 203,35 l 7,0 0,7 -7,0 z M 210,35 l 7,0 0,7 -7,0 z M 217,35 l 7,0 0,7 -7,0 z M 231,35 l 7,0 0,7 -7,0 z M 7,42 l 7,0 0,7 -7,0 z M 49,42 l 7,0 0,7 -7,0 z M 63,42 l 7,0 0,7 -7,0 z M 70,42 l 7,0 0,7 -7,0 z M 84,42 l 7,0 0,7 -7,0 z M 91,42 l 7,0 0,7 -7,0 z M 98,42 l 7,0 0,7 -7,0 z M 105,42 l 7,0 0,7 -7,0 z M 112,42 l 7,0 0,7 -7,0 z M 133,42 l 7,0 0,7 -7,0 z M 140,42 l 7,0 0,7 -7,0 z M 147,42 l 7,0 0,7 -7,0 z M 161,42 l 7,0 0,7 -7,0 z M 168,42 l 7,0 0,7 -7,0 z M 175,42 l 7,0 0,7 -7,0 z M 189,42 l 7,0 0,7 -7,0 z M 231,42 l 7,0 0,7 -7,0 z M 7,49 l 7,0 0,7 -7,0 z M 14,49 l 7,0 0,7 -7,0 z M 21,49 l 7,0 0,7 -7,0 z M 28,49 l 7,0 0,7 -7,0 z M 35,49 l 7,0 0,7 -7,0 z M 42,49 l 7,0 0,7 -7,0 z M 49,49 l 7,0 0,7 -7,0 z M 63,49 l 7,0 0,7 -7,0 z M 77,49 l 7,0 0,7 -7,0 z M 91,49 l 7,0 0,7 -7,0 z M 105,49 l 7,0 0,7 -7,0 z M 119,49 l 7,0 0,7 -7,0 z M 133,49 l 7,0 0,7 -7,0 z M 147,49 l 7,0 0,7 -7,0 z M 161,49 l 7,0 0,7 -7,0 z M 175,49 l 7,0 0,7 -7,0 z M 189,49 l 7,0 0,7 -7,0 z M 196,49 l 7,0 0,7 -7,0 z M 203,49 l 7,0 0,7 -7,0 z M 210,49 l 7,0 0,7 -7,0 z M 217,49 l 7,0 0,7 -7,0 z M 224,49 l 7,0 0,7 -7,0 z M 231,49 l 7,0 0,7 -7,0 z M 70,56 l 7,0 0,7 -7,0 z M 77,56 l 7,0 0,7 -7,0 z M 84,56 l 7,0 0,7 -7,0 z M 98,56 l 7,0 0,7 -7,0 z M 119,56 l 7,0 0,7 -7,0 z M 126,56 l 7,0 0,7 -7,0 z M 133,56 l 7,0 0,7 -7,0 z M 140,56 l 7,0 0,7 -7,0 z M 147,56 l 7,0 0,7 -7,0 z M 154,56 l 7,0 0,7 -7,0 z M 161,56 l 7,0 0,7 -7,0 z M 7,63 l 7,0 0,7 -7,0 z M 14,63 l 7,0 0,7 -7,0 z M 21,63 l 7,0 0,7 -7,0 z M 28,63 l 7,0 0,7 -7,0 z M 35,63 l 7,0 0,7 -7,0 z M 49,63 l 7,0 0,7 -7,0 z M 56,63 l 7,0 0,7 -7,0 z M 63,63 l 7,0 0,7 -7,0 z M 70,63 l 7,0 0,7 -7,0 z M 84,63 l 7,0 0,7 -7,0 z M 98,63 l 7,0 0,7 -7,0 z M 105,63 l 7,0 0,7 -7,0 z M 112,63 l 7,0 0,7 -7,0 z M 119,63 l 7,0 0,7 -7,0 z M 126,63 l 7,0 0,7 -7,0 z M 133,63 l 7,0 0,7 -7,0 z M 147,63 l 7,0 0,7 -7,0 z M 154,63 l 7,0 0,7 -7,0 z M 161,63 l 7,0 0,7 -7,0 z M 168,63 l 7,0 0,7 -7,0 z M 175,63 l 7,0 0,7 -7,0 z M 182,63 l 7,0 0,7 -7,0 z M 196,63 l 7,0 0,7 -7,0 z M 210,63 l 7,0 0,7 -7,0 z M 224,63 l 7,0 0,7 -7,0 z M 7,70 l 7,0 0,7 -7,0 z M 14,70 l 7,0 0,7 -7,0 z M 21,70 l 7,0 0,7 -7,0 z M 28,70 l 7,0 0,7 -7,0 z M 35,70 l 7,0 0,7 -7,0 z M 63,70 l 7,0 0,7 -7,0 z M 77,70 l 7,0 0,7 -7,0 z M 91,70 l 7,0 0,7 -7,0 z M 98,70 l 7,0 0,7 -7,0 z M 105,70 l 7,0 0,7 -7,0 z M 126,70 l 7,0 0,7 -7,0 z M 147,70 l 7,0 0,7 -7,0 z M 154,70 l 7,0 0,7 -7,0 z M 168,70 l 7,0 0,7 -7,0 z M 182,70 l 7,0 0,7 -7,0 z M 196,70 l 7,0 0,7 -7,0 z M 210,70 l 7,0 0,7 -7,0 z M 217,70 l 7,0 0,7 -7,0 z M 224,70 l 7,0 0,7 -7,0 z M 231,70 l 7,0 0,7 -7,0 z M 7,77 l 7,0 0,7 -7,0 z M 28,77 l 7,0 0,7 -7,0 z M 35,77 l 7,0 0,7 -7,0 z M 42,77 l 7,0 0,7 -7,0 z M 49,77 l 7,0 0,7 -7,0 z M 56,77 l 7,0 0,7 -7,0 z M 77,77 l 7,0 0,7 -7,0 z M 147,77 l 7,0 0,7 -7,0 z M 154,77 l 7,0 0,7 -7,0 z M 168,77 l 7,0 0,7 -7,0 z M 182,77 l 7,0 0,7 -7,0 z M 189,77 l 7,0 0,7 -7,0 z M 196,77 l 7,0 0,7 -7,0 z M 217,77 l 7,0 0,7 -7,0 z M 224,77 l 7,0 0,7 -7,0 z M 91,84 l 7,0 0,7 -7,0 z M 105,84 l 7,0 0,7 -7,0 z M 112,84 l 7,0 0,7 -7,0 z M 119,84 l 7,0 0,7 -7,0 z M 126,84 l 7,0 0,7 -7,0 z M 140,84 l 7,0 0,7 -7,0 z M 147,84 l 7,0 0,7 -7,0 z M 168,84 l 7,0 0,7 -7,0 z M 182,84 l 7,0 0,7 -7,0 z M 196,84 l 7,0 0,7 -7,0 z M 210,84 l 7,0 0,7 -7,0 z M 217,84 l 7,0 0,7 -7,0 z M 14,91 l 7,0 0,7 -7,0 z M 21,91 l 7,0 0,7 -7,0 z M 28,91 l 7,0 0,7 -7,0 z M 49,91 l 7,0 0,7 -7,0 z M 70,91 l 7,0 0,7 -7,0 z M 77,91 l 7,0 0,7 -7,0 z M 91,91 l 7,0 0,7 -7,0 z M 98,91 l 7,0 0,7 -7,0 z M 112,91 l 7,0 0,7 -7,0 z M 119,91 l 7,0 0,7 -7,0 z M 126,91 l 7,0 0,7 -7,0 z M 133,91 l 7,0 0,7 -7,0 z M 140,91 l 7,0 0,7 -7,0 z M 154,91 l 7,0 0,7 -7,0 z M 168,91 l 7,0 0,7 -7,0 z M 175,91 l 7,0 0,7 -7,0 z M 182,91 l 7,0 0,7 -7,0 z M 231,91 l 7,0 0,7 -7,0 z M 7,98 l 7,0 0,7 -7,0 z M 21,98 l 7,0 0,7 -7,0 z M 98,98 l 7,0 0,7 -7,0 z M 105,98 l 7,0 0,7 -7,0 z M 119,98 l 7,0 0,7 -7,0 z M 147,98 l 7,0 0,7 -7,0 z M 210,98 l 7,0 0,7 -7,0 z M 231,98 l 7,0 0,7 -7,0 z M 7,105 l 7,0 0,7 -7,0 z M 14,105 l 7,0 0,7 -7,0 z M 49,105 l 7,0 0,7 -7,0 z M 63,105 l 7,0 0,7 -7,0 z M 70,105 l 7,0 0,7 -7,0 z M 77,105 l 7,0 0,7 -7,0 z M 84,105 l 7,0 0,7 -7,0 z M 91,105 l 7,0 0,7 -7,0 z M 105,105 l 7,0 0,7 -7,0 z M 112,105 l 7,0 0,7 -7,0 z M 119,105 l 7,0 0,7 -7,0 z M 147,105 l 7,0 0,7 -7,0 z M 161,105 l 7,0 0,7 -7,0 z M 168,105 l 7,0 0,7 -7,0 z M 182,105 l 7,0 0,7 -7,0 z M 203,105 l 7,0 0,7 -7,0 z M 224,105 l 7,0 0,7 -7,0 z M 7,112 l 7,0 0,7 -7,0 z M 14,112 l 7,0 0,7 -7,0 z M 21,112 l 7,0 0,7 -7,0 z M 42,112 l 7,0 0,7 -7,0 z M 56,112 l 7,0 0,7 -7,0 z M 63,112 l 7,0 0,7 -7,0 z M 70,112 l 7,0 0,7 -7,0 z M 84,112 l 7,0 0,7 -7,0 z M 98,112 l 7,0 0,7 -7,0 z M 112,112 l 7,0 0,7 -7,0 z M 119,112 l 7,0 0,7 -7,0 z M 126,112 l 7,0 0,7 -7,0 z M 133,112 l 7,0 0,7 -7,0 z M 140,112 l 7,0 0,7 -7,0 z M 147,112 l 7,0 0,7 -7,0 z M 154,112 l 7,0 0,7 -7,0 z M 168,112 l 7,0 0,7 -7,0 z M 175,112 l 7,0 0,7 -7,0 z M 189,112 l 7,0 0,7 -7,0 z M 196,112 l 7,0 0,7 -7,0 z M 210,112 l 7,0 0,7 -7,0 z M 217,112 l 7,0 0,7 -7,0 z M 224,112 l 7,0 0,7 -7,0 z M 231,112 l 7,0 0,7 -7,0 z M 7,119 l 7,0 0,7 -7,0 z M 21,119 l 7,0 0,7 -7,0 z M 28,119 l 7,0 0,7 -7,0 z M 49,119 l 7,0 0,7 -7,0 z M 70,119 l 7,0 0,7 -7,0 z M 84,119 l 7,0 0,7 -7,0 z M 105,119 l 7,0 0,7 -7,0 z M 119,119 l 7,0 0,7 -7,0 z M 126,119 l 7,0 0,7 -7,0 z M 133,119 l 7,0 0,7 -7,0 z M 147,119 l 7,0 0,7 -7,0 z M 161,119 l 7,0 0,7 -7,0 z M 168,119 l 7,0 0,7 -7,0 z M 175,119 l 7,0 0,7 -7,0 z M 189,119 l 7,0 0,7 -7,0 z M 203,119 l 7,0 0,7 -7,0 z M 224,119 l 7,0 0,7 -7,0 z M 7,126 l 7,0 0,7 -7,0 z M 14,126 l 7,0 0,7 -7,0 z M 28,126 l 7,0 0,7 -7,0 z M 35,126 l 7,0 0,7 -7,0 z M 56,126 l 7,0 0,7 -7,0 z M 63,126 l 7,0 0,7 -7,0 z M 91,126 l 7,0 0,7 -7,0 z M 98,126 l 7,0 0,7 -7,0 z M 105,126 l 7,0 0,7 -7,0 z M 112,126 l 7,0 0,7 -7,0 z M 119,126 l 7,0 0,7 -7,0 z M 126,126 l 7,0 0,7 -7,0 z M 147,126 l 7,0 0,7 -7,0 z M 168,126 l 7,0 0,7 -7,0 z M 182,126 l 7,0 0,7 -7,0 z M 189,126 l 7,0 0,7 -7,0 z M 196,126 l 7,0 0,7 -7,0 z M 231,126 l 7,0 0,7 -7,0 z M 7,133 l 7,0 0,7 -7,0 z M 14,133 l 7,0 0,7 -7,0 z M 35,133 l 7,0 0,7 -7,0 z M 49,133 l 7,0 0,7 -7,0 z M 63,133 l 7,0 0,7 -7,0 z M 70,133 l 7,0 0,7 -7,0 z M 105,133 l 7,0 0,7 -7,0 z M 119,133 l 7,0 0,7 -7,0 z M 126,133 l 7,0 0,7 -7,0 z M 140,133 l 7,0 0,7 -7,0 z M 147,133 l 7,0 0,7 -7,0 z M 161,133 l 7,0 0,7 -7,0 z M 210,133 l 7,0 0,7 -7,0 z M 217,133 l 7,0 0,7 -7,0 z M 224,133 l 7,0 0,7 -7,0 z M 7,140 l 7,0 0,7 -7,0 z M 14,140 l 7,0 0,7 -7,0 z M 91,140 l 7,0 0,7 -7,0 z M 112,140 l 7,0 0,7 -7,0 z M 126,140 l 7,0 0,7 -7,0 z M 133,140 l 7,0 0,7 -7,0 z M 147,140 l 7,0 0,7 -7,0 z M 154,140 l 7,0 0,7 -7,0 z M 175,140 l 7,0 0,7 -7,0 z M 189,140 l 7,0 0,7 -7,0 z M 210,140 l 7,0 0,7 -7,0 z M 217,140 l 7,0 0,7 -7,0 z M 224,140 l 7,0 0,7 -7,0 z M 7,147 l 7,0 0,7 -7,0 z M 21,147 l 7,0 0,7 -7,0 z M 35,147 l 7,0 0,7 -7,0 z M 49,147 l 7,0 0,7 -7,0 z M 56,147 l 7,0 0,7 -7,0 z M 63,147 l 7,0 0,7 -7,0 z M 70,147 l 7,0 0,7 -7,0 z M 77,147 l 7,0 0,7 -7,0 z M 91,147 l 7,0 0,7 -7,0 z M 105,147 l 7,0 0,7 -7,0 z M 154,147 l 7,0 0,7 -7,0 z M 175,147 l 7,0 0,7 -7,0 z M 182,147 l 7,0 0,7 -7,0 z M 189,147 l 7,0 0,7 -7,0 z M 196,147 l 7,0 0,7 -7,0 z M 231,147 l 7,0 0,7 -7,0 z M 7,154 l 7,0 0,7 -7,0 z M 14,154 l 7,0 0,7 -7,0 z M 21,154 l 7,0 0,7 -7,0 z M 28,154 l 7,0 0,7 -7,0 z M 63,154 l 7,0 0,7 -7,0 z M 98,154 l 7,0 0,7 -7,0 z M 105,154 l 7,0 0,7 -7,0 z M 133,154 l 7,0 0,7 -7,0 z M 140,154 l 7,0 0,7 -7,0 z M 154,154 l 7,0 0,7 -7,0 z M 168,154 l 7,0 0,7 -7,0 z M 182,154 l 7,0 0,7 -7,0 z M 189,154 l 7,0 0,7 -7,0 z M 196,154 l 7,0 0,7 -7,0 z M 203,154 l 7,0 0,7 -7,0 z M 210,154 l 7,0 0,7 -7,0 z M 231,154 l 7,0 0,7 -7,0 z M 7,161 l 7,0 0,7 -7,0 z M 21,161 l 7,0 0,7 -7,0 z M 42,161 l 7,0 0,7 -7,0 z M 49,161 l 7,0 0,7 -7,0 z M 56,161 l 7,0 0,7 -7,0 z M 77,161 l 7,0 0,7 -7,0 z M 84,161 l 7,0 0,7 -7,0 z M 91,161 l 7,0 0,7 -7,0 z M 98,161 l 7,0 0,7 -7,0 z M 105,161 l 7,0 0,7 -7,0 z M 119,161 l 7,0 0,7 -7,0 z M 133,161 l 7,0 0,7 -7,0 z M 154,161 l 7,0 0,7 -7,0 z M 168,161 l 7,0 0,7 -7,0 z M 175,161 l 7,0 0,7 -7,0 z M 224,161 l 7,0 0,7 -7,0 z M 7,168 l 7,0 0,7 -7,0 z M 35,168 l 7,0 0,7 -7,0 z M 84,168 l 7,0 0,7 -7,0 z M 105,168 l 7,0 0,7 -7,0 z M 119,168 l 7,0 0,7 -7,0 z M 133,168 l 7,0 0,7 -7,0 z M 168,168 l 7,0 0,7 -7,0 z M 175,168 l 7,0 0,7 -7,0 z M 182,168 l 7,0 0,7 -7,0 z M 196,168 l 7,0 0,7 -7,0 z M 210,168 l 7,0 0,7 -7,0 z M 217,168 l 7,0 0,7 -7,0 z M 7,175 l 7,0 0,7 -7,0 z M 21,175 l 7,0 0,7 -7,0 z M 28,175 l 7,0 0,7 -7,0 z M 35,175 l 7,0 0,7 -7,0 z M 42,175 l 7,0 0,7 -7,0 z M 49,175 l 7,0 0,7 -7,0 z M 84,175 l 7,0 0,7 -7,0 z M 98,175 l 7,0 0,7 -7,0 z M 105,175 l 7,0 0,7 -7,0 z M 112,175 l 7,0 0,7 -7,0 z M 126,175 l 7,0 0,7 -7,0 z M 133,175 l 7,0 0,7 -7,0 z M 154,175 l 7,0 0,7 -7,0 z M 168,175 l 7,0 0,7 -7,0 z M 175,175 l 7,0 0,7 -7,0 z M 182,175 l 7,0 0,7 -7,0 z M 189,175 l 7,0 0,7 -7,0 z M 196,175 l 7,0 0,7 -7,0 z M 203,175 l 7,0 0,7 -7,0 z M 224,175 l 7,0 0,7 -7,0 z M 231,175 l 7,0 0,7 -7,0 z M 63,182 l 7,0 0,7 -7,0 z M 77,182 l 7,0 0,7 -7,0 z M 91,182 l 7,0 0,7 -7,0 z M 119,182 l 7,0 0,7 -7,0 z M 133,182 l 7,0 0,7 -7,0 z M 154,182 l 7,0 0,7 -7,0 z M 161,182 l 7,0 0,7 -7,0 z M 168,182 l 7,0 0,7 -7,0 z M 175,182 l 7,0 0,7 -7,0 z M 203,182 l 7,0 0,7 -7,0 z M 210,182 l 7,0 0,7 -7,0 z M 217,182 l 7,0 0,7 -7,0 z M 231,182 l 7,0 0,7 -7,0 z M 7,189 l 7,0 0,7 -7,0 z M 14,189 l 7,0 0,7 -7,0 z M 21,189 l 7,0 0,7 -7,0 z M 28,189 l 7,0 0,7 -7,0 z M 35,189 l 7,0 0,7 -7,0 z M 42,189 l 7,0 0,7 -7,0 z M 49,189 l 7,0 0,7 -7,0 z M 63,189 l 7,0 0,7 -7,0 z M 70,189 l 7,0 0,7 -7,0 z M 105,189 l 7,0 0,7 -7,0 z M 112,189 l 7,0 0,7 -7,0 z M 126,189 l 7,0 0,7 -7,0 z M 140,189 l 7,0 0,7 -7,0 z M 154,189 l 7,0 0,7 -7,0 z M 161,189 l 7,0 0,7 -7,0 z M 175,189 l 7,0 0,7 -7,0 z M 189,189 l 7,0 0,7 -7,0 z M 203,189 l 7,0 0,7 -7,0 z M 210,189 l 7,0 0,7 -7,0 z M 224,189 l 7,0 0,7 -7,0 z M 7,196 l 7,0 0,7 -7,0 z M 49,196 l 7,0 0,7 -7,0 z M 70,196 l 7,0 0,7 -7,0 z M 77,196 l 7,0 0,7 -7,0 z M 91,196 l 7,0 0,7 -7,0 z M 119,196 l 7,0 0,7 -7,0 z M 126,196 l 7,0 0,7 -7,0 z M 147,196 l 7,0 0,7 -7,0 z M 154,196 l 7,0 0,7 -7,0 z M 161,196 l 7,0 0,7 -7,0 z M 175,196 l 7,0 0,7 -7,0 z M 203,196 l 7,0 0,7 -7,0 z M 217,196 l 7,0 0,7 -7,0 z M 224,196 l 7,0 0,7 -7,0 z M 7,203 l 7,0 0,7 -7,0 z M 21,203 l 7,0 0,7 -7,0 z M 28,203 l 7,0 0,7 -7,0 z M 35,203 l 7,0 0,7 -7,0 z M 49,203 l 7,0 0,7 -7,0 z M 63,203 l 7,0 0,7 -7,0 z M 70,203 l 7,0 0,7 -7,0 z M 77,203 l 7,0 0,7 -7,0 z M 91,203 l 7,0 0,7 -7,0 z M 105,203 l 7,0 0,7 -7,0 z M 119,203 l 7,0 0,7 -7,0 z M 140,203 l 7,0 0,7 -7,0 z M 161,203 l 7,0 0,7 -7,0 z M 168,203 l 7,0 0,7 -7,0 z M 175,203 l 7,0 0,7 -7,0 z M 182,203 l 7,0 0,7 -7,0 z M 189,203 l 7,0 0,7 -7,0 z M 196,203 l 7,0 0,7 -7,0 z M 203,203 l 7,0 0,7 -7,0 z M 231,203 l 7,0 0,7 -7,0 z M 7,210 l 7,0 0,7 -7,0 z M 21,210 l 7,0 0,7 -7,0 z M 28,210 l 7,0 0,7 -7,0 z M 35,210 l 7,0 0,7 -7,0 z M 49,210 l 7,0 0,7 -7,0 z M 63,210 l 7,0 0,7 -7,0 z M 70,210 l 7,0 0,7 -7,0 z M 77,210 l 7,0 0,7 -7,0 z M 119,210 l 7,0 0,7 -7,0 z M 133,210 l 7,0 0,7 -7,0 z M 147,210 l 7,0 0,7 -7,0 z M 175,210 l 7,0 0,7 -7,0 z M 182,210 l 7,0 0,7 -7,0 z M 217,210 l 7,0 0,7 -7,0 z M 7,217 l 7,0 0,7 -7,0 z M 21,217 l 7,0 0,7 -7,0 z M 28,217 l 7,0 0,7 -7,0 z M 35,217 l 7,0 0,7 -7,0 z M 49,217 l 7,0 0,7 -7,0 z M 63,217 l 7,0 0,7 -7,0 z M 70,217 l 7,0 0,7 -7,0 z M 77,217 l 7,0 0,7 -7,0 z M 84,217 l 7,0 0,7 -7,0 z M 91,217 l 7,0 0,7 -7,0 z M 126,217 l 7,0 0,7 -7,0 z M 140,217 l 7,0 0,7 -7,0 z M 161,217 l 7,0 0,7 -7,0 z M 175,217 l 7,0 0,7 -7,0 z M 182,217 l 7,0 0,7 -7,0 z M 203,217 l 7,0 0,7 -7,0 z M 7,224 l 7,0 0,7 -7,0 z M 49,224 l 7,0 0,7 -7,0 z M 63,224 l 7,0 0,7 -7,0 z M 77,224 l 7,0 0,7 -7,0 z M 84,224 l 7,0 0,7 -7,0 z M 119,224 l 7,0 0,7 -7,0 z M 133,224 l 7,0 0,7 -7,0 z M 189,224 l 7,0 0,7 -7,0 z M 203,224 l 7,0 0,7 -7,0 z M 7,231 l 7,0 0,7 -7,0 z M 14,231 l 7,0 0,7 -7,0 z M 21,231 l 7,0 0,7 -7,0 z M 28,231 l 7,0 0,7 -7,0 z M 35,231 l 7,0 0,7 -7,0 z M 42,231 l 7,0 0,7 -7,0 z M 49,231 l 7,0 0,7 -7,0 z M 63,231 l 7,0 0,7 -7,0 z M 70,231 l 7,0 0,7 -7,0 z M 77,231 l 7,0 0,7 -7,0 z M 84,231 l 7,0 0,7 -7,0 z M 91,231 l 7,0 0,7 -7,0 z M 119,231 l 7,0 0,7 -7,0 z M 126,231 l 7,0 0,7 -7,0 z M 133,231 l 7,0 0,7 -7,0 z M 140,231 l 7,0 0,7 -7,0 z M 168,231 l 7,0 0,7 -7,0 z M 175,231 l 7,0 0,7 -7,0 z M 203,231 l 7,0 0,7 -7,0 z M 217,231 l 7,0 0,7 -7,0 z M 224,231 l 7,0 0,7 -7,0 z " />
	</g>
</svg>
