<svg width="802" height="1027" fill="none" xmlns="http://www.w3.org/2000/svg"><g opacity=".1" clip-path="url(#a)"><g opacity=".4" stroke="#fff" stroke-miterlimit="10"><path d="M330.035 388.563c-39.68-10.764-82.147-30.157-109.676-60.689-16.314-18.097-27.976-39.897-37.648-62.27a446.144 446.144 0 0 1-33.19-122.145S136.204 33.654 176.226-90.416" stroke-width="9"/><path d="M192.366 274.142c30.006-17.998 56.858-42.248 74.055-72.757 17.197-30.509 24.093-67.511 14.832-101.215 0 0-9.957-119.444-115.239-155.125m328.57 250.181a661.608 661.608 0 0 1-2.102-160.108s12.807-115.353 60.78-210.307m-161.77 684.701c160.772-9.294 324.35 55.988 434.514 173.437 0 0 59.06 62.177 103.476 170.975" stroke-width="9"/><path d="M557.584 521.844c17.042-34.633 35.068-70.453 65.511-94.213 15.319-11.947 33.151-20.239 51.098-27.694 45.725-19.035 95.438-33.414 144.394-25.909 17.814 2.73 35.045 8.248 52.041 14.359M612.663 545.062c1.782.269 1.35 2.962.487 4.55-14.157 25.855-14.916 57.455-7.731 86.043 7.186 28.589 21.687 54.757 36.954 79.986a1415.8 1415.8 0 0 0 12.98 20.944s85.354 145.371 230.391 29.403m-420.451-254.23a415.734 415.734 0 0 1 7.067 267.456s-55.131 163.435-220.025 119.264m385.336-482.025a402.105 402.105 0 0 1-60.996-178.016" stroke-width="9"/><path d="M241.966 347.348c15.463-12.827 21.398-34.43 20.081-54.483-1.316-20.054-8.85-39.106-16.307-57.772m10.773-22.329a313.773 313.773 0 0 0-21.829-26.931c-5.373-5.928-11.079-11.726-18.071-15.591-7.429-4.129-15.92-5.842-24.292-7.262a415.073 415.073 0 0 0-36.924-4.529" stroke-width="2"/><path d="M206.746 306.692a112.983 112.983 0 0 1 53.099-21.69m77.636 58.231a394.936 394.936 0 0 0-46.106-17.781m10.378-13.879a264.906 264.906 0 0 0-24.801-9.921 50.373 50.373 0 0 0-6.198-1.813 28.06 28.06 0 0 0-8.107-.432m68.05-76.888c-9.71 4.27-12.984 15.391-9.318 24.721 2.631 6.73 9.352 9.583 16.57 8.164a18.756 18.756 0 0 0 14.406-14.443c.55-2.851.362-5.795-.545-8.554a17.048 17.048 0 0 0-4.641-7.206 15.93 15.93 0 0 0-16.472-2.682Z" stroke-width="2"/><path d="M261.923 358.987c20.412-18.359 52.11-59.971 66.409-104.181m-8.042-15.483a819.97 819.97 0 0 1-70.115-9.705m80.694-7.824a105.929 105.929 0 0 0-47.548-63.117m61.648 63.328c26.43-26.484 58.852-46.148 91.731-64.008 16.58-9.015 33.492-17.698 51.654-22.782M377.338 275.31a124.945 124.945 0 0 0-28.667-24.502" stroke-width="2"/><path d="m363.596 259.468 23.777-26.357a40.269 40.269 0 0 0 7.115-9.653c1.738-3.641 2.246-8.024.481-11.621a20.262 20.262 0 0 0-3.973-5.055l-11.858-12.154m38.129-26.267c-8.882-12.287-23.548-18.764-37.508-24.684-7.655-3.254-15.311-6.507-23.304-8.993-22.434-7.013-46.311-7.712-69.879-7.611" stroke-width="2"/><path d="M308.979 179.086a198.536 198.536 0 0 0 43.855-44.395m21.599 7.035a323.872 323.872 0 0 1 112.332-62.472" stroke-width="2"/><path d="M434.172 100.252a175.23 175.23 0 0 0-13.307-12.241l-20.501-17.572S311.223 12.916 280.182-98.272m165.395 251.218c-1.969-4.411-5.222-8.098-8.425-11.745l-23.744-26.838m24.829 107.548a320.871 320.871 0 0 0-32.091-46.392m67.977 29.477c-4.172-8.38-8.317-16.658-13.272-24.516-5.585-8.842-12.235-17.155-16.106-26.89m190.732-18.001c-19.508-15.789-43.758-25.071-68.539-29.041-24.78-3.97-50.136-2.848-75.007.492m110.362 240.321c-21.807 22.776-41.162 48.369-53.751 77.29-12.589 28.922-18.178 61.435-12.303 92.424" stroke-width="2"/><path d="M530.339 183.949a294.538 294.538 0 0 0 8.184-78.173m36.198 65.617a230.64 230.64 0 0 0 5.487-61.956m-21.325-4.34a307.2 307.2 0 0 0-1.245-74.778s-9.617-74.476-43.12-102.946" stroke-width="2"/><path d="M643.959 51.746c-28.002-2.171-55.919 3.98-83.298 10.108m17.367 414.459a263.296 263.296 0 0 0-39.426-21.008m69.993-21.075a144.236 144.236 0 0 0-46.474-33.284m-56.176 111.276a878.963 878.963 0 0 0-.655-28.318c-.122-3.291-.303-6.702-1.767-9.634-3.389-6.772-12.051-8.616-19.576-9.408a308.82 308.82 0 0 0-67.488.35 8.26 8.26 0 0 0-4.055 1.222c-2.185 1.617-2.249 4.822-2.051 7.537a410.723 410.723 0 0 0 3.383 32.878m296.451-124.235c-2.849-34.988-17.964-67.653-33.149-99.308-11.004-22.939-22.306-46.029-38.201-65.907" stroke-width="2"/><path d="M598.906 321.961a500.68 500.68 0 0 1 77.539-35.146c.557-.149 1.215-.529 1.171-1.1-.045-.571-1.218-.393-.855.053m18.295 33.942a1948.488 1948.488 0 0 1 127.148-50.622M659.617 245.18a295.415 295.415 0 0 0 122.132-119.017" stroke-width="2"/><path d="M767.281 291.417c-11.113-30.739-28.337-61.197-47.406-87.701m32.409-34.245a256.232 256.232 0 0 0-47.471-28.296m6.746-71.235a628.428 628.428 0 0 1 40.926-10.206.619.619 0 0 0-.284-.511.614.614 0 0 0-.583-.044M636.943 548.935a172.596 172.596 0 0 0 22.958-141.016" stroke-width="2"/><path d="M658.34 501.44c-7.052-5.152-15.644-7.748-23.994-10.151a879.534 879.534 0 0 0-50.302-12.68m37.065 8.195a1150.86 1150.86 0 0 1 5.829-18.753 83.743 83.743 0 0 0 3.893-15.601c1.048-9.304-1.166-18.683-3.356-27.716l2.905 1.678m183.257 105.76c4.872-5.213 7.726-12.029 9.422-18.968 3.977-16.195 1.582-34.602-9.274-47.269-31.963-37.309-86.636 3.12-70.21 46.043 10.494 27.418 47.141 44.734 70.062 20.194Z" stroke-width="2"/><path d="m724.274 595.45 21.288-29.217c6.656-9.137 13.367-18.371 18.013-28.679m-21.074-34.039a3106.447 3106.447 0 0 0-93.356 25.435m102.046-61.969a1435.012 1435.012 0 0 1-79.949-66.104m124.134 51.145A6724.611 6724.611 0 0 0 849 382.866" stroke-width="2"/><path d="M748.314 562.429c16.693 9.638 153.583 115.937 172.424 119.816M714.591 436.723a6527.687 6527.687 0 0 0 66.394-61.452c-.717.464-1.431.94-2.161 1.407m-299.043 189.2a1434.062 1434.062 0 0 0-84.951 1.054m93.134 68.528-94.192-.975m89.641 86.478-104.207-14.857m50.095 6.183a390.936 390.936 0 0 0 6.194-76.283m164.513-30.473c-19.567-7.199-39.148-14.448-57.387-24.54-7.954-4.368-15.692-9.445-21.025-16.74-9.83-13.444-9.467-31.532-8.701-48.168m101.362 147.54a1524.534 1524.534 0 0 1-123.12 4.741" stroke-width="2"/><path d="M545.554 666.783a2129.061 2129.061 0 0 1-.071-83.817m138.782-5.736c-7.838 18.803-9.519 39.822-6.836 60.011 3.686 27.682 12.531 58.919 41.367 69.116 36.119 12.763 77.733 2.44 107.527-20.251m-150.846-65.817a522.891 522.891 0 0 0-69.618 11.639" stroke-width="2"/><path d="M681.596 657.046a128.647 128.647 0 0 0 63.514-40.599m-495.47-261.17a534.996 534.996 0 0 1-89.655 105.431m163.531-5.38a766.742 766.742 0 0 1-122.583-33.867m127.708 121.553a768.711 768.711 0 0 1-148.671-27.271m146.911 120.154a549.587 549.587 0 0 1-124.279-14.825m97.951 119.568a459.555 459.555 0 0 1-88.658-20.272" stroke-width="2"/><path d="M257.671 439.024a469.603 469.603 0 0 1 24.443-68.433m-8.362 165.869c2.568-28.95 12.386-58.947 19.685-87.102m-96.797 70.724a2529.749 2529.749 0 0 1 26.087-89.537m23.361 198.833a914.3 914.3 0 0 1 6.278-98.096m15.168 202.792a511.027 511.027 0 0 0 14.829-99.247m84.733-594.564c40.008-14.342 88.411-25.155 129.818-34.784M369.276-58.593a960.642 960.642 0 0 1 56.129 80.709m51.616-12.243a414.28 414.28 0 0 0-64.958-117.812M281.714 86.546a161.684 161.684 0 0 0 99.841-29.588m-107.649-9.933a186.746 186.746 0 0 0 61.964-36.358" stroke-width="2"/><path d="M304.751 32.208c-6.841-11.152-17.438-19.506-28.595-26.258A43.251 43.251 0 0 0 264.471.52c-5.817-1.454-11.925-.754-17.789.451M211.97 167.09a91.478 91.478 0 0 1 71.466-39.176m-101.888 33.394c21.457-38.815 48.778-73.163 89.861-89.978m-76.474 65.048a389.359 389.359 0 0 0-45.612-36.8m87.122-9.816a266.496 266.496 0 0 0-83.236-75.386m61.306 46.61a267.33 267.33 0 0 1 42.243-34.765m-83.507-1.151c10.411-19.681 27.73-34.647 44.65-49.126m256.804 794.853-102.029-36.905m55.652 111.487-86.025-42.551m22.924 91.017c-17.592-13.955-29.069-34.963-48.096-46.879" stroke-width="2"/><path d="M351.847 563.946c.467-.994.904-1.993 1.342-2.992"/><path d="M355.541 554.842a99.593 99.593 0 0 0 2.523-56.915c-5.137-20.237-16.496-38.224-25.867-56.838a311.246 311.246 0 0 1-20.607-52.4c-4.027-13.764-7.111-28.161-5.294-42.392 3.11-24.346 21.763-45.979 45.395-52.623 7.454-2.106 15.593-2.821 22.869-.076 18.864 7.007 18.6 34.227 6.013 46.799-10.655 10.616-27.527 13.223-42.084 9.431-14.557-3.793-27.089-13.093-37.859-23.613a184.071 184.071 0 0 1-41.89-63.114c-12.756-31.709-16.991-66.502-31.367-97.52-6.987-15.087-16.683-29.449-29.967-39.227" stroke-dasharray="4.99 4.99"/><path d="M194.729 124.466a64.38 64.38 0 0 0-2.764-1.756"/><path d="M617.287 350.507c55.376 19.313 95.143 71.517 109.889 128.269 2.22 8.59 3.959 17.459 3.201 26.278-.758 8.819-4.254 17.747-11.03 23.497-11.588 9.821-31.031 7.135-40.746-4.563-9.715-11.697-9.466-29.959-.774-42.436 8.691-12.478 24.559-18.982 39.733-18.055 15.809.974 30.239 9.102 43.266 18.121a285.061 285.061 0 0 1 42.295 35.815c12.872 13.253 24.533 27.808 39.026 39.31 19.869 15.924 44.156 25.291 68.021 34.404" stroke-dasharray="5 5"/></g></g><defs><clipPath id="a"><path fill="#fff" d="M0 0h802v1027H0z"/></clipPath></defs></svg>