<svg width="520" height="520" fill="none" xmlns="http://www.w3.org/2000/svg"><g clip-path="url(#a)"><path d="M520.051 257.113c.01 50.865-15.231 100.59-43.797 142.887-28.566 42.297-69.173 75.266-116.685 94.738-47.513 19.472-99.797 24.572-150.24 14.655-50.444-9.917-96.781-34.406-133.151-70.369C39.808 403.061 15.038 357.239 5 307.353-5.037 257.466.11 205.757 19.788 158.763c19.68-46.993 53.008-87.16 95.77-115.42C158.32 15.084 208.595 0 260.026 0c68.954 0 135.085 27.087 183.847 75.304 48.763 48.216 76.165 113.614 76.178 181.809Z" fill="#0B9072"/><path d="M81.062 322.797c6.144-43.806 115.931-101.285 190.897-93.132 74.966 8.154 145.016 57.075 162.938 93.132 17.922 36.058-8.398 165.704-8.398 165.704H110.403S70.564 398.66 81.062 322.797Z" fill="#161515"/><path d="M143.479 227.994s-8.962-16.054 11.777-41.02c20.738-24.967 120.488-47.098 172.053-9.42s58.017 38.539 54.893 50.643c-3.123 12.103-80.701 62.999-86.334 85.434-5.632 22.435-31.952 60.771-33.744 60.771-1.793 0-23.453-44.363-40.966-67.658-17.512-23.296-77.679-78.75-77.679-78.75Z" fill="#161515"/><path d="M181.016 168.134c-1.126 15.193 14.031 66.494 30.263 88.675 16.232 22.182 40.351 36.058 54.586 37.172 14.235 1.114 36.561-15.193 51.718-44.768 15.157-29.576 27.088-83.865 27.088-83.865l-163.655 2.786Z" fill="#FFB18F"/><path d="M343.492 170.565a35.282 35.282 0 0 0-5.121-5.065l-157.613 2.684c-.871 11.496 7.886 44.617 19.356 69.381 17.922-5.925 36.152-12.205 46.802-16.965 10.651-4.761 3.995-14.18 13.212-15.852 9.217-1.671 7.527 15.193 15.362 17.219 5.581 1.57 30.314 10.736 46.649 16.864a488.65 488.65 0 0 0 21.353-68.266Z" fill="#DB826A"/><path d="M145.223 222.17s27.753-31.753 108.915-31.044c81.162.709 120.694 32.614 120.694 32.614s-71.331-26.79-126.019-24.815c-46.547 1.621-103.59 23.245-103.59 23.245Z" fill="#90CED6"/><path d="M133.957 227.437c-1.946-.507 34.718-121.543 83.159-154.815 27.754-19.143 79.37-18.688 104.563 2.38 33.079 27.6 69.487 151.32 67.849 155.22-1.639 3.899-43.423-32.209-129.143-34.387-87.409-2.177-120.283 33.273-126.428 31.602Z" fill="#353535"/><path d="M133.956 227.437s4.148-8.254 8.756-6.381c32.363 13.319 103.079 78.142 113.883 113.288 14.031 45.579 7.937 72.115 7.937 72.115s-21.865-58.745-54.381-99.766c-25.91-32.715-76.195-79.256-76.195-79.256Z" fill="#353535"/><path d="M389.527 230.223s-5.94-11.395-9.525-9.42c-30.211 16.155-101.695 78.75-112.653 113.845-14.031 45.578-2.97 71.811-2.97 71.811s16.334-56.618 48.85-97.639c26.116-32.715 76.298-78.597 76.298-78.597Z" fill="#353535"/><path d="M248.862 233.109a54.675 54.675 0 0 1 10.907-5.064c2.611-.658 13.467 6.33 12.033 7.191-1.433.861-24.067-.202-22.94-2.127Z" fill="#DB826A"/><path d="M240.259 258.936c-.614-1.519 10.242-4.659 22.326-5.064 12.085-.405 19.868.912 17.922 1.975-1.945 1.064-10.702 0-17.717.608-7.015.608-20.79 6.786-22.531 2.481Z" fill="#7C4639"/><path d="M238.724 253.063c2.56 1.468-4.711 5.57-1.69 9.166 3.789 4.406 7.886 1.924 7.886 3.038 0 1.115-5.735 3.697-10.651-3.038-2.97-4.001 1.126-11.04 4.455-9.166Z" fill="#DB826A"/><path d="M267.347 70.191c-30.314 0-56.583 97.741-62.881 129.899a259.707 259.707 0 0 1 55.917-4.254 285.96 285.96 0 0 1 59.707 7.698c-5.275-34.286-12.085-133.343-52.743-133.343Z" fill="#444"/><path d="M262.177 400.483c-4.167-36.829-20.033-71.403-45.318-98.753a243.357 243.357 0 0 0-50.694-43.097 634.885 634.885 0 0 1 43.986 48.06c26.269 33.171 45.574 77.838 52.026 93.79Z" fill="#90CED6"/><path d="M101.643 289.828C63.699 319.404 19.047 432.54 12.339 469.104c-6.708 36.564 119.515 49.731 142.456 37.526 22.94-12.205-13.007-164.994-26.474-182.719-13.467-17.725-18.844-40.21-26.678-34.083Z" fill="#353535"/><path d="M313.384 308.82a565.723 565.723 0 0 1 40.249-44.059 263.679 263.679 0 0 0-41.375 36.969c-24.691 26.701-40.399 60.32-44.959 96.221 5.889-17.37 21.25-57.783 46.085-89.131Z" fill="#474747"/><path d="M112.656 355.461s-14.03 39.4-22.992 47.706c-8.961 8.305-25.245 2.228-35.332 9.419-10.088 7.192-11.727 28.816-11.727 28.816s22.48-16.611 44.55-8.305a37.985 37.985 0 0 0 20.277 1.453 37.734 37.734 0 0 0 18.077-9.202l-12.853-69.887Z" fill="#232323"/><path d="M114.904 442.973s-32.004-8.204-45.164 3.444a25.36 25.36 0 0 0-6.471 8.2 25.098 25.098 0 0 0-2.592 10.082 46.85 46.85 0 0 1 17.461-12.256c14.543-5.064 47.059 14.838 33.95-1.621l2.816-7.849Z" fill="#2B2B2B"/><path d="M408.524 289.828c37.943 29.576 82.595 142.712 89.303 179.276 6.708 36.564-119.515 49.731-142.456 37.526-22.94-12.205 13.007-164.994 26.474-182.719 13.467-17.725 18.895-40.21 26.679-34.083Z" fill="#353535"/><path d="M397.567 355.461s14.031 39.4 22.992 47.706c8.961 8.305 25.193 2.228 35.281 9.419 10.087 7.192 11.777 28.816 11.777 28.816s-22.479-16.611-44.6-8.305a38.04 38.04 0 0 1-20.276 1.445 37.781 37.781 0 0 1-18.078-9.194l12.904-69.887Z" fill="#232323"/><path d="M395.315 442.973s32.004-8.204 45.113 3.444a25.36 25.36 0 0 1 6.499 8.193 25.098 25.098 0 0 1 2.615 10.089 46.849 46.849 0 0 0-17.461-12.256c-14.543-5.064-47.11 14.838-33.95-1.621l-2.816-7.849Zm56.736-42.49s-5.121-14.231-15.362-18.13a145.003 145.003 0 0 1-24.528-14.129s5.121 25.827 10.856 27.752a104.545 104.545 0 0 0 29.034 4.507Z" fill="#2B2B2B"/><path d="M425.371 329.988H109.274v181.251h316.097V329.988Z" fill="#AAA"/><path d="M237.161 412.048c0-18.78 15.275-30.048 30.049-30.048 14.773 0 30.048 11.268 30.048 30.048 0 18.029-27.044 45.574-28.296 46.826-.5.501-1.001.751-1.752.751-.752 0-1.252-.25-1.753-.751-1.252-1.252-28.296-29.047-28.296-46.826Z" fill="#0B9072"/><mask id="b" style="mask-type:alpha" maskUnits="userSpaceOnUse" x="237" y="382" width="61" height="78"><path d="M237.161 412.048c0-18.78 15.275-30.048 30.049-30.048 14.773 0 30.048 11.268 30.048 30.048 0 18.029-27.044 45.574-28.296 46.826-.5.501-1.001.751-1.752.751-.752 0-1.252-.25-1.753-.751-1.252-1.252-28.296-29.047-28.296-46.826Z" fill="#0B9072"/></mask><g mask="url(#b)"><path fill="#0099AF" d="m267.02 420.814 21.016 21.016-21.353 21.353-21.016-21.016z"/><path d="m267.736 422.592 22.141 20.559c17.713-21.93 12.301-43.227 7.381-51.135l-29.522 30.576Z" fill="#051173"/><path fill="#53C5D5" d="m245.406 437.954 46.523-46.523 6.12 6.121-46.522 46.523z"/><path fill="#53C5D5" d="m271.748 421.01 19.175 19.175-6.12 6.121-19.176-19.175z"/></g><circle cx="266.682" cy="413.63" r="17.924" fill="#E4EBEC"/><g clip-path="url(#c)"><path d="M272.644 414.379c1.411-.277 2.48-1.145 2.779-2.988.411-2.517-1.569-3.929-4.285-4.907l.911-3.401-2.153-.576-.887 3.31a100.93 100.93 0 0 0-1.725-.438l.893-3.333-2.151-.576-.911 3.399a66.99 66.99 0 0 1-1.375-.349l.002-.01-2.968-.797-.592 2.211s1.597.397 1.564.418c.871.234 1.025.797.994 1.239l-1.037 3.874-1.458 5.441c-.109.254-.383.632-.993.469.021.031-1.566-.42-1.566-.42l-1.089 2.357 2.801.751c.521.14 1.032.285 1.534.424l-.919 3.439 2.149.577.911-3.403c.589.17 1.158.328 1.716.477l-.908 3.387 2.153.576.921-3.432c3.671.769 6.439.571 7.63-2.612.959-2.563-.014-4.083-1.941-5.107Zm-5.96-6.553c1.214.325 5.131.976 4.478 3.415-.627 2.339-4.37 1.043-5.585.717l1.107-4.132Zm-2.888 10.775 1.222-4.557c1.458.391 6.141 1.213 5.423 3.894-.688 2.571-5.185 1.053-6.645.663Z" fill="#0B9072"/></g><path d="M425.371 511.087H109.274V520h316.097v-8.913Z" fill="#8C8C8C"/><path d="M199.603 508.656h-33.642v3.089h33.642v-3.089Zm169.031 0h-33.643v3.089h33.643v-3.089Zm56.737-178.212H109.274v4.203h316.097v-4.203Z" fill="#CECECE"/><path d="M58.172 400.483s5.12-14.231 15.362-18.13a144.984 144.984 0 0 0 24.527-14.129s-5.12 25.827-10.906 27.752a104.298 104.298 0 0 1-28.983 4.507Z" fill="#2B2B2B"/></g><defs><clipPath id="a"><path fill="#fff" d="M0 0h520v520H0z"/></clipPath><clipPath id="c"><path fill="#fff" transform="rotate(15 -1387.568 1191.08)" d="M0 0h18.97v24.029H0z"/></clipPath></defs></svg>