<svg width="220" height="220" viewBox="0 0 220 220" fill="none" xmlns="http://www.w3.org/2000/svg">
<g clip-path="url(#clip0_316_815)">
<path d="M220.022 108.779C220.026 130.298 213.578 151.336 201.492 169.231C189.407 187.126 172.227 201.074 152.125 209.312C132.024 217.55 109.904 219.708 88.5621 215.512C67.2207 211.317 47.6166 200.956 32.2291 185.741C16.8417 170.526 6.36201 151.14 2.11546 130.034C-2.13109 108.928 0.0462301 87.051 8.37205 67.1691C16.6979 47.2872 30.7982 30.2937 48.8899 18.3376C66.9815 6.38156 88.2519 4.17271e-07 110.011 0C139.184 -5.59447e-07 167.162 11.4599 187.793 31.8592C208.423 52.2586 220.016 79.9268 220.022 108.779Z" fill="#0B9072"/>
<path d="M34.2952 136.568C36.8949 118.035 83.343 93.7166 115.059 97.1661C146.776 100.616 176.412 121.313 183.995 136.568C191.577 151.823 180.442 206.673 180.442 206.673H46.7088C46.7088 206.673 29.8541 168.664 34.2952 136.568Z" fill="#161515"/>
<path d="M60.7025 96.459C60.7025 96.459 56.9112 89.667 65.6852 79.1041C74.4592 68.5412 116.661 59.1781 138.477 75.1189C160.293 91.0597 163.022 91.424 161.701 96.5447C160.379 101.665 127.558 123.198 125.175 132.69C122.792 142.182 111.657 158.401 110.898 158.401C110.14 158.401 100.976 139.632 93.567 129.776C86.1579 119.92 60.7025 96.459 60.7025 96.459Z" fill="#161515"/>
<path d="M76.5841 71.1334C76.1075 77.5611 82.5201 99.2654 89.3876 108.65C96.2552 118.034 106.459 123.905 112.482 124.376C118.504 124.848 127.95 117.949 134.363 105.436C140.775 92.9234 145.823 69.955 145.823 69.955L76.5841 71.1334Z" fill="#FFB18F"/>
<path d="M145.323 72.1619C144.676 71.3766 143.95 70.6587 143.156 70.0193L76.474 71.1549C76.1057 76.0185 79.8103 90.031 84.6631 100.508C92.2455 98.0014 99.958 95.3446 104.464 93.3305C108.97 91.3165 106.154 87.3313 110.054 86.6243C113.953 85.9172 113.238 93.052 116.553 93.909C118.914 94.5732 129.378 98.4513 136.289 101.044C140.003 91.6455 143.023 81.9928 145.323 72.1619Z" fill="#DB826A"/>
<path d="M61.4404 93.9952C61.4404 93.9952 73.1824 80.5612 107.52 80.8612C141.858 81.1611 158.583 94.6594 158.583 94.6594C158.583 94.6594 128.404 83.3251 105.267 84.1607C85.5743 84.8463 61.4404 93.9952 61.4404 93.9952Z" fill="#90CED6"/>
<path d="M56.6734 96.2232C55.8502 96.0089 71.3617 44.8013 91.856 30.7245C103.598 22.6256 125.436 22.8184 136.094 31.7315C150.089 43.4086 165.493 95.7518 164.799 97.4016C164.106 99.0514 146.428 83.7748 110.162 82.8535C73.1815 81.9322 59.2731 96.9302 56.6734 96.2232Z" fill="#353535"/>
<path d="M56.6738 96.2235C56.6738 96.2235 58.4286 92.7311 60.3784 93.5238C74.0702 99.1588 103.988 126.584 108.56 141.453C114.496 160.737 111.918 171.964 111.918 171.964C111.918 171.964 102.667 147.11 88.9101 129.755C77.9481 115.914 56.6738 96.2235 56.6738 96.2235Z" fill="#353535"/>
<path d="M164.8 97.4018C164.8 97.4018 162.286 92.581 160.77 93.4166C147.988 100.251 117.745 126.734 113.109 141.582C107.173 160.865 111.852 171.964 111.852 171.964C111.852 171.964 118.763 148.01 132.52 130.655C143.569 116.814 164.8 97.4018 164.8 97.4018Z" fill="#353535"/>
<path d="M105.287 98.6232C106.74 97.7422 108.288 97.0236 109.902 96.4806C111.007 96.2021 115.599 99.1589 114.993 99.5231C114.386 99.8873 104.811 99.4374 105.287 98.6232Z" fill="#DB826A"/>
<path d="M101.648 109.55C101.388 108.907 105.981 107.579 111.094 107.408C116.207 107.236 119.5 107.793 118.676 108.243C117.853 108.693 114.148 108.243 111.18 108.5C108.212 108.757 102.385 111.371 101.648 109.55Z" fill="#7C4639"/>
<path d="M100.999 107.065C102.082 107.686 99.0058 109.422 100.284 110.943C101.887 112.807 103.62 111.757 103.62 112.229C103.62 112.7 101.194 113.793 99.1141 110.943C97.8576 109.25 99.5907 106.272 100.999 107.065Z" fill="#DB826A"/>
<path d="M113.108 29.6964C100.283 29.6964 89.1691 71.0482 86.5044 84.6536C94.3002 83.2018 102.233 82.5983 110.162 82.8538C118.675 83.0479 127.143 84.1397 135.422 86.1105C133.191 71.6053 130.309 29.6964 113.108 29.6964Z" fill="#444444"/>
<path d="M110.921 169.435C109.158 153.854 102.446 139.226 91.7484 127.655C85.4785 120.633 78.2616 114.498 70.3008 109.422C76.8514 115.88 83.0627 122.667 88.9103 129.755C100.024 143.789 108.191 162.686 110.921 169.435Z" fill="#90CED6"/>
<path d="M43.0028 122.62C26.9496 135.132 8.05841 182.998 5.2204 198.467C2.38239 213.936 55.7846 219.507 65.4902 214.343C75.1958 209.18 59.9875 144.538 54.2898 137.039C48.5921 129.54 46.3174 120.027 43.0028 122.62Z" fill="#353535"/>
<path d="M132.585 130.655C137.926 124.15 143.61 117.927 149.613 112.014C143.238 116.604 137.37 121.846 132.109 127.655C121.662 138.952 115.017 153.175 113.087 168.364C115.579 161.015 122.078 143.917 132.585 130.655Z" fill="#474747"/>
<path d="M47.662 150.387C47.662 150.387 41.726 167.057 37.9348 170.571C34.1436 174.084 27.2544 171.513 22.9865 174.556C18.7187 177.598 18.0254 186.747 18.0254 186.747C18.0254 186.747 27.536 179.719 36.8733 183.233C39.6215 184.214 42.5896 184.427 45.4521 183.848C48.3145 183.27 50.9606 181.923 53.0997 179.955L47.662 150.387Z" fill="#232323"/>
<path d="M48.6138 187.412C48.6138 187.412 35.0736 183.941 29.5059 188.869C28.3603 189.825 27.428 191.006 26.7679 192.338C26.1079 193.669 25.7345 195.122 25.6714 196.603C27.6962 194.334 30.2247 192.559 33.0589 191.418C39.2115 189.276 52.9683 197.696 47.4222 190.733L48.6138 187.412Z" fill="#2B2B2B"/>
<path d="M172.837 122.62C188.89 135.132 207.781 182.998 210.619 198.467C213.457 213.936 160.055 219.507 150.35 214.343C140.644 209.18 155.852 144.538 161.55 137.039C167.248 129.54 169.544 120.027 172.837 122.62Z" fill="#353535"/>
<path d="M168.201 150.387C168.201 150.387 174.137 167.057 177.928 170.571C181.72 174.084 188.587 171.513 192.855 174.556C197.123 177.598 197.838 186.747 197.838 186.747C197.838 186.747 188.327 179.719 178.968 183.233C176.22 184.211 173.252 184.423 170.39 183.845C167.528 183.266 164.882 181.921 162.742 179.955L168.201 150.387Z" fill="#232323"/>
<path d="M167.248 187.412C167.248 187.412 180.788 183.941 186.334 188.869C187.484 189.823 188.42 191.004 189.084 192.335C189.748 193.667 190.125 195.12 190.19 196.603C188.166 194.334 185.637 192.559 182.803 191.418C176.65 189.276 162.872 197.696 168.44 190.733L167.248 187.412Z" fill="#2B2B2B"/>
<path d="M191.252 169.435C191.252 169.435 189.085 163.414 184.753 161.765C181.104 160.114 177.628 158.111 174.375 155.787C174.375 155.787 176.542 166.714 178.968 167.528C182.95 168.739 187.087 169.381 191.252 169.435Z" fill="#2B2B2B"/>
<path d="M179.964 139.61H46.231V216.293H179.964V139.61Z" fill="#AAAAAA"/>
<path d="M179.964 216.229H46.231V220H179.964V216.229Z" fill="#8C8C8C"/>
<path d="M84.4468 215.2H70.2134V216.507H84.4468V215.2Z" fill="#CECECE"/>
<path d="M155.96 215.2H141.727V216.507H155.96V215.2Z" fill="#CECECE"/>
<path d="M179.964 139.803H46.231V141.582H179.964V139.803Z" fill="#CECECE"/>
<path d="M24.6113 169.435C24.6113 169.435 26.7777 163.414 31.1106 161.765C34.7596 160.114 38.2353 158.111 41.4877 155.787C41.4877 155.787 39.3213 166.714 36.8733 167.528C32.8986 168.738 28.7696 169.38 24.6113 169.435Z" fill="#2B2B2B"/>
<path d="M110.509 167.657H104.725V173.099H106.436V169.157H110.509V167.657Z" fill="#474747"/>
<path d="M115.686 167.657H121.449V173.099H119.759V169.157H115.686V167.657Z" fill="#474747"/>
<path d="M115.686 183.169H121.449V177.705H119.759V181.648H115.686V183.169Z" fill="#474747"/>
<path d="M110.509 183.169H104.725V177.705H106.437V181.648H110.509V183.169Z" fill="#474747"/>
</g>
<defs>
<clipPath id="clip0_316_815">
<rect width="220" height="220" fill="white"/>
</clipPath>
</defs>
</svg>
