<svg fill="none" xmlns="http://www.w3.org/2000/svg" viewBox="0 0 16 16">
  <path fill-rule="evenodd" clip-rule="evenodd"
    d="M8 1.5C4.41015 1.5 1.5 4.41015 1.5 8C1.5 11.5899 4.41015 14.5 8 14.5C11.5899 14.5 14.5 11.5899 14.5 8C14.5 4.41015 11.5899 1.5 8 1.5ZM8.35355 5.14645C8.25979 5.05268 8.13261 5 8 5C7.86739 5 7.74021 5.05268 7.64645 5.14645L5.64645 7.14645C5.45118 7.34171 5.45118 7.65829 5.64645 7.85355C5.84171 8.04881 6.15829 8.04881 6.35355 7.85355L7.5 6.70711L7.5 10.5C7.5 10.7761 7.72386 11 8 11C8.27614 11 8.5 10.7761 8.5 10.5L8.5 6.70711L9.64645 7.85355C9.84171 8.04882 10.1583 8.04882 10.3536 7.85355C10.5488 7.65829 10.5488 7.34171 10.3536 7.14645L8.35355 5.14645Z"
    fill="white"></path>
</svg>