<svg fill="none" xmlns="http://www.w3.org/2000/svg" viewBox="0 0 25 24">
  <path
    d="M12.5 22C18.0228 22 22.5 17.5228 22.5 12C22.5 6.47715 18.0228 2 12.5 2C6.97715 2 2.5 6.47715 2.5 12C2.5 17.5228 6.97715 22 12.5 22Z"
    stroke="currentColor" stroke-width="2" stroke-linecap="round" stroke-linejoin="round"></path>
  <path
    d="M15.2221 8.26596C15.7107 8.10312 15.9549 8.02169 16.1174 8.07962C16.2587 8.13003 16.37 8.24127 16.4204 8.38263C16.4783 8.54507 16.3969 8.78935 16.234 9.27789L14.7465 13.7405C14.7001 13.8797 14.6769 13.9492 14.6374 14.007C14.6024 14.0582 14.5582 14.1024 14.507 14.1374C14.4492 14.1769 14.3797 14.2001 14.2405 14.2465L9.77789 15.734C9.28935 15.8969 9.04507 15.9783 8.88263 15.9204C8.74127 15.87 8.63003 15.7587 8.57962 15.6174C8.52169 15.4549 8.60312 15.2107 8.76596 14.7221L10.2535 10.2595C10.2999 10.1203 10.3231 10.0508 10.3626 9.99299C10.3976 9.94182 10.4418 9.8976 10.493 9.8626C10.5508 9.82308 10.6203 9.79989 10.7595 9.75351L15.2221 8.26596Z"
    stroke="currentColor" stroke-width="2" stroke-linecap="round" stroke-linejoin="round"></path>
</svg>