<svg xmlns="http://www.w3.org/2000/svg" viewBox="0 0 512 512">
  <path
    d="M64 112C55.2 112 48 119.2 48 128V150.1L220.5 291.7C241.2 308.7 270.9 308.7 291.6 291.7L464 150.1V128C464 119.2 456.8 112 448 112H64ZM48 212.2V384C48 392.8 55.2 400 64 400H448C456.8 400 464 392.8 464 384V212.2L322 328.8C283.6 360.3 228.3 360.3 190 328.8L48 212.2ZM0 128C0 92.7 28.7 64 64 64H448C483.3 64 512 92.7 512 128V384C512 419.3 483.3 448 448 448H64C28.7 448 0 419.3 0 384V128Z"
    fill="currentColor"></path>
</svg>