<svg xmlns="http://www.w3.org/2000/svg" fill="none" viewBox="0 0 25 24" stroke="currentColor"
  stroke-width="2" stroke-linecap="round" stroke-linejoin="round">
  <path
    d="M2.5 12H22.5M2.5 12C2.5 17.5228 6.97715 22 12.5 22M2.5 12C2.5 6.47715 6.97715 2 12.5 2M22.5 12C22.5 17.5228 18.0228 22 12.5 22M22.5 12C22.5 6.47715 18.0228 2 12.5 2M12.5 2C15.0013 4.73835 16.4228 8.29203 16.5 12C16.4228 15.708 15.0013 19.2616 12.5 22M12.5 2C9.99872 4.73835 8.57725 8.29203 8.5 12C8.57725 15.708 9.99872 19.2616 12.5 22"></path>
</svg>