<svg fill="none" xmlns="http://www.w3.org/2000/svg" viewBox="0 0 25 24" stroke="currentColor"
  stroke-width="2" stroke-linecap="round" stroke-linejoin="round">
  <path
    d="M3 21.5001L8.54927 19.3657C8.90421 19.2292 9.08168 19.161 9.24772 19.0718C9.3952 18.9927 9.5358 18.9013 9.66804 18.7987C9.81692 18.6831 9.95137 18.5487 10.2203 18.2798L21.5 7.00006C22.6046 5.89549 22.6046 4.10463 21.5 3.00006C20.3955 1.89549 18.6046 1.89549 17.5 3.00006L6.22028 14.2798C5.95138 14.5487 5.81692 14.6831 5.70139 14.832C5.59877 14.9643 5.5074 15.1049 5.42823 15.2523C5.33911 15.4184 5.27085 15.5959 5.13433 15.9508L3 21.5001ZM3 21.5001L5.05812 16.149C5.2054 15.7661 5.27903 15.5746 5.40534 15.4869C5.51572 15.4103 5.6523 15.3813 5.7843 15.4065C5.93533 15.4354 6.08038 15.5804 6.37048 15.8705L8.62957 18.1296C8.91967 18.4197 9.06472 18.5648 9.09356 18.7158C9.11877 18.8478 9.08979 18.9844 9.01314 19.0947C8.92545 19.2211 8.73399 19.2947 8.35107 19.442L3 21.5001Z"></path>
</svg>