<svg fill="none" xmlns="http://www.w3.org/2000/svg" viewBox="0 0 25 24" stroke="currentColor"
  stroke-width="2" stroke-linecap="round" stroke-linejoin="round">
  <path
    d="M8.88028 8.85323C9.57627 10.3028 10.5251 11.6615 11.7266 12.8631C12.9282 14.0646 14.2869 15.0134 15.7365 15.7094C15.8612 15.7693 15.9235 15.7992 16.0024 15.8222C16.2828 15.904 16.627 15.8453 16.8644 15.6752C16.9313 15.6274 16.9884 15.5702 17.1027 15.4559C17.4523 15.1063 17.6271 14.9315 17.8029 14.8172C18.4658 14.3862 19.3204 14.3862 19.9833 14.8172C20.1591 14.9315 20.3339 15.1063 20.6835 15.4559L20.8783 15.6508C21.4098 16.1822 21.6755 16.448 21.8198 16.7333C22.1069 17.3009 22.1069 17.9712 21.8198 18.5387C21.6755 18.8241 21.4098 19.0898 20.8783 19.6213L20.7207 19.7789C20.1911 20.3085 19.9263 20.5733 19.5662 20.7756C19.1667 21 18.5462 21.1614 18.088 21.16C17.6751 21.1588 17.3928 21.0787 16.8284 20.9185C13.795 20.0575 10.9326 18.433 8.54466 16.045C6.15668 13.6571 4.53221 10.7947 3.67124 7.76131C3.51103 7.19687 3.43092 6.91464 3.4297 6.5017C3.42833 6.04347 3.58969 5.42298 3.81411 5.02348C4.01636 4.66345 4.28117 4.39863 4.8108 3.86901L4.96843 3.71138C5.49987 3.17993 5.7656 2.91421 6.05098 2.76987C6.61854 2.4828 7.2888 2.4828 7.85636 2.76987C8.14174 2.91421 8.40747 3.17993 8.93891 3.71138L9.13378 3.90625C9.48338 4.25585 9.65819 4.43065 9.77247 4.60643C10.2035 5.26932 10.2035 6.1239 9.77247 6.78679C9.65819 6.96257 9.48338 7.13738 9.13378 7.48698C9.01947 7.60129 8.96231 7.65845 8.91447 7.72526C8.74446 7.96269 8.68576 8.30695 8.76748 8.5873C8.79048 8.6662 8.82041 8.72854 8.88028 8.85323Z"></path>
</svg>