<svg fill="none" xmlns="http://www.w3.org/2000/svg" viewBox="0 0 17 17" stroke="currentColor"
  stroke-width="1.33333" stroke-linecap="round" stroke-linejoin="round">
  <path
    d="M6.49967 8.49998L7.83301 9.83331L10.833 6.83331M5.38885 3.04578C5.92474 3.00301 6.43348 2.79228 6.84265 2.44359C7.79749 1.62989 9.20186 1.62989 10.1567 2.44359C10.5659 2.79228 11.0746 3.00301 11.6105 3.04578C12.861 3.14557 13.8541 4.13861 13.9539 5.38916C13.9966 5.92505 14.2074 6.43379 14.5561 6.84296C15.3698 7.7978 15.3698 9.20216 14.5561 10.157C14.2074 10.5662 13.9966 11.0749 13.9539 11.6108C13.8541 12.8613 12.861 13.8544 11.6105 13.9542C11.0746 13.9969 10.5659 14.2077 10.1567 14.5564C9.20186 15.3701 7.79749 15.3701 6.84265 14.5564C6.43348 14.2077 5.92474 13.9969 5.38885 13.9542C4.1383 13.8544 3.14527 12.8613 3.04547 11.6108C3.00271 11.0749 2.79198 10.5662 2.44329 10.157C1.62958 9.20216 1.62958 7.7978 2.44329 6.84296C2.79198 6.43379 3.00271 5.92505 3.04547 5.38916C3.14527 4.13861 4.1383 3.14557 5.38885 3.04578Z"></path>
</svg>