<svg width="98" height="87" viewBox="0 0 98 87" fill="none" xmlns="http://www.w3.org/2000/svg">
  <g clip-path="url(#clip0_amboss)">
    <path
      d="M219.2 85.9V1H314.9V34.4L293.4 34.1L314.9 52.5V85.9H219.2ZM274.5 23.5H259.5V34.4H274.5V23.5ZM274.5 52.3H259.5V62.3H274.5V52.3ZM530.3 34.4H477V23.5H532.3L532.2 1H436.6V51.4H492V62.3H436.6V85.9H532.2V62.3L532.3 34.4H530.3ZM639.4 34.4H586.1V23.5H641.4L641.3 1H545.7V51.4H601.1V62.3H545.7V85.9H641.3V62.3L641.4 34.4H639.4ZM181 1L165.4 18.7L157.9 27.2L150.4 18.7L134.8 1H110.1V85.9H150.4V46L157.9 54.5L165.4 46V85.9H205.8V1H181ZM56.3 85.9V62.3H41.3V85.9H1V1H96.7V85.9H56.3ZM56.3 29.1H41.3V46.2H56.3V29.1Z"
      fill="currentColor"></path>
  </g>
  <defs>
    <clipPath id="clip0_amboss">
      <rect width="640.4" height="84.9" fill="currentColor" transform="translate(1 1)"></rect>
    </clipPath>
  </defs>
</svg>