<svg width="40" height="40" viewBox="0 0 40 40" fill="none" xmlns="http://www.w3.org/2000/svg">
<rect width="40" height="40" rx="20" fill="#252A41"/>
<path d="M20.0032 10.163C23.2096 10.163 23.586 10.1773 24.8534 10.2345C26.0254 10.2869 26.6591 10.4823 27.0831 10.649C27.6453 10.8682 28.0455 11.1255 28.4648 11.5447C28.8841 11.964 29.1461 12.3642 29.3605 12.9264C29.5225 13.3504 29.7226 13.9841 29.775 15.1562C29.8322 16.4235 29.8465 16.7999 29.8465 20.0064C29.8465 23.2128 29.8322 23.5892 29.775 24.8565C29.7226 26.0286 29.5273 26.6623 29.3605 27.0863C29.1414 27.6485 28.8841 28.0487 28.4648 28.468C28.0455 28.8872 27.6453 29.1493 27.0831 29.3637C26.6591 29.5257 26.0254 29.7258 24.8534 29.7782C23.586 29.8354 23.2096 29.8497 20.0032 29.8497C16.7967 29.8497 16.4203 29.8354 15.153 29.7782C13.9809 29.7258 13.3473 29.5304 12.9232 29.3637C12.361 29.1445 11.9608 28.8872 11.5416 28.468C11.1223 28.0487 10.8602 27.6485 10.6458 27.0863C10.4839 26.6623 10.2837 26.0286 10.2313 24.8565C10.1742 23.5892 10.1599 23.2128 10.1599 20.0064C10.1599 16.7999 10.1742 16.4235 10.2313 15.1562C10.2837 13.9841 10.4791 13.3504 10.6458 12.9264C10.865 12.3642 11.1223 11.964 11.5416 11.5447C11.9608 11.1255 12.361 10.8634 12.9232 10.649C13.3473 10.487 13.9809 10.2869 15.153 10.2345C16.4203 10.1726 16.8015 10.163 20.0032 10.163ZM20.0032 8C16.7443 8 16.3346 8.01429 15.0529 8.07147C13.7761 8.12864 12.9042 8.33351 12.1419 8.6289C11.351 8.93383 10.684 9.34833 10.0169 10.0154C9.34992 10.6824 8.94018 11.3542 8.63049 12.1403C8.3351 12.9026 8.13023 13.7745 8.07305 15.0561C8.01588 16.333 8.00159 16.7427 8.00159 20.0016C8.00159 23.2605 8.01588 23.6702 8.07305 24.9518C8.13023 26.2287 8.3351 27.1006 8.63049 27.8677C8.93541 28.6585 9.34992 29.3256 10.0169 29.9926C10.684 30.6596 11.3557 31.0693 12.1419 31.379C12.9042 31.6744 13.7761 31.8793 15.0577 31.9365C16.3393 31.9936 16.7443 32.0079 20.0079 32.0079C23.2716 32.0079 23.6766 31.9936 24.9582 31.9365C26.2351 31.8793 27.1069 31.6744 27.874 31.379C28.6649 31.0741 29.3319 30.6596 29.999 29.9926C30.666 29.3256 31.0757 28.6538 31.3854 27.8677C31.6808 27.1053 31.8857 26.2335 31.9428 24.9518C32 23.6702 32.0143 23.2652 32.0143 20.0016C32.0143 16.738 32 16.333 31.9428 15.0513C31.8857 13.7745 31.6808 12.9026 31.3854 12.1355C31.0805 11.3446 30.666 10.6776 29.999 10.0106C29.3319 9.34357 28.6602 8.93383 27.874 8.62414C27.1117 8.32875 26.2398 8.12388 24.9582 8.0667C23.6718 8.01429 23.2621 8 20.0032 8Z" fill="white"/>
<path d="M20.0032 13.8412C16.6014 13.8412 13.838 16.5998 13.838 20.0064C13.838 23.4129 16.5966 26.1715 20.0032 26.1715C23.4097 26.1715 26.1683 23.4129 26.1683 20.0064C26.1683 16.5998 23.4097 13.8412 20.0032 13.8412ZM20.0032 24.0037C17.7925 24.0037 16.0011 22.2123 16.0011 20.0016C16.0011 17.7909 17.7925 15.9995 20.0032 15.9995C22.2139 15.9995 24.0053 17.7909 24.0053 20.0016C24.0053 22.2123 22.2139 24.0037 20.0032 24.0037Z" fill="white"/>
<path d="M26.4114 15.0323C27.206 15.0323 27.8502 14.3881 27.8502 13.5934C27.8502 12.7987 27.206 12.1545 26.4114 12.1545C25.6167 12.1545 24.9725 12.7987 24.9725 13.5934C24.9725 14.3881 25.6167 15.0323 26.4114 15.0323Z" fill="white"/>
</svg>
