<svg xmlns="http://www.w3.org/2000/svg" viewBox="0 0 24 36">
  <path
    d="M10.1763 4.02459C11.0916 4.0629 11.8843 4.65378 12.4402 5.55882C12.8446 5.12801 13.3938 4.83598 14.1209 4.73381C14.1711 4.727 14.2784 4.72444 14.3661 4.72359C12.871 3.08634 10.7263 2.05359 8.3356 2.05359C7.89798 2.05359 7.47143 2.09786 7.05254 2.16427C6.96569 2.16853 6.85586 2.18385 6.71197 2.21621C6.70601 2.21748 6.70005 2.21855 6.6941 2.21961C6.68814 2.22068 6.68217 2.22174 6.67622 2.22302C6.67134 2.22406 6.66747 2.22468 6.66371 2.22528C6.65828 2.22614 6.65311 2.22696 6.64557 2.22898C4.99469 2.63339 3.75334 2.30475 3.04753 1.34692C2.97346 1.2456 2.67036 0.791806 2.5767 0C2.05649 0.537236 1.71678 1.4261 2.00881 2.3635C2.2421 3.11018 2.66865 3.51715 3.13863 3.74703C2.4243 3.79045 1.82832 3.65678 1.23233 3.20639C0.880705 2.93905 0.665298 2.65127 0.299194 1.89352C-0.0558415 2.41033 -0.0243404 3.00376 0.0412177 3.31622C0.128912 3.72234 0.342616 4.18295 0.612512 4.44518C1.03311 4.85726 1.62824 4.94326 2.10672 4.9407C1.40602 5.76486 0.862823 6.7278 0.531627 7.7861C2.08031 7.4366 4.04739 7.30373 5.49059 7.20625C5.80877 7.18475 6.10149 7.16498 6.35864 7.14499C6.80393 5.32639 8.0623 3.93604 10.1763 4.02459Z"
    fill="currentColor"></path>
  <path
    d="M14.3867 11.1813C15.2124 11.1813 15.8817 10.0168 15.8817 8.58029C15.8817 7.14377 15.2124 5.97925 14.3867 5.97925C13.561 5.97925 12.8916 7.14377 12.8916 8.58029C12.8916 10.0168 13.561 11.1813 14.3867 11.1813Z"
    fill="currentColor"></path>
  <path
    d="M10.177 11.9852C11.2373 11.9852 12.0969 10.5165 12.0969 8.70478C12.0969 6.89303 11.2373 5.42432 10.177 5.42432C9.11665 5.42432 8.25708 6.89303 8.25708 8.70478C8.25708 10.5165 9.11665 11.9852 10.177 11.9852Z"
    fill="currentColor"></path>
  <path fill-rule="evenodd" clip-rule="evenodd"
    d="M6.97102 35.7932V28.701C6.97102 28.701 6.81437 24.6849 8.33413 21.6863C8.86711 20.6348 10.0863 19.1908 10.9956 18.4032C11.4843 17.9792 11.9654 17.6183 12.4422 17.2871C12.6848 17.1457 12.9181 16.9925 13.1437 16.8273C17.1224 14.385 20.639 14.8946 23.5546 15.3171L23.6535 15.3314C23.6535 15.3314 24.355 13.2522 21.4764 12.1837C19.9132 11.6031 18.0614 11.1416 16.5221 10.813C16.3016 11.2148 16.0206 11.552 15.6843 11.8117C15.4493 11.993 14.855 12.4494 13.7755 12.3208C13.2331 12.2561 12.8151 12.0339 12.4839 11.7121C11.9254 12.6375 11.1148 13.2471 10.174 13.3263C7.57382 13.5468 6.26606 11.3715 6.18092 8.95776C4.23461 9.14848 1.57567 10.3456 0.158935 11.0446V33.6816C2.25987 34.7341 4.55274 35.4602 6.97102 35.7932Z"
    fill="currentColor"></path>
  <path fill-rule="evenodd" clip-rule="evenodd"
    d="M0.158935 33.6816C2.25987 34.7341 4.55274 35.4602 6.97102 35.7932V28.701C6.97102 28.701 6.81437 24.6849 8.33413 21.6863C8.86711 20.6348 10.0863 19.1908 10.9956 18.4032C11.4843 17.9792 11.9654 17.6183 12.4422 17.2871C12.6848 17.1457 12.9181 16.9925 13.1437 16.8273C17.1224 14.385 20.639 14.8946 23.5546 15.3171L23.6535 15.3314C23.6535 15.3314 24.355 13.2522 21.4764 12.1837C19.9132 11.6031 18.0614 11.1416 16.5221 10.813C16.3016 11.2148 16.0206 11.552 15.6843 11.8117C15.4493 11.993 14.855 12.4494 13.7755 12.3208C13.2331 12.2561 12.8151 12.0339 12.4839 11.7121C11.9254 12.6375 11.1148 13.2471 10.174 13.3263C7.57382 13.5468 6.26606 11.3715 6.18092 8.95776C4.23461 9.14848 1.57567 10.3456 0.158935 11.0446V33.6816ZM10.1763 4.02459C11.0916 4.0629 11.8843 4.65378 12.4402 5.55882C12.8446 5.12801 13.3938 4.83598 14.1209 4.73381C14.1711 4.727 14.2784 4.72444 14.3661 4.72359C12.871 3.08634 10.7263 2.05359 8.3356 2.05359C7.89798 2.05359 7.47143 2.09786 7.05254 2.16427C6.96569 2.16853 6.85586 2.18385 6.71197 2.21621C6.70601 2.21748 6.70005 2.21855 6.6941 2.21961C6.68814 2.22068 6.68217 2.22174 6.67622 2.22302C6.67134 2.22406 6.66747 2.22468 6.66371 2.22528C6.65828 2.22614 6.65311 2.22696 6.64557 2.22898C4.99469 2.63339 3.75334 2.30475 3.04753 1.34692C2.97346 1.2456 2.67036 0.791806 2.5767 0C2.05649 0.537236 1.71678 1.4261 2.00881 2.3635C2.2421 3.11018 2.66865 3.51715 3.13863 3.74703C2.4243 3.79045 1.82832 3.65678 1.23233 3.20639C0.880705 2.93905 0.665298 2.65127 0.299194 1.89352C-0.0558415 2.41033 -0.0243404 3.00376 0.0412177 3.31622C0.128912 3.72234 0.342616 4.18295 0.612512 4.44518C1.03311 4.85726 1.62824 4.94326 2.10672 4.9407C1.40602 5.76486 0.862823 6.7278 0.531627 7.7861C2.08031 7.4366 4.04739 7.30373 5.49059 7.20625C5.80877 7.18475 6.10149 7.16498 6.35864 7.14499C6.80393 5.32639 8.0623 3.93604 10.1763 4.02459ZM15.8817 8.58029C15.8817 10.0168 15.2124 11.1813 14.3867 11.1813C13.561 11.1813 12.8916 10.0168 12.8916 8.58029C12.8916 7.14377 13.561 5.97925 14.3867 5.97925C15.2124 5.97925 15.8817 7.14377 15.8817 8.58029ZM12.0969 8.70478C12.0969 10.5165 11.2373 11.9852 10.177 11.9852C9.11665 11.9852 8.25708 10.5165 8.25708 8.70478C8.25708 6.89303 9.11665 5.42432 10.177 5.42432C11.2373 5.42432 12.0969 6.89303 12.0969 8.70478Z"
    fill="currentColor"></path>
</svg>