<svg width="40" height="40" viewBox="0 0 40 40" fill="none" xmlns="http://www.w3.org/2000/svg">
<g clip-path="url(#clip0_772_6204)">
<path d="M20 40C31.0457 40 40 31.0457 40 20C40 8.9543 31.0457 0 20 0C8.9543 0 0 8.9543 0 20C0 31.0457 8.9543 40 20 40Z" fill="#FF4500"/>
<path d="M33.3334 20C33.3334 18.386 32.0234 17.076 30.4094 17.076C29.6141 17.076 28.9123 17.3801 28.3977 17.8947C26.4094 16.4678 23.6492 15.5322 20.6082 15.4152L21.9416 9.16959L26.2691 10.0819C26.3158 11.1813 27.2281 12.0702 28.3509 12.0702C29.4971 12.0702 30.4328 11.1345 30.4328 9.98831C30.4328 8.84211 29.4971 7.90643 28.3509 7.90643C27.5322 7.90643 26.8305 8.37427 26.503 9.07602L21.6609 8.04679C21.5205 8.02339 21.3802 8.04678 21.2632 8.11696C21.1463 8.18714 21.0761 8.30409 21.0293 8.44445L19.5556 15.4152C16.4445 15.5088 13.6609 16.4211 11.6492 17.8947C11.1346 17.4035 10.4094 17.076 9.63748 17.076C8.02344 17.076 6.7135 18.386 6.7135 20C6.7135 21.193 7.41526 22.1988 8.4445 22.6667C8.39771 22.9474 8.37432 23.2515 8.37432 23.5556C8.37432 28.0468 13.5907 31.6725 20.0468 31.6725C26.503 31.6725 31.7193 28.0468 31.7193 23.5556C31.7193 23.2515 31.696 22.9708 31.6492 22.6901C32.6082 22.2222 33.3334 21.193 33.3334 20ZM13.3334 22.0819C13.3334 20.9357 14.2691 20 15.4153 20C16.5615 20 17.4971 20.9357 17.4971 22.0819C17.4971 23.2281 16.5615 24.1637 15.4153 24.1637C14.2691 24.1637 13.3334 23.2281 13.3334 22.0819ZM24.9591 27.5789C23.5322 29.0058 20.8188 29.0994 20.0234 29.0994C19.2281 29.0994 16.4913 28.9825 15.0878 27.5789C14.8772 27.3684 14.8772 27.0175 15.0878 26.807C15.2983 26.5965 15.6492 26.5965 15.8597 26.807C16.7486 27.6959 18.6667 28.0234 20.0468 28.0234C21.427 28.0234 23.3217 27.6959 24.234 26.807C24.4445 26.5965 24.7954 26.5965 25.0059 26.807C25.1696 27.0409 25.1696 27.3684 24.9591 27.5789ZM24.5848 24.1637C23.4386 24.1637 22.503 23.2281 22.503 22.0819C22.503 20.9357 23.4386 20 24.5848 20C25.731 20 26.6667 20.9357 26.6667 22.0819C26.6667 23.2281 25.731 24.1637 24.5848 24.1637Z" fill="white"/>
</g>
<defs>
<clipPath id="clip0_772_6204">
<rect width="40" height="40" fill="white"/>
</clipPath>
</defs>
</svg>
