<svg width="40" height="40" viewBox="0 0 40 40" fill="none" xmlns="http://www.w3.org/2000/svg">
<rect width="40" height="40" rx="20" fill="#3A76F0"/>
<path d="M17.5768 6.76083L17.869 7.94434C16.7174 8.22894 15.6152 8.68527 14.5995 9.29797L13.9745 8.25131C15.0925 7.57425 16.3072 7.07164 17.5768 6.76083ZM23.8272 6.76083L23.535 7.94434C24.6866 8.22894 25.7887 8.68527 26.8045 9.29797L27.4369 8.25131C26.3159 7.57484 25.0989 7.0723 23.8272 6.76083ZM9.55482 12.6673C8.87839 13.7869 8.37584 15.0028 8.06434 16.2733L9.24785 16.5654C9.53246 15.4139 9.98878 14.3117 10.6015 13.296L9.55482 12.6673ZM8.90389 19.3985C8.9038 18.8067 8.94831 18.2157 9.03704 17.6306L7.83134 17.4457C7.63532 18.7389 7.63532 20.0543 7.83134 21.3476L9.03704 21.1663C8.94845 20.5812 8.90394 19.9903 8.90389 19.3985ZM27.4295 30.5419L26.8045 29.499C25.7904 30.1122 24.6893 30.5686 23.5387 30.8526L23.8309 32.0361C25.0989 31.7223 26.3122 31.2186 27.4295 30.5419ZM32.5001 19.3985C32.5001 19.9903 32.4555 20.5812 32.367 21.1663L33.5727 21.3476C33.7687 20.0543 33.7687 18.7389 33.5727 17.4457L32.367 17.6306C32.4557 18.2157 32.5002 18.8067 32.5001 19.3985ZM33.3397 22.52L32.1561 22.2278C31.8722 23.3807 31.4159 24.4842 30.8025 25.5009L31.8492 26.1297C32.5263 25.009 33.0288 23.7919 33.3397 22.52ZM22.4699 31.0634C21.298 31.241 20.106 31.241 18.9341 31.0634L18.7529 32.2691C20.0449 32.4651 21.3591 32.4651 22.6511 32.2691L22.4699 31.0634ZM30.1997 26.396C29.4967 27.3492 28.6538 28.1909 27.6995 28.8924L28.4244 29.8762C29.4755 29.1024 30.4054 28.1763 31.1834 27.1283L30.1997 26.396ZM27.6995 9.90082C28.6539 10.6037 29.4968 11.4466 30.1997 12.401L31.1834 11.6687C30.4082 10.6197 29.4807 9.69231 28.4318 8.91703L27.6995 9.90082ZM11.2043 12.401C11.9072 11.4466 12.7501 10.6037 13.7045 9.90082L12.9722 8.91703C11.9233 9.69231 10.9958 10.6197 10.2205 11.6687L11.2043 12.401ZM31.8492 12.6673L30.8025 13.296C31.4158 14.3101 31.8722 15.4112 32.1561 16.5617L33.3397 16.2696C33.0281 15.0003 32.5256 13.7856 31.8492 12.6673ZM18.9341 7.73352C20.106 7.55598 21.298 7.55598 22.4699 7.73352L22.6511 6.52783C21.3591 6.33179 20.0449 6.33179 18.7529 6.52783L18.9341 7.73352ZM11.8294 30.2017L9.31072 30.786L9.89878 28.2674L8.71157 27.99L8.12352 30.5086C8.08672 30.6648 8.08108 30.8267 8.1069 30.985C8.13272 31.1434 8.18951 31.295 8.27401 31.4314C8.35852 31.5678 8.46908 31.6862 8.59937 31.7798C8.72966 31.8734 8.87713 31.9404 9.03334 31.9769C9.21602 32.0176 9.40542 32.0176 9.58811 31.9769L12.1068 31.3963L11.8294 30.2017ZM8.96307 26.9026L10.154 27.1763L10.5608 25.4307C9.9667 24.4341 9.5242 23.3546 9.24785 22.2278L8.06434 22.52C8.33055 23.5986 8.73323 24.6388 9.26264 25.6156L8.96307 26.9026ZM14.6587 29.5433L12.913 29.9502L13.1904 31.1411L14.4738 30.8415C15.4498 31.3725 16.4903 31.7753 17.5694 32.0398L17.8616 30.8563C16.7382 30.5763 15.6626 30.1314 14.6698 29.5359L14.6587 29.5433ZM20.702 8.82087C14.8584 8.82457 10.1281 13.5623 10.1281 19.4022C10.1313 21.3912 10.6939 23.3393 11.7517 25.0238L10.7346 29.3658L15.0729 28.3487C20.0178 31.4591 26.5493 29.9761 29.6597 25.0349C32.7701 20.0938 31.2907 13.5623 26.3496 10.4482C24.658 9.38444 22.7002 8.82033 20.702 8.82087Z" fill="white"/>
</svg>
