<svg width="0" height="0" class="hidden">
  <symbol fill="none" xmlns="http://www.w3.org/2000/svg" viewBox="0 0 98 87" id="amboss">
    <g clip-path="url(#clip0_0_1)">
      <path d="M219.2 85.9V1H314.9V34.4L293.4 34.1L314.9 52.5V85.9H219.2ZM274.5 23.5H259.5V34.4H274.5V23.5ZM274.5 52.3H259.5V62.3H274.5V52.3ZM530.3 34.4H477V23.5H532.3L532.2 1H436.6V51.4H492V62.3H436.6V85.9H532.2V62.3L532.3 34.4H530.3ZM639.4 34.4H586.1V23.5H641.4L641.3 1H545.7V51.4H601.1V62.3H545.7V85.9H641.3V62.3L641.4 34.4H639.4ZM181 1L165.4 18.7L157.9 27.2L150.4 18.7L134.8 1H110.1V85.9H150.4V46L157.9 54.5L165.4 46V85.9H205.8V1H181ZM56.3 85.9V62.3H41.3V85.9H1V1H96.7V85.9H56.3ZM56.3 29.1H41.3V46.2H56.3V29.1Z" fill="currentColor"></path>
    </g>
    <defs>
      <clipPath id="clip0_0_1">
        <rect width="640.4" height="84.9" fill="currentColor" transform="translate(1 1)"></rect>
      </clipPath>
    </defs>
  </symbol>
  <symbol xmlns="http://www.w3.org/2000/svg" viewBox="0 0 320 512" id="back">
    <path fill='currentColor' d="M267.5 440.6c9.5 7.9 22.8 9.7 34.1 4.4s18.4-16.6 18.4-29V96c0-12.4-7.2-23.7-18.4-29s-24.5-3.6-34.1 4.4l-192 160L64 241V96c0-17.7-14.3-32-32-32S0 78.3 0 96V416c0 17.7 14.3 32 32 32s32-14.3 32-32V271l11.5 9.6 192 160z"></path>
  </symbol>
  <symbol xmlns="http://www.w3.org/2000/svg" viewBox="0 0 640 512" id="discord">
    <path fill='currentColor' d="M524.531,69.836a1.5,1.5,0,0,0-.764-.7A485.065,485.065,0,0,0,404.081,32.03a1.816,1.816,0,0,0-1.923.91,337.461,337.461,0,0,0-14.9,30.6,447.848,447.848,0,0,0-134.426,0,309.541,309.541,0,0,0-15.135-30.6,1.89,1.89,0,0,0-1.924-.91A483.689,483.689,0,0,0,116.085,69.137a1.712,1.712,0,0,0-.788.676C39.068,183.651,18.186,294.69,28.43,404.354a2.016,2.016,0,0,0,.765,1.375A487.666,487.666,0,0,0,176.02,479.918a1.9,1.9,0,0,0,2.063-.676A348.2,348.2,0,0,0,208.12,430.4a1.86,1.86,0,0,0-1.019-2.588,321.173,321.173,0,0,1-45.868-21.853,1.885,1.885,0,0,1-.185-3.126c3.082-2.309,6.166-4.711,9.109-7.137a1.819,1.819,0,0,1,1.9-.256c96.229,43.917,200.41,43.917,295.5,0a1.812,1.812,0,0,1,1.924.233c2.944,2.426,6.027,4.851,9.132,7.16a1.884,1.884,0,0,1-.162,3.126,301.407,301.407,0,0,1-45.89,21.83,1.875,1.875,0,0,0-1,2.611,391.055,391.055,0,0,0,30.014,48.815,1.864,1.864,0,0,0,2.063.7A486.048,486.048,0,0,0,610.7,405.729a1.882,1.882,0,0,0,.765-1.352C623.729,277.594,590.933,167.465,524.531,69.836ZM222.491,337.58c-28.972,0-52.844-26.587-52.844-59.239S193.056,219.1,222.491,219.1c29.665,0,53.306,26.82,52.843,59.239C275.334,310.993,251.924,337.58,222.491,337.58Zm195.38,0c-28.971,0-52.843-26.587-52.843-59.239S388.437,219.1,417.871,219.1c29.667,0,53.307,26.82,52.844,59.239C470.715,310.993,447.538,337.58,417.871,337.58Z"></path>
  </symbol>
  <symbol xmlns="http://www.w3.org/2000/svg" viewBox="0 0 512 512" id="email">
    <path fill='currentColor' d="M48 64C21.5 64 0 85.5 0 112c0 15.1 7.1 29.3 19.2 38.4L236.8 313.6c11.4 8.5 27 8.5 38.4 0L492.8 150.4c12.1-9.1 19.2-23.3 19.2-38.4c0-26.5-21.5-48-48-48H48zM0 176V384c0 35.3 28.7 64 64 64H448c35.3 0 64-28.7 64-64V176L294.4 339.2c-22.8 17.1-54 17.1-76.8 0L0 176z"></path>
  </symbol>
  <symbol xmlns="http://www.w3.org/2000/svg" viewBox="0 0 496 512" id="github">
    <path fill='currentColor' d="M165.9 397.4c0 2-2.3 3.6-5.2 3.6-3.3.3-5.6-1.3-5.6-3.6 0-2 2.3-3.6 5.2-3.6 3-.3 5.6 1.3 5.6 3.6zm-31.1-4.5c-.7 2 1.3 4.3 4.3 4.9 2.6 1 5.6 0 6.2-2s-1.3-4.3-4.3-5.2c-2.6-.7-5.5.3-6.2 2.3zm44.2-1.7c-2.9.7-4.9 2.6-4.6 4.9.3 2 2.9 3.3 5.9 2.6 2.9-.7 4.9-2.6 4.6-4.6-.3-1.9-3-3.2-5.9-2.9zM244.8 8C106.1 8 0 113.3 0 252c0 110.9 69.8 205.8 169.5 239.2 12.8 2.3 17.3-5.6 17.3-12.1 0-6.2-.3-40.4-.3-61.4 0 0-70 15-84.7-29.8 0 0-11.4-29.1-27.8-36.6 0 0-22.9-15.7 1.6-15.4 0 0 24.9 2 38.6 25.8 21.9 38.6 58.6 27.5 72.9 20.9 2.3-16 8.8-27.1 16-33.7-55.9-6.2-112.3-14.3-112.3-110.5 0-27.5 7.6-41.3 23.6-58.9-2.6-6.5-11.1-33.3 2.6-67.9 20.9-6.5 69 27 69 27 20-5.6 41.5-8.5 62.8-8.5s42.8 2.9 62.8 8.5c0 0 48.1-33.6 69-27 13.7 34.7 5.2 61.4 2.6 67.9 16 17.7 25.8 31.5 25.8 58.9 0 96.5-58.9 104.2-114.8 110.5 9.2 7.9 17 22.9 17 46.4 0 33.7-.3 75.4-.3 83.6 0 6.5 4.6 14.4 17.3 12.1C428.2 457.8 496 362.9 496 252 496 113.3 383.5 8 244.8 8zM97.2 352.9c-1.3 1-1 3.3.7 5.2 1.6 1.6 3.9 2.3 5.2 1 1.3-1 1-3.3-.7-5.2-1.6-1.6-3.9-2.3-5.2-1zm-10.8-8.1c-.7 1.3.3 2.9 2.3 3.9 1.6 1 3.6.7 4.3-.7.7-1.3-.3-2.9-2.3-3.9-2-.6-3.6-.3-4.3.7zm32.4 35.6c-1.6 1.3-1 4.3 1.3 6.2 2.3 2.3 5.2 2.6 6.5 1 1.3-1.3.7-4.3-1.3-6.2-2.2-2.3-5.2-2.6-6.5-1zm-11.4-14.7c-1.6 1-1.6 3.6 0 5.9 1.6 2.3 4.3 3.3 5.6 2.3 1.6-1.3 1.6-3.9 0-6.2-1.4-2.3-4-3.3-5.6-2z"></path>
  </symbol>
  <symbol fill="none" xmlns="http://www.w3.org/2000/svg" viewBox="0 0 24 36" id="nostr">
    <path d="M10.1763 4.02459C11.0916 4.0629 11.8843 4.65378 12.4402 5.55882C12.8446 5.12801 13.3938 4.83598 14.1209 4.73381C14.1711 4.727 14.2784 4.72444 14.3661 4.72359C12.871 3.08634 10.7263 2.05359 8.3356 2.05359C7.89798 2.05359 7.47143 2.09786 7.05254 2.16427C6.96569 2.16853 6.85586 2.18385 6.71197 2.21621C6.70601 2.21748 6.70005 2.21855 6.6941 2.21961C6.68814 2.22068 6.68217 2.22174 6.67622 2.22302C6.67134 2.22406 6.66747 2.22468 6.66371 2.22528C6.65828 2.22614 6.65311 2.22696 6.64557 2.22898C4.99469 2.63339 3.75334 2.30475 3.04753 1.34692C2.97346 1.2456 2.67036 0.791806 2.5767 0C2.05649 0.537236 1.71678 1.4261 2.00881 2.3635C2.2421 3.11018 2.66865 3.51715 3.13863 3.74703C2.4243 3.79045 1.82832 3.65678 1.23233 3.20639C0.880705 2.93905 0.665298 2.65127 0.299194 1.89352C-0.0558415 2.41033 -0.0243404 3.00376 0.0412177 3.31622C0.128912 3.72234 0.342616 4.18295 0.612512 4.44518C1.03311 4.85726 1.62824 4.94326 2.10672 4.9407C1.40602 5.76486 0.862823 6.7278 0.531627 7.7861C2.08031 7.4366 4.04739 7.30373 5.49059 7.20625C5.80877 7.18475 6.10149 7.16498 6.35864 7.14499C6.80393 5.32639 8.0623 3.93604 10.1763 4.02459Z" fill="currentColor"></path>
    <path d="M14.3867 11.1813C15.2124 11.1813 15.8817 10.0168 15.8817 8.58029C15.8817 7.14377 15.2124 5.97925 14.3867 5.97925C13.561 5.97925 12.8916 7.14377 12.8916 8.58029C12.8916 10.0168 13.561 11.1813 14.3867 11.1813Z" fill="currentColor"></path>
    <path d="M10.177 11.9852C11.2373 11.9852 12.0969 10.5165 12.0969 8.70478C12.0969 6.89303 11.2373 5.42432 10.177 5.42432C9.11665 5.42432 8.25708 6.89303 8.25708 8.70478C8.25708 10.5165 9.11665 11.9852 10.177 11.9852Z" fill="currentColor"></path>
    <path fill-rule="evenodd" clip-rule="evenodd" d="M6.97102 35.7932V28.701C6.97102 28.701 6.81437 24.6849 8.33413 21.6863C8.86711 20.6348 10.0863 19.1908 10.9956 18.4032C11.4843 17.9792 11.9654 17.6183 12.4422 17.2871C12.6848 17.1457 12.9181 16.9925 13.1437 16.8273C17.1224 14.385 20.639 14.8946 23.5546 15.3171L23.6535 15.3314C23.6535 15.3314 24.355 13.2522 21.4764 12.1837C19.9132 11.6031 18.0614 11.1416 16.5221 10.813C16.3016 11.2148 16.0206 11.552 15.6843 11.8117C15.4493 11.993 14.855 12.4494 13.7755 12.3208C13.2331 12.2561 12.8151 12.0339 12.4839 11.7121C11.9254 12.6375 11.1148 13.2471 10.174 13.3263C7.57382 13.5468 6.26606 11.3715 6.18092 8.95776C4.23461 9.14848 1.57567 10.3456 0.158935 11.0446V33.6816C2.25987 34.7341 4.55274 35.4602 6.97102 35.7932Z" fill="currentColor"></path>
    <path fill-rule="evenodd" clip-rule="evenodd" d="M0.158935 33.6816C2.25987 34.7341 4.55274 35.4602 6.97102 35.7932V28.701C6.97102 28.701 6.81437 24.6849 8.33413 21.6863C8.86711 20.6348 10.0863 19.1908 10.9956 18.4032C11.4843 17.9792 11.9654 17.6183 12.4422 17.2871C12.6848 17.1457 12.9181 16.9925 13.1437 16.8273C17.1224 14.385 20.639 14.8946 23.5546 15.3171L23.6535 15.3314C23.6535 15.3314 24.355 13.2522 21.4764 12.1837C19.9132 11.6031 18.0614 11.1416 16.5221 10.813C16.3016 11.2148 16.0206 11.552 15.6843 11.8117C15.4493 11.993 14.855 12.4494 13.7755 12.3208C13.2331 12.2561 12.8151 12.0339 12.4839 11.7121C11.9254 12.6375 11.1148 13.2471 10.174 13.3263C7.57382 13.5468 6.26606 11.3715 6.18092 8.95776C4.23461 9.14848 1.57567 10.3456 0.158935 11.0446V33.6816ZM10.1763 4.02459C11.0916 4.0629 11.8843 4.65378 12.4402 5.55882C12.8446 5.12801 13.3938 4.83598 14.1209 4.73381C14.1711 4.727 14.2784 4.72444 14.3661 4.72359C12.871 3.08634 10.7263 2.05359 8.3356 2.05359C7.89798 2.05359 7.47143 2.09786 7.05254 2.16427C6.96569 2.16853 6.85586 2.18385 6.71197 2.21621C6.70601 2.21748 6.70005 2.21855 6.6941 2.21961C6.68814 2.22068 6.68217 2.22174 6.67622 2.22302C6.67134 2.22406 6.66747 2.22468 6.66371 2.22528C6.65828 2.22614 6.65311 2.22696 6.64557 2.22898C4.99469 2.63339 3.75334 2.30475 3.04753 1.34692C2.97346 1.2456 2.67036 0.791806 2.5767 0C2.05649 0.537236 1.71678 1.4261 2.00881 2.3635C2.2421 3.11018 2.66865 3.51715 3.13863 3.74703C2.4243 3.79045 1.82832 3.65678 1.23233 3.20639C0.880705 2.93905 0.665298 2.65127 0.299194 1.89352C-0.0558415 2.41033 -0.0243404 3.00376 0.0412177 3.31622C0.128912 3.72234 0.342616 4.18295 0.612512 4.44518C1.03311 4.85726 1.62824 4.94326 2.10672 4.9407C1.40602 5.76486 0.862823 6.7278 0.531627 7.7861C2.08031 7.4366 4.04739 7.30373 5.49059 7.20625C5.80877 7.18475 6.10149 7.16498 6.35864 7.14499C6.80393 5.32639 8.0623 3.93604 10.1763 4.02459ZM15.8817 8.58029C15.8817 10.0168 15.2124 11.1813 14.3867 11.1813C13.561 11.1813 12.8916 10.0168 12.8916 8.58029C12.8916 7.14377 13.561 5.97925 14.3867 5.97925C15.2124 5.97925 15.8817 7.14377 15.8817 8.58029ZM12.0969 8.70478C12.0969 10.5165 11.2373 11.9852 10.177 11.9852C9.11665 11.9852 8.25708 10.5165 8.25708 8.70478C8.25708 6.89303 9.11665 5.42432 10.177 5.42432C11.2373 5.42432 12.0969 6.89303 12.0969 8.70478Z" fill="currentColor"></path>
  </symbol>
  <symbol xmlns="http://www.w3.org/2000/svg" viewBox="0 0 512 512" id="twitter">
    <path fill='currentColor' d="M459.37 151.716c.325 4.548.325 9.097.325 13.645 0 138.72-105.583 298.558-298.558 298.558-59.452 0-114.68-17.219-161.137-47.106 8.447.974 16.568 1.299 25.34 1.299 49.055 0 94.213-16.568 130.274-44.832-46.132-.975-84.792-31.188-98.112-72.772 6.498.974 12.995 1.624 19.818 1.624 9.421 0 18.843-1.3 27.614-3.573-48.081-9.747-84.143-51.98-84.143-102.985v-1.299c13.969 7.797 30.214 12.67 47.431 13.319-28.264-18.843-46.781-51.005-46.781-87.391 0-19.492 5.197-37.36 14.294-52.954 51.655 63.675 129.3 105.258 216.365 109.807-1.624-7.797-2.599-15.918-2.599-24.04 0-57.828 46.782-104.934 104.934-104.934 30.213 0 57.502 12.67 76.67 33.137 23.715-4.548 46.456-13.32 66.599-25.34-7.798 24.366-24.366 44.833-46.132 57.827 21.117-2.273 41.584-8.122 60.426-16.243-14.292 20.791-32.161 39.308-52.628 54.253z"></path>
  </symbol>
  <symbol xmlns="http://www.w3.org/2000/svg" viewBox="0 0 512 512" id="website">
    <path fill='currentColor' d="M352 256c0 22.2-1.2 43.6-3.3 64H163.3c-2.2-20.4-3.3-41.8-3.3-64s1.2-43.6 3.3-64H348.7c2.2 20.4 3.3 41.8 3.3 64zm28.8-64H503.9c5.3 20.5 8.1 41.9 8.1 64s-2.8 43.5-8.1 64H380.8c2.1-20.6 3.2-42 3.2-64s-1.1-43.4-3.2-64zm112.6-32H376.7c-10-63.9-29.8-117.4-55.3-151.6c78.3 20.7 142 77.5 171.9 151.6zm-149.1 0H167.7c6.1-36.4 15.5-68.6 27-94.7c10.5-23.6 22.2-40.7 33.5-51.5C239.4 3.2 248.7 0 256 0s16.6 3.2 27.8 13.8c11.3 10.8 23 27.9 33.5 51.5c11.6 26 21 58.2 27 94.7zm-209 0H18.6C48.6 85.9 112.2 29.1 190.6 8.4C165.1 42.6 145.3 96.1 135.3 160zM8.1 192H131.2c-2.1 20.6-3.2 42-3.2 64s1.1 43.4 3.2 64H8.1C2.8 299.5 0 278.1 0 256s2.8-43.5 8.1-64zM194.7 446.6c-11.6-26-20.9-58.2-27-94.6H344.3c-6.1 36.4-15.5 68.6-27 94.6c-10.5 23.6-22.2 40.7-33.5 51.5C272.6 508.8 263.3 512 256 512s-16.6-3.2-27.8-13.8c-11.3-10.8-23-27.9-33.5-51.5zM135.3 352c10 63.9 29.8 117.4 55.3 151.6C112.2 482.9 48.6 426.1 18.6 352H135.3zm358.1 0c-30 74.1-93.6 130.9-171.9 151.6c25.5-34.2 45.2-87.7 55.3-151.6H493.4z"></path>
  </symbol>
</svg>
