<svg width="40" height="40" viewBox="0 0 40 40" fill="none" xmlns="http://www.w3.org/2000/svg">
<rect width="40" height="40" rx="20" fill="#FF0000"/>
<path d="M33.6985 13.1304C33.369 11.9065 32.404 10.9415 31.1801 10.612C28.9441 10 20 10 20 10C20 10 11.0559 10 8.8199 10.5884C7.61951 10.9179 6.63096 11.9065 6.30144 13.1304C5.71301 15.3664 5.71301 20.0032 5.71301 20.0032C5.71301 20.0032 5.71301 24.6636 6.30144 26.876C6.63096 28.1 7.59597 29.065 8.8199 29.3945C11.0795 30.0065 20 30.0065 20 30.0065C20 30.0065 28.9441 30.0065 31.1801 29.418C32.404 29.0885 33.369 28.1235 33.6985 26.8996C34.287 24.6636 34.287 20.0268 34.287 20.0268C34.287 20.0268 34.3105 15.3664 33.6985 13.1304Z" fill="white"/>
<path d="M17.152 24.287L24.5897 20.0032L17.152 15.7195V24.287Z" fill="#FF0000"/>
</svg>
