<svg width="222" height="90" viewBox="0 0 222 90" fill="none" xmlns="http://www.w3.org/2000/svg">
<path d="M54.0234 36.5333V26.8439H10.0801V36.5333H26.5179V72.4861C26.5179 76.8078 22.9214 80.3106 18.4849 80.3106C14.0485 80.3106 10.452 76.8078 10.452 72.4861V67.7411H0V71.529C0 81.7304 8.48883 90 18.9604 90C29.4318 90 37.9206 81.7304 37.9206 71.529V36.5333H54.0234Z" fill="black"/>
<path d="M84.8337 61.3771H66.8399L77.6096 36.5333H84.8337V26.8439H69.3955L42.3728 89.1825H54.7868L62.6399 71.0664H84.8337V89.1825H96.2364V36.5333H84.8337V61.3771Z" fill="black"/>
<path d="M147.192 77.6297L127.274 26.8483H108.201V89.1781H119.602V38.3545L139.537 89.1781H158.594V26.8483H147.192V77.6297Z" fill="black"/>
<path d="M193.486 62.212V52.2507C183.513 52.2507 175.427 44.3738 175.427 34.6568V34.5128H164.973C164.973 49.817 177.715 62.2222 193.425 62.212H193.486Z" fill="black"/>
<path d="M204.992 19.2027L214.988 14.2744V0H175.424V9.6879H204.115L184.917 18.7227L184.918 18.7256V26.8483H193.486C203.461 26.8483 211.547 34.7252 211.547 44.4407V44.7127C211.547 54.4297 203.461 62.3066 193.486 62.3066V72.268H193.583C209.28 72.2578 222 59.8599 222 44.5687C222 33.2312 215.006 23.4895 204.992 19.2027Z" fill="black"/>
<path d="M175.424 89.0574H214.988V79.3681H175.424V89.0574Z" fill="#F68C21"/>
</svg>
