<svg width="2618" height="330" fill="none" xmlns="http://www.w3.org/2000/svg"><g clip-path="url(#a)"><g clip-path="url(#b)"><path d="M0 43h244v244H0V43Z" fill="#FE0400"/><path d="M99.125 88.75h45.75v53.375h53.375v45.75h-53.375v53.375h-45.75v-53.375H45.75v-45.75h53.375V88.75Z" fill="#fff"/></g><path d="M388.172 260.643c-13.757 0-26.085-2.234-36.984-6.7-10.898-4.467-19.653-11.078-26.264-19.832-6.432-8.755-9.826-19.296-10.184-31.624h48.776c.715 6.968 3.127 12.328 7.236 16.08 4.11 3.573 9.47 5.36 16.08 5.36 6.79 0 12.15-1.519 16.08-4.556 3.931-3.216 5.896-7.594 5.896-13.132 0-4.646-1.608-8.487-4.824-11.524-3.037-3.038-6.878-5.539-11.524-7.504-4.466-1.966-10.898-4.199-19.296-6.7-12.149-3.752-22.065-7.504-29.748-11.256-7.682-3.752-14.293-9.291-19.832-16.616-5.538-7.326-8.308-16.884-8.308-28.676 0-17.51 6.343-31.178 19.028-41.004 12.686-10.006 29.212-15.008 49.58-15.008 20.726 0 37.431 5.002 50.116 15.008 12.686 9.826 19.475 23.584 20.368 41.272h-49.58c-.357-6.075-2.59-10.81-6.7-14.204-4.109-3.574-9.38-5.36-15.812-5.36-5.538 0-10.005 1.518-13.4 4.556-3.394 2.858-5.092 7.057-5.092 12.596 0 6.074 2.859 10.809 8.576 14.204 5.718 3.394 14.651 7.057 26.8 10.988 12.15 4.109 21.976 8.04 29.48 11.792 7.683 3.752 14.294 9.201 19.832 16.348 5.539 7.146 8.308 16.348 8.308 27.604 0 10.72-2.769 20.457-8.308 29.212-5.36 8.754-13.221 15.722-23.584 20.904-10.362 5.181-22.601 7.772-36.716 7.772Zm308.33-151.42-40.468 149.544h-50.652l-23.584-97.016-24.388 97.016h-50.384L466.29 109.223h45.828l21.172 106.932 25.192-106.932h48.508l25.46 106.396 20.904-106.396h43.148Zm37.376-15.544c-8.04 0-14.651-2.323-19.832-6.968-5.003-4.824-7.504-10.72-7.504-17.688 0-7.147 2.501-13.043 7.504-17.688 5.181-4.824 11.792-7.236 19.832-7.236 7.861 0 14.293 2.412 19.296 7.236 5.181 4.645 7.772 10.54 7.772 17.688 0 6.968-2.591 12.864-7.772 17.688-5.003 4.645-11.435 6.968-19.296 6.968Zm22.78 15.544v149.544H710.83V109.223h45.828Zm90.898 151.688c-13.043 0-24.656-2.234-34.84-6.7-10.184-4.467-18.224-10.542-24.12-18.224-5.896-7.862-9.202-16.616-9.916-26.264h45.292c.536 5.181 2.948 9.38 7.236 12.596 4.288 3.216 9.558 4.824 15.812 4.824 5.717 0 10.094-1.072 13.132-3.216 3.216-2.323 4.824-5.271 4.824-8.844 0-4.288-2.234-7.415-6.7-9.38-4.467-2.144-11.703-4.467-21.708-6.968-10.72-2.502-19.654-5.092-26.8-7.772-7.147-2.859-13.311-7.236-18.492-13.132-5.182-6.075-7.772-14.204-7.772-24.388 0-8.576 2.322-16.348 6.968-23.316 4.824-7.147 11.792-12.775 20.904-16.884 9.29-4.11 20.278-6.164 32.964-6.164 18.76 0 33.5 4.645 44.22 13.936 10.898 9.29 17.152 21.618 18.76 36.984h-42.344c-.715-5.182-3.038-9.291-6.968-12.328-3.752-3.038-8.755-4.556-15.008-4.556-5.36 0-9.47 1.072-12.328 3.216-2.859 1.965-4.288 4.734-4.288 8.308 0 4.288 2.233 7.504 6.7 9.648 4.645 2.144 11.792 4.288 21.44 6.432 11.077 2.858 20.1 5.717 27.068 8.576 6.968 2.68 13.042 7.146 18.224 13.4 5.36 6.074 8.129 14.293 8.308 24.656 0 8.754-2.502 16.616-7.504 23.584-4.824 6.789-11.882 12.149-21.172 16.08-9.112 3.93-19.743 5.896-31.892 5.896Zm146.292 0c-13.042 0-24.656-2.234-34.84-6.7-10.184-4.467-18.224-10.542-24.12-18.224-5.896-7.862-9.201-16.616-9.916-26.264h45.292c.536 5.181 2.948 9.38 7.236 12.596 4.288 3.216 9.559 4.824 15.812 4.824 5.718 0 10.098-1.072 13.128-3.216 3.22-2.323 4.83-5.271 4.83-8.844 0-4.288-2.24-7.415-6.7-9.38-4.47-2.144-11.704-4.467-21.71-6.968-10.72-2.502-19.653-5.092-26.8-7.772-7.146-2.859-13.31-7.236-18.492-13.132-5.181-6.075-7.772-14.204-7.772-24.388 0-8.576 2.323-16.348 6.968-23.316 4.824-7.147 11.792-12.775 20.904-16.884 9.291-4.11 20.279-6.164 32.964-6.164 18.758 0 33.498 4.645 44.218 13.936 10.9 9.29 17.15 21.618 18.76 36.984h-42.34c-.72-5.182-3.04-9.291-6.97-12.328-3.75-3.038-8.754-4.556-15.008-4.556-5.36 0-9.469 1.072-12.328 3.216-2.858 1.965-4.288 4.734-4.288 8.308 0 4.288 2.234 7.504 6.7 9.648 4.646 2.144 11.792 4.288 21.444 6.432 11.07 2.858 20.1 5.717 27.06 8.576 6.97 2.68 13.05 7.146 18.23 13.4 5.36 6.074 8.13 14.293 8.31 24.656 0 8.754-2.51 16.616-7.51 23.584-4.82 6.789-11.88 12.149-21.17 16.08-9.11 3.93-19.74 5.896-31.892 5.896Zm253.002-98.624c10.9 2.322 19.65 7.772 26.26 16.348 6.61 8.397 9.92 18.045 9.92 28.944 0 15.722-5.54 28.229-16.62 37.52-10.9 9.112-26.17 13.668-45.83 13.668h-87.63V70.631h84.69c19.11 0 34.03 4.377 44.75 13.132 10.9 8.754 16.35 20.636 16.35 35.644 0 11.077-2.95 20.278-8.84 27.604-5.72 7.325-13.4 12.417-23.05 15.276Zm-68.07-15.544h30.01c7.51 0 13.22-1.608 17.15-4.824 4.11-3.395 6.17-8.308 6.17-14.74s-2.06-11.346-6.17-14.74c-3.93-3.395-9.64-5.092-17.15-5.092h-30.01v39.396Zm33.76 75.04c7.69 0 13.58-1.698 17.69-5.092 4.29-3.574 6.43-8.666 6.43-15.276 0-6.611-2.23-11.792-6.7-15.544-4.28-3.752-10.27-5.628-17.95-5.628h-33.23v41.54h33.76Zm116.97-128.104c-8.04 0-14.65-2.323-19.83-6.968-5.01-4.824-7.51-10.72-7.51-17.688 0-7.147 2.5-13.043 7.51-17.688 5.18-4.824 11.79-7.236 19.83-7.236 7.86 0 14.29 2.412 19.29 7.236 5.19 4.645 7.78 10.54 7.78 17.688 0 6.968-2.59 12.864-7.78 17.688-5 4.645-11.43 6.968-19.29 6.968Zm22.78 15.544v149.544h-45.83V109.223h45.83Zm113.41 110.684v38.86h-23.32c-16.61 0-29.57-4.02-38.86-12.06-9.29-8.219-13.93-21.53-13.93-39.932v-59.496h-18.23v-38.056h18.23V72.775h45.82v36.448h30.02v38.056h-30.02v60.032c0 4.466 1.08 7.682 3.22 9.648 2.14 1.965 5.72 2.948 10.72 2.948h16.35Zm13.26-35.912c0-15.544 3.13-29.123 9.38-40.736 6.44-11.614 15.28-20.547 26.54-26.8 11.43-6.254 24.47-9.38 39.12-9.38 18.76 0 34.4 4.913 46.9 14.74 12.69 9.826 21 23.673 24.93 41.54h-48.78c-4.11-11.435-12.06-17.152-23.85-17.152-8.4 0-15.1 3.305-20.1 9.916-5 6.432-7.5 15.722-7.5 27.872 0 12.149 2.5 21.529 7.5 28.14 5 6.432 11.7 9.648 20.1 9.648 11.79 0 19.74-5.718 23.85-17.152h48.78c-3.93 17.509-12.24 31.266-24.93 41.272-12.68 10.005-28.31 15.008-46.9 15.008-14.65 0-27.69-3.127-39.12-9.38-11.26-6.254-20.1-15.187-26.54-26.8-6.25-11.614-9.38-25.192-9.38-40.736Zm236.3 76.916c-14.65 0-27.87-3.127-39.66-9.38-11.61-6.254-20.81-15.187-27.6-26.8-6.61-11.614-9.92-25.192-9.92-40.736 0-15.366 3.4-28.855 10.18-40.468 6.79-11.792 16.08-20.815 27.88-27.068 11.79-6.254 25.01-9.38 39.66-9.38 14.65 0 27.87 3.126 39.66 9.38 11.8 6.253 21.09 15.276 27.88 27.068 6.79 11.613 10.18 25.102 10.18 40.468 0 15.365-3.48 28.944-10.45 40.736-6.79 11.613-16.17 20.546-28.14 26.8-11.79 6.253-25.01 9.38-39.67 9.38Zm0-39.664c8.76 0 16.17-3.216 22.25-9.648 6.25-6.432 9.38-15.634 9.38-27.604 0-11.971-3.04-21.172-9.11-27.604-5.9-6.432-13.22-9.648-21.98-9.648-8.93 0-16.35 3.216-22.24 9.648-5.9 6.253-8.85 15.454-8.85 27.604 0 11.97 2.86 21.172 8.58 27.604 5.89 6.432 13.22 9.648 21.97 9.648Zm122.47-127.568c-8.04 0-14.65-2.323-19.83-6.968-5-4.824-7.5-10.72-7.5-17.688 0-7.147 2.5-13.043 7.5-17.688 5.18-4.824 11.79-7.236 19.83-7.236 7.86 0 14.3 2.412 19.3 7.236 5.18 4.645 7.77 10.54 7.77 17.688 0 6.968-2.59 12.864-7.77 17.688-5 4.645-11.44 6.968-19.3 6.968Zm22.78 15.544v149.544h-45.83V109.223h45.83Zm121.18-1.608c17.51 0 31.45 5.717 41.81 17.152 10.54 11.256 15.81 26.8 15.81 46.632v87.368h-45.56v-81.204c0-10.006-2.59-17.778-7.77-23.316-5.18-5.539-12.15-8.308-20.9-8.308-8.76 0-15.72 2.769-20.91 8.308-5.18 5.538-7.77 13.31-7.77 23.316v81.204h-45.83V109.223h45.83v19.832c4.65-6.611 10.9-11.792 18.76-15.544 7.86-3.931 16.71-5.896 26.53-5.896Zm283.34 23.584c0 10.898-2.5 20.904-7.5 30.016-5 8.933-12.68 16.169-23.05 21.708-10.36 5.538-23.22 8.308-38.59 8.308h-28.41v67.536h-45.83V70.631h74.24c15.01 0 27.69 2.59 38.06 7.772 10.36 5.18 18.13 12.328 23.31 21.44 5.18 9.112 7.77 19.564 7.77 31.356Zm-72.62 23.584c8.75 0 15.27-2.055 19.56-6.164 4.29-4.11 6.43-9.916 6.43-17.42 0-7.504-2.14-13.311-6.43-17.42-4.29-4.11-10.81-6.164-19.56-6.164h-24.93v47.168h24.93Zm84.22 28.944c0-15.366 2.86-28.855 8.58-40.468 5.89-11.614 13.84-20.547 23.85-26.8 10.01-6.254 21.17-9.38 33.5-9.38 10.54 0 19.74 2.144 27.6 6.432 8.04 4.288 14.21 9.916 18.5 16.884v-21.172h45.82v149.544h-45.82v-21.172c-4.47 6.968-10.72 12.596-18.76 16.884-7.87 4.288-17.07 6.432-27.61 6.432-12.15 0-23.22-3.127-33.23-9.38-10.01-6.432-17.96-15.455-23.85-27.068-5.72-11.792-8.58-25.371-8.58-40.736Zm112.03.268c0-11.435-3.22-20.458-9.65-27.068-6.26-6.611-13.94-9.916-23.05-9.916-9.11 0-16.88 3.305-23.32 9.916-6.25 6.432-9.38 15.365-9.38 26.8 0 11.434 3.13 20.546 9.38 27.336 6.44 6.61 14.21 9.916 23.32 9.916s16.79-3.306 23.05-9.916c6.43-6.611 9.65-15.634 9.65-27.068Zm228.59-74.772-93.8 220.564h-49.31l34.3-76.112-60.83-144.452h51.18l34.58 93.532 34.3-93.532h49.58Z" fill="#2F3542"/></g><defs><clipPath id="a"><path fill="#fff" d="M0 0h2618v330H0z"/></clipPath><clipPath id="b"><rect y="43" width="244" height="244" rx="64" fill="#fff"/></clipPath></defs></svg>