<svg width="403" height="164" fill="none" xmlns="http://www.w3.org/2000/svg"><path d="M383.12.02H20.11C9.152.02.27 8.903.27 19.86V143.3c0 10.957 8.882 19.84 19.84 19.84h363.01c10.957 0 19.84-8.883 19.84-19.84V19.86c0-10.957-8.883-19.84-19.84-19.84Z" fill="#1E2127"/><path d="M155.609 89.61h10.56c.83 0 1.21-.64.89-1.47l-17.6-42a2.001 2.001 0 0 0-2.11-1.34h-14.59a2.002 2.002 0 0 0-2 1.34l-19.6 46.77c-.32.83.06 1.47.83 1.47h13.7a1.418 1.418 0 0 1 1.409 1.262c.026.23-.005.463-.089.678l-9.69 24.8 30.56-32.64a.997.997 0 0 0 .214-1.072.999.999 0 0 0-.894-.628h-17.33a1.433 1.433 0 0 1-1.174-.621 1.424 1.424 0 0 1-.156-1.319l5.06-12.84 6.86-17.51 6.78 17.51h-7.53a1.443 1.443 0 0 0-1.33.9l-2.82 7.22a1.409 1.409 0 0 0 1.31 1.93h13.28a1.419 1.419 0 0 1 1.33.91l2.08 5.36a1.919 1.919 0 0 0 2.05 1.29Zm62.64 0h37.42a1.301 1.301 0 0 0 1.48-1.41v-7.48a1.308 1.308 0 0 0-.398-1.065 1.297 1.297 0 0 0-1.082-.345h-26V46.22a1.358 1.358 0 0 0-.441-1.063 1.351 1.351 0 0 0-1.099-.337h-9.92a1.302 1.302 0 0 0-1.391.828 1.296 1.296 0 0 0-.079.572v42a1.291 1.291 0 0 0 .415 1.064 1.298 1.298 0 0 0 1.095.326Zm45.36 0h42.05a1.297 1.297 0 0 0 1.394-.835 1.31 1.31 0 0 0 .076-.575v-7.48a1.31 1.31 0 0 0-.395-1.06 1.293 1.293 0 0 0-1.075-.35h-30.59V72h25.6a1.332 1.332 0 0 0 1.47-1.41v-7a1.33 1.33 0 0 0-1.47-1.41h-25.6v-7h30.59a1.295 1.295 0 0 0 1.075-.35 1.302 1.302 0 0 0 .395-1.06v-7.55a1.312 1.312 0 0 0-.399-1.053 1.301 1.301 0 0 0-1.071-.347h-42.05a1.302 1.302 0 0 0-1.391.828 1.296 1.296 0 0 0-.079.572v42a1.298 1.298 0 0 0 1.47 1.39Zm-146.69-44.79h-10.17a1.71 1.71 0 0 0-1.86 1.4l-7.68 32.9-7.21-32.9a1.65 1.65 0 0 0-1.79-1.4h-12.7a1.71 1.71 0 0 0-1.85 1.4l-7.17 32.9-7.68-32.9a1.65 1.65 0 0 0-1.79-1.4h-10.75c-.9 0-1.28.51-1.09 1.4l10.88 42a1.68 1.68 0 0 0 1.79 1.41h15.68a1.65 1.65 0 0 0 1.79-1.41l6.27-28.28 6.34 28.28a1.65 1.65 0 0 0 1.79 1.41h15.62a1.649 1.649 0 0 0 1.79-1.41l10.88-42c.19-.89-.19-1.4-1.09-1.4Zm239.84 0h-43.52a1.302 1.302 0 0 0-1.391.828 1.296 1.296 0 0 0-.079.572v7.49a1.295 1.295 0 0 0 .892 1.358 1.3 1.3 0 0 0 .578.052h15.3V88.2a1.295 1.295 0 0 0 .892 1.358c.186.06.384.078.578.052h10a1.332 1.332 0 0 0 1.47-1.41V55.12h15.3a1.295 1.295 0 0 0 1.075-.35 1.302 1.302 0 0 0 .395-1.06v-7.49a1.303 1.303 0 0 0-.909-1.356 1.298 1.298 0 0 0-.581-.044Zm-183.87 44.79h37.43a1.297 1.297 0 0 0 1.394-.835 1.31 1.31 0 0 0 .076-.575v-7.48a1.31 1.31 0 0 0-.395-1.06 1.293 1.293 0 0 0-1.075-.35h-26V46.22a1.358 1.358 0 0 0-.441-1.063 1.351 1.351 0 0 0-1.099-.337h-9.92a1.302 1.302 0 0 0-1.391.828 1.296 1.296 0 0 0-.079.572v42a1.293 1.293 0 0 0 .412 1.06 1.293 1.293 0 0 0 1.088.33Zm-3.84 9.61h-11.52c-3.14 0-4.54 1.31-4.54 4.36v10.36c0 3.06 1.4 4.37 4.54 4.37h11.52c3.16 0 4.51-1.31 4.51-4.37v-10.36c0-3.05-1.35-4.36-4.51-4.36Zm-.94 12.95c0 1.47-.3 1.75-2.08 1.75h-5.51c-1.75 0-2.08-.28-2.08-1.75v-6.82c0-1.47.33-1.74 2.08-1.74h5.48c1.78 0 2.08.27 2.08 1.74l.03 6.82Zm51.89-5.59h-8.74c-.89 0-1.16-.27-1.16-1v-1.07c0-.68.27-.95 1.16-.95h6.69c.65 0 .89.27.89.84v.17a.547.547 0 0 0 .62.6h4.05a.545.545 0 0 0 .455-.15.562.562 0 0 0 .165-.45v-1.07c0-3.22-1.1-4.28-4.4-4.28h-10.61c-3.18 0-4.51 1.31-4.51 4.36v2.84c0 3.05 1.33 4.36 4.51 4.36h8.75c.89 0 1.16.27 1.16.95V113c0 .68-.27 1-1.16 1h-7.34c-.63 0-.87-.28-.87-.85v-.16a.57.57 0 0 0-.169-.446.563.563 0 0 0-.209-.127.554.554 0 0 0-.242-.027h-4a.55.55 0 0 0-.62.6V114c0 3.22 1.08 4.29 4.4 4.29h11.18c3.19 0 4.51-1.31 4.51-4.37v-3c-.03-3.03-1.35-4.34-4.51-4.34Zm85.43 0h-8.74c-.89 0-1.16-.27-1.16-1v-1.07c0-.68.27-.95 1.16-.95h6.69c.65 0 .89.27.89.84v.17a.547.547 0 0 0 .62.6h4.05a.545.545 0 0 0 .455-.15.562.562 0 0 0 .165-.45v-1.07c0-3.22-1.11-4.28-4.4-4.28h-10.61c-3.18 0-4.51 1.31-4.51 4.36v2.84c0 3.05 1.33 4.36 4.51 4.36h8.75c.89 0 1.16.27 1.16.95V113c0 .68-.27 1-1.16 1h-7.3c-.62 0-.86-.28-.86-.85v-.16a.57.57 0 0 0-.169-.446.555.555 0 0 0-.209-.127.554.554 0 0 0-.242-.027h-4.05a.55.55 0 0 0-.62.6V114c0 3.22 1.08 4.29 4.4 4.29h11.2c3.19 0 4.51-1.31 4.51-4.37v-3c-.05-3.03-1.37-4.34-4.56-4.34h.03Zm26.65-7.36h-4.21a.55.55 0 0 0-.62.6v6.65h-9.25v-6.65a.568.568 0 0 0-.65-.6h-4.18a.55.55 0 0 0-.62.6v17.89a.547.547 0 0 0 .62.6h4.18a.573.573 0 0 0 .65-.6v-6.85h9.21v6.85a.547.547 0 0 0 .62.6h4.21a.545.545 0 0 0 .455-.15.562.562 0 0 0 .165-.45V99.82a.55.55 0 0 0-.61-.6h.03Zm-137.62 0h-17.14a.55.55 0 0 0-.62.6v17.89a.547.547 0 0 0 .62.6h4.18a.573.573 0 0 0 .65-.6v-6.52h10.15a.58.58 0 0 0 .65-.6v-3.19a.593.593 0 0 0-.186-.45.58.58 0 0 0-.464-.15h-10.15v-3.19h12.28a.545.545 0 0 0 .455-.15.562.562 0 0 0 .165-.45v-3.19a.562.562 0 0 0-.165-.45.553.553 0 0 0-.455-.15h.03Zm146.48 0h-4.19a.55.55 0 0 0-.62.6v17.89a.547.547 0 0 0 .62.6h4.19a.58.58 0 0 0 .65-.6V99.82a.583.583 0 0 0-.423-.587.577.577 0 0 0-.257-.013h.03Zm-100.34.57a.832.832 0 0 0-.86-.57h-6.15a.818.818 0 0 0-.89.57l-7.43 17.89c-.13.35 0 .63.38.63h4.45a.827.827 0 0 0 .87-.58l1-2.67h9.1l1 2.67a.79.79 0 0 0 .86.58h4.7c.32 0 .48-.28.35-.63l-7.38-17.89Zm-7 11 2.89-7.53 2.89 7.53h-5.78Zm30.86-11.56h-18.35a.55.55 0 0 0-.62.6V103a.547.547 0 0 0 .62.6h6.45v14.1a.554.554 0 0 0 .172.45.547.547 0 0 0 .458.15h4.21a.576.576 0 0 0 .447-.158.58.58 0 0 0 .173-.442v-14.1h6.45a.545.545 0 0 0 .455-.15.562.562 0 0 0 .165-.45v-3.19a.549.549 0 0 0-.378-.568.55.55 0 0 0-.242-.022l-.01.01Zm18.47 0h-11.52c-3.13 0-4.53 1.31-4.53 4.36v10.36c0 3.06 1.4 4.37 4.53 4.37h11.53c3.16 0 4.5-1.31 4.5-4.37v-10.37c0-3.05-1.34-4.36-4.5-4.36l-.01.01Zm-.93 12.94c0 1.47-.29 1.75-2.08 1.75h-5.5c-1.76 0-2.08-.28-2.08-1.75v-6.82c0-1.47.32-1.74 2.08-1.74h5.5c1.79 0 2.08.27 2.08 1.74v6.82Z" fill="#FAD228"/></svg>