<svg width="15" height="15" viewBox="0 0 15 15" fill="none" xmlns="http://www.w3.org/2000/svg">
<g clip-path="url(#clip0_771_2544)">
<rect width="15" height="15" rx="7.5" fill="#F93939"/>
<path fill-rule="evenodd" clip-rule="evenodd" d="M-2 0H5V15H-2V0Z" fill="#249F58"/>
<path d="M5 10C6.65685 10 8 8.65685 8 7C8 5.34315 6.65685 4 5 4C3.34315 4 2 5.34315 2 7C2 8.65685 3.34315 10 5 10Z" fill="#FFDA2C"/>
<path fill-rule="evenodd" clip-rule="evenodd" d="M7 8V5H3V8C3 8.552 3.895 9 5 9C6.105 9 7 8.552 7 8Z" fill="#F93939"/>
<path fill-rule="evenodd" clip-rule="evenodd" d="M4 6H6V8H4V6Z" fill="white"/>
<path fill-rule="evenodd" clip-rule="evenodd" d="M4 6H5V7H4V6ZM5 7H6V8H5V7Z" fill="#1A47B8"/>
</g>
<defs>
<clipPath id="clip0_771_2544">
<rect width="15" height="15" rx="7.5" fill="white"/>
</clipPath>
</defs>
</svg>
