<svg width="356" height="356" viewBox="0 0 356 356" fill="none" xmlns="http://www.w3.org/2000/svg">
<g clip-path="url(#clip0_38_9171)">
<rect width="356" height="356" fill="white"/>
<path d="M73.4282 61.8104H61.1655V115.36H73.4282C87.8677 114.562 98.9695 103.242 98.9695 88.948C98.9695 74.5084 87.6501 62.6811 73.4282 61.8829V61.8104ZM73.4282 74.1456C80.9019 74.9438 86.7068 81.3291 86.7068 88.948C86.7068 96.3492 80.9745 102.227 73.4282 103.025V74.1456Z" fill="black"/>
<path d="M145.377 91.2699L137.541 61.7378H125.495L118.747 91.415L108.879 61.7378H95.9633L113.668 115.36H125.858L131.953 88.6577L138.992 115.36H151.109L166.855 61.7378H154.012L145.377 91.2699Z" fill="black"/>
<path d="M203.76 115.36L186.564 62.1006H174.954L156.814 115.36H169.802L171.979 108.902H188.74L190.845 115.36H203.76ZM180.614 83.7236L184.822 96.6394H176.187L180.614 83.7236Z" fill="black"/>
<path d="M73.4282 121.333H61.1655V174.882H73.4282C87.8677 174.084 98.9695 162.765 98.9695 148.47C98.9695 134.031 87.6501 122.203 73.4282 121.405V121.333ZM73.4282 133.668C80.9019 134.466 86.7068 140.851 86.7068 148.47C86.7068 155.871 80.9745 161.749 73.4282 162.547V133.668Z" fill="black"/>
<path d="M144.289 162.62H122.303L144.579 121.26L104.671 121.188V133.523H124.044L101.768 174.882H144.289V162.62Z" fill="black"/>
<path d="M164.129 121.55H151.866V174.882H164.129V121.55Z" fill="black"/>
<path d="M205.529 121.623L171.353 121.695V174.882H205.529V162.62H183.615V154.203H201.393V141.94H183.615V133.886H205.529V121.623Z" fill="black"/>
<path d="M76.9837 235.42C79.5958 235.42 82.208 234.913 84.7476 233.752C91.133 230.849 94.9787 224.827 94.9787 218.078C94.9787 211.185 91.133 205.235 84.7476 202.333C83.0062 201.535 81.3373 201.027 79.6684 200.519C77.8544 199.938 76.1855 199.358 74.8068 198.56C73.3556 197.616 72.7751 195.657 73.5733 194.134C74.8068 191.666 77.7093 192.465 78.0721 192.465C79.1605 192.755 80.9745 193.408 80.9745 195.657H93.2372C93.2372 188.401 88.3031 182.306 80.9745 180.565C73.3556 178.606 66.0996 181.943 62.6167 188.474C58.9161 195.657 61.4557 204.655 68.2764 208.936C70.8886 210.605 73.5733 211.403 75.9678 212.201C77.3465 212.709 78.5074 212.999 79.5958 213.507C82.3531 214.886 82.6434 217.063 82.6434 218.078C82.6434 219.022 82.3531 221.416 79.5958 222.577C77.6367 223.448 75.5324 223.375 73.791 222.214C72.8477 221.634 71.1788 220.11 71.1788 217.208H58.9161C58.9161 223.593 61.9636 229.18 67.188 232.591C70.163 234.55 73.5733 235.42 76.9837 235.42Z" fill="black"/>
<path d="M122.269 234.332C129.235 234.332 135.911 231.792 141.135 226.568L132.5 217.861C126.841 223.521 117.698 223.448 112.111 217.861C109.426 215.031 107.902 211.548 107.902 207.702C107.902 203.857 109.426 200.301 112.111 197.471C117.698 191.884 126.841 191.812 132.5 197.471L141.135 188.837C130.686 178.388 113.852 178.388 103.404 188.837C98.3969 193.843 95.6396 200.446 95.6396 207.702C95.6396 214.886 98.3969 221.416 103.404 226.568C108.628 231.792 115.376 234.332 122.269 234.332Z" fill="black"/>
<path d="M156.334 181.073H144.072V234.405H156.334V181.073Z" fill="black"/>
<path d="M206.949 234.405L189.752 181.145H178.143L160.003 234.405H172.991L175.168 227.947H191.929L194.033 234.405H206.949ZM183.802 202.768L188.011 215.684H179.376L183.802 202.768Z" fill="black"/>
<path d="M85.1104 239.797V273.755C85.1104 278.254 81.4098 281.664 77.1288 281.664C74.952 281.664 73.0654 280.866 71.4691 279.27C69.9453 277.673 69.2197 275.787 69.2197 273.61L56.957 273.465C56.8844 278.979 58.9161 283.986 62.6892 287.832C66.5349 291.678 71.4691 293.854 76.9837 293.927H77.2013C88.158 293.927 97.3732 285.075 97.3732 273.828V239.797H85.1104Z" fill="black"/>
<path d="M138.779 240.667L104.603 240.74V293.927H138.779V281.664H116.865V273.247H134.643V260.984H116.865V252.93H138.779V240.667Z" fill="black"/>
<path d="M158.318 240.377H146.056V293.927H158.318C172.758 293.129 183.86 281.809 183.86 267.515C183.86 253.075 172.54 241.248 158.318 240.45V240.377ZM158.318 252.713C165.792 253.511 171.597 259.896 171.597 267.515C171.597 274.916 165.865 280.793 158.318 281.592V252.713Z" fill="black"/>
<path d="M220.834 240.667L186.658 240.74V293.927H220.834V281.664H198.921V273.247H216.698V260.984H198.921V252.93H220.834V240.667Z" fill="black"/>
<path d="M255.97 271.796L238.628 240.813H225.277V293.927H237.54V262.871L254.954 293.927H268.233V240.667H255.97V271.796Z" fill="black"/>
<path d="M79.2288 179.134L82.4805 175.449H76.3786L73.127 179.134H79.2288Z" fill="black"/>
<path d="M298.913 283.828C297.133 290.964 289.904 295.307 282.766 293.528C275.63 291.749 271.287 284.52 273.067 277.384C274.846 270.246 282.075 265.903 289.211 267.682C296.349 269.461 300.692 276.691 298.913 283.828Z" fill="url(#paint0_linear_38_9171)"/>
<path d="M291.863 278.707C292.128 276.935 290.779 275.982 288.933 275.346L289.532 272.945L288.07 272.581L287.487 274.918C287.103 274.823 286.708 274.732 286.316 274.643L286.903 272.29L285.442 271.925L284.843 274.326C284.525 274.253 284.212 274.182 283.909 274.106L283.911 274.099L281.895 273.595L281.506 275.157C281.506 275.157 282.591 275.405 282.568 275.421C283.16 275.568 283.267 275.96 283.249 276.271C281.608 282.848 283.249 276.271 281.608 282.848C281.536 283.028 281.352 283.298 280.939 283.196C280.953 283.217 279.876 282.93 279.876 282.93L279.15 284.604L281.053 285.078C281.407 285.166 281.753 285.259 282.095 285.347L281.49 287.775L282.95 288.14L283.549 285.737C283.948 285.845 284.335 285.945 284.714 286.039L284.117 288.431L285.579 288.795L286.184 286.371C288.676 286.842 290.551 286.652 291.34 284.398C291.976 282.583 291.308 281.536 289.997 280.853C290.952 280.633 291.671 280.005 291.863 278.707ZM288.523 283.39C288.071 285.205 285.015 284.224 284.024 283.978L284.827 280.76C285.818 281.008 288.995 281.497 288.523 283.39ZM288.975 278.681C288.563 280.332 286.019 279.493 285.194 279.287L285.922 276.369C286.747 276.575 289.405 276.959 288.975 278.681Z" fill="white"/>
</g>
<defs>
<linearGradient id="paint0_linear_38_9171" x1="272.668" y1="267.283" x2="272.668" y2="293.927" gradientUnits="userSpaceOnUse">
<stop stop-color="#F9AA4B"/>
<stop offset="1" stop-color="#F7931A"/>
</linearGradient>
<clipPath id="clip0_38_9171">
<rect width="356" height="356" fill="white"/>
</clipPath>
</defs>
</svg>
