<svg width="1256" height="1256" viewBox="0 0 1256 1256" fill="none" xmlns="http://www.w3.org/2000/svg">
<rect width="1256" height="1256" fill="white"/>
<path d="M259.064 218.072H215.8V407H259.064C310.008 404.184 349.176 364.248 349.176 313.816C349.176 262.872 309.24 221.144 259.064 218.328V218.072ZM259.064 261.592C285.432 264.408 305.912 286.936 305.912 313.816C305.912 339.928 285.688 360.664 259.064 363.48V261.592Z" fill="black"/>
<path d="M512.906 322.008L485.258 217.816H442.762L418.954 322.52L384.138 217.816H338.57L401.034 407H444.042L465.546 312.792L490.378 407H533.13L588.682 217.816H543.37L512.906 322.008Z" fill="black"/>
<path d="M718.888 407L658.216 219.096H617.256L553.256 407H599.08L606.76 384.216H665.896L673.32 407H718.888ZM637.224 295.384L652.072 340.952H621.608L637.224 295.384Z" fill="black"/>
<path d="M259.064 428.072H215.8V617H259.064C310.008 614.184 349.176 574.248 349.176 523.816C349.176 472.872 309.24 431.144 259.064 428.328V428.072ZM259.064 471.592C285.432 474.408 305.912 496.936 305.912 523.816C305.912 549.928 285.688 570.664 259.064 573.48V471.592Z" fill="black"/>
<path d="M509.066 573.736H431.498L510.09 427.816L369.29 427.56V471.08H437.642L359.05 617H509.066V573.736Z" fill="black"/>
<path d="M579.064 428.84H535.8V617H579.064V428.84Z" fill="black"/>
<path d="M725.126 429.096L604.55 429.352V617H725.126V573.736H647.814V544.04H710.534V500.776H647.814V472.36H725.126V429.096Z" fill="black"/>
<path d="M271.608 830.584C280.824 830.584 290.04 828.792 299 824.696C321.528 814.456 335.096 793.208 335.096 769.4C335.096 745.08 321.528 724.088 299 713.848C292.856 711.032 286.968 709.24 281.08 707.448C274.68 705.4 268.792 703.352 263.928 700.536C258.808 697.208 256.76 690.296 259.576 684.92C263.928 676.216 274.168 679.032 275.448 679.032C279.288 680.056 285.688 682.36 285.688 690.296H328.952C328.952 664.696 311.544 643.192 285.688 637.048C258.808 630.136 233.208 641.912 220.92 664.952C207.864 690.296 216.824 722.04 240.888 737.144C250.104 743.032 259.576 745.848 268.024 748.664C272.888 750.456 276.984 751.48 280.824 753.272C290.552 758.136 291.576 765.816 291.576 769.4C291.576 772.728 290.552 781.176 280.824 785.272C273.912 788.344 266.488 788.088 260.344 783.992C257.016 781.944 251.128 776.568 251.128 766.328H207.864C207.864 788.856 218.616 808.568 237.048 820.6C247.544 827.512 259.576 830.584 271.608 830.584Z" fill="black"/>
<path d="M431.38 826.744C455.956 826.744 479.508 817.784 497.94 799.352L467.476 768.632C447.508 788.6 415.252 788.344 395.54 768.632C386.068 758.648 380.692 746.36 380.692 732.792C380.692 719.224 386.068 706.68 395.54 696.696C415.252 676.984 447.508 676.728 467.476 696.696L497.94 666.232C461.076 629.368 401.684 629.368 364.82 666.232C347.156 683.896 337.428 707.192 337.428 732.792C337.428 758.136 347.156 781.176 364.82 799.352C383.252 817.784 407.06 826.744 431.38 826.744Z" fill="black"/>
<path d="M551.564 638.84H508.3V827H551.564V638.84Z" fill="black"/>
<path d="M730.138 827L669.466 639.096H628.506L564.506 827H610.33L618.01 804.216H677.146L684.57 827H730.138ZM648.474 715.384L663.322 760.952H632.858L648.474 715.384Z" fill="black"/>
<path d="M300.28 846.024V965.832C300.28 981.704 287.224 993.736 272.12 993.736C264.44 993.736 257.784 990.92 252.152 985.288C246.776 979.656 244.216 973 244.216 965.32L200.952 964.808C200.696 984.264 207.864 1001.93 221.176 1015.5C234.744 1029.06 252.152 1036.74 271.608 1037H272.376C311.032 1037 343.544 1005.77 343.544 966.088V846.024H300.28Z" fill="black"/>
<path d="M489.626 849.096L369.05 849.352V1037H489.626V993.736H412.314V964.04H475.034V920.776H412.314V892.36H489.626V849.096Z" fill="black"/>
<path d="M558.564 848.072H515.3V1037H558.564C609.508 1034.18 648.676 994.248 648.676 943.816C648.676 892.872 608.74 851.144 558.564 848.328V848.072ZM558.564 891.592C584.932 894.408 605.412 916.936 605.412 943.816C605.412 969.928 585.188 990.664 558.564 993.48V891.592Z" fill="black"/>
<path d="M779.126 849.096L658.55 849.352V1037H779.126V993.736H701.814V964.04H764.534V920.776H701.814V892.36H779.126V849.096Z" fill="black"/>
<path d="M903.088 958.92L841.904 849.608H794.8V1037H838.064V927.432L899.504 1037H946.352V849.096H903.088V958.92Z" fill="black"/>
<path d="M279.528 632L291 619H269.472L258 632H279.528Z" fill="black"/>
<path d="M1054.59 1001.37C1048.32 1026.55 1022.81 1041.87 997.626 1035.59C972.452 1029.32 957.127 1003.81 963.408 978.635C969.683 953.454 995.188 938.129 1020.36 944.406C1045.55 950.684 1060.87 976.19 1054.59 1001.37Z" fill="url(#paint0_linear_21_72093)"/>
<path d="M1029.72 983.304C1030.65 977.05 1025.89 973.688 1019.38 971.445L1021.49 962.974L1016.34 961.689L1014.28 969.937C1012.92 969.599 1011.53 969.281 1010.15 968.965L1012.22 960.662L1007.06 959.377L1004.95 967.846C1003.83 967.59 1002.73 967.337 1001.66 967.072L1001.66 967.045L994.55 965.269L993.178 970.777C993.178 970.777 997.005 971.654 996.924 971.708C999.013 972.23 999.39 973.612 999.327 974.708C993.54 997.915 999.327 974.708 993.54 997.915C993.284 998.549 992.636 999.501 991.176 999.14C991.228 999.215 987.427 998.204 987.427 998.204L984.867 1004.11L991.579 1005.78C992.827 1006.09 994.051 1006.42 995.255 1006.73L993.121 1015.3L998.272 1016.58L1000.39 1008.1C1001.79 1008.49 1003.16 1008.84 1004.5 1009.17L1002.39 1017.61L1007.55 1018.89L1009.68 1010.34C1018.48 1012.01 1025.09 1011.33 1027.87 1003.38C1030.12 996.978 1027.76 993.284 1023.13 990.875C1026.5 990.098 1029.04 987.882 1029.72 983.304ZM1017.94 999.826C1016.34 1006.23 1005.56 1002.77 1002.06 1001.9L1004.89 990.548C1008.39 991.42 1019.6 993.147 1017.94 999.826ZM1019.53 983.211C1018.08 989.036 1009.1 986.077 1006.19 985.351L1008.76 975.056C1011.67 975.781 1021.04 977.135 1019.53 983.211Z" fill="white"/>
<path d="M800 218H1056V422.421C1054.65 506.995 972.931 491.925 927.406 522.424C881.751 490.904 802.968 511.808 800 420.325V218Z" fill="white" stroke="black" stroke-width="5.5211" stroke-linecap="round"/>
<path d="M867.341 242.05C867.341 242.109 867.325 242.168 867.294 242.222C867.263 242.277 867.218 242.326 867.16 242.368C867.103 242.41 867.035 242.443 866.96 242.466C866.885 242.488 866.804 242.5 866.723 242.5C866.642 242.5 866.562 242.488 866.487 242.466C866.412 242.443 866.344 242.41 866.286 242.368C866.229 242.326 866.183 242.277 866.152 242.222C866.121 242.168 866.105 242.109 866.105 242.05C866.105 241.991 866.121 241.933 866.152 241.878C866.183 241.824 866.229 241.774 866.286 241.733C866.344 241.691 866.412 241.658 866.487 241.635C866.562 241.612 866.642 241.601 866.723 241.601C866.804 241.601 866.885 241.612 866.96 241.635C867.035 241.658 867.103 241.691 867.16 241.733C867.218 241.774 867.263 241.824 867.294 241.878C867.325 241.933 867.341 241.991 867.341 242.05Z" stroke="black" stroke-width="3.52538" stroke-linecap="round"/>
<path d="M800 218H1056V422.421C1054.65 506.995 972.931 491.925 927.406 522.424C881.751 490.904 802.968 511.808 800 420.325V218Z" fill="white" stroke="black" stroke-width="1.86953" stroke-linecap="round"/>
<path fill-rule="evenodd" clip-rule="evenodd" d="M929.672 515.682C952.131 502.785 976.534 498.571 999.714 491.25C1036.15 478.575 1051.11 456.831 1051.44 424.013V367.117L930.623 367.692L929.672 515.682Z" fill="#F63D37" stroke="black" stroke-width="1.86953"/>
<path d="M1025.1 406.007C1025.1 410.998 1024.12 415.941 1022.21 420.553C1020.3 425.165 1017.5 429.356 1013.97 432.885C1010.44 436.415 1006.25 439.215 1001.64 441.125C997.029 443.036 992.087 444.019 987.096 444.019C982.105 444.019 977.162 443.036 972.551 441.125C967.94 439.215 963.751 436.415 960.221 432.885C956.692 429.356 953.893 425.165 951.983 420.553C950.073 415.941 949.09 410.998 949.09 406.007C949.09 401.015 950.073 396.072 951.983 391.46C953.893 386.848 956.692 382.658 960.221 379.128C963.751 375.598 967.94 372.798 972.551 370.888C977.162 368.977 982.105 367.994 987.096 367.994C992.087 367.994 997.029 368.977 1001.64 370.888C1006.25 372.798 1010.44 375.598 1013.97 379.128C1017.5 382.658 1020.3 386.848 1022.21 391.46C1024.12 396.072 1025.1 401.015 1025.1 406.007Z" fill="#FDCF00" stroke="black" stroke-width="1.24636" stroke-linecap="round" stroke-linejoin="round"/>
<path fill-rule="evenodd" clip-rule="evenodd" d="M995.637 393.843C994.8 391.702 994.825 389.776 995.376 387.982C996.375 386.634 997.373 386.823 998.372 386.809C1005.11 390.668 1007.56 394.654 1008.53 403.091C1003.53 400.478 998.598 397.817 995.637 393.843Z" fill="#FCFFE8" stroke="black" stroke-width="1.24636"/>
<path fill-rule="evenodd" clip-rule="evenodd" d="M974.948 423.512L975.167 437.284C967.88 439.689 958.064 442.282 955.93 447.121C972.325 456.886 1008.61 453.534 1017.58 447.558C1019.02 444.63 1004.84 439.68 998.338 435.754V423.512H974.948Z" fill="#FFF6EC" stroke="black" stroke-width="1.12172"/>
<path d="M975.385 436.629C975.647 438.291 976.525 440.25 977.352 440.782" stroke="black" stroke-width="1.24636"/>
<path d="M998.339 435.754C998.117 438.046 997.754 440.453 996.371 441.001" stroke="black" stroke-width="1.24636"/>
<path fill-rule="evenodd" clip-rule="evenodd" d="M987.029 483.867C993.011 484.286 994.98 475.904 989.897 474.299C988.849 472.633 990.637 472.302 990.584 472.372C991.979 473.597 991.935 475.763 996.507 473.811C996.387 471.19 996.3 468.97 992.389 468.666C992.633 468.386 992.347 467.528 992.677 467.263C995.434 465.828 999.995 465.663 1002.86 467.308C1003.09 467.512 1002.25 467.904 1002.48 468.154C999.656 472.182 1002.53 475.828 1006.33 475.729C1009.46 475.825 1013.12 469.631 1007.51 467.212C1009.51 464.022 1014.84 462.603 1017.61 463.275C1017.6 463.615 1017.68 464.9 1016.71 464.956C1014.34 465.094 1012.6 468.396 1014.52 470.57C1017.7 473.043 1020.04 469.382 1019.75 467.216C1020.42 466.195 1021.26 466.397 1021.93 467.129C1018.5 472.428 1023.79 474.9 1026.36 474.754L1017.88 447.413C1008.76 454.317 965.57 454.441 956.231 447.413L947.746 474.754C950.321 474.9 955.604 472.428 952.18 467.129C952.849 466.397 953.684 466.195 954.354 467.216C954.065 469.382 956.405 473.043 959.589 470.57C961.508 468.396 959.769 465.094 957.402 464.956C956.429 464.9 956.512 463.615 956.497 463.275C959.263 462.603 964.595 464.022 966.602 467.212C960.991 469.631 964.651 475.825 967.776 475.729C971.578 475.828 974.452 472.182 971.63 468.154C971.857 467.904 971.015 467.512 971.251 467.308C974.112 465.663 978.674 465.828 981.43 467.263C981.761 467.528 981.474 468.386 981.719 468.666C977.807 468.97 977.721 471.19 977.601 473.811C982.172 475.763 982.129 473.597 983.523 472.372C983.471 472.302 985.258 472.633 984.21 474.299C979.127 475.904 981.096 484.286 987.029 483.867Z" fill="#FDCF00" stroke="black" stroke-width="1.24636"/>
<path d="M990.711 458.133C990.712 458.61 990.618 459.083 990.435 459.525C990.253 459.966 989.985 460.367 989.647 460.705C989.309 461.043 988.909 461.311 988.467 461.494C988.026 461.677 987.553 461.771 987.075 461.771C986.598 461.771 986.125 461.677 985.683 461.494C985.242 461.311 984.841 461.043 984.504 460.705C984.166 460.367 983.898 459.966 983.716 459.525C983.533 459.083 983.439 458.61 983.439 458.133C983.439 457.655 983.533 457.182 983.716 456.741C983.898 456.299 984.166 455.898 984.504 455.56C984.841 455.222 985.242 454.954 985.683 454.772C986.125 454.589 986.598 454.495 987.075 454.495C987.553 454.495 988.026 454.589 988.467 454.772C988.909 454.954 989.309 455.222 989.647 455.56C989.985 455.898 990.253 456.299 990.435 456.741C990.618 457.182 990.712 457.655 990.711 458.133Z" fill="white" stroke="black" stroke-width="0.879373" stroke-linecap="round" stroke-linejoin="round"/>
<path d="M1007.24 457.141C1007.24 457.619 1007.14 458.092 1006.96 458.534C1006.78 458.975 1006.51 459.376 1006.17 459.714C1005.83 460.052 1005.43 460.32 1004.99 460.503C1004.55 460.685 1004.08 460.78 1003.6 460.78C1003.12 460.78 1002.65 460.685 1002.21 460.503C1001.77 460.32 1001.37 460.052 1001.03 459.714C1000.69 459.376 1000.42 458.975 1000.24 458.534C1000.06 458.092 999.965 457.619 999.965 457.141C999.965 456.664 1000.06 456.191 1000.24 455.749C1000.42 455.308 1000.69 454.907 1001.03 454.569C1001.37 454.231 1001.77 453.963 1002.21 453.78C1002.65 453.597 1003.12 453.503 1003.6 453.503C1004.08 453.503 1004.55 453.597 1004.99 453.78C1005.43 453.963 1005.83 454.231 1006.17 454.569C1006.51 454.907 1006.78 455.308 1006.96 455.749C1007.14 456.191 1007.24 456.664 1007.24 457.141Z" fill="white" stroke="black" stroke-width="0.879373" stroke-linecap="round" stroke-linejoin="round"/>
<path d="M955.46 449.983C957.372 450.595 958.426 452.643 957.814 454.554C957.202 456.466 955.154 457.52 953.242 456.908L955.46 449.983Z" fill="white" stroke="black" stroke-width="0.879373" stroke-linecap="round" stroke-linejoin="round"/>
<path d="M1018.18 449.655C1016.27 450.267 1015.21 452.315 1015.83 454.226C1016.44 456.138 1018.49 457.192 1020.4 456.58L1018.18 449.655Z" fill="white" stroke="black" stroke-width="0.879373" stroke-linecap="round" stroke-linejoin="round"/>
<path d="M974.119 457.141C974.12 457.619 974.026 458.092 973.843 458.534C973.661 458.975 973.393 459.376 973.055 459.714C972.718 460.052 972.317 460.32 971.875 460.503C971.434 460.685 970.961 460.78 970.484 460.78C970.006 460.78 969.533 460.685 969.092 460.503C968.65 460.32 968.249 460.052 967.912 459.714C967.574 459.376 967.306 458.975 967.124 458.534C966.941 458.092 966.847 457.619 966.848 457.141C966.847 456.664 966.941 456.191 967.124 455.749C967.306 455.308 967.574 454.907 967.912 454.569C968.249 454.231 968.65 453.963 969.092 453.78C969.533 453.597 970.006 453.503 970.484 453.503C970.961 453.503 971.434 453.597 971.875 453.78C972.317 453.963 972.718 454.231 973.055 454.569C973.393 454.907 973.661 455.308 973.843 455.749C974.026 456.191 974.12 456.664 974.119 457.141Z" fill="white" stroke="black" stroke-width="0.879373" stroke-linecap="round" stroke-linejoin="round"/>
<path d="M952.65 458.707C974.612 465.262 997.362 465.776 1021.07 458.926" stroke="black" stroke-width="1.24636"/>
<path fill-rule="evenodd" clip-rule="evenodd" d="M987.691 384.465L988.081 390.326L982.741 396.839L971.93 401.007C972.927 394.632 974.4 385.797 984.829 383.705C985.919 382.862 986.696 383.894 987.691 384.465Z" fill="#FFFDFF" stroke="black" stroke-width="1.24636"/>
<path fill-rule="evenodd" clip-rule="evenodd" d="M984.436 394.234C988.875 391.764 987.291 387.781 987.952 383.423C991.332 382.619 995.333 384.361 996.159 386.939L996.81 394.234L991.99 400.356L984.436 394.234Z" fill="#FFFDFF" stroke="black" stroke-width="1.24636"/>
<path fill-rule="evenodd" clip-rule="evenodd" d="M987.077 431.617C975.834 431.401 969.264 414.014 971.208 401.072C974.475 396.792 980.854 398.56 984.81 394.152C986.856 396.334 989.296 398.044 992.924 398.328C992.712 395.174 993.901 393.419 997.816 394.391L1002.47 398.567C1007.8 413.157 997.21 432.023 987.077 431.617Z" fill="#FFFDFF" stroke="black" stroke-width="1.37099"/>
<path d="M983.66 413.785C981.528 417.007 993.723 416.32 991.211 413.85" stroke="black" stroke-width="1.12172"/>
<path fill-rule="evenodd" clip-rule="evenodd" d="M973.355 404.414C977.451 402.804 981.593 401.815 986.003 404.294C985.715 408.043 986.188 412.045 985.049 415.51C985.685 417.98 988.946 417.906 989.821 415.51C988.912 412.127 989.087 408.201 988.747 404.533C993.278 401.37 996.838 403.174 1000.68 403.34" fill="#FFF6EC"/>
<path d="M973.355 404.414C977.451 402.804 981.593 401.815 986.003 404.294C985.715 408.043 986.188 412.045 985.049 415.51C985.685 417.98 988.946 417.906 989.821 415.51C988.912 412.127 989.087 408.201 988.747 404.533C993.278 401.37 996.838 403.174 1000.68 403.34" stroke="black" stroke-width="1.12172"/>
<path d="M975.234 407.287C978.643 409.731 979.317 409.981 982.764 407.287C980.438 404.744 977.851 405.815 975.234 407.287Z" stroke="black" stroke-width="0.776815"/>
<path d="M999.097 407.286C995.572 409.731 994.874 409.982 991.309 407.286C993.714 404.743 996.391 405.814 999.097 407.286Z" stroke="black" stroke-width="0.790139"/>
<path d="M980.871 420.999C984.888 420.936 985.803 418.294 987.553 419.09C989.943 418.87 989.86 421.473 993.28 420.999C990.496 423.974 984.132 423.653 981.348 420.999C985.246 421.516 989.144 421.555 993.041 421.118" stroke="black" stroke-width="0.872449"/>
<path d="M979.992 407.385C979.992 407.47 979.972 407.555 979.935 407.634C979.898 407.713 979.842 407.784 979.773 407.845C979.704 407.905 979.621 407.953 979.531 407.986C979.44 408.018 979.343 408.035 979.245 408.035C979.147 408.035 979.05 408.018 978.959 407.986C978.868 407.953 978.786 407.905 978.717 407.845C978.647 407.784 978.592 407.713 978.555 407.634C978.517 407.555 978.498 407.47 978.498 407.385C978.498 407.3 978.517 407.215 978.555 407.136C978.592 407.058 978.647 406.986 978.717 406.926C978.786 406.865 978.868 406.817 978.959 406.785C979.05 406.752 979.147 406.735 979.245 406.735C979.343 406.735 979.44 406.752 979.531 406.785C979.621 406.817 979.704 406.865 979.773 406.926C979.842 406.986 979.898 407.058 979.935 407.136C979.972 407.215 979.992 407.3 979.992 407.385Z" fill="#FFF6EC" stroke="black" stroke-width="0.872449" stroke-linecap="round" stroke-linejoin="round"/>
<path d="M995.576 407.385C995.576 407.47 995.556 407.555 995.519 407.634C995.481 407.713 995.426 407.784 995.357 407.845C995.288 407.905 995.205 407.953 995.115 407.986C995.024 408.018 994.927 408.035 994.829 408.035C994.731 408.035 994.634 408.018 994.543 407.986C994.452 407.953 994.37 407.905 994.301 407.845C994.231 407.784 994.176 407.713 994.139 407.634C994.101 407.555 994.082 407.47 994.082 407.385C994.082 407.3 994.101 407.215 994.139 407.136C994.176 407.058 994.231 406.986 994.301 406.926C994.37 406.865 994.452 406.817 994.543 406.785C994.634 406.752 994.731 406.735 994.829 406.735C994.927 406.735 995.024 406.752 995.115 406.785C995.205 406.817 995.288 406.865 995.357 406.926C995.426 406.986 995.481 407.058 995.519 407.136C995.556 407.215 995.576 407.3 995.576 407.385Z" fill="#FFF6EC" stroke="black" stroke-width="0.872449" stroke-linecap="round" stroke-linejoin="round"/>
<path fill-rule="evenodd" clip-rule="evenodd" d="M964.7 415.205C966.566 412.161 968.364 408.778 970.561 407.39L972.645 397.751C969.275 400.707 964.728 401.896 962.616 406.738C961.256 408.74 960.63 414.015 964.7 415.205Z" fill="#FFFBFF" stroke="black" stroke-width="1.24636"/>
<path fill-rule="evenodd" clip-rule="evenodd" d="M971.474 412.99C970.525 417.754 968.508 422.162 964.44 425.886C961.146 423.573 959.386 420.808 961.965 416.768C966.571 414.468 967.571 408.543 970.301 407.129L971.474 412.99Z" fill="#F5EEE6" stroke="black" stroke-width="1.24636"/>
<path fill-rule="evenodd" clip-rule="evenodd" d="M974.471 420.545L973.168 438C967.824 440.786 960.803 434.812 962.487 428.1C965.638 423.225 970.698 418.609 971.214 412.86L974.471 420.545Z" fill="#ECEBF9" stroke="black" stroke-width="1.24636"/>
<path fill-rule="evenodd" clip-rule="evenodd" d="M975.708 437.609C970.933 438.716 969.447 435.985 968.805 432.269C969.504 428.352 972.719 426.673 974.275 421.067L975.317 423.281L975.708 437.609Z" fill="#FFF6EC" stroke="black" stroke-width="1.24636"/>
<path fill-rule="evenodd" clip-rule="evenodd" d="M1009.44 415.205C1007.58 412.161 1005.78 408.778 1003.58 407.39L1001.5 397.751C1004.87 400.707 1009.42 401.896 1011.53 406.738C1012.89 408.74 1013.51 414.015 1009.44 415.205Z" fill="#FFFBFF" stroke="black" stroke-width="1.24636"/>
<path fill-rule="evenodd" clip-rule="evenodd" d="M1002.67 412.99C1003.62 417.754 1005.64 422.162 1009.71 425.886C1013 423.573 1014.76 420.808 1012.18 416.768C1007.57 414.468 1006.57 408.543 1003.84 407.129L1002.67 412.99Z" fill="#F5EEE6" stroke="black" stroke-width="1.24636"/>
<path fill-rule="evenodd" clip-rule="evenodd" d="M999.676 420.545L1000.98 438C1006.32 440.786 1013.34 434.812 1011.66 428.1C1008.51 423.225 1003.45 418.609 1002.93 412.86L999.676 420.545Z" fill="#ECEBF9" stroke="black" stroke-width="1.24636"/>
<path fill-rule="evenodd" clip-rule="evenodd" d="M998.242 437.609C1003.02 438.716 1004.5 435.985 1005.15 432.269C1004.45 428.352 1001.23 426.673 999.675 421.067L998.633 423.281L998.242 437.609Z" fill="#FFFFEF" stroke="black" stroke-width="1.24636"/>
<path fill-rule="evenodd" clip-rule="evenodd" d="M925.244 515.056C900.019 501.33 878.32 499.127 855.274 491.922C818.987 481.337 805.608 456.059 803.836 424.107V367.211L925.013 366.706L925.244 515.056Z" fill="#FDCF00" stroke="black" stroke-width="1.86953"/>
<path fill-rule="evenodd" clip-rule="evenodd" d="M856.421 482.106L851.43 481.857L816.489 382.028L810.25 381.529V376.537H836.206V381.529L832.712 381.778L831.464 383.775L856.671 454.903H858.418L866.653 430.944L850.182 384.274L847.436 382.028L843.443 381.778L843.942 376.288L870.647 376.537L870.397 381.778L866.154 382.277L864.407 384.274L874.39 411.477L885.371 383.026L879.881 382.527V376.537H902.093L901.843 382.277L894.106 382.527L891.86 384.024L877.884 422.209L889.365 455.402L891.86 455.153L916.069 384.523L915.561 382.701L912.076 382.527V376.537L928.797 376.288V383.026L924.804 383.525L922.558 385.023L890.113 482.356L885.122 482.106L871.645 444.67L868.9 445.669L856.421 482.106Z" fill="#000207"/>
<path d="M1051.69 222.689H930.602V361.981H1051.69V222.689Z" fill="#FDCF00" stroke="black" stroke-width="1.85381" stroke-linecap="round" stroke-linejoin="round"/>
<path d="M925.003 222.689H803.91V361.981H925.003V222.689Z" fill="#F63D37" stroke="black" stroke-width="1.85381" stroke-linecap="round" stroke-linejoin="round"/>
<path fill-rule="evenodd" clip-rule="evenodd" d="M851.619 245.305L870.021 237.147L870.137 224.852C868.948 227.189 867.438 229.289 865.013 230.712C863.745 235.573 868.474 231.774 867.458 234.389C864.854 234.619 862.216 235.194 859.539 235.998C857.723 234.292 861.973 235.345 860.703 232.091C858.711 230.14 855.476 231.876 854.181 229.448C855.332 233.579 851.138 233.775 852.9 236.343C853.687 238.536 856.794 235.778 856.51 237.607C854.966 238.671 853.196 240.187 851.037 241.858C849.342 241.23 852.011 239.77 850.804 237.262C848.117 235.741 846.765 239.632 842.418 236.573L851.619 245.305Z" fill="#FDCF00" stroke="black" stroke-width="0.86658"/>
<path fill-rule="evenodd" clip-rule="evenodd" d="M920.461 275.175L921.043 280.011C922.715 277 924.154 278.154 925.612 278.945C924.967 275.121 922.593 275.437 920.461 275.175Z" fill="#FFF6FC" stroke="black" stroke-width="1.23797"/>
<path fill-rule="evenodd" clip-rule="evenodd" d="M838.442 357.037C839.831 357.182 841.002 359.043 840.752 361.644C840.452 360.877 838.512 357.921 836.279 360.529L838.442 357.037Z" fill="#FFF6FF" stroke="black" stroke-width="1.23797"/>
<path fill-rule="evenodd" clip-rule="evenodd" d="M917.886 287.142C920.206 288.007 920.743 290.624 919.963 292.798C919.383 292.258 918.227 290.201 915.311 290.913L917.886 287.142Z" fill="#FFFFFD" stroke="black" stroke-width="1.23797"/>
<path fill-rule="evenodd" clip-rule="evenodd" d="M911.406 266.321L915.394 269.764C915.255 266.864 917.183 266.207 919.216 265.665C916.232 264.381 913.508 264.122 911.406 266.321Z" fill="#FFF6FC" stroke="black" stroke-width="1.23797"/>
<path fill-rule="evenodd" clip-rule="evenodd" d="M879.133 260.473C887.196 258.154 899.565 250.172 900.594 248.133C902.177 247.288 901.691 244.099 900.594 243.197C894.413 239.214 900.229 235.905 902.832 236.312C905.715 236.21 908.369 238.327 905.729 242.157C903.596 243.283 904.668 244.409 904.412 245.535C905.685 244.437 906.957 243.773 908.23 241.378C907.745 233.247 911.295 235.415 913.102 236.962C916.568 239.98 915.716 242.078 912.838 243.456C910.907 243.149 909.29 245.633 907.704 248.393C909.986 248.35 912.268 246.789 914.55 243.976C916.694 242.711 918.366 242.753 918.763 246.314C919.083 249.147 918.111 250.068 917.052 250.861C914.462 250.691 911.873 249.822 909.284 251.25C910.292 253.784 912.273 254.64 914.682 254.757C915.955 256.805 916.39 258.339 915.208 260.733C911.195 260.534 908.786 260.496 909.679 258.914C906.958 256.52 905.425 256.337 905.86 259.823C900.932 264.058 895.504 269.121 889.008 274.112L879.133 260.473Z" fill="#FDF2F0" stroke="black" stroke-width="1.23797"/>
<path fill-rule="evenodd" clip-rule="evenodd" d="M861.481 250.998C861.722 253.766 878.731 256.11 882.579 247.15C886.409 255.854 869.849 258.796 861.481 258.695C855.776 258.641 856.672 250.317 861.481 250.998Z" fill="#FFF6FF" stroke="black" stroke-width="1.23797"/>
<path fill-rule="evenodd" clip-rule="evenodd" d="M878.43 353.693C871.659 348.439 863.103 338.294 861.399 328.08L865.533 329.711C864.524 325.758 864.933 320.406 864.706 315.681C863.124 305.011 856.801 304.97 850.485 304.914L845.028 326.122C843.265 331.125 844.146 334.823 847.674 337.216L848.997 331.506C849.126 334.091 850.026 334.901 851.477 334.442C847.765 337.258 850.148 341.076 851.477 344.72L852.8 339.826L855.446 340.152C857.949 346.686 863.289 350.888 868.178 354.998C868.133 354.438 870.083 357.195 870.493 358.587C872.919 358.203 875.344 360.325 877.769 362.013L898.439 362.502C903.071 358.756 900.471 351.678 894.47 352.225C886.588 356.267 885.32 360.249 878.43 353.693Z" fill="#FCFFFD" stroke="black" stroke-width="1.23797"/>
<path fill-rule="evenodd" clip-rule="evenodd" d="M851.983 244.482C854.381 241.402 862.135 236.737 868.566 237.211C872.611 236.605 870.62 239.121 873.439 239.333C875.041 239.964 876.702 241.497 877.1 242.856C877.165 246.109 875.678 248.724 872.639 250.702C868.351 250.632 864.17 249.291 859.644 252.041C858.435 254.735 858.099 257.142 862.262 258.069C867.208 259.097 872.154 257.155 877.1 256.347C877.513 258.081 876.752 259.236 874.579 259.695L879.234 260.365C883.955 263.764 890.393 268.404 888.544 276.822C893.554 277.133 898.565 279.251 903.575 277.3C905.847 276.296 907.38 274.668 907.842 272.134C907.461 269.512 907.843 267.392 909.782 266.297C910.672 265.382 917.821 268.475 914.825 272.325C912.903 273.892 910.463 275.345 910.752 277.396C914.251 277.691 916.107 273.323 917.443 273.282C920.63 273.696 920.519 274.804 921.614 278.927C920.168 283.212 915.835 282.836 911.625 282.658C916.765 283.039 917.837 284.136 917.929 287.184C917.872 288.465 915.403 292.124 912.955 291.543C909.684 289.629 909.93 288.208 909.103 286.294C906.708 286.976 905.395 288.904 904.545 291.365C894.807 292.921 885.444 295.07 879.525 302.655C877.772 301.965 878.186 299.566 877.585 297.967C875.164 299.273 873.933 301.416 873.318 303.995C873.684 297.76 868.975 296.214 865.657 299.115C862.514 299.446 859.426 299.938 856.541 301.029C853.796 302.23 850.97 303.3 850.237 307.726C850.232 312.228 851.049 317.09 848.879 320.643C848.457 327.11 838.153 329.237 832.878 334.229C833.155 331.945 833.18 330.074 832.684 329.062C829.676 330.827 826.509 333.689 822.986 339.013C820.997 345.046 820.69 350.581 823.859 355.087C825.607 354.591 827.401 354.367 828.902 352.408C830.586 350.073 834.854 349.816 836.369 351.356C839.969 353.905 837.968 359.899 835.69 360.828L815.045 360.792C813.287 359.128 812.095 356.967 808.134 357.235C807.707 354.16 808.295 352.462 809.937 352.194C813.001 348.56 812.549 343.034 812.942 337.963C811.857 336.851 810.313 336.646 808.453 337.064C808.21 334.482 811.275 333.107 813.242 331.737C813.851 328.921 810.068 330.437 808.148 330.115C808.902 326.294 811.511 324.669 814.84 323.896C820.869 321.903 822.621 314.565 824.925 307.917C817.621 307.737 821.671 297.691 818.816 297.297C815.404 297.167 814.912 297.679 814.821 295.092C814.866 292.632 815.815 293.124 819.495 293.087C813.514 288.007 811.977 272.297 820.289 262.21C823.949 257.376 827.711 253.654 830.473 248.483C833.342 243.74 833.692 238.528 832.302 234.922C830.753 232.87 827.495 232.354 826.546 234.254C827.258 236.744 831.623 237.089 830.812 241.135C829.646 242.1 829.011 241.146 828.374 240.199C830.916 244.868 827.657 245.899 827.291 249.352C826.433 240.856 824.942 241.794 824.379 239.197C821.872 232.627 824.791 230.874 827.358 229.844C829.13 229.536 830.965 229.802 832.64 230.713C835.537 232.86 837.226 236.278 836.432 241.803C835.509 248.774 830.084 253.916 825.666 259.573C820.394 265.415 817.553 271.857 817.337 278.946C817.357 284.492 819.241 289.119 822.145 293.243C825.411 289.805 826.393 284.488 826.614 278.546C827.21 266.643 818.709 260.291 813.65 253.755C804.436 245.056 805.205 235.949 810.778 231.08C813.395 229.03 816.959 229.367 818.63 231.458C823.645 237.695 816.441 242.938 816.332 248.464C815.201 245.216 813.43 241.757 816.715 239.961L812.693 240.906C812.671 238.651 813.243 236.747 815.757 235.993C817.604 234.202 816.17 232.92 814.608 232.781C809.721 233.924 809.02 240.601 810.913 244.54L824.759 262.258C832.872 272.9 830.022 282.984 826.054 293.129C830.219 292.892 830.463 293.111 830.475 295.077C830.801 298.222 828.715 297.022 825.626 297.294C822.643 297.032 823.56 304.386 825.094 304.47C826.487 305.499 827.308 305.306 828.406 304.178C833.495 294.603 839.654 285.819 848.512 279.032C845.764 279.444 844.101 278.384 842.598 277.107C847.363 274.624 850.636 270.556 853.361 265.905C851.697 268.983 847.948 271.167 844.49 269.814C850.516 265.154 848.822 256.56 846.383 256.571C846.414 255.432 846.739 254.552 847.848 254.359C846.672 251.294 844.494 248.511 842.52 245.671C846.267 245.132 850.147 243.969 853.087 247.186L850.784 245.716L851.983 244.482Z" fill="#FFF6FF" stroke="black" stroke-width="1.23797"/>
<path d="M825.271 356.651C829.823 356.459 831.008 353.699 833.2 353.442C836.774 353.72 836.287 359.505 833.2 360.247" stroke="black" stroke-width="1.23797"/>
<path d="M858.531 244.339C862.389 240.925 868.705 240.001 873.041 239.192" stroke="black" stroke-width="1.23797"/>
<path d="M863.574 241.727C863.648 245.472 870.307 245.666 871.09 239.811" stroke="black" stroke-width="1.23797"/>
<path d="M870.923 239.552C871.515 245.315 867.693 246.923 866.395 250.098" stroke="black" stroke-width="1.23797"/>
<path d="M848.494 278.995C854.345 277.496 855.932 272.491 858.851 268.581C857.318 273.295 854.627 276.592 850.287 279.29C845.631 284.645 851.069 286.368 851.88 289.802C852.505 279.66 862.346 282.797 865.622 271.823C865.773 283.461 850.063 282.515 855.764 291.57L858.552 294.813C858.309 283.974 873.738 286.02 872.593 273.002C874.823 288.256 854.503 289.646 866.419 298.055C869.819 286.191 879.657 288.191 878.667 273.1C881.753 282.495 868.299 291.288 879.862 295.598C880.953 288.094 883.888 282.863 885.936 276.539C886.445 274.145 884.798 272.459 883.845 270.546C885.326 272.825 885.911 275.693 888.824 277.03" stroke="black" stroke-width="1.23797"/>
<path fill-rule="evenodd" clip-rule="evenodd" d="M844.904 245.663C849.37 247.906 851.865 251.253 853.415 253.535L854.124 252.048C851.666 249.392 850.029 245.907 844.904 245.663Z" fill="#0A000E" stroke="black" stroke-width="0.349383"/>
<path fill-rule="evenodd" clip-rule="evenodd" d="M911.092 235.402L915.173 239.429C913.843 237.04 915.372 236.218 917.148 235.532C914.331 233.913 912.511 234.262 911.092 235.402Z" fill="#F1F4FD" stroke="black" stroke-width="0.86658"/>
<path fill-rule="evenodd" clip-rule="evenodd" d="M900.033 236.572L905.563 236.831C903.541 235.849 902.89 234.48 903.325 232.805C900.991 233.816 900.698 235.23 900.033 236.572Z" fill="#F1F4FD" stroke="black" stroke-width="0.86658"/>
<path fill-rule="evenodd" clip-rule="evenodd" d="M917.674 243.456L918.727 248.522C919.638 246.66 920.898 246.178 922.15 245.665C920.875 243.646 919.296 243.425 917.674 243.456Z" fill="#F1F4FD" stroke="black" stroke-width="0.86658"/>
<path fill-rule="evenodd" clip-rule="evenodd" d="M914.646 254.498L915.831 259.174C916.283 256.862 917.355 255.772 918.86 255.537C917.28 254.151 915.875 253.805 914.646 254.498Z" fill="#F1F4FD" stroke="black" stroke-width="0.86658"/>
<path fill-rule="evenodd" clip-rule="evenodd" d="M820.236 263.199L823.413 259.177L824.419 260.118L821.295 264.348L820.236 263.199Z" fill="#FFF6FF"/>
<path d="M888.768 358.283C893.319 358.09 894.504 355.331 896.696 355.074C900.27 355.351 899.783 361.137 896.696 361.879" stroke="black" stroke-width="1.23797"/>
<path fill-rule="evenodd" clip-rule="evenodd" d="M900.948 358.505C902.337 358.65 903.508 360.511 903.258 363.112C902.958 362.345 901.018 359.389 898.785 361.997L900.948 358.505Z" fill="#FFF6FF" stroke="black" stroke-width="1.23797"/>
<path d="M862.576 252.68C861.162 253.863 860.188 254.99 863.996 255.52C876.235 256.085 880.864 252.569 881.898 249.997" stroke="#6E0000" stroke-width="0.568167" stroke-linecap="round"/>
<path fill-rule="evenodd" clip-rule="evenodd" d="M984.86 236.764L978.881 237.485C973.938 243.113 971.202 240.348 970.736 238.31L967.23 236.351C971.578 235.73 973.282 239.596 977.437 236.248C980.316 235.118 982.859 235.673 985.479 235.836L984.86 236.764Z" fill="#FBFBFB" stroke="black" stroke-width="0.623178"/>
<path fill-rule="evenodd" clip-rule="evenodd" d="M991.025 360.153C995.91 358.496 996.18 354.197 997.769 350.507C1000.4 355.403 1006.8 355.676 1014.34 354.566C1019.84 353.207 1021.42 355.46 1023.48 357.272C1024.61 353.568 1021.9 348.801 1016.37 347.801C1010.57 348.378 1006.03 348.003 1003.52 346.109C1004.8 344.903 1009.49 344.317 1013.67 343.065C1007.98 335.78 1005.09 339.063 1000.89 338.461C997.641 335.803 996.581 333.408 995.476 331.019C996.822 330.239 1002.26 332.015 1007.92 333.931C1005.91 327.503 1003.05 327.991 999.799 325.474C995.359 323.884 995.881 321.467 994.387 319.386C997.379 321.075 999.568 323.122 1004.87 323.783C996.665 315.314 995.517 310.716 995.74 306.869C1001.15 305.371 1007.19 323.758 1009.27 329.195C1010.92 327.514 1012.32 325.514 1015.02 325.136C1018.26 328.711 1022.13 331.449 1026.18 333.931C1023.42 336.019 1019.89 331.233 1017.05 333.593C1013.83 337.708 1015.4 340.694 1016.71 343.741C1016.6 340.876 1018.26 340.454 1020.33 340.585C1022.52 341.067 1024.07 340.101 1025.17 338.111C1026.34 336.817 1027.51 336.821 1028.68 336.873C1028.59 340.613 1029.39 345.352 1027.54 347.08C1025.74 352.935 1030.7 350.733 1028.99 356.668C1031.12 355.422 1032.99 354.979 1034.86 350.07C1034.62 346.474 1033.72 346.107 1032.7 345.121L1032.49 338.317C1034.9 339.784 1037.11 341.546 1038.16 344.915C1039.35 350.686 1044.46 344.948 1046.1 350.895C1048.07 344.919 1046.09 339.344 1042.29 339.038C1037.86 339.787 1034.87 336.568 1034.76 334.296C1038.45 333.869 1042.72 335.805 1045.69 331.409C1046.4 330.8 1047.1 330.164 1048.88 330.894C1046.72 327.274 1044.66 325.933 1041.46 325.429C1036.36 324.14 1037.25 331.147 1031.98 332.44L1028.26 331.512L1017.44 322.646L1021.67 321.202C1014.87 316.056 1013.18 308.128 1009.09 301.51C1011.24 298.896 1014.85 314.047 1021.77 316.975C1022.28 313.71 1017.2 309.552 1013.52 298.417C1016.23 297.147 1019.47 312.301 1031.56 318.934C1034.17 320.244 1036.38 319.616 1038.16 318.728C1030.94 310.593 1025.56 302.012 1021.36 292.231C1021.61 291.325 1021.88 290.451 1023.21 292.231C1027.06 302.194 1033.76 308.424 1043.83 313.985C1036.54 306.806 1030.79 298.856 1025.69 290.582C1025.56 288.224 1026.33 287.819 1027.85 289.035C1030.8 294.086 1033.91 299.047 1039.3 302.747C1042.67 303.944 1045.58 303.541 1047.85 300.892C1039.95 296.357 1036.61 287.672 1031.41 280.684C1030.92 278.118 1032.09 278.307 1033.21 278.416C1035.48 284.515 1041.3 289.091 1047.34 293.572L1049.19 293.262C1043.33 287.377 1038.87 280.794 1034.04 274.395C1034.34 273.613 1033.64 272.356 1035.48 273.364C1037.63 275.696 1039.51 277.994 1042.7 280.066C1045.09 281.177 1047.15 280.808 1048.99 279.447C1043.69 274.956 1039.88 270.02 1037.34 264.704L1038.06 262.848C1040.28 266.648 1043.54 269.667 1047.96 271.818L1037.96 257.693C1037.82 256.214 1038.53 256.438 1039.19 256.559C1040.91 258.894 1042.93 261.683 1048.27 259.961C1039.5 253.955 1041.25 238.31 1036.2 232.021C1031.51 226.991 1024.91 229.352 1022.28 231.815C1019.03 236.451 1019.08 242.472 1023.42 243.775C1026.07 246.405 1025.39 249.221 1023.11 252.126C1018.69 258.24 1013.98 263.346 1008.47 265.632C1001.87 266.622 1000.1 264.539 999.499 261.714C1003.54 261.89 1006.22 260.334 1007.23 256.662C1000.78 257.398 997.639 256.408 998.056 253.569C1002.95 254.235 1004.27 252.717 1004.24 250.373C1001.78 252.747 1001 250.605 999.602 248.723C998.84 247.461 999.343 241.788 1000.53 239.96C1001.31 237.898 1001.97 235.836 1000.32 233.774C999.551 232.743 999.225 231.712 1000.63 230.681C1003.17 231.028 1003.91 228.696 1004.86 226.66C1000.6 228.134 995.486 228.242 991.664 226.454C987.439 224.646 982.041 224.351 980.117 227.794C975.403 228.559 973.319 230.728 974.034 233.774L975.271 236.248C975.554 231.832 985.924 235.222 985.065 236.867L979.395 237.382C982.821 239.214 987.634 240.794 987.127 245.424C986.36 251.788 980.902 250.515 977.024 250.476C976.602 252.544 977.522 254.421 980.941 255.94C978.742 256.91 977.034 258.989 973.828 257.693C973.439 260.286 976.643 261.818 980.529 262.848C977.352 265.625 973.772 266.385 969.647 263.899C964.283 261.84 963.339 257.738 958.92 251.624C957.642 248.97 957.213 246.154 958.611 243.273C962.945 241.97 963.001 235.949 959.745 231.313C957.115 228.85 950.516 226.489 945.826 231.519C940.775 237.808 942.526 253.453 933.764 259.459C939.099 261.182 941.119 258.392 942.837 256.057C943.498 255.936 944.212 255.712 944.074 257.191L934.073 271.316C938.492 269.165 941.751 266.146 943.971 262.346L944.692 264.202C942.147 269.518 938.337 274.454 933.042 278.945C934.882 280.306 936.942 280.675 939.331 279.564C942.521 277.492 944.398 275.194 946.548 272.862C948.385 271.854 947.69 273.112 947.992 273.893C943.159 280.292 938.695 286.875 932.836 292.76L934.692 293.07C940.733 288.589 946.552 284.013 948.816 277.914C949.937 277.805 951.105 277.616 950.621 280.182C945.416 287.17 942.079 295.855 934.176 300.39C936.448 303.039 939.362 303.443 942.733 302.246C948.114 298.545 951.226 293.584 954.177 288.533C955.698 287.318 956.471 287.722 956.343 290.08C951.241 298.354 945.49 306.304 938.197 313.483C948.267 307.922 954.974 301.692 958.817 291.729C960.148 289.949 960.417 290.823 960.673 291.729C956.467 301.51 951.092 310.091 943.868 318.226C945.648 319.114 947.861 319.742 950.466 318.432C962.563 311.799 965.795 296.645 968.508 297.915C964.831 309.05 959.745 313.208 960.26 316.473C967.176 313.545 970.792 298.395 972.942 301.008C968.847 307.626 967.155 315.554 960.363 320.7L964.591 322.144L953.765 331.01L950.054 331.938C944.775 330.645 945.664 323.638 940.568 324.927C937.366 325.431 935.305 326.772 933.145 330.392C934.932 329.662 935.626 330.298 936.341 330.907C939.307 335.303 943.581 333.367 947.27 333.794C947.161 336.066 944.171 339.285 939.744 338.537C935.937 338.842 933.963 344.417 935.929 350.393C937.566 344.447 942.684 350.184 943.868 344.413C944.922 341.044 947.125 339.282 949.538 337.815L949.332 344.619C948.308 345.605 947.408 345.973 947.167 349.568C949.035 354.477 950.913 354.92 953.043 356.167C951.331 350.231 956.289 352.433 954.487 346.578C952.644 344.85 953.436 340.111 953.353 336.371C954.521 336.319 955.69 336.315 956.858 337.609C957.955 339.599 959.508 340.565 961.704 340.083C963.768 339.953 965.431 340.374 965.316 343.239C966.628 340.192 968.201 337.206 964.978 333.091C962.14 330.731 958.614 335.517 955.845 333.429C959.903 330.947 963.769 328.209 967.008 324.634C969.705 325.012 971.104 327.012 972.758 328.694C974.84 323.256 980.881 304.869 986.289 306.368C986.512 310.214 985.364 314.812 977.156 323.281C982.461 322.62 984.65 320.573 987.642 318.884C986.148 320.965 986.67 323.382 982.23 324.973C978.979 327.489 976.114 327.001 974.111 333.429C979.772 331.513 985.207 329.737 986.553 330.517C985.448 332.906 984.388 335.301 981.141 337.959C976.935 338.561 974.051 335.278 968.361 342.563C972.535 343.815 977.227 344.401 978.509 345.607C975.998 347.501 971.461 347.876 965.655 347.299C960.124 348.299 957.419 353.066 958.551 356.77C960.609 354.958 962.19 352.705 967.684 354.064C975.225 355.174 981.634 354.901 984.26 350.005C985.849 353.695 986.119 357.994 991.025 360.153Z" fill="#060606" stroke="black" stroke-width="0.351749"/>
<path fill-rule="evenodd" clip-rule="evenodd" d="M983.828 229.547C984.727 238.848 990.228 235.424 995.685 232.125C995.555 228.051 987.78 230.406 983.828 229.547Z" fill="white" stroke="black" stroke-width="0.351749"/>
<path d="M990.425 231.918C990.425 232.328 990.235 232.722 989.896 233.012C989.558 233.302 989.099 233.465 988.621 233.465C988.142 233.465 987.683 233.302 987.345 233.012C987.006 232.722 986.816 232.328 986.816 231.918C986.816 231.508 987.006 231.115 987.345 230.825C987.683 230.535 988.142 230.372 988.621 230.372C989.099 230.372 989.558 230.535 989.896 230.825C990.235 231.115 990.425 231.508 990.425 231.918Z" fill="#0A0A0A" stroke="black" stroke-width="1.18715" stroke-linecap="round" stroke-linejoin="round"/>
<path d="M955.268 254.818C957.167 272.161 972.557 285.849 991.234 285.849C1009.27 285.849 1024.25 273.08 1027.05 256.379C1021.49 269.076 1008.29 278.101 992.74 278.572V273.78H997.005V269.526H992.74V265.975H988.97V269.526H984.705V273.78H988.97V278.517C973.371 277.595 960.303 268.049 955.268 254.818Z" fill="#FFFDFF" stroke="white" stroke-width="0.249271" stroke-linecap="round"/>
<path d="M992.884 353.308C992.884 370.488 986.117 386.964 974.073 399.111C962.028 411.259 945.692 418.083 928.659 418.083C911.625 418.083 895.289 411.259 883.245 399.111C871.2 386.964 864.434 370.488 864.434 353.308C864.434 336.129 871.2 319.653 883.245 307.506C895.289 295.358 911.625 288.533 928.659 288.533C945.692 288.533 962.028 295.358 974.073 307.506C986.117 319.653 992.884 336.129 992.884 353.308Z" fill="#FBFBFB" stroke="black" stroke-width="1.60942" stroke-linecap="round" stroke-linejoin="round"/>
<path fill-rule="evenodd" clip-rule="evenodd" d="M938.455 300.355C937.621 300.375 936.773 300.583 935.893 301.069C934.196 301.521 932.538 303.585 930.419 301.927C927.89 301.507 926.121 299.983 921.67 302.476C920.795 304.351 918.576 304.191 916.547 304.334C912.297 304.997 909.765 307.254 907.446 309.698C906.37 311.374 906.521 313.514 903.258 314.37C901.054 315.484 899.103 317.163 897.652 319.932C897.034 322.065 896.636 324.421 894.277 324.812C890.106 328.314 889.391 331.819 889.397 335.321C890.713 336.378 893.327 336.139 892.76 339.08C892.267 342.223 892.837 346.66 890.43 347.478C888.55 348.516 889.283 351.505 889.034 353.766C890.092 357.156 887.92 357.322 886.934 358.668C885.025 362.324 883.863 365.741 887.165 367.759C889.212 368.342 892.252 367.718 890.891 372.419L888.561 376.388C886.226 381.266 888.063 386.529 892.059 389.9C892.819 387.436 893.206 384.748 895.321 384.544C894.328 388.005 892.448 391.483 898.124 394.799C899.803 396.692 902.189 397.553 904.884 398.768C906.177 397.816 907.057 396.596 907.446 395.041C908.889 394.594 909.605 395.417 910.479 395.965C907.629 397.858 908.031 399.574 915.844 400.867C920.158 402.132 922.375 399.052 924.473 395.734C925.123 397.375 922.924 399.387 921.917 401.329C927.028 402.374 933.7 400.273 936.366 395.503C936.907 393.848 937.107 392.094 936.597 390.139C937.833 390.011 938.061 391.734 938.695 393.867C941.657 391.855 944.714 388.544 946.622 385.478C948.507 382.933 948.61 378.374 955.712 381.752C958.782 383.688 962.236 384.043 966.21 382.213C969.385 379.037 972.347 375.716 972.266 370.32C972.042 367.28 972.238 364.824 973.662 364.032C975.682 360.85 974.982 356.647 974.696 352.6C974.043 350.899 974.082 349.435 974.597 348.171C976.203 344.128 975.434 340.742 974.366 337.442C971.186 335.567 970.85 332.341 971.101 328.824C970.874 323.038 969.339 322.785 967.606 321.592C964.274 320.082 964.031 318.851 963.868 316.458C963.476 314.098 960.969 311.939 959.439 311.336C958.028 311.362 956.49 310.871 956.427 308.951C955.118 305.326 952.649 305.148 949.886 304.576C947.83 304.651 946.032 304.403 944.291 302.245C942.374 301.364 940.465 300.306 938.455 300.355ZM918.57 314.172C920.958 318.674 925.73 317.819 931.046 315.733C928.254 320.787 935.484 321.211 943.324 318.69C946.777 322.882 951.225 326.429 950.711 333.188C949.885 338.333 957.528 341.504 956.713 347.412L953.119 343.53C950.688 349.206 947.93 358.252 951.535 361.999C951.785 362.809 951.611 363.817 951.92 364.868C948.752 364.497 949.106 360.875 947.756 359.367C944.506 368.837 933.666 376.965 929.287 375.585C929.737 369.95 928.967 365.761 927.122 363.505C925.455 361.466 924.384 359.482 924.297 355.447L910.636 354.801C905.311 357.167 903.02 365.182 901.301 364.406C898.889 364.714 900.183 359.276 899.641 353.975C897.083 349.141 901.177 341.131 902.224 338.915L902.785 335.782C904.886 325.642 909.582 317.918 918.57 314.172Z" fill="#060606"/>
<path d="M988.506 353.308C988.506 369.23 982.201 384.499 970.977 395.757C959.754 407.015 944.532 413.34 928.659 413.34C912.787 413.34 897.565 407.015 886.341 395.757C875.118 384.499 868.812 369.23 868.812 353.308C868.812 337.387 875.118 322.118 886.341 310.86C897.565 299.601 912.787 293.277 928.659 293.277C944.532 293.277 959.754 299.601 970.977 310.86C982.201 322.118 988.506 337.387 988.506 353.308Z" stroke="black" stroke-width="1.49563" stroke-linecap="round" stroke-linejoin="round"/>
<path d="M902.723 336.539C905.831 336.521 910.282 333.03 912.543 333.078C912.883 332.962 917.209 332.598 918.124 337.458C915.285 339.897 913.35 344.7 909.575 344.593C905.315 345.134 904.916 339.4 902.723 336.539Z" stroke="black" stroke-width="1.24636"/>
<path fill-rule="evenodd" clip-rule="evenodd" d="M917.913 337.528C918.657 335.317 918.83 333.098 918.44 332.2C915.464 329.738 908.08 329.054 905.228 328.991C904.37 328.88 904.181 329.277 904.207 329.404C906.216 331.788 918.433 331.351 917.913 337.528Z" fill="#040404" stroke="black" stroke-width="0.351749"/>
<path fill-rule="evenodd" clip-rule="evenodd" d="M918.775 349.749C919.274 344.84 922.929 340.697 924.08 333.394C926.921 332.883 929.08 333.146 930.032 334.775C932.47 336.232 935.961 336.754 939.512 337.22C945.235 339.327 941.761 342.545 945.157 345L943.925 345.528C942.35 340.442 939.279 337.486 933.549 338.317L925.283 340.252C922.448 343.489 919.951 346.745 919.483 350.107C918.995 350.267 918.781 350.058 918.775 349.749Z" fill="#080808" stroke="black" stroke-width="0.351749"/>
<path d="M924.469 339.789C924.696 346.124 927.549 351.321 932.108 352.978C934.278 352.58 937.305 350.847 941.726 347.414C938.569 344.895 932.166 335.715 925.004 339.922" stroke="black" stroke-width="1.37099"/>
<path fill-rule="evenodd" clip-rule="evenodd" d="M925.271 342.865C935.126 348.083 935.215 350.092 939.184 348.885L934.368 351.962C936.793 349.67 930.339 347.881 925.004 344.203L925.271 342.865Z" fill="black" stroke="black" stroke-width="0.351749"/>
<path fill-rule="evenodd" clip-rule="evenodd" d="M904.402 339.655C906.965 339.787 914.524 340.618 917.379 338.451L915.372 340.859L905.205 340.993L904.402 339.655Z" fill="black" stroke="black" stroke-width="0.351749"/>
<path fill-rule="evenodd" clip-rule="evenodd" d="M922.462 349.914C919.869 354.084 913.574 347.048 909.752 349.398C906.289 351.717 908.338 355.37 911.863 355.729C913.255 356.323 914.783 356.577 916.612 356.081C918.214 356.629 919.797 357.098 921.184 356.784C922.586 356.51 923.751 355.59 923.623 353.349C922.599 352.459 922.465 351.701 922.462 349.914Z" fill="#FBFBFB"/>
<path fill-rule="evenodd" clip-rule="evenodd" d="M913.345 345.637C913.984 348.678 911.83 348.835 911.867 352.121C910.961 357.984 918.453 352.676 917.284 356.143C915.294 356.191 913.396 356.836 911.127 355.079C910.715 352.957 910.726 350.682 911.129 348.264C912.151 347.558 912.66 346.545 913.345 345.637Z" fill="#4F4F4F" stroke="#4F4F4F" stroke-width="0.351749"/>
<path d="M918.02 337.614C915.4 341.566 913.928 347.048 910.106 349.397C906.642 351.717 908.692 355.369 912.216 355.729C913.608 356.323 915.137 356.577 916.965 356.081C918.568 356.629 920.15 357.097 921.538 356.784C922.94 356.509 924.104 355.59 923.977 353.349C923.469 352.028 922.752 351.239 922.816 349.913" stroke="black" stroke-width="1.24651" stroke-linecap="round"/>
<path fill-rule="evenodd" clip-rule="evenodd" d="M905.25 369.621C904.855 377.286 912.076 382.972 920.526 374.655C922.662 368.378 909.661 363.744 905.25 369.621Z" fill="#FBFBFB" stroke="black" stroke-width="1.49563"/>
<path fill-rule="evenodd" clip-rule="evenodd" d="M905.424 373.092C912.186 371.208 915.17 373.351 918.27 376.044C917.332 377.131 916.995 377.951 915.145 378.127C921.105 376.146 906.06 369.579 908.028 376.738L905.424 373.092Z" fill="#0D0D0D"/>
<path fill-rule="evenodd" clip-rule="evenodd" d="M905.492 366.689C907.487 362.716 909.043 358.521 913.798 359.574C914.004 358.333 914.343 357.359 915.798 357.396C917.333 357.435 917.324 358.161 917.22 360.434C925.092 362.208 919.376 366.779 922.692 369.172C922.284 370.825 921.187 371.446 919.362 370.974C916.679 368.166 913.139 362.767 908.601 367.552C908.925 363.167 913.638 363.145 918.331 366.501C918.354 364.206 918.698 364.202 914.167 364.104C914.476 362.107 913.389 363.209 910.496 363.062C909.537 364.009 908.174 365.354 906.507 367.404C905.884 367.56 905.956 367.325 905.492 366.689Z" fill="white" stroke="black" stroke-width="0.351749"/>
<path d="M867.339 242.05C867.339 242.109 867.323 242.168 867.292 242.222C867.261 242.277 867.216 242.326 867.158 242.368C867.101 242.41 867.033 242.443 866.958 242.466C866.883 242.488 866.802 242.5 866.721 242.5C866.64 242.5 866.56 242.488 866.485 242.466C866.41 242.443 866.342 242.41 866.284 242.368C866.227 242.326 866.181 242.277 866.15 242.222C866.119 242.168 866.103 242.109 866.104 242.05C866.103 241.991 866.119 241.933 866.15 241.878C866.181 241.824 866.227 241.774 866.284 241.733C866.342 241.691 866.41 241.658 866.485 241.635C866.56 241.612 866.64 241.601 866.721 241.601C866.802 241.601 866.883 241.612 866.958 241.635C867.033 241.658 867.101 241.691 867.158 241.733C867.216 241.774 867.261 241.824 867.292 241.878C867.323 241.933 867.339 241.991 867.339 242.05Z" stroke="black" stroke-width="1.19375" stroke-linecap="round"/>
<defs>
<linearGradient id="paint0_linear_21_72093" x1="962" y1="943" x2="962" y2="1037" gradientUnits="userSpaceOnUse">
<stop stop-color="#F9AA4B"/>
<stop offset="1" stop-color="#F7931A"/>
</linearGradient>
</defs>
</svg>
