<svg width="15" height="15" viewBox="0 0 15 15" fill="none" xmlns="http://www.w3.org/2000/svg">
<g clip-path="url(#clip0_771_3307)">
<rect width="15" height="15" fill="#1A47B8"/>
<path fill-rule="evenodd" clip-rule="evenodd" d="M-0.766028 0H-3V2.5L15.7539 15L18 15V12.5L-0.766028 0Z" fill="white"/>
<path d="M-2.2549 0L18 13.5354V15H17.2724L-3 1.45056V0H-2.2549Z" fill="#F93939"/>
<path fill-rule="evenodd" clip-rule="evenodd" d="M16 0H18V2.5C18 2.5 5.0098 10.8281 -1 15H-3V12.5L16 0Z" fill="white"/>
<path d="M18 0H17.3218L-3 13.5471V15H-2.2549L18 1.46151V0Z" fill="#F93939"/>
<path fill-rule="evenodd" clip-rule="evenodd" d="M4.63708 0H10.3804V4.62682H18V10.3701H10.3804V15H4.63708V10.3701H-3V4.62682H4.63708V0Z" fill="white"/>
<path fill-rule="evenodd" clip-rule="evenodd" d="M5.8421 0H9.15789V5.76923H18V9.23077H9.15789V15H5.8421V9.23077H-3V5.76923H5.8421V0Z" fill="#F93939"/>
</g>
<defs>
<clipPath id="clip0_771_3307">
<rect width="15" height="15" fill="white"/>
</clipPath>
</defs>
</svg>
