<?xml version="1.0" standalone="no"?>
<!DOCTYPE svg PUBLIC "-//W3C//DTD SVG 20010904//EN"
 "http://www.w3.org/TR/2001/REC-SVG-20010904/DTD/svg10.dtd">
<svg version="1.0" xmlns="http://www.w3.org/2000/svg"
 width="688.000000pt" height="688.000000pt" viewBox="0 0 688.000000 688.000000"
 preserveAspectRatio="xMidYMid meet">
<metadata>
Created by potrace 1.14, written by Peter Selinger 2001-2017
</metadata>
<g transform="translate(0.000000,688.000000) scale(0.100000,-0.100000)"
fill="#000000" stroke="none">
<path d="M3215 6870 c-653 -67 -1245 -341 -1687 -782 -392 -392 -631 -872
-723 -1453 -25 -155 -31 -513 -11 -656 77 -551 398 -1241 944 -2029 421 -608
880 -1171 1430 -1757 146 -155 187 -183 267 -183 85 0 119 25 318 238 506 540
965 1101 1320 1612 48 69 108 153 133 187 139 193 366 578 513 873 197 397
310 730 357 1050 20 143 15 507 -11 670 -32 210 -102 463 -171 620 -216 495
-546 889 -981 1174 -333 218 -738 368 -1138 421 -145 20 -437 27 -560 15z
m326 -1210 c476 -48 903 -305 1174 -706 59 -88 146 -266 180 -368 52 -157 66
-240 72 -446 5 -170 3 -211 -16 -319 -86 -505 -407 -940 -860 -1166 -511 -255
-1130 -209 -1611 119 -167 114 -383 358 -493 556 -238 431 -248 982 -27 1446
106 222 328 479 530 613 323 215 682 308 1051 271z"/>
<path d="M3317 5103 c-8 -27 -25 -90 -38 -142 -13 -51 -29 -96 -36 -98 -6 -3
-89 16 -183 41 -95 25 -178 46 -185 46 -10 0 -56 -144 -55 -177 0 -7 19 -17
43 -23 130 -34 177 -64 177 -113 0 -31 -221 -850 -233 -866 -23 -28 -54 -30
-126 -11 -39 11 -75 20 -81 20 -14 0 -103 -192 -93 -200 5 -4 80 -26 167 -50
88 -23 169 -46 182 -50 l23 -9 -39 -147 c-22 -82 -37 -150 -35 -153 6 -5 178
-51 181 -48 1 1 19 65 39 142 20 77 40 143 43 147 6 6 139 -26 149 -35 2 -2
-12 -62 -31 -133 -19 -71 -36 -137 -38 -148 -3 -16 11 -22 86 -42 49 -14 91
-22 93 -20 3 2 22 68 43 146 21 78 40 143 42 145 2 2 46 -3 98 -11 130 -22
284 -15 365 16 108 42 193 150 230 295 37 146 -3 257 -126 346 l-59 43 46 15
c59 19 129 81 161 145 21 40 27 70 31 138 4 76 1 92 -20 140 -44 93 -137 168
-291 233 -50 21 -66 32 -63 44 36 117 74 277 68 282 -8 9 -173 52 -178 47 -1
-2 -19 -64 -39 -138 -21 -74 -39 -138 -41 -142 -4 -5 -141 25 -149 34 -2 2 11
60 30 128 18 69 35 134 37 144 2 17 -9 23 -77 43 -44 12 -85 23 -92 23 -7 0
-19 -21 -26 -47z m240 -555 c167 -55 238 -125 230 -226 -4 -60 -27 -97 -78
-127 -49 -29 -203 -27 -319 4 -47 12 -88 25 -92 29 -4 4 14 87 40 185 l47 179
40 -7 c21 -3 81 -20 132 -37z m-185 -538 c194 -54 299 -115 338 -196 38 -78 8
-173 -70 -218 -30 -18 -51 -21 -155 -21 -98 1 -140 6 -230 29 -60 16 -113 31
-117 35 -5 5 73 317 97 389 6 17 19 16 137 -18z"/>
</g>
</svg>
